M48
; DRILL file {KiCad (6.0.10)} date Mon Jan 23 12:03:10 2023
; FORMAT={-:-/ absolute / metric / decimal}
; #@! TF.CreationDate,2023-01-23T12:03:10-06:00
; #@! TF.GenerationSoftware,Kicad,Pcbnew,(6.0.10)
; #@! TF.FileFunction,Plated,1,2,PTH
FMAT,2
METRIC
; #@! TA.AperFunction,Plated,PTH,ViaDrill
T1C0.400
; #@! TA.AperFunction,Plated,PTH,ComponentDrill
T2C0.850
; #@! TA.AperFunction,Plated,PTH,ComponentDrill
T3C0.900
; #@! TA.AperFunction,Plated,PTH,ComponentDrill
T4C1.500
; #@! TA.AperFunction,Plated,PTH,ComponentDrill
T5C3.683
%
G90
G05
T1
X12.55Y-69.3
X13.2Y-15.7
X13.3Y-104.0
X13.35Y-137.45
X13.55Y-38.35
X16.55Y-31.4
X32.6Y-39.5
X34.15Y-136.4
X37.4Y-121.5
X38.25Y-13.8
X38.5Y-66.6
X40.65Y-24.0
X42.45Y-85.25
X48.8Y-113.1
X49.15Y-101.4
X52.75Y-133.5
X59.9Y-137.25
X60.05Y-121.3
X73.7Y-30.6
X76.65Y-64.9
X82.55Y-83.4
X86.5Y-37.8
X87.35Y-14.65
X87.95Y-102.1
X89.8Y-24.0
X90.25Y-123.1
X103.3Y-136.4
X111.8Y-30.05
X113.95Y-61.35
X120.65Y-123.35
X122.1Y-81.95
X130.4Y-36.9
X130.45Y-14.3
X130.8Y-101.05
X133.4Y-24.4
X146.1Y-136.55
X154.6Y-63.85
X159.425Y-29.525
X160.45Y-82.4
X166.8Y-100.9
X169.75Y-123.9
X173.4Y-14.5
X175.75Y-23.35
X185.6Y-64.2
X186.4Y-136.8
X196.65Y-83.95
X197.525Y-28.875
X203.55Y-124.4
X203.9Y-99.2
X213.45Y-40.15
X216.9Y-14.15
X217.0Y-24.9
X225.15Y-63.7
X230.15Y-84.05
X242.0Y-102.1
X245.15Y-28.35
X256.45Y-23.6
X257.35Y-38.05
X258.05Y-122.85
X259.7Y-14.6
X268.7Y-84.6
X282.6Y-63.85
X283.25Y-27.8
X299.15Y-23.75
X300.2Y-14.4
X301.95Y-100.75
X306.15Y-123.0
X307.55Y-84.2
X308.5Y-41.35
X315.7Y-137.95
X328.295Y-27.195
X336.2Y-64.75
X342.1Y-14.35
X351.95Y-84.35
X356.1Y-22.7
X356.6Y-121.4
X358.4Y-137.1
X358.85Y-17.85
X362.15Y-65.8
X374.2Y-27.288
X376.0Y-13.4
X383.9Y-32.75
X384.2Y-41.35
X385.4Y-85.1
X385.65Y-105.25
X386.0Y-66.1
X386.95Y-55.25
X389.45Y-53.3
X391.05Y-122.45
X391.3Y-56.75
X392.9Y-13.6
X399.3Y-67.15
X400.4Y-137.55
X401.25Y-132.95
X401.95Y-132.15
X402.05Y-38.3
X402.75Y-114.45
X403.3Y-111.65
X404.2Y-94.85
X404.4Y-93.8
X404.95Y-74.7
X405.966Y-74.7
X406.05Y-55.7
X406.113Y-75.763
X406.6Y-103.0
X406.65Y-57.3
X406.9Y-124.0
X407.75Y-84.05
X408.8Y-65.3
X419.7Y-122.25
X429.9Y-85.45
X432.0Y-65.65
X434.7Y-109.2
X437.5Y-37.65
X438.15Y-15.15
X438.15Y-136.55
T2
X376.753Y-21.55
X376.753Y-24.09
X376.753Y-26.63
X376.753Y-29.17
X376.753Y-31.71
X376.753Y-34.25
X376.753Y-36.79
X376.753Y-39.33
X376.753Y-41.87
X376.753Y-44.41
X376.753Y-46.95
X376.753Y-49.49
X379.293Y-31.71
X379.293Y-49.49
X381.833Y-49.49
X384.373Y-49.49
X386.913Y-49.49
X389.453Y-31.71
X389.453Y-49.49
X391.993Y-21.55
X391.993Y-24.09
X391.993Y-26.63
X391.993Y-29.17
X391.993Y-31.71
X391.993Y-34.25
X391.993Y-36.79
X391.993Y-39.33
X391.993Y-41.87
X391.993Y-44.41
X391.993Y-46.95
X391.993Y-49.49
T3
X370.483Y-25.4
X373.023Y-25.4
X395.883Y-25.4
X398.423Y-25.4
X421.283Y-25.4
X423.823Y-25.4
T4
X16.55Y-15.05
X16.55Y-53.15
X18.931Y-91.25
X18.931Y-110.3
X18.931Y-129.35
X21.312Y-72.2
X21.312Y-99.75
X21.312Y-137.85
X21.55Y-14.55
X21.55Y-52.65
X23.694Y-91.25
X23.931Y-90.75
X23.931Y-109.8
X23.931Y-128.85
X26.312Y-71.7
X26.312Y-99.25
X26.312Y-137.35
X28.456Y-110.3
X28.694Y-90.75
X33.456Y-109.8
X35.6Y-53.15
X40.362Y-110.3
X40.6Y-52.65
X42.744Y-129.35
X45.125Y-72.2
X45.125Y-137.85
X45.362Y-109.8
X47.744Y-128.85
X49.887Y-91.25
X50.125Y-71.7
X50.125Y-137.35
X54.65Y-15.05
X54.65Y-53.15
X54.887Y-90.75
X59.412Y-110.3
X59.65Y-14.55
X59.65Y-52.65
X64.175Y-72.2
X64.412Y-109.8
X66.556Y-129.35
X68.938Y-91.25
X68.938Y-137.85
X69.175Y-71.7
X71.556Y-128.85
X73.7Y-15.05
X73.7Y-53.15
X73.938Y-90.75
X73.938Y-137.35
X78.462Y-110.3
X78.7Y-14.55
X78.7Y-52.65
X83.225Y-72.2
X83.462Y-109.8
X87.987Y-91.25
X88.225Y-71.7
X92.75Y-15.05
X92.75Y-53.15
X92.987Y-90.75
X97.512Y-110.3
X97.75Y-14.55
X97.75Y-52.65
X102.275Y-72.2
X102.512Y-109.8
X107.037Y-91.25
X107.275Y-71.7
X111.8Y-15.05
X111.8Y-53.15
X112.037Y-90.75
X116.562Y-110.3
X116.8Y-14.55
X116.8Y-52.65
X121.325Y-72.2
X121.562Y-109.8
X126.087Y-91.25
X126.325Y-71.7
X130.85Y-53.15
X131.088Y-90.75
X135.612Y-110.3
X135.85Y-52.65
X137.994Y-129.35
X140.375Y-15.05
X140.375Y-72.2
X140.612Y-109.8
X142.994Y-128.85
X145.137Y-91.25
X145.375Y-14.55
X145.375Y-71.7
X149.9Y-53.15
X149.9Y-129.35
X150.137Y-90.75
X154.662Y-110.3
X154.9Y-52.65
X154.9Y-128.85
X159.425Y-15.05
X159.425Y-72.2
X159.662Y-109.8
X164.188Y-91.25
X164.425Y-14.55
X164.425Y-71.7
X168.95Y-53.15
X169.188Y-90.75
X173.713Y-110.3
X173.95Y-52.65
X178.475Y-15.05
X178.475Y-72.2
X178.713Y-109.8
X183.237Y-91.25
X183.475Y-14.55
X183.475Y-71.7
X188.0Y-53.15
X188.237Y-90.75
X192.762Y-110.3
X193.0Y-52.65
X197.525Y-15.05
X197.525Y-72.2
X197.762Y-109.8
X202.287Y-91.25
X202.525Y-14.55
X202.525Y-71.7
X207.05Y-53.15
X207.287Y-90.75
X209.431Y-129.35
X211.812Y-110.3
X212.05Y-52.65
X214.431Y-128.85
X216.575Y-72.2
X216.812Y-109.8
X221.337Y-91.25
X221.575Y-71.7
X226.1Y-15.05
X226.1Y-53.15
X226.337Y-90.75
X230.862Y-110.3
X230.862Y-137.85
X231.1Y-14.55
X231.1Y-52.65
X233.244Y-129.35
X235.625Y-72.2
X235.862Y-109.8
X235.862Y-137.35
X238.244Y-128.85
X240.387Y-91.25
X240.625Y-71.7
X245.15Y-15.05
X245.15Y-53.15
X245.387Y-90.75
X250.15Y-14.55
X250.15Y-52.65
X254.675Y-72.2
X254.675Y-137.85
X257.056Y-110.3
X257.056Y-129.35
X259.438Y-91.25
X259.675Y-71.7
X259.675Y-137.35
X262.056Y-109.8
X262.056Y-128.85
X264.2Y-15.05
X264.438Y-90.75
X266.581Y-110.3
X269.2Y-14.55
X271.344Y-91.25
X271.581Y-109.8
X273.725Y-53.15
X276.344Y-90.75
X278.488Y-72.2
X278.488Y-137.85
X278.725Y-52.65
X280.869Y-81.725
X280.869Y-129.35
X283.25Y-15.05
X283.25Y-110.3
X283.488Y-71.7
X283.488Y-137.35
X284.591Y-83.225
X285.091Y-88.225
X285.869Y-81.225
X285.869Y-128.85
X287.369Y-83.225
X287.869Y-88.225
X288.25Y-14.55
X288.25Y-109.8
X290.147Y-83.225
X290.647Y-88.225
X309.245Y-15.05
X309.245Y-53.15
X309.245Y-72.2
X309.245Y-129.35
X314.245Y-14.55
X314.245Y-52.65
X314.245Y-71.7
X314.245Y-128.85
X328.295Y-15.05
X328.295Y-53.15
X328.295Y-72.2
X328.295Y-110.3
X328.295Y-129.35
X333.295Y-14.55
X333.295Y-52.65
X333.295Y-71.7
X333.295Y-109.8
X333.295Y-128.85
X347.345Y-15.05
X347.345Y-53.15
X347.345Y-72.2
X347.345Y-129.35
X352.345Y-14.55
X352.345Y-52.65
X352.345Y-71.7
X352.345Y-128.85
X373.341Y-61.65
X373.341Y-72.2
X373.341Y-91.25
X373.341Y-110.3
X378.341Y-61.15
X378.341Y-71.7
X378.341Y-90.75
X378.341Y-109.8
X382.866Y-129.35
X387.866Y-128.85
X392.391Y-61.65
X392.391Y-72.2
X392.391Y-91.25
X392.391Y-110.3
X397.391Y-61.15
X397.391Y-71.7
X397.391Y-90.75
X397.391Y-109.8
X411.441Y-53.15
X411.441Y-72.2
X411.441Y-91.25
X411.441Y-110.3
X411.441Y-129.35
X416.441Y-52.65
X416.441Y-71.7
X416.441Y-90.75
X416.441Y-109.8
X416.441Y-128.85
X428.491Y-121.325
X428.991Y-126.325
X430.491Y-53.15
X430.491Y-72.2
X430.491Y-99.75
X435.491Y-52.65
X435.491Y-71.7
X435.491Y-99.25
X436.991Y-83.225
X437.491Y-88.225
T5
X57.15Y-38.1
X180.975Y-38.1
X330.795Y-95.25
X349.845Y-38.1
X353.219Y-104.775
T0
M30
