%TF.GenerationSoftware,KiCad,Pcbnew,(6.0.10)*%
%TF.CreationDate,2023-01-23T12:02:21-06:00*%
%TF.ProjectId,AT101W,41543130-3157-42e6-9b69-6361645f7063,rev?*%
%TF.SameCoordinates,Original*%
%TF.FileFunction,Profile,NP*%
%FSLAX46Y46*%
G04 Gerber Fmt 4.6, Leading zero omitted, Abs format (unit mm)*
G04 Created by KiCad (PCBNEW (6.0.10)) date 2023-01-23 12:02:21*
%MOMM*%
%LPD*%
G01*
G04 APERTURE LIST*
%TA.AperFunction,Profile*%
%ADD10C,0.150000*%
%TD*%
G04 APERTURE END LIST*
D10*
X10318745Y-136921875D02*
G75*
G03*
X13493750Y-140096875I3175005J5D01*
G01*
X10318750Y-136921875D02*
X10318750Y-15081250D01*
X387151563Y-48021788D02*
G75*
G03*
X388342188Y-46831250I37J1190588D01*
G01*
X381396876Y-48021875D02*
X387151563Y-48021875D01*
X437554688Y-140096875D02*
X13493750Y-140096875D01*
X231775000Y-38199219D02*
G75*
G03*
X231775000Y-38199219I-5556250J0D01*
G01*
X441523438Y-15081250D02*
X441523438Y-136921875D01*
X391120313Y-19347656D02*
X391120313Y-13890625D01*
X13493750Y-11906250D02*
G75*
G03*
X10318750Y-15081250I0J-3175000D01*
G01*
X393104688Y-11906213D02*
G75*
G03*
X391120313Y-13890625I12J-1984387D01*
G01*
X380404688Y-28471875D02*
X380404688Y-22125781D01*
X381396876Y-43457751D02*
G75*
G03*
X380206251Y-44648438I24J-1190649D01*
G01*
X380206225Y-46831250D02*
G75*
G03*
X381396876Y-48021875I1190675J50D01*
G01*
X380206251Y-44648438D02*
X380206251Y-46831250D01*
X388342188Y-46831250D02*
X388342188Y-44648438D01*
X437554687Y-140096875D02*
X438348437Y-140096875D01*
X388342188Y-22125781D02*
X388342188Y-28471875D01*
X377626550Y-13890625D02*
G75*
G03*
X375642188Y-11906250I-1984350J25D01*
G01*
X441523450Y-15081250D02*
G75*
G03*
X438348438Y-11906250I-3175050J-50D01*
G01*
X387151563Y-43457813D02*
X381396876Y-43457813D01*
X438348438Y-140096938D02*
G75*
G03*
X441523438Y-136921875I-38J3175038D01*
G01*
X438348438Y-11906250D02*
X393104688Y-11906250D01*
X375642188Y-11906250D02*
X13493750Y-11906250D01*
X381595313Y-29662500D02*
X387151563Y-29662500D01*
X380404688Y-22125781D02*
X377626563Y-19347656D01*
X387151563Y-29662488D02*
G75*
G03*
X388342188Y-28471875I37J1190588D01*
G01*
X388342187Y-44648438D02*
G75*
G03*
X387151563Y-43457813I-1190587J38D01*
G01*
X317301563Y-114300000D02*
G75*
G03*
X317301563Y-114300000I-5556250J0D01*
G01*
X391120313Y-19347656D02*
X388342188Y-22125781D01*
X377626563Y-19347656D02*
X377626563Y-13890625D01*
X380404700Y-28471875D02*
G75*
G03*
X381595313Y-29662500I1190600J-25D01*
G01*
M02*
