%TF.GenerationSoftware,KiCad,Pcbnew,(6.0.10)*%
%TF.CreationDate,2023-01-23T12:02:21-06:00*%
%TF.ProjectId,AT101W,41543130-3157-42e6-9b69-6361645f7063,rev?*%
%TF.SameCoordinates,Original*%
%TF.FileFunction,Paste,Bot*%
%TF.FilePolarity,Positive*%
%FSLAX46Y46*%
G04 Gerber Fmt 4.6, Leading zero omitted, Abs format (unit mm)*
G04 Created by KiCad (PCBNEW (6.0.10)) date 2023-01-23 12:02:21*
%MOMM*%
%LPD*%
G01*
G04 APERTURE LIST*
G04 Aperture macros list*
%AMRoundRect*
0 Rectangle with rounded corners*
0 $1 Rounding radius*
0 $2 $3 $4 $5 $6 $7 $8 $9 X,Y pos of 4 corners*
0 Add a 4 corners polygon primitive as box body*
4,1,4,$2,$3,$4,$5,$6,$7,$8,$9,$2,$3,0*
0 Add four circle primitives for the rounded corners*
1,1,$1+$1,$2,$3*
1,1,$1+$1,$4,$5*
1,1,$1+$1,$6,$7*
1,1,$1+$1,$8,$9*
0 Add four rect primitives between the rounded corners*
20,1,$1+$1,$2,$3,$4,$5,0*
20,1,$1+$1,$4,$5,$6,$7,0*
20,1,$1+$1,$6,$7,$8,$9,0*
20,1,$1+$1,$8,$9,$2,$3,0*%
G04 Aperture macros list end*
%ADD10RoundRect,0.250000X-0.450000X0.262500X-0.450000X-0.262500X0.450000X-0.262500X0.450000X0.262500X0*%
%ADD11RoundRect,0.250000X0.450000X-0.262500X0.450000X0.262500X-0.450000X0.262500X-0.450000X-0.262500X0*%
%ADD12R,1.200000X0.900000*%
G04 APERTURE END LIST*
D10*
X373025000Y-20537500D03*
X373025000Y-22362500D03*
D11*
X401500000Y-27212500D03*
X401500000Y-25387500D03*
X427000000Y-27212500D03*
X427000000Y-25387500D03*
D12*
X26600000Y-17850000D03*
X26600000Y-14550000D03*
X64650000Y-17850000D03*
X64650000Y-14550000D03*
X83700000Y-17850000D03*
X83700000Y-14550000D03*
X102750000Y-17850000D03*
X102750000Y-14550000D03*
X121800000Y-17850000D03*
X121800000Y-14550000D03*
X150400000Y-17850000D03*
X150400000Y-14550000D03*
X169400000Y-17850000D03*
X169400000Y-14550000D03*
X188450000Y-17850000D03*
X188450000Y-14550000D03*
X207500000Y-17850000D03*
X207500000Y-14550000D03*
X236100000Y-17850000D03*
X236100000Y-14550000D03*
X255150000Y-17850000D03*
X255150000Y-14550000D03*
X274200000Y-17850000D03*
X274200000Y-14550000D03*
X293250000Y-17850000D03*
X293250000Y-14550000D03*
X319250000Y-17850000D03*
X319250000Y-14550000D03*
X338300000Y-17850000D03*
X338300000Y-14550000D03*
X357350000Y-17850000D03*
X357350000Y-14550000D03*
X26550000Y-55950000D03*
X26550000Y-52650000D03*
X45600000Y-55950000D03*
X45600000Y-52650000D03*
X64650000Y-55950000D03*
X64650000Y-52650000D03*
X83700000Y-55950000D03*
X83700000Y-52650000D03*
X102750000Y-55950000D03*
X102750000Y-52650000D03*
X121800000Y-55950000D03*
X121800000Y-52650000D03*
X140850000Y-55950000D03*
X140850000Y-52650000D03*
X159900000Y-55950000D03*
X159900000Y-52650000D03*
X178950000Y-55950000D03*
X178950000Y-52650000D03*
X198000000Y-55950000D03*
X198000000Y-52650000D03*
X217050000Y-55950000D03*
X217050000Y-52650000D03*
X236100000Y-55950000D03*
X236100000Y-52650000D03*
X255150000Y-55950000D03*
X255150000Y-52650000D03*
X283750000Y-55950000D03*
X283750000Y-52650000D03*
X319250000Y-55950000D03*
X319250000Y-52650000D03*
X338300000Y-55950000D03*
X338300000Y-52650000D03*
X357350000Y-55950000D03*
X357350000Y-52650000D03*
X368350000Y-58350000D03*
X368350000Y-61650000D03*
X387400000Y-58350000D03*
X387400000Y-61650000D03*
X421450000Y-55950000D03*
X421450000Y-52650000D03*
X439500000Y-55950000D03*
X439500000Y-52650000D03*
X31300000Y-75000000D03*
X31300000Y-71700000D03*
X55100000Y-75000000D03*
X55100000Y-71700000D03*
X74150000Y-75000000D03*
X74150000Y-71700000D03*
X93250000Y-75000000D03*
X93250000Y-71700000D03*
X112300000Y-75000000D03*
X112300000Y-71700000D03*
X131350000Y-75000000D03*
X131350000Y-71700000D03*
X150350000Y-75000000D03*
X150350000Y-71700000D03*
X169400000Y-75000000D03*
X169400000Y-71700000D03*
X188450000Y-75000000D03*
X188450000Y-71700000D03*
X207550000Y-75000000D03*
X207550000Y-71700000D03*
X226600000Y-75000000D03*
X226600000Y-71700000D03*
X245600000Y-75000000D03*
X245600000Y-71700000D03*
X264650000Y-75000000D03*
X264650000Y-71700000D03*
X288500000Y-75000000D03*
X288500000Y-71700000D03*
X319250000Y-75000000D03*
X319250000Y-71700000D03*
X338300000Y-75000000D03*
X338300000Y-71700000D03*
X357350000Y-75000000D03*
X357350000Y-71700000D03*
X383350000Y-75000000D03*
X383350000Y-71700000D03*
X402400000Y-75000000D03*
X402400000Y-71700000D03*
X421450000Y-75000000D03*
X421450000Y-71700000D03*
X439500000Y-75000000D03*
X439500000Y-71700000D03*
X33700000Y-94050000D03*
X33700000Y-90750000D03*
X59900000Y-94050000D03*
X59900000Y-90750000D03*
X78950000Y-94050000D03*
X78950000Y-90750000D03*
X98000000Y-94050000D03*
X98000000Y-90750000D03*
X117050000Y-94050000D03*
X117050000Y-90750000D03*
X136100000Y-94050000D03*
X136100000Y-90750000D03*
X155150000Y-94050000D03*
X155150000Y-90750000D03*
X174200000Y-94050000D03*
X174200000Y-90750000D03*
X193250000Y-94050000D03*
X193250000Y-90750000D03*
X212300000Y-94050000D03*
X212300000Y-90750000D03*
X231350000Y-94050000D03*
X231350000Y-90750000D03*
X250400000Y-94050000D03*
X250400000Y-90750000D03*
X281350000Y-94050000D03*
X281350000Y-90750000D03*
X383350000Y-94050000D03*
X383350000Y-90750000D03*
X402400000Y-94050000D03*
X402400000Y-90750000D03*
X421450000Y-94050000D03*
X421450000Y-90750000D03*
X425500000Y-96450000D03*
X425500000Y-99750000D03*
X26250000Y-115950000D03*
X26250000Y-112650000D03*
X69400000Y-113100000D03*
X69400000Y-109800000D03*
X88450000Y-113100000D03*
X88450000Y-109800000D03*
X107500000Y-113100000D03*
X107500000Y-109800000D03*
X126550000Y-113100000D03*
X126550000Y-109800000D03*
X145600000Y-113100000D03*
X145600000Y-109800000D03*
X164650000Y-113100000D03*
X164650000Y-109800000D03*
X183700000Y-113100000D03*
X183700000Y-109800000D03*
X202750000Y-113100000D03*
X202750000Y-109800000D03*
X221800000Y-113100000D03*
X221800000Y-109800000D03*
X240850000Y-113100000D03*
X240850000Y-109800000D03*
X264250000Y-115950000D03*
X264250000Y-112650000D03*
X293250000Y-113100000D03*
X293250000Y-109800000D03*
X338300000Y-113100000D03*
X338300000Y-109800000D03*
X383350000Y-113100000D03*
X383350000Y-109800000D03*
X402400000Y-113100000D03*
X402400000Y-109800000D03*
X421450000Y-113100000D03*
X421450000Y-109800000D03*
X428500000Y-114650000D03*
X428500000Y-117950000D03*
X28950000Y-132150000D03*
X28950000Y-128850000D03*
X52750000Y-132150000D03*
X52750000Y-128850000D03*
X76550000Y-132150000D03*
X76550000Y-128850000D03*
X146450000Y-132150000D03*
X146450000Y-128850000D03*
X219450000Y-132150000D03*
X219450000Y-128850000D03*
X264650000Y-134050000D03*
X264650000Y-137350000D03*
X267050000Y-132150000D03*
X267050000Y-128850000D03*
X290850000Y-132150000D03*
X290850000Y-128850000D03*
X319250000Y-132150000D03*
X319250000Y-128850000D03*
X338300000Y-132150000D03*
X338300000Y-128850000D03*
X357350000Y-132150000D03*
X357350000Y-128850000D03*
X392850000Y-132150000D03*
X392850000Y-128850000D03*
X421450000Y-132150000D03*
X421450000Y-128850000D03*
X50350000Y-113100000D03*
X50350000Y-109800000D03*
M02*
