%TF.GenerationSoftware,KiCad,Pcbnew,(6.0.10)*%
%TF.CreationDate,2023-01-23T12:02:21-06:00*%
%TF.ProjectId,AT101W,41543130-3157-42e6-9b69-6361645f7063,rev?*%
%TF.SameCoordinates,Original*%
%TF.FileFunction,Legend,Bot*%
%TF.FilePolarity,Positive*%
%FSLAX46Y46*%
G04 Gerber Fmt 4.6, Leading zero omitted, Abs format (unit mm)*
G04 Created by KiCad (PCBNEW (6.0.10)) date 2023-01-23 12:02:21*
%MOMM*%
%LPD*%
G01*
G04 APERTURE LIST*
G04 Aperture macros list*
%AMRoundRect*
0 Rectangle with rounded corners*
0 $1 Rounding radius*
0 $2 $3 $4 $5 $6 $7 $8 $9 X,Y pos of 4 corners*
0 Add a 4 corners polygon primitive as box body*
4,1,4,$2,$3,$4,$5,$6,$7,$8,$9,$2,$3,0*
0 Add four circle primitives for the rounded corners*
1,1,$1+$1,$2,$3*
1,1,$1+$1,$4,$5*
1,1,$1+$1,$6,$7*
1,1,$1+$1,$8,$9*
0 Add four rect primitives between the rounded corners*
20,1,$1+$1,$2,$3,$4,$5,0*
20,1,$1+$1,$4,$5,$6,$7,0*
20,1,$1+$1,$6,$7,$8,$9,0*
20,1,$1+$1,$8,$9,$2,$3,0*%
G04 Aperture macros list end*
%ADD10C,0.300000*%
%ADD11C,0.150000*%
%ADD12C,0.120000*%
%ADD13R,1.800000X1.800000*%
%ADD14C,1.800000*%
%ADD15C,2.500000*%
%ADD16C,3.048000*%
%ADD17C,6.350000*%
%ADD18C,1.450000*%
%ADD19RoundRect,0.250000X-0.450000X0.262500X-0.450000X-0.262500X0.450000X-0.262500X0.450000X0.262500X0*%
%ADD20RoundRect,0.250000X0.450000X-0.262500X0.450000X0.262500X-0.450000X0.262500X-0.450000X-0.262500X0*%
%ADD21R,1.200000X0.900000*%
G04 APERTURE END LIST*
D10*
X46100000Y-16885000D02*
X45385714Y-16885000D01*
X46242857Y-17313571D02*
X45742857Y-15813571D01*
X45242857Y-17313571D01*
X44957142Y-15813571D02*
X44100000Y-15813571D01*
X44528571Y-17313571D02*
X44528571Y-15813571D01*
X42814285Y-17313571D02*
X43671428Y-17313571D01*
X43242857Y-17313571D02*
X43242857Y-15813571D01*
X43385714Y-16027857D01*
X43528571Y-16170714D01*
X43671428Y-16242142D01*
X41885714Y-15813571D02*
X41742857Y-15813571D01*
X41600000Y-15885000D01*
X41528571Y-15956428D01*
X41457142Y-16099285D01*
X41385714Y-16385000D01*
X41385714Y-16742142D01*
X41457142Y-17027857D01*
X41528571Y-17170714D01*
X41600000Y-17242142D01*
X41742857Y-17313571D01*
X41885714Y-17313571D01*
X42028571Y-17242142D01*
X42100000Y-17170714D01*
X42171428Y-17027857D01*
X42242857Y-16742142D01*
X42242857Y-16385000D01*
X42171428Y-16099285D01*
X42100000Y-15956428D01*
X42028571Y-15885000D01*
X41885714Y-15813571D01*
X39957142Y-17313571D02*
X40814285Y-17313571D01*
X40385714Y-17313571D02*
X40385714Y-15813571D01*
X40528571Y-16027857D01*
X40671428Y-16170714D01*
X40814285Y-16242142D01*
X37671428Y-16527857D02*
X37457142Y-16599285D01*
X37385714Y-16670714D01*
X37314285Y-16813571D01*
X37314285Y-17027857D01*
X37385714Y-17170714D01*
X37457142Y-17242142D01*
X37600000Y-17313571D01*
X38171428Y-17313571D01*
X38171428Y-15813571D01*
X37671428Y-15813571D01*
X37528571Y-15885000D01*
X37457142Y-15956428D01*
X37385714Y-16099285D01*
X37385714Y-16242142D01*
X37457142Y-16385000D01*
X37528571Y-16456428D01*
X37671428Y-16527857D01*
X38171428Y-16527857D01*
X36671428Y-17313571D02*
X36671428Y-15813571D01*
X36671428Y-16527857D02*
X35814285Y-16527857D01*
X35814285Y-17313571D02*
X35814285Y-15813571D01*
X33957142Y-17313571D02*
X33957142Y-15813571D01*
X33385714Y-15813571D01*
X33242857Y-15885000D01*
X33171428Y-15956428D01*
X33100000Y-16099285D01*
X33100000Y-16313571D01*
X33171428Y-16456428D01*
X33242857Y-16527857D01*
X33385714Y-16599285D01*
X33957142Y-16599285D01*
X31600000Y-17170714D02*
X31671428Y-17242142D01*
X31885714Y-17313571D01*
X32028571Y-17313571D01*
X32242857Y-17242142D01*
X32385714Y-17099285D01*
X32457142Y-16956428D01*
X32528571Y-16670714D01*
X32528571Y-16456428D01*
X32457142Y-16170714D01*
X32385714Y-16027857D01*
X32242857Y-15885000D01*
X32028571Y-15813571D01*
X31885714Y-15813571D01*
X31671428Y-15885000D01*
X31600000Y-15956428D01*
X30457142Y-16527857D02*
X30242857Y-16599285D01*
X30171428Y-16670714D01*
X30100000Y-16813571D01*
X30100000Y-17027857D01*
X30171428Y-17170714D01*
X30242857Y-17242142D01*
X30385714Y-17313571D01*
X30957142Y-17313571D01*
X30957142Y-15813571D01*
X30457142Y-15813571D01*
X30314285Y-15885000D01*
X30242857Y-15956428D01*
X30171428Y-16099285D01*
X30171428Y-16242142D01*
X30242857Y-16385000D01*
X30314285Y-16456428D01*
X30457142Y-16527857D01*
X30957142Y-16527857D01*
X40385714Y-18228571D02*
X39885714Y-19728571D01*
X39385714Y-18228571D01*
X38957142Y-18371428D02*
X38885714Y-18300000D01*
X38742857Y-18228571D01*
X38385714Y-18228571D01*
X38242857Y-18300000D01*
X38171428Y-18371428D01*
X38100000Y-18514285D01*
X38100000Y-18657142D01*
X38171428Y-18871428D01*
X39028571Y-19728571D01*
X38100000Y-19728571D01*
X37457142Y-19585714D02*
X37385714Y-19657142D01*
X37457142Y-19728571D01*
X37528571Y-19657142D01*
X37457142Y-19585714D01*
X37457142Y-19728571D01*
X36457142Y-18228571D02*
X36314285Y-18228571D01*
X36171428Y-18300000D01*
X36100000Y-18371428D01*
X36028571Y-18514285D01*
X35957142Y-18800000D01*
X35957142Y-19157142D01*
X36028571Y-19442857D01*
X36100000Y-19585714D01*
X36171428Y-19657142D01*
X36314285Y-19728571D01*
X36457142Y-19728571D01*
X36600000Y-19657142D01*
X36671428Y-19585714D01*
X36742857Y-19442857D01*
X36814285Y-19157142D01*
X36814285Y-18800000D01*
X36742857Y-18514285D01*
X36671428Y-18371428D01*
X36600000Y-18300000D01*
X36457142Y-18228571D01*
X40671428Y-20786428D02*
X40600000Y-20715000D01*
X40457142Y-20643571D01*
X40100000Y-20643571D01*
X39957142Y-20715000D01*
X39885714Y-20786428D01*
X39814285Y-20929285D01*
X39814285Y-21072142D01*
X39885714Y-21286428D01*
X40742857Y-22143571D01*
X39814285Y-22143571D01*
X38885714Y-20643571D02*
X38742857Y-20643571D01*
X38600000Y-20715000D01*
X38528571Y-20786428D01*
X38457142Y-20929285D01*
X38385714Y-21215000D01*
X38385714Y-21572142D01*
X38457142Y-21857857D01*
X38528571Y-22000714D01*
X38600000Y-22072142D01*
X38742857Y-22143571D01*
X38885714Y-22143571D01*
X39028571Y-22072142D01*
X39100000Y-22000714D01*
X39171428Y-21857857D01*
X39242857Y-21572142D01*
X39242857Y-21215000D01*
X39171428Y-20929285D01*
X39100000Y-20786428D01*
X39028571Y-20715000D01*
X38885714Y-20643571D01*
X37814285Y-20786428D02*
X37742857Y-20715000D01*
X37600000Y-20643571D01*
X37242857Y-20643571D01*
X37100000Y-20715000D01*
X37028571Y-20786428D01*
X36957142Y-20929285D01*
X36957142Y-21072142D01*
X37028571Y-21286428D01*
X37885714Y-22143571D01*
X36957142Y-22143571D01*
X36457142Y-20643571D02*
X35528571Y-20643571D01*
X36028571Y-21215000D01*
X35814285Y-21215000D01*
X35671428Y-21286428D01*
X35600000Y-21357857D01*
X35528571Y-21500714D01*
X35528571Y-21857857D01*
X35600000Y-22000714D01*
X35671428Y-22072142D01*
X35814285Y-22143571D01*
X36242857Y-22143571D01*
X36385714Y-22072142D01*
X36457142Y-22000714D01*
D11*
X371827380Y-21283333D02*
X371351190Y-20950000D01*
X371827380Y-20711904D02*
X370827380Y-20711904D01*
X370827380Y-21092857D01*
X370875000Y-21188095D01*
X370922619Y-21235714D01*
X371017857Y-21283333D01*
X371160714Y-21283333D01*
X371255952Y-21235714D01*
X371303571Y-21188095D01*
X371351190Y-21092857D01*
X371351190Y-20711904D01*
X370827380Y-22188095D02*
X370827380Y-21711904D01*
X371303571Y-21664285D01*
X371255952Y-21711904D01*
X371208333Y-21807142D01*
X371208333Y-22045238D01*
X371255952Y-22140476D01*
X371303571Y-22188095D01*
X371398809Y-22235714D01*
X371636904Y-22235714D01*
X371732142Y-22188095D01*
X371779761Y-22140476D01*
X371827380Y-22045238D01*
X371827380Y-21807142D01*
X371779761Y-21711904D01*
X371732142Y-21664285D01*
X403602380Y-26133333D02*
X403126190Y-25800000D01*
X403602380Y-25561904D02*
X402602380Y-25561904D01*
X402602380Y-25942857D01*
X402650000Y-26038095D01*
X402697619Y-26085714D01*
X402792857Y-26133333D01*
X402935714Y-26133333D01*
X403030952Y-26085714D01*
X403078571Y-26038095D01*
X403126190Y-25942857D01*
X403126190Y-25561904D01*
X402602380Y-26990476D02*
X402602380Y-26800000D01*
X402650000Y-26704761D01*
X402697619Y-26657142D01*
X402840476Y-26561904D01*
X403030952Y-26514285D01*
X403411904Y-26514285D01*
X403507142Y-26561904D01*
X403554761Y-26609523D01*
X403602380Y-26704761D01*
X403602380Y-26895238D01*
X403554761Y-26990476D01*
X403507142Y-27038095D01*
X403411904Y-27085714D01*
X403173809Y-27085714D01*
X403078571Y-27038095D01*
X403030952Y-26990476D01*
X402983333Y-26895238D01*
X402983333Y-26704761D01*
X403030952Y-26609523D01*
X403078571Y-26561904D01*
X403173809Y-26514285D01*
X429102380Y-26133333D02*
X428626190Y-25800000D01*
X429102380Y-25561904D02*
X428102380Y-25561904D01*
X428102380Y-25942857D01*
X428150000Y-26038095D01*
X428197619Y-26085714D01*
X428292857Y-26133333D01*
X428435714Y-26133333D01*
X428530952Y-26085714D01*
X428578571Y-26038095D01*
X428626190Y-25942857D01*
X428626190Y-25561904D01*
X428102380Y-26466666D02*
X428102380Y-27133333D01*
X429102380Y-26704761D01*
X29052380Y-15461904D02*
X28052380Y-15461904D01*
X28052380Y-15700000D01*
X28100000Y-15842857D01*
X28195238Y-15938095D01*
X28290476Y-15985714D01*
X28480952Y-16033333D01*
X28623809Y-16033333D01*
X28814285Y-15985714D01*
X28909523Y-15938095D01*
X29004761Y-15842857D01*
X29052380Y-15700000D01*
X29052380Y-15461904D01*
X28052380Y-16366666D02*
X28052380Y-16985714D01*
X28433333Y-16652380D01*
X28433333Y-16795238D01*
X28480952Y-16890476D01*
X28528571Y-16938095D01*
X28623809Y-16985714D01*
X28861904Y-16985714D01*
X28957142Y-16938095D01*
X29004761Y-16890476D01*
X29052380Y-16795238D01*
X29052380Y-16509523D01*
X29004761Y-16414285D01*
X28957142Y-16366666D01*
X67102380Y-15461904D02*
X66102380Y-15461904D01*
X66102380Y-15700000D01*
X66150000Y-15842857D01*
X66245238Y-15938095D01*
X66340476Y-15985714D01*
X66530952Y-16033333D01*
X66673809Y-16033333D01*
X66864285Y-15985714D01*
X66959523Y-15938095D01*
X67054761Y-15842857D01*
X67102380Y-15700000D01*
X67102380Y-15461904D01*
X66435714Y-16890476D02*
X67102380Y-16890476D01*
X66054761Y-16652380D02*
X66769047Y-16414285D01*
X66769047Y-17033333D01*
X86152380Y-15461904D02*
X85152380Y-15461904D01*
X85152380Y-15700000D01*
X85200000Y-15842857D01*
X85295238Y-15938095D01*
X85390476Y-15985714D01*
X85580952Y-16033333D01*
X85723809Y-16033333D01*
X85914285Y-15985714D01*
X86009523Y-15938095D01*
X86104761Y-15842857D01*
X86152380Y-15700000D01*
X86152380Y-15461904D01*
X85152380Y-16938095D02*
X85152380Y-16461904D01*
X85628571Y-16414285D01*
X85580952Y-16461904D01*
X85533333Y-16557142D01*
X85533333Y-16795238D01*
X85580952Y-16890476D01*
X85628571Y-16938095D01*
X85723809Y-16985714D01*
X85961904Y-16985714D01*
X86057142Y-16938095D01*
X86104761Y-16890476D01*
X86152380Y-16795238D01*
X86152380Y-16557142D01*
X86104761Y-16461904D01*
X86057142Y-16414285D01*
X105202380Y-15461904D02*
X104202380Y-15461904D01*
X104202380Y-15700000D01*
X104250000Y-15842857D01*
X104345238Y-15938095D01*
X104440476Y-15985714D01*
X104630952Y-16033333D01*
X104773809Y-16033333D01*
X104964285Y-15985714D01*
X105059523Y-15938095D01*
X105154761Y-15842857D01*
X105202380Y-15700000D01*
X105202380Y-15461904D01*
X104202380Y-16890476D02*
X104202380Y-16700000D01*
X104250000Y-16604761D01*
X104297619Y-16557142D01*
X104440476Y-16461904D01*
X104630952Y-16414285D01*
X105011904Y-16414285D01*
X105107142Y-16461904D01*
X105154761Y-16509523D01*
X105202380Y-16604761D01*
X105202380Y-16795238D01*
X105154761Y-16890476D01*
X105107142Y-16938095D01*
X105011904Y-16985714D01*
X104773809Y-16985714D01*
X104678571Y-16938095D01*
X104630952Y-16890476D01*
X104583333Y-16795238D01*
X104583333Y-16604761D01*
X104630952Y-16509523D01*
X104678571Y-16461904D01*
X104773809Y-16414285D01*
X124252380Y-15461904D02*
X123252380Y-15461904D01*
X123252380Y-15700000D01*
X123300000Y-15842857D01*
X123395238Y-15938095D01*
X123490476Y-15985714D01*
X123680952Y-16033333D01*
X123823809Y-16033333D01*
X124014285Y-15985714D01*
X124109523Y-15938095D01*
X124204761Y-15842857D01*
X124252380Y-15700000D01*
X124252380Y-15461904D01*
X123252380Y-16366666D02*
X123252380Y-17033333D01*
X124252380Y-16604761D01*
X152852380Y-15461904D02*
X151852380Y-15461904D01*
X151852380Y-15700000D01*
X151900000Y-15842857D01*
X151995238Y-15938095D01*
X152090476Y-15985714D01*
X152280952Y-16033333D01*
X152423809Y-16033333D01*
X152614285Y-15985714D01*
X152709523Y-15938095D01*
X152804761Y-15842857D01*
X152852380Y-15700000D01*
X152852380Y-15461904D01*
X152280952Y-16604761D02*
X152233333Y-16509523D01*
X152185714Y-16461904D01*
X152090476Y-16414285D01*
X152042857Y-16414285D01*
X151947619Y-16461904D01*
X151900000Y-16509523D01*
X151852380Y-16604761D01*
X151852380Y-16795238D01*
X151900000Y-16890476D01*
X151947619Y-16938095D01*
X152042857Y-16985714D01*
X152090476Y-16985714D01*
X152185714Y-16938095D01*
X152233333Y-16890476D01*
X152280952Y-16795238D01*
X152280952Y-16604761D01*
X152328571Y-16509523D01*
X152376190Y-16461904D01*
X152471428Y-16414285D01*
X152661904Y-16414285D01*
X152757142Y-16461904D01*
X152804761Y-16509523D01*
X152852380Y-16604761D01*
X152852380Y-16795238D01*
X152804761Y-16890476D01*
X152757142Y-16938095D01*
X152661904Y-16985714D01*
X152471428Y-16985714D01*
X152376190Y-16938095D01*
X152328571Y-16890476D01*
X152280952Y-16795238D01*
X171852380Y-15461904D02*
X170852380Y-15461904D01*
X170852380Y-15700000D01*
X170900000Y-15842857D01*
X170995238Y-15938095D01*
X171090476Y-15985714D01*
X171280952Y-16033333D01*
X171423809Y-16033333D01*
X171614285Y-15985714D01*
X171709523Y-15938095D01*
X171804761Y-15842857D01*
X171852380Y-15700000D01*
X171852380Y-15461904D01*
X171852380Y-16509523D02*
X171852380Y-16700000D01*
X171804761Y-16795238D01*
X171757142Y-16842857D01*
X171614285Y-16938095D01*
X171423809Y-16985714D01*
X171042857Y-16985714D01*
X170947619Y-16938095D01*
X170900000Y-16890476D01*
X170852380Y-16795238D01*
X170852380Y-16604761D01*
X170900000Y-16509523D01*
X170947619Y-16461904D01*
X171042857Y-16414285D01*
X171280952Y-16414285D01*
X171376190Y-16461904D01*
X171423809Y-16509523D01*
X171471428Y-16604761D01*
X171471428Y-16795238D01*
X171423809Y-16890476D01*
X171376190Y-16938095D01*
X171280952Y-16985714D01*
X190902380Y-14985714D02*
X189902380Y-14985714D01*
X189902380Y-15223809D01*
X189950000Y-15366666D01*
X190045238Y-15461904D01*
X190140476Y-15509523D01*
X190330952Y-15557142D01*
X190473809Y-15557142D01*
X190664285Y-15509523D01*
X190759523Y-15461904D01*
X190854761Y-15366666D01*
X190902380Y-15223809D01*
X190902380Y-14985714D01*
X190902380Y-16509523D02*
X190902380Y-15938095D01*
X190902380Y-16223809D02*
X189902380Y-16223809D01*
X190045238Y-16128571D01*
X190140476Y-16033333D01*
X190188095Y-15938095D01*
X189902380Y-17128571D02*
X189902380Y-17223809D01*
X189950000Y-17319047D01*
X189997619Y-17366666D01*
X190092857Y-17414285D01*
X190283333Y-17461904D01*
X190521428Y-17461904D01*
X190711904Y-17414285D01*
X190807142Y-17366666D01*
X190854761Y-17319047D01*
X190902380Y-17223809D01*
X190902380Y-17128571D01*
X190854761Y-17033333D01*
X190807142Y-16985714D01*
X190711904Y-16938095D01*
X190521428Y-16890476D01*
X190283333Y-16890476D01*
X190092857Y-16938095D01*
X189997619Y-16985714D01*
X189950000Y-17033333D01*
X189902380Y-17128571D01*
X209952380Y-14985714D02*
X208952380Y-14985714D01*
X208952380Y-15223809D01*
X209000000Y-15366666D01*
X209095238Y-15461904D01*
X209190476Y-15509523D01*
X209380952Y-15557142D01*
X209523809Y-15557142D01*
X209714285Y-15509523D01*
X209809523Y-15461904D01*
X209904761Y-15366666D01*
X209952380Y-15223809D01*
X209952380Y-14985714D01*
X209952380Y-16509523D02*
X209952380Y-15938095D01*
X209952380Y-16223809D02*
X208952380Y-16223809D01*
X209095238Y-16128571D01*
X209190476Y-16033333D01*
X209238095Y-15938095D01*
X209952380Y-17461904D02*
X209952380Y-16890476D01*
X209952380Y-17176190D02*
X208952380Y-17176190D01*
X209095238Y-17080952D01*
X209190476Y-16985714D01*
X209238095Y-16890476D01*
X238552380Y-14985714D02*
X237552380Y-14985714D01*
X237552380Y-15223809D01*
X237600000Y-15366666D01*
X237695238Y-15461904D01*
X237790476Y-15509523D01*
X237980952Y-15557142D01*
X238123809Y-15557142D01*
X238314285Y-15509523D01*
X238409523Y-15461904D01*
X238504761Y-15366666D01*
X238552380Y-15223809D01*
X238552380Y-14985714D01*
X238552380Y-16509523D02*
X238552380Y-15938095D01*
X238552380Y-16223809D02*
X237552380Y-16223809D01*
X237695238Y-16128571D01*
X237790476Y-16033333D01*
X237838095Y-15938095D01*
X237647619Y-16890476D02*
X237600000Y-16938095D01*
X237552380Y-17033333D01*
X237552380Y-17271428D01*
X237600000Y-17366666D01*
X237647619Y-17414285D01*
X237742857Y-17461904D01*
X237838095Y-17461904D01*
X237980952Y-17414285D01*
X238552380Y-16842857D01*
X238552380Y-17461904D01*
X257602380Y-14985714D02*
X256602380Y-14985714D01*
X256602380Y-15223809D01*
X256650000Y-15366666D01*
X256745238Y-15461904D01*
X256840476Y-15509523D01*
X257030952Y-15557142D01*
X257173809Y-15557142D01*
X257364285Y-15509523D01*
X257459523Y-15461904D01*
X257554761Y-15366666D01*
X257602380Y-15223809D01*
X257602380Y-14985714D01*
X257602380Y-16509523D02*
X257602380Y-15938095D01*
X257602380Y-16223809D02*
X256602380Y-16223809D01*
X256745238Y-16128571D01*
X256840476Y-16033333D01*
X256888095Y-15938095D01*
X256602380Y-16842857D02*
X256602380Y-17461904D01*
X256983333Y-17128571D01*
X256983333Y-17271428D01*
X257030952Y-17366666D01*
X257078571Y-17414285D01*
X257173809Y-17461904D01*
X257411904Y-17461904D01*
X257507142Y-17414285D01*
X257554761Y-17366666D01*
X257602380Y-17271428D01*
X257602380Y-16985714D01*
X257554761Y-16890476D01*
X257507142Y-16842857D01*
X276652380Y-14985714D02*
X275652380Y-14985714D01*
X275652380Y-15223809D01*
X275700000Y-15366666D01*
X275795238Y-15461904D01*
X275890476Y-15509523D01*
X276080952Y-15557142D01*
X276223809Y-15557142D01*
X276414285Y-15509523D01*
X276509523Y-15461904D01*
X276604761Y-15366666D01*
X276652380Y-15223809D01*
X276652380Y-14985714D01*
X276652380Y-16509523D02*
X276652380Y-15938095D01*
X276652380Y-16223809D02*
X275652380Y-16223809D01*
X275795238Y-16128571D01*
X275890476Y-16033333D01*
X275938095Y-15938095D01*
X275985714Y-17366666D02*
X276652380Y-17366666D01*
X275604761Y-17128571D02*
X276319047Y-16890476D01*
X276319047Y-17509523D01*
X295702380Y-14985714D02*
X294702380Y-14985714D01*
X294702380Y-15223809D01*
X294750000Y-15366666D01*
X294845238Y-15461904D01*
X294940476Y-15509523D01*
X295130952Y-15557142D01*
X295273809Y-15557142D01*
X295464285Y-15509523D01*
X295559523Y-15461904D01*
X295654761Y-15366666D01*
X295702380Y-15223809D01*
X295702380Y-14985714D01*
X295702380Y-16509523D02*
X295702380Y-15938095D01*
X295702380Y-16223809D02*
X294702380Y-16223809D01*
X294845238Y-16128571D01*
X294940476Y-16033333D01*
X294988095Y-15938095D01*
X294702380Y-17414285D02*
X294702380Y-16938095D01*
X295178571Y-16890476D01*
X295130952Y-16938095D01*
X295083333Y-17033333D01*
X295083333Y-17271428D01*
X295130952Y-17366666D01*
X295178571Y-17414285D01*
X295273809Y-17461904D01*
X295511904Y-17461904D01*
X295607142Y-17414285D01*
X295654761Y-17366666D01*
X295702380Y-17271428D01*
X295702380Y-17033333D01*
X295654761Y-16938095D01*
X295607142Y-16890476D01*
X321702380Y-14985714D02*
X320702380Y-14985714D01*
X320702380Y-15223809D01*
X320750000Y-15366666D01*
X320845238Y-15461904D01*
X320940476Y-15509523D01*
X321130952Y-15557142D01*
X321273809Y-15557142D01*
X321464285Y-15509523D01*
X321559523Y-15461904D01*
X321654761Y-15366666D01*
X321702380Y-15223809D01*
X321702380Y-14985714D01*
X321702380Y-16509523D02*
X321702380Y-15938095D01*
X321702380Y-16223809D02*
X320702380Y-16223809D01*
X320845238Y-16128571D01*
X320940476Y-16033333D01*
X320988095Y-15938095D01*
X320702380Y-17366666D02*
X320702380Y-17176190D01*
X320750000Y-17080952D01*
X320797619Y-17033333D01*
X320940476Y-16938095D01*
X321130952Y-16890476D01*
X321511904Y-16890476D01*
X321607142Y-16938095D01*
X321654761Y-16985714D01*
X321702380Y-17080952D01*
X321702380Y-17271428D01*
X321654761Y-17366666D01*
X321607142Y-17414285D01*
X321511904Y-17461904D01*
X321273809Y-17461904D01*
X321178571Y-17414285D01*
X321130952Y-17366666D01*
X321083333Y-17271428D01*
X321083333Y-17080952D01*
X321130952Y-16985714D01*
X321178571Y-16938095D01*
X321273809Y-16890476D01*
X340752380Y-14985714D02*
X339752380Y-14985714D01*
X339752380Y-15223809D01*
X339800000Y-15366666D01*
X339895238Y-15461904D01*
X339990476Y-15509523D01*
X340180952Y-15557142D01*
X340323809Y-15557142D01*
X340514285Y-15509523D01*
X340609523Y-15461904D01*
X340704761Y-15366666D01*
X340752380Y-15223809D01*
X340752380Y-14985714D01*
X340752380Y-16509523D02*
X340752380Y-15938095D01*
X340752380Y-16223809D02*
X339752380Y-16223809D01*
X339895238Y-16128571D01*
X339990476Y-16033333D01*
X340038095Y-15938095D01*
X339752380Y-16842857D02*
X339752380Y-17509523D01*
X340752380Y-17080952D01*
X359802380Y-14985714D02*
X358802380Y-14985714D01*
X358802380Y-15223809D01*
X358850000Y-15366666D01*
X358945238Y-15461904D01*
X359040476Y-15509523D01*
X359230952Y-15557142D01*
X359373809Y-15557142D01*
X359564285Y-15509523D01*
X359659523Y-15461904D01*
X359754761Y-15366666D01*
X359802380Y-15223809D01*
X359802380Y-14985714D01*
X359802380Y-16509523D02*
X359802380Y-15938095D01*
X359802380Y-16223809D02*
X358802380Y-16223809D01*
X358945238Y-16128571D01*
X359040476Y-16033333D01*
X359088095Y-15938095D01*
X359230952Y-17080952D02*
X359183333Y-16985714D01*
X359135714Y-16938095D01*
X359040476Y-16890476D01*
X358992857Y-16890476D01*
X358897619Y-16938095D01*
X358850000Y-16985714D01*
X358802380Y-17080952D01*
X358802380Y-17271428D01*
X358850000Y-17366666D01*
X358897619Y-17414285D01*
X358992857Y-17461904D01*
X359040476Y-17461904D01*
X359135714Y-17414285D01*
X359183333Y-17366666D01*
X359230952Y-17271428D01*
X359230952Y-17080952D01*
X359278571Y-16985714D01*
X359326190Y-16938095D01*
X359421428Y-16890476D01*
X359611904Y-16890476D01*
X359707142Y-16938095D01*
X359754761Y-16985714D01*
X359802380Y-17080952D01*
X359802380Y-17271428D01*
X359754761Y-17366666D01*
X359707142Y-17414285D01*
X359611904Y-17461904D01*
X359421428Y-17461904D01*
X359326190Y-17414285D01*
X359278571Y-17366666D01*
X359230952Y-17271428D01*
X29002380Y-53085714D02*
X28002380Y-53085714D01*
X28002380Y-53323809D01*
X28050000Y-53466666D01*
X28145238Y-53561904D01*
X28240476Y-53609523D01*
X28430952Y-53657142D01*
X28573809Y-53657142D01*
X28764285Y-53609523D01*
X28859523Y-53561904D01*
X28954761Y-53466666D01*
X29002380Y-53323809D01*
X29002380Y-53085714D01*
X28097619Y-54038095D02*
X28050000Y-54085714D01*
X28002380Y-54180952D01*
X28002380Y-54419047D01*
X28050000Y-54514285D01*
X28097619Y-54561904D01*
X28192857Y-54609523D01*
X28288095Y-54609523D01*
X28430952Y-54561904D01*
X29002380Y-53990476D01*
X29002380Y-54609523D01*
X29002380Y-55561904D02*
X29002380Y-54990476D01*
X29002380Y-55276190D02*
X28002380Y-55276190D01*
X28145238Y-55180952D01*
X28240476Y-55085714D01*
X28288095Y-54990476D01*
X48052380Y-53085714D02*
X47052380Y-53085714D01*
X47052380Y-53323809D01*
X47100000Y-53466666D01*
X47195238Y-53561904D01*
X47290476Y-53609523D01*
X47480952Y-53657142D01*
X47623809Y-53657142D01*
X47814285Y-53609523D01*
X47909523Y-53561904D01*
X48004761Y-53466666D01*
X48052380Y-53323809D01*
X48052380Y-53085714D01*
X47147619Y-54038095D02*
X47100000Y-54085714D01*
X47052380Y-54180952D01*
X47052380Y-54419047D01*
X47100000Y-54514285D01*
X47147619Y-54561904D01*
X47242857Y-54609523D01*
X47338095Y-54609523D01*
X47480952Y-54561904D01*
X48052380Y-53990476D01*
X48052380Y-54609523D01*
X47147619Y-54990476D02*
X47100000Y-55038095D01*
X47052380Y-55133333D01*
X47052380Y-55371428D01*
X47100000Y-55466666D01*
X47147619Y-55514285D01*
X47242857Y-55561904D01*
X47338095Y-55561904D01*
X47480952Y-55514285D01*
X48052380Y-54942857D01*
X48052380Y-55561904D01*
X67102380Y-53085714D02*
X66102380Y-53085714D01*
X66102380Y-53323809D01*
X66150000Y-53466666D01*
X66245238Y-53561904D01*
X66340476Y-53609523D01*
X66530952Y-53657142D01*
X66673809Y-53657142D01*
X66864285Y-53609523D01*
X66959523Y-53561904D01*
X67054761Y-53466666D01*
X67102380Y-53323809D01*
X67102380Y-53085714D01*
X66197619Y-54038095D02*
X66150000Y-54085714D01*
X66102380Y-54180952D01*
X66102380Y-54419047D01*
X66150000Y-54514285D01*
X66197619Y-54561904D01*
X66292857Y-54609523D01*
X66388095Y-54609523D01*
X66530952Y-54561904D01*
X67102380Y-53990476D01*
X67102380Y-54609523D01*
X66102380Y-54942857D02*
X66102380Y-55561904D01*
X66483333Y-55228571D01*
X66483333Y-55371428D01*
X66530952Y-55466666D01*
X66578571Y-55514285D01*
X66673809Y-55561904D01*
X66911904Y-55561904D01*
X67007142Y-55514285D01*
X67054761Y-55466666D01*
X67102380Y-55371428D01*
X67102380Y-55085714D01*
X67054761Y-54990476D01*
X67007142Y-54942857D01*
X86152380Y-53085714D02*
X85152380Y-53085714D01*
X85152380Y-53323809D01*
X85200000Y-53466666D01*
X85295238Y-53561904D01*
X85390476Y-53609523D01*
X85580952Y-53657142D01*
X85723809Y-53657142D01*
X85914285Y-53609523D01*
X86009523Y-53561904D01*
X86104761Y-53466666D01*
X86152380Y-53323809D01*
X86152380Y-53085714D01*
X85247619Y-54038095D02*
X85200000Y-54085714D01*
X85152380Y-54180952D01*
X85152380Y-54419047D01*
X85200000Y-54514285D01*
X85247619Y-54561904D01*
X85342857Y-54609523D01*
X85438095Y-54609523D01*
X85580952Y-54561904D01*
X86152380Y-53990476D01*
X86152380Y-54609523D01*
X85485714Y-55466666D02*
X86152380Y-55466666D01*
X85104761Y-55228571D02*
X85819047Y-54990476D01*
X85819047Y-55609523D01*
X105202380Y-53085714D02*
X104202380Y-53085714D01*
X104202380Y-53323809D01*
X104250000Y-53466666D01*
X104345238Y-53561904D01*
X104440476Y-53609523D01*
X104630952Y-53657142D01*
X104773809Y-53657142D01*
X104964285Y-53609523D01*
X105059523Y-53561904D01*
X105154761Y-53466666D01*
X105202380Y-53323809D01*
X105202380Y-53085714D01*
X104297619Y-54038095D02*
X104250000Y-54085714D01*
X104202380Y-54180952D01*
X104202380Y-54419047D01*
X104250000Y-54514285D01*
X104297619Y-54561904D01*
X104392857Y-54609523D01*
X104488095Y-54609523D01*
X104630952Y-54561904D01*
X105202380Y-53990476D01*
X105202380Y-54609523D01*
X104202380Y-55514285D02*
X104202380Y-55038095D01*
X104678571Y-54990476D01*
X104630952Y-55038095D01*
X104583333Y-55133333D01*
X104583333Y-55371428D01*
X104630952Y-55466666D01*
X104678571Y-55514285D01*
X104773809Y-55561904D01*
X105011904Y-55561904D01*
X105107142Y-55514285D01*
X105154761Y-55466666D01*
X105202380Y-55371428D01*
X105202380Y-55133333D01*
X105154761Y-55038095D01*
X105107142Y-54990476D01*
X124252380Y-53085714D02*
X123252380Y-53085714D01*
X123252380Y-53323809D01*
X123300000Y-53466666D01*
X123395238Y-53561904D01*
X123490476Y-53609523D01*
X123680952Y-53657142D01*
X123823809Y-53657142D01*
X124014285Y-53609523D01*
X124109523Y-53561904D01*
X124204761Y-53466666D01*
X124252380Y-53323809D01*
X124252380Y-53085714D01*
X123347619Y-54038095D02*
X123300000Y-54085714D01*
X123252380Y-54180952D01*
X123252380Y-54419047D01*
X123300000Y-54514285D01*
X123347619Y-54561904D01*
X123442857Y-54609523D01*
X123538095Y-54609523D01*
X123680952Y-54561904D01*
X124252380Y-53990476D01*
X124252380Y-54609523D01*
X123252380Y-55466666D02*
X123252380Y-55276190D01*
X123300000Y-55180952D01*
X123347619Y-55133333D01*
X123490476Y-55038095D01*
X123680952Y-54990476D01*
X124061904Y-54990476D01*
X124157142Y-55038095D01*
X124204761Y-55085714D01*
X124252380Y-55180952D01*
X124252380Y-55371428D01*
X124204761Y-55466666D01*
X124157142Y-55514285D01*
X124061904Y-55561904D01*
X123823809Y-55561904D01*
X123728571Y-55514285D01*
X123680952Y-55466666D01*
X123633333Y-55371428D01*
X123633333Y-55180952D01*
X123680952Y-55085714D01*
X123728571Y-55038095D01*
X123823809Y-54990476D01*
X143302380Y-53085714D02*
X142302380Y-53085714D01*
X142302380Y-53323809D01*
X142350000Y-53466666D01*
X142445238Y-53561904D01*
X142540476Y-53609523D01*
X142730952Y-53657142D01*
X142873809Y-53657142D01*
X143064285Y-53609523D01*
X143159523Y-53561904D01*
X143254761Y-53466666D01*
X143302380Y-53323809D01*
X143302380Y-53085714D01*
X142397619Y-54038095D02*
X142350000Y-54085714D01*
X142302380Y-54180952D01*
X142302380Y-54419047D01*
X142350000Y-54514285D01*
X142397619Y-54561904D01*
X142492857Y-54609523D01*
X142588095Y-54609523D01*
X142730952Y-54561904D01*
X143302380Y-53990476D01*
X143302380Y-54609523D01*
X142302380Y-54942857D02*
X142302380Y-55609523D01*
X143302380Y-55180952D01*
X162352380Y-53085714D02*
X161352380Y-53085714D01*
X161352380Y-53323809D01*
X161400000Y-53466666D01*
X161495238Y-53561904D01*
X161590476Y-53609523D01*
X161780952Y-53657142D01*
X161923809Y-53657142D01*
X162114285Y-53609523D01*
X162209523Y-53561904D01*
X162304761Y-53466666D01*
X162352380Y-53323809D01*
X162352380Y-53085714D01*
X161447619Y-54038095D02*
X161400000Y-54085714D01*
X161352380Y-54180952D01*
X161352380Y-54419047D01*
X161400000Y-54514285D01*
X161447619Y-54561904D01*
X161542857Y-54609523D01*
X161638095Y-54609523D01*
X161780952Y-54561904D01*
X162352380Y-53990476D01*
X162352380Y-54609523D01*
X161780952Y-55180952D02*
X161733333Y-55085714D01*
X161685714Y-55038095D01*
X161590476Y-54990476D01*
X161542857Y-54990476D01*
X161447619Y-55038095D01*
X161400000Y-55085714D01*
X161352380Y-55180952D01*
X161352380Y-55371428D01*
X161400000Y-55466666D01*
X161447619Y-55514285D01*
X161542857Y-55561904D01*
X161590476Y-55561904D01*
X161685714Y-55514285D01*
X161733333Y-55466666D01*
X161780952Y-55371428D01*
X161780952Y-55180952D01*
X161828571Y-55085714D01*
X161876190Y-55038095D01*
X161971428Y-54990476D01*
X162161904Y-54990476D01*
X162257142Y-55038095D01*
X162304761Y-55085714D01*
X162352380Y-55180952D01*
X162352380Y-55371428D01*
X162304761Y-55466666D01*
X162257142Y-55514285D01*
X162161904Y-55561904D01*
X161971428Y-55561904D01*
X161876190Y-55514285D01*
X161828571Y-55466666D01*
X161780952Y-55371428D01*
X181402380Y-53085714D02*
X180402380Y-53085714D01*
X180402380Y-53323809D01*
X180450000Y-53466666D01*
X180545238Y-53561904D01*
X180640476Y-53609523D01*
X180830952Y-53657142D01*
X180973809Y-53657142D01*
X181164285Y-53609523D01*
X181259523Y-53561904D01*
X181354761Y-53466666D01*
X181402380Y-53323809D01*
X181402380Y-53085714D01*
X180497619Y-54038095D02*
X180450000Y-54085714D01*
X180402380Y-54180952D01*
X180402380Y-54419047D01*
X180450000Y-54514285D01*
X180497619Y-54561904D01*
X180592857Y-54609523D01*
X180688095Y-54609523D01*
X180830952Y-54561904D01*
X181402380Y-53990476D01*
X181402380Y-54609523D01*
X181402380Y-55085714D02*
X181402380Y-55276190D01*
X181354761Y-55371428D01*
X181307142Y-55419047D01*
X181164285Y-55514285D01*
X180973809Y-55561904D01*
X180592857Y-55561904D01*
X180497619Y-55514285D01*
X180450000Y-55466666D01*
X180402380Y-55371428D01*
X180402380Y-55180952D01*
X180450000Y-55085714D01*
X180497619Y-55038095D01*
X180592857Y-54990476D01*
X180830952Y-54990476D01*
X180926190Y-55038095D01*
X180973809Y-55085714D01*
X181021428Y-55180952D01*
X181021428Y-55371428D01*
X180973809Y-55466666D01*
X180926190Y-55514285D01*
X180830952Y-55561904D01*
X200452380Y-53085714D02*
X199452380Y-53085714D01*
X199452380Y-53323809D01*
X199500000Y-53466666D01*
X199595238Y-53561904D01*
X199690476Y-53609523D01*
X199880952Y-53657142D01*
X200023809Y-53657142D01*
X200214285Y-53609523D01*
X200309523Y-53561904D01*
X200404761Y-53466666D01*
X200452380Y-53323809D01*
X200452380Y-53085714D01*
X199452380Y-53990476D02*
X199452380Y-54609523D01*
X199833333Y-54276190D01*
X199833333Y-54419047D01*
X199880952Y-54514285D01*
X199928571Y-54561904D01*
X200023809Y-54609523D01*
X200261904Y-54609523D01*
X200357142Y-54561904D01*
X200404761Y-54514285D01*
X200452380Y-54419047D01*
X200452380Y-54133333D01*
X200404761Y-54038095D01*
X200357142Y-53990476D01*
X199452380Y-55228571D02*
X199452380Y-55323809D01*
X199500000Y-55419047D01*
X199547619Y-55466666D01*
X199642857Y-55514285D01*
X199833333Y-55561904D01*
X200071428Y-55561904D01*
X200261904Y-55514285D01*
X200357142Y-55466666D01*
X200404761Y-55419047D01*
X200452380Y-55323809D01*
X200452380Y-55228571D01*
X200404761Y-55133333D01*
X200357142Y-55085714D01*
X200261904Y-55038095D01*
X200071428Y-54990476D01*
X199833333Y-54990476D01*
X199642857Y-55038095D01*
X199547619Y-55085714D01*
X199500000Y-55133333D01*
X199452380Y-55228571D01*
X219502380Y-53085714D02*
X218502380Y-53085714D01*
X218502380Y-53323809D01*
X218550000Y-53466666D01*
X218645238Y-53561904D01*
X218740476Y-53609523D01*
X218930952Y-53657142D01*
X219073809Y-53657142D01*
X219264285Y-53609523D01*
X219359523Y-53561904D01*
X219454761Y-53466666D01*
X219502380Y-53323809D01*
X219502380Y-53085714D01*
X218502380Y-53990476D02*
X218502380Y-54609523D01*
X218883333Y-54276190D01*
X218883333Y-54419047D01*
X218930952Y-54514285D01*
X218978571Y-54561904D01*
X219073809Y-54609523D01*
X219311904Y-54609523D01*
X219407142Y-54561904D01*
X219454761Y-54514285D01*
X219502380Y-54419047D01*
X219502380Y-54133333D01*
X219454761Y-54038095D01*
X219407142Y-53990476D01*
X219502380Y-55561904D02*
X219502380Y-54990476D01*
X219502380Y-55276190D02*
X218502380Y-55276190D01*
X218645238Y-55180952D01*
X218740476Y-55085714D01*
X218788095Y-54990476D01*
X238552380Y-53085714D02*
X237552380Y-53085714D01*
X237552380Y-53323809D01*
X237600000Y-53466666D01*
X237695238Y-53561904D01*
X237790476Y-53609523D01*
X237980952Y-53657142D01*
X238123809Y-53657142D01*
X238314285Y-53609523D01*
X238409523Y-53561904D01*
X238504761Y-53466666D01*
X238552380Y-53323809D01*
X238552380Y-53085714D01*
X237552380Y-53990476D02*
X237552380Y-54609523D01*
X237933333Y-54276190D01*
X237933333Y-54419047D01*
X237980952Y-54514285D01*
X238028571Y-54561904D01*
X238123809Y-54609523D01*
X238361904Y-54609523D01*
X238457142Y-54561904D01*
X238504761Y-54514285D01*
X238552380Y-54419047D01*
X238552380Y-54133333D01*
X238504761Y-54038095D01*
X238457142Y-53990476D01*
X237647619Y-54990476D02*
X237600000Y-55038095D01*
X237552380Y-55133333D01*
X237552380Y-55371428D01*
X237600000Y-55466666D01*
X237647619Y-55514285D01*
X237742857Y-55561904D01*
X237838095Y-55561904D01*
X237980952Y-55514285D01*
X238552380Y-54942857D01*
X238552380Y-55561904D01*
X257602380Y-53085714D02*
X256602380Y-53085714D01*
X256602380Y-53323809D01*
X256650000Y-53466666D01*
X256745238Y-53561904D01*
X256840476Y-53609523D01*
X257030952Y-53657142D01*
X257173809Y-53657142D01*
X257364285Y-53609523D01*
X257459523Y-53561904D01*
X257554761Y-53466666D01*
X257602380Y-53323809D01*
X257602380Y-53085714D01*
X256602380Y-53990476D02*
X256602380Y-54609523D01*
X256983333Y-54276190D01*
X256983333Y-54419047D01*
X257030952Y-54514285D01*
X257078571Y-54561904D01*
X257173809Y-54609523D01*
X257411904Y-54609523D01*
X257507142Y-54561904D01*
X257554761Y-54514285D01*
X257602380Y-54419047D01*
X257602380Y-54133333D01*
X257554761Y-54038095D01*
X257507142Y-53990476D01*
X256602380Y-54942857D02*
X256602380Y-55561904D01*
X256983333Y-55228571D01*
X256983333Y-55371428D01*
X257030952Y-55466666D01*
X257078571Y-55514285D01*
X257173809Y-55561904D01*
X257411904Y-55561904D01*
X257507142Y-55514285D01*
X257554761Y-55466666D01*
X257602380Y-55371428D01*
X257602380Y-55085714D01*
X257554761Y-54990476D01*
X257507142Y-54942857D01*
X286202380Y-53085714D02*
X285202380Y-53085714D01*
X285202380Y-53323809D01*
X285250000Y-53466666D01*
X285345238Y-53561904D01*
X285440476Y-53609523D01*
X285630952Y-53657142D01*
X285773809Y-53657142D01*
X285964285Y-53609523D01*
X286059523Y-53561904D01*
X286154761Y-53466666D01*
X286202380Y-53323809D01*
X286202380Y-53085714D01*
X285202380Y-53990476D02*
X285202380Y-54609523D01*
X285583333Y-54276190D01*
X285583333Y-54419047D01*
X285630952Y-54514285D01*
X285678571Y-54561904D01*
X285773809Y-54609523D01*
X286011904Y-54609523D01*
X286107142Y-54561904D01*
X286154761Y-54514285D01*
X286202380Y-54419047D01*
X286202380Y-54133333D01*
X286154761Y-54038095D01*
X286107142Y-53990476D01*
X285535714Y-55466666D02*
X286202380Y-55466666D01*
X285154761Y-55228571D02*
X285869047Y-54990476D01*
X285869047Y-55609523D01*
X321702380Y-53085714D02*
X320702380Y-53085714D01*
X320702380Y-53323809D01*
X320750000Y-53466666D01*
X320845238Y-53561904D01*
X320940476Y-53609523D01*
X321130952Y-53657142D01*
X321273809Y-53657142D01*
X321464285Y-53609523D01*
X321559523Y-53561904D01*
X321654761Y-53466666D01*
X321702380Y-53323809D01*
X321702380Y-53085714D01*
X320702380Y-53990476D02*
X320702380Y-54609523D01*
X321083333Y-54276190D01*
X321083333Y-54419047D01*
X321130952Y-54514285D01*
X321178571Y-54561904D01*
X321273809Y-54609523D01*
X321511904Y-54609523D01*
X321607142Y-54561904D01*
X321654761Y-54514285D01*
X321702380Y-54419047D01*
X321702380Y-54133333D01*
X321654761Y-54038095D01*
X321607142Y-53990476D01*
X320702380Y-55514285D02*
X320702380Y-55038095D01*
X321178571Y-54990476D01*
X321130952Y-55038095D01*
X321083333Y-55133333D01*
X321083333Y-55371428D01*
X321130952Y-55466666D01*
X321178571Y-55514285D01*
X321273809Y-55561904D01*
X321511904Y-55561904D01*
X321607142Y-55514285D01*
X321654761Y-55466666D01*
X321702380Y-55371428D01*
X321702380Y-55133333D01*
X321654761Y-55038095D01*
X321607142Y-54990476D01*
X340752380Y-53085714D02*
X339752380Y-53085714D01*
X339752380Y-53323809D01*
X339800000Y-53466666D01*
X339895238Y-53561904D01*
X339990476Y-53609523D01*
X340180952Y-53657142D01*
X340323809Y-53657142D01*
X340514285Y-53609523D01*
X340609523Y-53561904D01*
X340704761Y-53466666D01*
X340752380Y-53323809D01*
X340752380Y-53085714D01*
X339752380Y-53990476D02*
X339752380Y-54609523D01*
X340133333Y-54276190D01*
X340133333Y-54419047D01*
X340180952Y-54514285D01*
X340228571Y-54561904D01*
X340323809Y-54609523D01*
X340561904Y-54609523D01*
X340657142Y-54561904D01*
X340704761Y-54514285D01*
X340752380Y-54419047D01*
X340752380Y-54133333D01*
X340704761Y-54038095D01*
X340657142Y-53990476D01*
X339752380Y-55466666D02*
X339752380Y-55276190D01*
X339800000Y-55180952D01*
X339847619Y-55133333D01*
X339990476Y-55038095D01*
X340180952Y-54990476D01*
X340561904Y-54990476D01*
X340657142Y-55038095D01*
X340704761Y-55085714D01*
X340752380Y-55180952D01*
X340752380Y-55371428D01*
X340704761Y-55466666D01*
X340657142Y-55514285D01*
X340561904Y-55561904D01*
X340323809Y-55561904D01*
X340228571Y-55514285D01*
X340180952Y-55466666D01*
X340133333Y-55371428D01*
X340133333Y-55180952D01*
X340180952Y-55085714D01*
X340228571Y-55038095D01*
X340323809Y-54990476D01*
X359802380Y-53085714D02*
X358802380Y-53085714D01*
X358802380Y-53323809D01*
X358850000Y-53466666D01*
X358945238Y-53561904D01*
X359040476Y-53609523D01*
X359230952Y-53657142D01*
X359373809Y-53657142D01*
X359564285Y-53609523D01*
X359659523Y-53561904D01*
X359754761Y-53466666D01*
X359802380Y-53323809D01*
X359802380Y-53085714D01*
X358802380Y-53990476D02*
X358802380Y-54609523D01*
X359183333Y-54276190D01*
X359183333Y-54419047D01*
X359230952Y-54514285D01*
X359278571Y-54561904D01*
X359373809Y-54609523D01*
X359611904Y-54609523D01*
X359707142Y-54561904D01*
X359754761Y-54514285D01*
X359802380Y-54419047D01*
X359802380Y-54133333D01*
X359754761Y-54038095D01*
X359707142Y-53990476D01*
X358802380Y-54942857D02*
X358802380Y-55609523D01*
X359802380Y-55180952D01*
X366802380Y-58785714D02*
X365802380Y-58785714D01*
X365802380Y-59023809D01*
X365850000Y-59166666D01*
X365945238Y-59261904D01*
X366040476Y-59309523D01*
X366230952Y-59357142D01*
X366373809Y-59357142D01*
X366564285Y-59309523D01*
X366659523Y-59261904D01*
X366754761Y-59166666D01*
X366802380Y-59023809D01*
X366802380Y-58785714D01*
X365802380Y-59690476D02*
X365802380Y-60309523D01*
X366183333Y-59976190D01*
X366183333Y-60119047D01*
X366230952Y-60214285D01*
X366278571Y-60261904D01*
X366373809Y-60309523D01*
X366611904Y-60309523D01*
X366707142Y-60261904D01*
X366754761Y-60214285D01*
X366802380Y-60119047D01*
X366802380Y-59833333D01*
X366754761Y-59738095D01*
X366707142Y-59690476D01*
X366230952Y-60880952D02*
X366183333Y-60785714D01*
X366135714Y-60738095D01*
X366040476Y-60690476D01*
X365992857Y-60690476D01*
X365897619Y-60738095D01*
X365850000Y-60785714D01*
X365802380Y-60880952D01*
X365802380Y-61071428D01*
X365850000Y-61166666D01*
X365897619Y-61214285D01*
X365992857Y-61261904D01*
X366040476Y-61261904D01*
X366135714Y-61214285D01*
X366183333Y-61166666D01*
X366230952Y-61071428D01*
X366230952Y-60880952D01*
X366278571Y-60785714D01*
X366326190Y-60738095D01*
X366421428Y-60690476D01*
X366611904Y-60690476D01*
X366707142Y-60738095D01*
X366754761Y-60785714D01*
X366802380Y-60880952D01*
X366802380Y-61071428D01*
X366754761Y-61166666D01*
X366707142Y-61214285D01*
X366611904Y-61261904D01*
X366421428Y-61261904D01*
X366326190Y-61214285D01*
X366278571Y-61166666D01*
X366230952Y-61071428D01*
X385852380Y-58785714D02*
X384852380Y-58785714D01*
X384852380Y-59023809D01*
X384900000Y-59166666D01*
X384995238Y-59261904D01*
X385090476Y-59309523D01*
X385280952Y-59357142D01*
X385423809Y-59357142D01*
X385614285Y-59309523D01*
X385709523Y-59261904D01*
X385804761Y-59166666D01*
X385852380Y-59023809D01*
X385852380Y-58785714D01*
X384852380Y-59690476D02*
X384852380Y-60309523D01*
X385233333Y-59976190D01*
X385233333Y-60119047D01*
X385280952Y-60214285D01*
X385328571Y-60261904D01*
X385423809Y-60309523D01*
X385661904Y-60309523D01*
X385757142Y-60261904D01*
X385804761Y-60214285D01*
X385852380Y-60119047D01*
X385852380Y-59833333D01*
X385804761Y-59738095D01*
X385757142Y-59690476D01*
X385852380Y-60785714D02*
X385852380Y-60976190D01*
X385804761Y-61071428D01*
X385757142Y-61119047D01*
X385614285Y-61214285D01*
X385423809Y-61261904D01*
X385042857Y-61261904D01*
X384947619Y-61214285D01*
X384900000Y-61166666D01*
X384852380Y-61071428D01*
X384852380Y-60880952D01*
X384900000Y-60785714D01*
X384947619Y-60738095D01*
X385042857Y-60690476D01*
X385280952Y-60690476D01*
X385376190Y-60738095D01*
X385423809Y-60785714D01*
X385471428Y-60880952D01*
X385471428Y-61071428D01*
X385423809Y-61166666D01*
X385376190Y-61214285D01*
X385280952Y-61261904D01*
X423902380Y-53085714D02*
X422902380Y-53085714D01*
X422902380Y-53323809D01*
X422950000Y-53466666D01*
X423045238Y-53561904D01*
X423140476Y-53609523D01*
X423330952Y-53657142D01*
X423473809Y-53657142D01*
X423664285Y-53609523D01*
X423759523Y-53561904D01*
X423854761Y-53466666D01*
X423902380Y-53323809D01*
X423902380Y-53085714D01*
X423235714Y-54514285D02*
X423902380Y-54514285D01*
X422854761Y-54276190D02*
X423569047Y-54038095D01*
X423569047Y-54657142D01*
X422902380Y-55228571D02*
X422902380Y-55323809D01*
X422950000Y-55419047D01*
X422997619Y-55466666D01*
X423092857Y-55514285D01*
X423283333Y-55561904D01*
X423521428Y-55561904D01*
X423711904Y-55514285D01*
X423807142Y-55466666D01*
X423854761Y-55419047D01*
X423902380Y-55323809D01*
X423902380Y-55228571D01*
X423854761Y-55133333D01*
X423807142Y-55085714D01*
X423711904Y-55038095D01*
X423521428Y-54990476D01*
X423283333Y-54990476D01*
X423092857Y-55038095D01*
X422997619Y-55085714D01*
X422950000Y-55133333D01*
X422902380Y-55228571D01*
X438152380Y-53085714D02*
X437152380Y-53085714D01*
X437152380Y-53323809D01*
X437200000Y-53466666D01*
X437295238Y-53561904D01*
X437390476Y-53609523D01*
X437580952Y-53657142D01*
X437723809Y-53657142D01*
X437914285Y-53609523D01*
X438009523Y-53561904D01*
X438104761Y-53466666D01*
X438152380Y-53323809D01*
X438152380Y-53085714D01*
X437485714Y-54514285D02*
X438152380Y-54514285D01*
X437104761Y-54276190D02*
X437819047Y-54038095D01*
X437819047Y-54657142D01*
X438152380Y-55561904D02*
X438152380Y-54990476D01*
X438152380Y-55276190D02*
X437152380Y-55276190D01*
X437295238Y-55180952D01*
X437390476Y-55085714D01*
X437438095Y-54990476D01*
X33752380Y-72135714D02*
X32752380Y-72135714D01*
X32752380Y-72373809D01*
X32800000Y-72516666D01*
X32895238Y-72611904D01*
X32990476Y-72659523D01*
X33180952Y-72707142D01*
X33323809Y-72707142D01*
X33514285Y-72659523D01*
X33609523Y-72611904D01*
X33704761Y-72516666D01*
X33752380Y-72373809D01*
X33752380Y-72135714D01*
X33085714Y-73564285D02*
X33752380Y-73564285D01*
X32704761Y-73326190D02*
X33419047Y-73088095D01*
X33419047Y-73707142D01*
X33085714Y-74516666D02*
X33752380Y-74516666D01*
X32704761Y-74278571D02*
X33419047Y-74040476D01*
X33419047Y-74659523D01*
X57552380Y-72135714D02*
X56552380Y-72135714D01*
X56552380Y-72373809D01*
X56600000Y-72516666D01*
X56695238Y-72611904D01*
X56790476Y-72659523D01*
X56980952Y-72707142D01*
X57123809Y-72707142D01*
X57314285Y-72659523D01*
X57409523Y-72611904D01*
X57504761Y-72516666D01*
X57552380Y-72373809D01*
X57552380Y-72135714D01*
X56885714Y-73564285D02*
X57552380Y-73564285D01*
X56504761Y-73326190D02*
X57219047Y-73088095D01*
X57219047Y-73707142D01*
X56552380Y-74564285D02*
X56552380Y-74088095D01*
X57028571Y-74040476D01*
X56980952Y-74088095D01*
X56933333Y-74183333D01*
X56933333Y-74421428D01*
X56980952Y-74516666D01*
X57028571Y-74564285D01*
X57123809Y-74611904D01*
X57361904Y-74611904D01*
X57457142Y-74564285D01*
X57504761Y-74516666D01*
X57552380Y-74421428D01*
X57552380Y-74183333D01*
X57504761Y-74088095D01*
X57457142Y-74040476D01*
X76602380Y-72135714D02*
X75602380Y-72135714D01*
X75602380Y-72373809D01*
X75650000Y-72516666D01*
X75745238Y-72611904D01*
X75840476Y-72659523D01*
X76030952Y-72707142D01*
X76173809Y-72707142D01*
X76364285Y-72659523D01*
X76459523Y-72611904D01*
X76554761Y-72516666D01*
X76602380Y-72373809D01*
X76602380Y-72135714D01*
X75935714Y-73564285D02*
X76602380Y-73564285D01*
X75554761Y-73326190D02*
X76269047Y-73088095D01*
X76269047Y-73707142D01*
X75602380Y-74516666D02*
X75602380Y-74326190D01*
X75650000Y-74230952D01*
X75697619Y-74183333D01*
X75840476Y-74088095D01*
X76030952Y-74040476D01*
X76411904Y-74040476D01*
X76507142Y-74088095D01*
X76554761Y-74135714D01*
X76602380Y-74230952D01*
X76602380Y-74421428D01*
X76554761Y-74516666D01*
X76507142Y-74564285D01*
X76411904Y-74611904D01*
X76173809Y-74611904D01*
X76078571Y-74564285D01*
X76030952Y-74516666D01*
X75983333Y-74421428D01*
X75983333Y-74230952D01*
X76030952Y-74135714D01*
X76078571Y-74088095D01*
X76173809Y-74040476D01*
X95702380Y-72135714D02*
X94702380Y-72135714D01*
X94702380Y-72373809D01*
X94750000Y-72516666D01*
X94845238Y-72611904D01*
X94940476Y-72659523D01*
X95130952Y-72707142D01*
X95273809Y-72707142D01*
X95464285Y-72659523D01*
X95559523Y-72611904D01*
X95654761Y-72516666D01*
X95702380Y-72373809D01*
X95702380Y-72135714D01*
X95035714Y-73564285D02*
X95702380Y-73564285D01*
X94654761Y-73326190D02*
X95369047Y-73088095D01*
X95369047Y-73707142D01*
X94702380Y-73992857D02*
X94702380Y-74659523D01*
X95702380Y-74230952D01*
X114752380Y-72135714D02*
X113752380Y-72135714D01*
X113752380Y-72373809D01*
X113800000Y-72516666D01*
X113895238Y-72611904D01*
X113990476Y-72659523D01*
X114180952Y-72707142D01*
X114323809Y-72707142D01*
X114514285Y-72659523D01*
X114609523Y-72611904D01*
X114704761Y-72516666D01*
X114752380Y-72373809D01*
X114752380Y-72135714D01*
X114085714Y-73564285D02*
X114752380Y-73564285D01*
X113704761Y-73326190D02*
X114419047Y-73088095D01*
X114419047Y-73707142D01*
X114180952Y-74230952D02*
X114133333Y-74135714D01*
X114085714Y-74088095D01*
X113990476Y-74040476D01*
X113942857Y-74040476D01*
X113847619Y-74088095D01*
X113800000Y-74135714D01*
X113752380Y-74230952D01*
X113752380Y-74421428D01*
X113800000Y-74516666D01*
X113847619Y-74564285D01*
X113942857Y-74611904D01*
X113990476Y-74611904D01*
X114085714Y-74564285D01*
X114133333Y-74516666D01*
X114180952Y-74421428D01*
X114180952Y-74230952D01*
X114228571Y-74135714D01*
X114276190Y-74088095D01*
X114371428Y-74040476D01*
X114561904Y-74040476D01*
X114657142Y-74088095D01*
X114704761Y-74135714D01*
X114752380Y-74230952D01*
X114752380Y-74421428D01*
X114704761Y-74516666D01*
X114657142Y-74564285D01*
X114561904Y-74611904D01*
X114371428Y-74611904D01*
X114276190Y-74564285D01*
X114228571Y-74516666D01*
X114180952Y-74421428D01*
X133802380Y-72135714D02*
X132802380Y-72135714D01*
X132802380Y-72373809D01*
X132850000Y-72516666D01*
X132945238Y-72611904D01*
X133040476Y-72659523D01*
X133230952Y-72707142D01*
X133373809Y-72707142D01*
X133564285Y-72659523D01*
X133659523Y-72611904D01*
X133754761Y-72516666D01*
X133802380Y-72373809D01*
X133802380Y-72135714D01*
X133135714Y-73564285D02*
X133802380Y-73564285D01*
X132754761Y-73326190D02*
X133469047Y-73088095D01*
X133469047Y-73707142D01*
X133802380Y-74135714D02*
X133802380Y-74326190D01*
X133754761Y-74421428D01*
X133707142Y-74469047D01*
X133564285Y-74564285D01*
X133373809Y-74611904D01*
X132992857Y-74611904D01*
X132897619Y-74564285D01*
X132850000Y-74516666D01*
X132802380Y-74421428D01*
X132802380Y-74230952D01*
X132850000Y-74135714D01*
X132897619Y-74088095D01*
X132992857Y-74040476D01*
X133230952Y-74040476D01*
X133326190Y-74088095D01*
X133373809Y-74135714D01*
X133421428Y-74230952D01*
X133421428Y-74421428D01*
X133373809Y-74516666D01*
X133326190Y-74564285D01*
X133230952Y-74611904D01*
X152802380Y-72135714D02*
X151802380Y-72135714D01*
X151802380Y-72373809D01*
X151850000Y-72516666D01*
X151945238Y-72611904D01*
X152040476Y-72659523D01*
X152230952Y-72707142D01*
X152373809Y-72707142D01*
X152564285Y-72659523D01*
X152659523Y-72611904D01*
X152754761Y-72516666D01*
X152802380Y-72373809D01*
X152802380Y-72135714D01*
X151802380Y-73611904D02*
X151802380Y-73135714D01*
X152278571Y-73088095D01*
X152230952Y-73135714D01*
X152183333Y-73230952D01*
X152183333Y-73469047D01*
X152230952Y-73564285D01*
X152278571Y-73611904D01*
X152373809Y-73659523D01*
X152611904Y-73659523D01*
X152707142Y-73611904D01*
X152754761Y-73564285D01*
X152802380Y-73469047D01*
X152802380Y-73230952D01*
X152754761Y-73135714D01*
X152707142Y-73088095D01*
X151802380Y-74278571D02*
X151802380Y-74373809D01*
X151850000Y-74469047D01*
X151897619Y-74516666D01*
X151992857Y-74564285D01*
X152183333Y-74611904D01*
X152421428Y-74611904D01*
X152611904Y-74564285D01*
X152707142Y-74516666D01*
X152754761Y-74469047D01*
X152802380Y-74373809D01*
X152802380Y-74278571D01*
X152754761Y-74183333D01*
X152707142Y-74135714D01*
X152611904Y-74088095D01*
X152421428Y-74040476D01*
X152183333Y-74040476D01*
X151992857Y-74088095D01*
X151897619Y-74135714D01*
X151850000Y-74183333D01*
X151802380Y-74278571D01*
X171852380Y-72135714D02*
X170852380Y-72135714D01*
X170852380Y-72373809D01*
X170900000Y-72516666D01*
X170995238Y-72611904D01*
X171090476Y-72659523D01*
X171280952Y-72707142D01*
X171423809Y-72707142D01*
X171614285Y-72659523D01*
X171709523Y-72611904D01*
X171804761Y-72516666D01*
X171852380Y-72373809D01*
X171852380Y-72135714D01*
X170852380Y-73611904D02*
X170852380Y-73135714D01*
X171328571Y-73088095D01*
X171280952Y-73135714D01*
X171233333Y-73230952D01*
X171233333Y-73469047D01*
X171280952Y-73564285D01*
X171328571Y-73611904D01*
X171423809Y-73659523D01*
X171661904Y-73659523D01*
X171757142Y-73611904D01*
X171804761Y-73564285D01*
X171852380Y-73469047D01*
X171852380Y-73230952D01*
X171804761Y-73135714D01*
X171757142Y-73088095D01*
X171852380Y-74611904D02*
X171852380Y-74040476D01*
X171852380Y-74326190D02*
X170852380Y-74326190D01*
X170995238Y-74230952D01*
X171090476Y-74135714D01*
X171138095Y-74040476D01*
X190902380Y-72135714D02*
X189902380Y-72135714D01*
X189902380Y-72373809D01*
X189950000Y-72516666D01*
X190045238Y-72611904D01*
X190140476Y-72659523D01*
X190330952Y-72707142D01*
X190473809Y-72707142D01*
X190664285Y-72659523D01*
X190759523Y-72611904D01*
X190854761Y-72516666D01*
X190902380Y-72373809D01*
X190902380Y-72135714D01*
X189902380Y-73611904D02*
X189902380Y-73135714D01*
X190378571Y-73088095D01*
X190330952Y-73135714D01*
X190283333Y-73230952D01*
X190283333Y-73469047D01*
X190330952Y-73564285D01*
X190378571Y-73611904D01*
X190473809Y-73659523D01*
X190711904Y-73659523D01*
X190807142Y-73611904D01*
X190854761Y-73564285D01*
X190902380Y-73469047D01*
X190902380Y-73230952D01*
X190854761Y-73135714D01*
X190807142Y-73088095D01*
X189997619Y-74040476D02*
X189950000Y-74088095D01*
X189902380Y-74183333D01*
X189902380Y-74421428D01*
X189950000Y-74516666D01*
X189997619Y-74564285D01*
X190092857Y-74611904D01*
X190188095Y-74611904D01*
X190330952Y-74564285D01*
X190902380Y-73992857D01*
X190902380Y-74611904D01*
X210002380Y-72135714D02*
X209002380Y-72135714D01*
X209002380Y-72373809D01*
X209050000Y-72516666D01*
X209145238Y-72611904D01*
X209240476Y-72659523D01*
X209430952Y-72707142D01*
X209573809Y-72707142D01*
X209764285Y-72659523D01*
X209859523Y-72611904D01*
X209954761Y-72516666D01*
X210002380Y-72373809D01*
X210002380Y-72135714D01*
X209002380Y-73611904D02*
X209002380Y-73135714D01*
X209478571Y-73088095D01*
X209430952Y-73135714D01*
X209383333Y-73230952D01*
X209383333Y-73469047D01*
X209430952Y-73564285D01*
X209478571Y-73611904D01*
X209573809Y-73659523D01*
X209811904Y-73659523D01*
X209907142Y-73611904D01*
X209954761Y-73564285D01*
X210002380Y-73469047D01*
X210002380Y-73230952D01*
X209954761Y-73135714D01*
X209907142Y-73088095D01*
X209002380Y-73992857D02*
X209002380Y-74611904D01*
X209383333Y-74278571D01*
X209383333Y-74421428D01*
X209430952Y-74516666D01*
X209478571Y-74564285D01*
X209573809Y-74611904D01*
X209811904Y-74611904D01*
X209907142Y-74564285D01*
X209954761Y-74516666D01*
X210002380Y-74421428D01*
X210002380Y-74135714D01*
X209954761Y-74040476D01*
X209907142Y-73992857D01*
X229052380Y-72135714D02*
X228052380Y-72135714D01*
X228052380Y-72373809D01*
X228100000Y-72516666D01*
X228195238Y-72611904D01*
X228290476Y-72659523D01*
X228480952Y-72707142D01*
X228623809Y-72707142D01*
X228814285Y-72659523D01*
X228909523Y-72611904D01*
X229004761Y-72516666D01*
X229052380Y-72373809D01*
X229052380Y-72135714D01*
X228052380Y-73611904D02*
X228052380Y-73135714D01*
X228528571Y-73088095D01*
X228480952Y-73135714D01*
X228433333Y-73230952D01*
X228433333Y-73469047D01*
X228480952Y-73564285D01*
X228528571Y-73611904D01*
X228623809Y-73659523D01*
X228861904Y-73659523D01*
X228957142Y-73611904D01*
X229004761Y-73564285D01*
X229052380Y-73469047D01*
X229052380Y-73230952D01*
X229004761Y-73135714D01*
X228957142Y-73088095D01*
X228385714Y-74516666D02*
X229052380Y-74516666D01*
X228004761Y-74278571D02*
X228719047Y-74040476D01*
X228719047Y-74659523D01*
X248052380Y-72135714D02*
X247052380Y-72135714D01*
X247052380Y-72373809D01*
X247100000Y-72516666D01*
X247195238Y-72611904D01*
X247290476Y-72659523D01*
X247480952Y-72707142D01*
X247623809Y-72707142D01*
X247814285Y-72659523D01*
X247909523Y-72611904D01*
X248004761Y-72516666D01*
X248052380Y-72373809D01*
X248052380Y-72135714D01*
X247052380Y-73611904D02*
X247052380Y-73135714D01*
X247528571Y-73088095D01*
X247480952Y-73135714D01*
X247433333Y-73230952D01*
X247433333Y-73469047D01*
X247480952Y-73564285D01*
X247528571Y-73611904D01*
X247623809Y-73659523D01*
X247861904Y-73659523D01*
X247957142Y-73611904D01*
X248004761Y-73564285D01*
X248052380Y-73469047D01*
X248052380Y-73230952D01*
X248004761Y-73135714D01*
X247957142Y-73088095D01*
X247052380Y-74564285D02*
X247052380Y-74088095D01*
X247528571Y-74040476D01*
X247480952Y-74088095D01*
X247433333Y-74183333D01*
X247433333Y-74421428D01*
X247480952Y-74516666D01*
X247528571Y-74564285D01*
X247623809Y-74611904D01*
X247861904Y-74611904D01*
X247957142Y-74564285D01*
X248004761Y-74516666D01*
X248052380Y-74421428D01*
X248052380Y-74183333D01*
X248004761Y-74088095D01*
X247957142Y-74040476D01*
X267102380Y-72135714D02*
X266102380Y-72135714D01*
X266102380Y-72373809D01*
X266150000Y-72516666D01*
X266245238Y-72611904D01*
X266340476Y-72659523D01*
X266530952Y-72707142D01*
X266673809Y-72707142D01*
X266864285Y-72659523D01*
X266959523Y-72611904D01*
X267054761Y-72516666D01*
X267102380Y-72373809D01*
X267102380Y-72135714D01*
X266102380Y-73611904D02*
X266102380Y-73135714D01*
X266578571Y-73088095D01*
X266530952Y-73135714D01*
X266483333Y-73230952D01*
X266483333Y-73469047D01*
X266530952Y-73564285D01*
X266578571Y-73611904D01*
X266673809Y-73659523D01*
X266911904Y-73659523D01*
X267007142Y-73611904D01*
X267054761Y-73564285D01*
X267102380Y-73469047D01*
X267102380Y-73230952D01*
X267054761Y-73135714D01*
X267007142Y-73088095D01*
X266102380Y-74516666D02*
X266102380Y-74326190D01*
X266150000Y-74230952D01*
X266197619Y-74183333D01*
X266340476Y-74088095D01*
X266530952Y-74040476D01*
X266911904Y-74040476D01*
X267007142Y-74088095D01*
X267054761Y-74135714D01*
X267102380Y-74230952D01*
X267102380Y-74421428D01*
X267054761Y-74516666D01*
X267007142Y-74564285D01*
X266911904Y-74611904D01*
X266673809Y-74611904D01*
X266578571Y-74564285D01*
X266530952Y-74516666D01*
X266483333Y-74421428D01*
X266483333Y-74230952D01*
X266530952Y-74135714D01*
X266578571Y-74088095D01*
X266673809Y-74040476D01*
X290952380Y-72135714D02*
X289952380Y-72135714D01*
X289952380Y-72373809D01*
X290000000Y-72516666D01*
X290095238Y-72611904D01*
X290190476Y-72659523D01*
X290380952Y-72707142D01*
X290523809Y-72707142D01*
X290714285Y-72659523D01*
X290809523Y-72611904D01*
X290904761Y-72516666D01*
X290952380Y-72373809D01*
X290952380Y-72135714D01*
X289952380Y-73611904D02*
X289952380Y-73135714D01*
X290428571Y-73088095D01*
X290380952Y-73135714D01*
X290333333Y-73230952D01*
X290333333Y-73469047D01*
X290380952Y-73564285D01*
X290428571Y-73611904D01*
X290523809Y-73659523D01*
X290761904Y-73659523D01*
X290857142Y-73611904D01*
X290904761Y-73564285D01*
X290952380Y-73469047D01*
X290952380Y-73230952D01*
X290904761Y-73135714D01*
X290857142Y-73088095D01*
X289952380Y-73992857D02*
X289952380Y-74659523D01*
X290952380Y-74230952D01*
X321702380Y-72135714D02*
X320702380Y-72135714D01*
X320702380Y-72373809D01*
X320750000Y-72516666D01*
X320845238Y-72611904D01*
X320940476Y-72659523D01*
X321130952Y-72707142D01*
X321273809Y-72707142D01*
X321464285Y-72659523D01*
X321559523Y-72611904D01*
X321654761Y-72516666D01*
X321702380Y-72373809D01*
X321702380Y-72135714D01*
X320702380Y-73611904D02*
X320702380Y-73135714D01*
X321178571Y-73088095D01*
X321130952Y-73135714D01*
X321083333Y-73230952D01*
X321083333Y-73469047D01*
X321130952Y-73564285D01*
X321178571Y-73611904D01*
X321273809Y-73659523D01*
X321511904Y-73659523D01*
X321607142Y-73611904D01*
X321654761Y-73564285D01*
X321702380Y-73469047D01*
X321702380Y-73230952D01*
X321654761Y-73135714D01*
X321607142Y-73088095D01*
X321130952Y-74230952D02*
X321083333Y-74135714D01*
X321035714Y-74088095D01*
X320940476Y-74040476D01*
X320892857Y-74040476D01*
X320797619Y-74088095D01*
X320750000Y-74135714D01*
X320702380Y-74230952D01*
X320702380Y-74421428D01*
X320750000Y-74516666D01*
X320797619Y-74564285D01*
X320892857Y-74611904D01*
X320940476Y-74611904D01*
X321035714Y-74564285D01*
X321083333Y-74516666D01*
X321130952Y-74421428D01*
X321130952Y-74230952D01*
X321178571Y-74135714D01*
X321226190Y-74088095D01*
X321321428Y-74040476D01*
X321511904Y-74040476D01*
X321607142Y-74088095D01*
X321654761Y-74135714D01*
X321702380Y-74230952D01*
X321702380Y-74421428D01*
X321654761Y-74516666D01*
X321607142Y-74564285D01*
X321511904Y-74611904D01*
X321321428Y-74611904D01*
X321226190Y-74564285D01*
X321178571Y-74516666D01*
X321130952Y-74421428D01*
X340752380Y-72135714D02*
X339752380Y-72135714D01*
X339752380Y-72373809D01*
X339800000Y-72516666D01*
X339895238Y-72611904D01*
X339990476Y-72659523D01*
X340180952Y-72707142D01*
X340323809Y-72707142D01*
X340514285Y-72659523D01*
X340609523Y-72611904D01*
X340704761Y-72516666D01*
X340752380Y-72373809D01*
X340752380Y-72135714D01*
X339752380Y-73611904D02*
X339752380Y-73135714D01*
X340228571Y-73088095D01*
X340180952Y-73135714D01*
X340133333Y-73230952D01*
X340133333Y-73469047D01*
X340180952Y-73564285D01*
X340228571Y-73611904D01*
X340323809Y-73659523D01*
X340561904Y-73659523D01*
X340657142Y-73611904D01*
X340704761Y-73564285D01*
X340752380Y-73469047D01*
X340752380Y-73230952D01*
X340704761Y-73135714D01*
X340657142Y-73088095D01*
X340752380Y-74135714D02*
X340752380Y-74326190D01*
X340704761Y-74421428D01*
X340657142Y-74469047D01*
X340514285Y-74564285D01*
X340323809Y-74611904D01*
X339942857Y-74611904D01*
X339847619Y-74564285D01*
X339800000Y-74516666D01*
X339752380Y-74421428D01*
X339752380Y-74230952D01*
X339800000Y-74135714D01*
X339847619Y-74088095D01*
X339942857Y-74040476D01*
X340180952Y-74040476D01*
X340276190Y-74088095D01*
X340323809Y-74135714D01*
X340371428Y-74230952D01*
X340371428Y-74421428D01*
X340323809Y-74516666D01*
X340276190Y-74564285D01*
X340180952Y-74611904D01*
X359802380Y-72135714D02*
X358802380Y-72135714D01*
X358802380Y-72373809D01*
X358850000Y-72516666D01*
X358945238Y-72611904D01*
X359040476Y-72659523D01*
X359230952Y-72707142D01*
X359373809Y-72707142D01*
X359564285Y-72659523D01*
X359659523Y-72611904D01*
X359754761Y-72516666D01*
X359802380Y-72373809D01*
X359802380Y-72135714D01*
X358802380Y-73564285D02*
X358802380Y-73373809D01*
X358850000Y-73278571D01*
X358897619Y-73230952D01*
X359040476Y-73135714D01*
X359230952Y-73088095D01*
X359611904Y-73088095D01*
X359707142Y-73135714D01*
X359754761Y-73183333D01*
X359802380Y-73278571D01*
X359802380Y-73469047D01*
X359754761Y-73564285D01*
X359707142Y-73611904D01*
X359611904Y-73659523D01*
X359373809Y-73659523D01*
X359278571Y-73611904D01*
X359230952Y-73564285D01*
X359183333Y-73469047D01*
X359183333Y-73278571D01*
X359230952Y-73183333D01*
X359278571Y-73135714D01*
X359373809Y-73088095D01*
X358802380Y-74278571D02*
X358802380Y-74373809D01*
X358850000Y-74469047D01*
X358897619Y-74516666D01*
X358992857Y-74564285D01*
X359183333Y-74611904D01*
X359421428Y-74611904D01*
X359611904Y-74564285D01*
X359707142Y-74516666D01*
X359754761Y-74469047D01*
X359802380Y-74373809D01*
X359802380Y-74278571D01*
X359754761Y-74183333D01*
X359707142Y-74135714D01*
X359611904Y-74088095D01*
X359421428Y-74040476D01*
X359183333Y-74040476D01*
X358992857Y-74088095D01*
X358897619Y-74135714D01*
X358850000Y-74183333D01*
X358802380Y-74278571D01*
X385802380Y-72135714D02*
X384802380Y-72135714D01*
X384802380Y-72373809D01*
X384850000Y-72516666D01*
X384945238Y-72611904D01*
X385040476Y-72659523D01*
X385230952Y-72707142D01*
X385373809Y-72707142D01*
X385564285Y-72659523D01*
X385659523Y-72611904D01*
X385754761Y-72516666D01*
X385802380Y-72373809D01*
X385802380Y-72135714D01*
X384802380Y-73564285D02*
X384802380Y-73373809D01*
X384850000Y-73278571D01*
X384897619Y-73230952D01*
X385040476Y-73135714D01*
X385230952Y-73088095D01*
X385611904Y-73088095D01*
X385707142Y-73135714D01*
X385754761Y-73183333D01*
X385802380Y-73278571D01*
X385802380Y-73469047D01*
X385754761Y-73564285D01*
X385707142Y-73611904D01*
X385611904Y-73659523D01*
X385373809Y-73659523D01*
X385278571Y-73611904D01*
X385230952Y-73564285D01*
X385183333Y-73469047D01*
X385183333Y-73278571D01*
X385230952Y-73183333D01*
X385278571Y-73135714D01*
X385373809Y-73088095D01*
X385802380Y-74611904D02*
X385802380Y-74040476D01*
X385802380Y-74326190D02*
X384802380Y-74326190D01*
X384945238Y-74230952D01*
X385040476Y-74135714D01*
X385088095Y-74040476D01*
X404852380Y-72135714D02*
X403852380Y-72135714D01*
X403852380Y-72373809D01*
X403900000Y-72516666D01*
X403995238Y-72611904D01*
X404090476Y-72659523D01*
X404280952Y-72707142D01*
X404423809Y-72707142D01*
X404614285Y-72659523D01*
X404709523Y-72611904D01*
X404804761Y-72516666D01*
X404852380Y-72373809D01*
X404852380Y-72135714D01*
X403852380Y-73564285D02*
X403852380Y-73373809D01*
X403900000Y-73278571D01*
X403947619Y-73230952D01*
X404090476Y-73135714D01*
X404280952Y-73088095D01*
X404661904Y-73088095D01*
X404757142Y-73135714D01*
X404804761Y-73183333D01*
X404852380Y-73278571D01*
X404852380Y-73469047D01*
X404804761Y-73564285D01*
X404757142Y-73611904D01*
X404661904Y-73659523D01*
X404423809Y-73659523D01*
X404328571Y-73611904D01*
X404280952Y-73564285D01*
X404233333Y-73469047D01*
X404233333Y-73278571D01*
X404280952Y-73183333D01*
X404328571Y-73135714D01*
X404423809Y-73088095D01*
X403947619Y-74040476D02*
X403900000Y-74088095D01*
X403852380Y-74183333D01*
X403852380Y-74421428D01*
X403900000Y-74516666D01*
X403947619Y-74564285D01*
X404042857Y-74611904D01*
X404138095Y-74611904D01*
X404280952Y-74564285D01*
X404852380Y-73992857D01*
X404852380Y-74611904D01*
X423902380Y-72135714D02*
X422902380Y-72135714D01*
X422902380Y-72373809D01*
X422950000Y-72516666D01*
X423045238Y-72611904D01*
X423140476Y-72659523D01*
X423330952Y-72707142D01*
X423473809Y-72707142D01*
X423664285Y-72659523D01*
X423759523Y-72611904D01*
X423854761Y-72516666D01*
X423902380Y-72373809D01*
X423902380Y-72135714D01*
X422902380Y-73564285D02*
X422902380Y-73373809D01*
X422950000Y-73278571D01*
X422997619Y-73230952D01*
X423140476Y-73135714D01*
X423330952Y-73088095D01*
X423711904Y-73088095D01*
X423807142Y-73135714D01*
X423854761Y-73183333D01*
X423902380Y-73278571D01*
X423902380Y-73469047D01*
X423854761Y-73564285D01*
X423807142Y-73611904D01*
X423711904Y-73659523D01*
X423473809Y-73659523D01*
X423378571Y-73611904D01*
X423330952Y-73564285D01*
X423283333Y-73469047D01*
X423283333Y-73278571D01*
X423330952Y-73183333D01*
X423378571Y-73135714D01*
X423473809Y-73088095D01*
X422902380Y-73992857D02*
X422902380Y-74611904D01*
X423283333Y-74278571D01*
X423283333Y-74421428D01*
X423330952Y-74516666D01*
X423378571Y-74564285D01*
X423473809Y-74611904D01*
X423711904Y-74611904D01*
X423807142Y-74564285D01*
X423854761Y-74516666D01*
X423902380Y-74421428D01*
X423902380Y-74135714D01*
X423854761Y-74040476D01*
X423807142Y-73992857D01*
X438152380Y-72135714D02*
X437152380Y-72135714D01*
X437152380Y-72373809D01*
X437200000Y-72516666D01*
X437295238Y-72611904D01*
X437390476Y-72659523D01*
X437580952Y-72707142D01*
X437723809Y-72707142D01*
X437914285Y-72659523D01*
X438009523Y-72611904D01*
X438104761Y-72516666D01*
X438152380Y-72373809D01*
X438152380Y-72135714D01*
X437152380Y-73564285D02*
X437152380Y-73373809D01*
X437200000Y-73278571D01*
X437247619Y-73230952D01*
X437390476Y-73135714D01*
X437580952Y-73088095D01*
X437961904Y-73088095D01*
X438057142Y-73135714D01*
X438104761Y-73183333D01*
X438152380Y-73278571D01*
X438152380Y-73469047D01*
X438104761Y-73564285D01*
X438057142Y-73611904D01*
X437961904Y-73659523D01*
X437723809Y-73659523D01*
X437628571Y-73611904D01*
X437580952Y-73564285D01*
X437533333Y-73469047D01*
X437533333Y-73278571D01*
X437580952Y-73183333D01*
X437628571Y-73135714D01*
X437723809Y-73088095D01*
X437485714Y-74516666D02*
X438152380Y-74516666D01*
X437104761Y-74278571D02*
X437819047Y-74040476D01*
X437819047Y-74659523D01*
X36152380Y-91185714D02*
X35152380Y-91185714D01*
X35152380Y-91423809D01*
X35200000Y-91566666D01*
X35295238Y-91661904D01*
X35390476Y-91709523D01*
X35580952Y-91757142D01*
X35723809Y-91757142D01*
X35914285Y-91709523D01*
X36009523Y-91661904D01*
X36104761Y-91566666D01*
X36152380Y-91423809D01*
X36152380Y-91185714D01*
X35152380Y-92614285D02*
X35152380Y-92423809D01*
X35200000Y-92328571D01*
X35247619Y-92280952D01*
X35390476Y-92185714D01*
X35580952Y-92138095D01*
X35961904Y-92138095D01*
X36057142Y-92185714D01*
X36104761Y-92233333D01*
X36152380Y-92328571D01*
X36152380Y-92519047D01*
X36104761Y-92614285D01*
X36057142Y-92661904D01*
X35961904Y-92709523D01*
X35723809Y-92709523D01*
X35628571Y-92661904D01*
X35580952Y-92614285D01*
X35533333Y-92519047D01*
X35533333Y-92328571D01*
X35580952Y-92233333D01*
X35628571Y-92185714D01*
X35723809Y-92138095D01*
X35152380Y-93042857D02*
X35152380Y-93709523D01*
X36152380Y-93280952D01*
X62352380Y-91185714D02*
X61352380Y-91185714D01*
X61352380Y-91423809D01*
X61400000Y-91566666D01*
X61495238Y-91661904D01*
X61590476Y-91709523D01*
X61780952Y-91757142D01*
X61923809Y-91757142D01*
X62114285Y-91709523D01*
X62209523Y-91661904D01*
X62304761Y-91566666D01*
X62352380Y-91423809D01*
X62352380Y-91185714D01*
X61352380Y-92614285D02*
X61352380Y-92423809D01*
X61400000Y-92328571D01*
X61447619Y-92280952D01*
X61590476Y-92185714D01*
X61780952Y-92138095D01*
X62161904Y-92138095D01*
X62257142Y-92185714D01*
X62304761Y-92233333D01*
X62352380Y-92328571D01*
X62352380Y-92519047D01*
X62304761Y-92614285D01*
X62257142Y-92661904D01*
X62161904Y-92709523D01*
X61923809Y-92709523D01*
X61828571Y-92661904D01*
X61780952Y-92614285D01*
X61733333Y-92519047D01*
X61733333Y-92328571D01*
X61780952Y-92233333D01*
X61828571Y-92185714D01*
X61923809Y-92138095D01*
X61780952Y-93280952D02*
X61733333Y-93185714D01*
X61685714Y-93138095D01*
X61590476Y-93090476D01*
X61542857Y-93090476D01*
X61447619Y-93138095D01*
X61400000Y-93185714D01*
X61352380Y-93280952D01*
X61352380Y-93471428D01*
X61400000Y-93566666D01*
X61447619Y-93614285D01*
X61542857Y-93661904D01*
X61590476Y-93661904D01*
X61685714Y-93614285D01*
X61733333Y-93566666D01*
X61780952Y-93471428D01*
X61780952Y-93280952D01*
X61828571Y-93185714D01*
X61876190Y-93138095D01*
X61971428Y-93090476D01*
X62161904Y-93090476D01*
X62257142Y-93138095D01*
X62304761Y-93185714D01*
X62352380Y-93280952D01*
X62352380Y-93471428D01*
X62304761Y-93566666D01*
X62257142Y-93614285D01*
X62161904Y-93661904D01*
X61971428Y-93661904D01*
X61876190Y-93614285D01*
X61828571Y-93566666D01*
X61780952Y-93471428D01*
X81402380Y-91185714D02*
X80402380Y-91185714D01*
X80402380Y-91423809D01*
X80450000Y-91566666D01*
X80545238Y-91661904D01*
X80640476Y-91709523D01*
X80830952Y-91757142D01*
X80973809Y-91757142D01*
X81164285Y-91709523D01*
X81259523Y-91661904D01*
X81354761Y-91566666D01*
X81402380Y-91423809D01*
X81402380Y-91185714D01*
X80402380Y-92614285D02*
X80402380Y-92423809D01*
X80450000Y-92328571D01*
X80497619Y-92280952D01*
X80640476Y-92185714D01*
X80830952Y-92138095D01*
X81211904Y-92138095D01*
X81307142Y-92185714D01*
X81354761Y-92233333D01*
X81402380Y-92328571D01*
X81402380Y-92519047D01*
X81354761Y-92614285D01*
X81307142Y-92661904D01*
X81211904Y-92709523D01*
X80973809Y-92709523D01*
X80878571Y-92661904D01*
X80830952Y-92614285D01*
X80783333Y-92519047D01*
X80783333Y-92328571D01*
X80830952Y-92233333D01*
X80878571Y-92185714D01*
X80973809Y-92138095D01*
X81402380Y-93185714D02*
X81402380Y-93376190D01*
X81354761Y-93471428D01*
X81307142Y-93519047D01*
X81164285Y-93614285D01*
X80973809Y-93661904D01*
X80592857Y-93661904D01*
X80497619Y-93614285D01*
X80450000Y-93566666D01*
X80402380Y-93471428D01*
X80402380Y-93280952D01*
X80450000Y-93185714D01*
X80497619Y-93138095D01*
X80592857Y-93090476D01*
X80830952Y-93090476D01*
X80926190Y-93138095D01*
X80973809Y-93185714D01*
X81021428Y-93280952D01*
X81021428Y-93471428D01*
X80973809Y-93566666D01*
X80926190Y-93614285D01*
X80830952Y-93661904D01*
X100452380Y-91185714D02*
X99452380Y-91185714D01*
X99452380Y-91423809D01*
X99500000Y-91566666D01*
X99595238Y-91661904D01*
X99690476Y-91709523D01*
X99880952Y-91757142D01*
X100023809Y-91757142D01*
X100214285Y-91709523D01*
X100309523Y-91661904D01*
X100404761Y-91566666D01*
X100452380Y-91423809D01*
X100452380Y-91185714D01*
X99452380Y-92090476D02*
X99452380Y-92757142D01*
X100452380Y-92328571D01*
X99452380Y-93328571D02*
X99452380Y-93423809D01*
X99500000Y-93519047D01*
X99547619Y-93566666D01*
X99642857Y-93614285D01*
X99833333Y-93661904D01*
X100071428Y-93661904D01*
X100261904Y-93614285D01*
X100357142Y-93566666D01*
X100404761Y-93519047D01*
X100452380Y-93423809D01*
X100452380Y-93328571D01*
X100404761Y-93233333D01*
X100357142Y-93185714D01*
X100261904Y-93138095D01*
X100071428Y-93090476D01*
X99833333Y-93090476D01*
X99642857Y-93138095D01*
X99547619Y-93185714D01*
X99500000Y-93233333D01*
X99452380Y-93328571D01*
X119502380Y-91185714D02*
X118502380Y-91185714D01*
X118502380Y-91423809D01*
X118550000Y-91566666D01*
X118645238Y-91661904D01*
X118740476Y-91709523D01*
X118930952Y-91757142D01*
X119073809Y-91757142D01*
X119264285Y-91709523D01*
X119359523Y-91661904D01*
X119454761Y-91566666D01*
X119502380Y-91423809D01*
X119502380Y-91185714D01*
X118502380Y-92090476D02*
X118502380Y-92757142D01*
X119502380Y-92328571D01*
X119502380Y-93661904D02*
X119502380Y-93090476D01*
X119502380Y-93376190D02*
X118502380Y-93376190D01*
X118645238Y-93280952D01*
X118740476Y-93185714D01*
X118788095Y-93090476D01*
X138552380Y-91185714D02*
X137552380Y-91185714D01*
X137552380Y-91423809D01*
X137600000Y-91566666D01*
X137695238Y-91661904D01*
X137790476Y-91709523D01*
X137980952Y-91757142D01*
X138123809Y-91757142D01*
X138314285Y-91709523D01*
X138409523Y-91661904D01*
X138504761Y-91566666D01*
X138552380Y-91423809D01*
X138552380Y-91185714D01*
X137552380Y-92090476D02*
X137552380Y-92757142D01*
X138552380Y-92328571D01*
X137647619Y-93090476D02*
X137600000Y-93138095D01*
X137552380Y-93233333D01*
X137552380Y-93471428D01*
X137600000Y-93566666D01*
X137647619Y-93614285D01*
X137742857Y-93661904D01*
X137838095Y-93661904D01*
X137980952Y-93614285D01*
X138552380Y-93042857D01*
X138552380Y-93661904D01*
X157602380Y-91185714D02*
X156602380Y-91185714D01*
X156602380Y-91423809D01*
X156650000Y-91566666D01*
X156745238Y-91661904D01*
X156840476Y-91709523D01*
X157030952Y-91757142D01*
X157173809Y-91757142D01*
X157364285Y-91709523D01*
X157459523Y-91661904D01*
X157554761Y-91566666D01*
X157602380Y-91423809D01*
X157602380Y-91185714D01*
X156602380Y-92090476D02*
X156602380Y-92757142D01*
X157602380Y-92328571D01*
X156602380Y-93042857D02*
X156602380Y-93661904D01*
X156983333Y-93328571D01*
X156983333Y-93471428D01*
X157030952Y-93566666D01*
X157078571Y-93614285D01*
X157173809Y-93661904D01*
X157411904Y-93661904D01*
X157507142Y-93614285D01*
X157554761Y-93566666D01*
X157602380Y-93471428D01*
X157602380Y-93185714D01*
X157554761Y-93090476D01*
X157507142Y-93042857D01*
X176652380Y-91185714D02*
X175652380Y-91185714D01*
X175652380Y-91423809D01*
X175700000Y-91566666D01*
X175795238Y-91661904D01*
X175890476Y-91709523D01*
X176080952Y-91757142D01*
X176223809Y-91757142D01*
X176414285Y-91709523D01*
X176509523Y-91661904D01*
X176604761Y-91566666D01*
X176652380Y-91423809D01*
X176652380Y-91185714D01*
X175652380Y-92090476D02*
X175652380Y-92757142D01*
X176652380Y-92328571D01*
X175985714Y-93566666D02*
X176652380Y-93566666D01*
X175604761Y-93328571D02*
X176319047Y-93090476D01*
X176319047Y-93709523D01*
X195702380Y-91185714D02*
X194702380Y-91185714D01*
X194702380Y-91423809D01*
X194750000Y-91566666D01*
X194845238Y-91661904D01*
X194940476Y-91709523D01*
X195130952Y-91757142D01*
X195273809Y-91757142D01*
X195464285Y-91709523D01*
X195559523Y-91661904D01*
X195654761Y-91566666D01*
X195702380Y-91423809D01*
X195702380Y-91185714D01*
X194702380Y-92090476D02*
X194702380Y-92757142D01*
X195702380Y-92328571D01*
X194702380Y-93614285D02*
X194702380Y-93138095D01*
X195178571Y-93090476D01*
X195130952Y-93138095D01*
X195083333Y-93233333D01*
X195083333Y-93471428D01*
X195130952Y-93566666D01*
X195178571Y-93614285D01*
X195273809Y-93661904D01*
X195511904Y-93661904D01*
X195607142Y-93614285D01*
X195654761Y-93566666D01*
X195702380Y-93471428D01*
X195702380Y-93233333D01*
X195654761Y-93138095D01*
X195607142Y-93090476D01*
X214752380Y-91185714D02*
X213752380Y-91185714D01*
X213752380Y-91423809D01*
X213800000Y-91566666D01*
X213895238Y-91661904D01*
X213990476Y-91709523D01*
X214180952Y-91757142D01*
X214323809Y-91757142D01*
X214514285Y-91709523D01*
X214609523Y-91661904D01*
X214704761Y-91566666D01*
X214752380Y-91423809D01*
X214752380Y-91185714D01*
X213752380Y-92090476D02*
X213752380Y-92757142D01*
X214752380Y-92328571D01*
X213752380Y-93566666D02*
X213752380Y-93376190D01*
X213800000Y-93280952D01*
X213847619Y-93233333D01*
X213990476Y-93138095D01*
X214180952Y-93090476D01*
X214561904Y-93090476D01*
X214657142Y-93138095D01*
X214704761Y-93185714D01*
X214752380Y-93280952D01*
X214752380Y-93471428D01*
X214704761Y-93566666D01*
X214657142Y-93614285D01*
X214561904Y-93661904D01*
X214323809Y-93661904D01*
X214228571Y-93614285D01*
X214180952Y-93566666D01*
X214133333Y-93471428D01*
X214133333Y-93280952D01*
X214180952Y-93185714D01*
X214228571Y-93138095D01*
X214323809Y-93090476D01*
X233802380Y-91185714D02*
X232802380Y-91185714D01*
X232802380Y-91423809D01*
X232850000Y-91566666D01*
X232945238Y-91661904D01*
X233040476Y-91709523D01*
X233230952Y-91757142D01*
X233373809Y-91757142D01*
X233564285Y-91709523D01*
X233659523Y-91661904D01*
X233754761Y-91566666D01*
X233802380Y-91423809D01*
X233802380Y-91185714D01*
X232802380Y-92090476D02*
X232802380Y-92757142D01*
X233802380Y-92328571D01*
X232802380Y-93042857D02*
X232802380Y-93709523D01*
X233802380Y-93280952D01*
X252852380Y-91185714D02*
X251852380Y-91185714D01*
X251852380Y-91423809D01*
X251900000Y-91566666D01*
X251995238Y-91661904D01*
X252090476Y-91709523D01*
X252280952Y-91757142D01*
X252423809Y-91757142D01*
X252614285Y-91709523D01*
X252709523Y-91661904D01*
X252804761Y-91566666D01*
X252852380Y-91423809D01*
X252852380Y-91185714D01*
X251852380Y-92090476D02*
X251852380Y-92757142D01*
X252852380Y-92328571D01*
X252280952Y-93280952D02*
X252233333Y-93185714D01*
X252185714Y-93138095D01*
X252090476Y-93090476D01*
X252042857Y-93090476D01*
X251947619Y-93138095D01*
X251900000Y-93185714D01*
X251852380Y-93280952D01*
X251852380Y-93471428D01*
X251900000Y-93566666D01*
X251947619Y-93614285D01*
X252042857Y-93661904D01*
X252090476Y-93661904D01*
X252185714Y-93614285D01*
X252233333Y-93566666D01*
X252280952Y-93471428D01*
X252280952Y-93280952D01*
X252328571Y-93185714D01*
X252376190Y-93138095D01*
X252471428Y-93090476D01*
X252661904Y-93090476D01*
X252757142Y-93138095D01*
X252804761Y-93185714D01*
X252852380Y-93280952D01*
X252852380Y-93471428D01*
X252804761Y-93566666D01*
X252757142Y-93614285D01*
X252661904Y-93661904D01*
X252471428Y-93661904D01*
X252376190Y-93614285D01*
X252328571Y-93566666D01*
X252280952Y-93471428D01*
X283802380Y-91185714D02*
X282802380Y-91185714D01*
X282802380Y-91423809D01*
X282850000Y-91566666D01*
X282945238Y-91661904D01*
X283040476Y-91709523D01*
X283230952Y-91757142D01*
X283373809Y-91757142D01*
X283564285Y-91709523D01*
X283659523Y-91661904D01*
X283754761Y-91566666D01*
X283802380Y-91423809D01*
X283802380Y-91185714D01*
X282802380Y-92090476D02*
X282802380Y-92757142D01*
X283802380Y-92328571D01*
X283802380Y-93185714D02*
X283802380Y-93376190D01*
X283754761Y-93471428D01*
X283707142Y-93519047D01*
X283564285Y-93614285D01*
X283373809Y-93661904D01*
X282992857Y-93661904D01*
X282897619Y-93614285D01*
X282850000Y-93566666D01*
X282802380Y-93471428D01*
X282802380Y-93280952D01*
X282850000Y-93185714D01*
X282897619Y-93138095D01*
X282992857Y-93090476D01*
X283230952Y-93090476D01*
X283326190Y-93138095D01*
X283373809Y-93185714D01*
X283421428Y-93280952D01*
X283421428Y-93471428D01*
X283373809Y-93566666D01*
X283326190Y-93614285D01*
X283230952Y-93661904D01*
X385802380Y-91185714D02*
X384802380Y-91185714D01*
X384802380Y-91423809D01*
X384850000Y-91566666D01*
X384945238Y-91661904D01*
X385040476Y-91709523D01*
X385230952Y-91757142D01*
X385373809Y-91757142D01*
X385564285Y-91709523D01*
X385659523Y-91661904D01*
X385754761Y-91566666D01*
X385802380Y-91423809D01*
X385802380Y-91185714D01*
X385230952Y-92328571D02*
X385183333Y-92233333D01*
X385135714Y-92185714D01*
X385040476Y-92138095D01*
X384992857Y-92138095D01*
X384897619Y-92185714D01*
X384850000Y-92233333D01*
X384802380Y-92328571D01*
X384802380Y-92519047D01*
X384850000Y-92614285D01*
X384897619Y-92661904D01*
X384992857Y-92709523D01*
X385040476Y-92709523D01*
X385135714Y-92661904D01*
X385183333Y-92614285D01*
X385230952Y-92519047D01*
X385230952Y-92328571D01*
X385278571Y-92233333D01*
X385326190Y-92185714D01*
X385421428Y-92138095D01*
X385611904Y-92138095D01*
X385707142Y-92185714D01*
X385754761Y-92233333D01*
X385802380Y-92328571D01*
X385802380Y-92519047D01*
X385754761Y-92614285D01*
X385707142Y-92661904D01*
X385611904Y-92709523D01*
X385421428Y-92709523D01*
X385326190Y-92661904D01*
X385278571Y-92614285D01*
X385230952Y-92519047D01*
X384802380Y-93042857D02*
X384802380Y-93661904D01*
X385183333Y-93328571D01*
X385183333Y-93471428D01*
X385230952Y-93566666D01*
X385278571Y-93614285D01*
X385373809Y-93661904D01*
X385611904Y-93661904D01*
X385707142Y-93614285D01*
X385754761Y-93566666D01*
X385802380Y-93471428D01*
X385802380Y-93185714D01*
X385754761Y-93090476D01*
X385707142Y-93042857D01*
X404852380Y-91185714D02*
X403852380Y-91185714D01*
X403852380Y-91423809D01*
X403900000Y-91566666D01*
X403995238Y-91661904D01*
X404090476Y-91709523D01*
X404280952Y-91757142D01*
X404423809Y-91757142D01*
X404614285Y-91709523D01*
X404709523Y-91661904D01*
X404804761Y-91566666D01*
X404852380Y-91423809D01*
X404852380Y-91185714D01*
X404280952Y-92328571D02*
X404233333Y-92233333D01*
X404185714Y-92185714D01*
X404090476Y-92138095D01*
X404042857Y-92138095D01*
X403947619Y-92185714D01*
X403900000Y-92233333D01*
X403852380Y-92328571D01*
X403852380Y-92519047D01*
X403900000Y-92614285D01*
X403947619Y-92661904D01*
X404042857Y-92709523D01*
X404090476Y-92709523D01*
X404185714Y-92661904D01*
X404233333Y-92614285D01*
X404280952Y-92519047D01*
X404280952Y-92328571D01*
X404328571Y-92233333D01*
X404376190Y-92185714D01*
X404471428Y-92138095D01*
X404661904Y-92138095D01*
X404757142Y-92185714D01*
X404804761Y-92233333D01*
X404852380Y-92328571D01*
X404852380Y-92519047D01*
X404804761Y-92614285D01*
X404757142Y-92661904D01*
X404661904Y-92709523D01*
X404471428Y-92709523D01*
X404376190Y-92661904D01*
X404328571Y-92614285D01*
X404280952Y-92519047D01*
X404185714Y-93566666D02*
X404852380Y-93566666D01*
X403804761Y-93328571D02*
X404519047Y-93090476D01*
X404519047Y-93709523D01*
X423902380Y-91185714D02*
X422902380Y-91185714D01*
X422902380Y-91423809D01*
X422950000Y-91566666D01*
X423045238Y-91661904D01*
X423140476Y-91709523D01*
X423330952Y-91757142D01*
X423473809Y-91757142D01*
X423664285Y-91709523D01*
X423759523Y-91661904D01*
X423854761Y-91566666D01*
X423902380Y-91423809D01*
X423902380Y-91185714D01*
X423330952Y-92328571D02*
X423283333Y-92233333D01*
X423235714Y-92185714D01*
X423140476Y-92138095D01*
X423092857Y-92138095D01*
X422997619Y-92185714D01*
X422950000Y-92233333D01*
X422902380Y-92328571D01*
X422902380Y-92519047D01*
X422950000Y-92614285D01*
X422997619Y-92661904D01*
X423092857Y-92709523D01*
X423140476Y-92709523D01*
X423235714Y-92661904D01*
X423283333Y-92614285D01*
X423330952Y-92519047D01*
X423330952Y-92328571D01*
X423378571Y-92233333D01*
X423426190Y-92185714D01*
X423521428Y-92138095D01*
X423711904Y-92138095D01*
X423807142Y-92185714D01*
X423854761Y-92233333D01*
X423902380Y-92328571D01*
X423902380Y-92519047D01*
X423854761Y-92614285D01*
X423807142Y-92661904D01*
X423711904Y-92709523D01*
X423521428Y-92709523D01*
X423426190Y-92661904D01*
X423378571Y-92614285D01*
X423330952Y-92519047D01*
X422902380Y-93614285D02*
X422902380Y-93138095D01*
X423378571Y-93090476D01*
X423330952Y-93138095D01*
X423283333Y-93233333D01*
X423283333Y-93471428D01*
X423330952Y-93566666D01*
X423378571Y-93614285D01*
X423473809Y-93661904D01*
X423711904Y-93661904D01*
X423807142Y-93614285D01*
X423854761Y-93566666D01*
X423902380Y-93471428D01*
X423902380Y-93233333D01*
X423854761Y-93138095D01*
X423807142Y-93090476D01*
X423952380Y-96885714D02*
X422952380Y-96885714D01*
X422952380Y-97123809D01*
X423000000Y-97266666D01*
X423095238Y-97361904D01*
X423190476Y-97409523D01*
X423380952Y-97457142D01*
X423523809Y-97457142D01*
X423714285Y-97409523D01*
X423809523Y-97361904D01*
X423904761Y-97266666D01*
X423952380Y-97123809D01*
X423952380Y-96885714D01*
X423380952Y-98028571D02*
X423333333Y-97933333D01*
X423285714Y-97885714D01*
X423190476Y-97838095D01*
X423142857Y-97838095D01*
X423047619Y-97885714D01*
X423000000Y-97933333D01*
X422952380Y-98028571D01*
X422952380Y-98219047D01*
X423000000Y-98314285D01*
X423047619Y-98361904D01*
X423142857Y-98409523D01*
X423190476Y-98409523D01*
X423285714Y-98361904D01*
X423333333Y-98314285D01*
X423380952Y-98219047D01*
X423380952Y-98028571D01*
X423428571Y-97933333D01*
X423476190Y-97885714D01*
X423571428Y-97838095D01*
X423761904Y-97838095D01*
X423857142Y-97885714D01*
X423904761Y-97933333D01*
X423952380Y-98028571D01*
X423952380Y-98219047D01*
X423904761Y-98314285D01*
X423857142Y-98361904D01*
X423761904Y-98409523D01*
X423571428Y-98409523D01*
X423476190Y-98361904D01*
X423428571Y-98314285D01*
X423380952Y-98219047D01*
X422952380Y-99266666D02*
X422952380Y-99076190D01*
X423000000Y-98980952D01*
X423047619Y-98933333D01*
X423190476Y-98838095D01*
X423380952Y-98790476D01*
X423761904Y-98790476D01*
X423857142Y-98838095D01*
X423904761Y-98885714D01*
X423952380Y-98980952D01*
X423952380Y-99171428D01*
X423904761Y-99266666D01*
X423857142Y-99314285D01*
X423761904Y-99361904D01*
X423523809Y-99361904D01*
X423428571Y-99314285D01*
X423380952Y-99266666D01*
X423333333Y-99171428D01*
X423333333Y-98980952D01*
X423380952Y-98885714D01*
X423428571Y-98838095D01*
X423523809Y-98790476D01*
X28702380Y-113085714D02*
X27702380Y-113085714D01*
X27702380Y-113323809D01*
X27750000Y-113466666D01*
X27845238Y-113561904D01*
X27940476Y-113609523D01*
X28130952Y-113657142D01*
X28273809Y-113657142D01*
X28464285Y-113609523D01*
X28559523Y-113561904D01*
X28654761Y-113466666D01*
X28702380Y-113323809D01*
X28702380Y-113085714D01*
X28130952Y-114228571D02*
X28083333Y-114133333D01*
X28035714Y-114085714D01*
X27940476Y-114038095D01*
X27892857Y-114038095D01*
X27797619Y-114085714D01*
X27750000Y-114133333D01*
X27702380Y-114228571D01*
X27702380Y-114419047D01*
X27750000Y-114514285D01*
X27797619Y-114561904D01*
X27892857Y-114609523D01*
X27940476Y-114609523D01*
X28035714Y-114561904D01*
X28083333Y-114514285D01*
X28130952Y-114419047D01*
X28130952Y-114228571D01*
X28178571Y-114133333D01*
X28226190Y-114085714D01*
X28321428Y-114038095D01*
X28511904Y-114038095D01*
X28607142Y-114085714D01*
X28654761Y-114133333D01*
X28702380Y-114228571D01*
X28702380Y-114419047D01*
X28654761Y-114514285D01*
X28607142Y-114561904D01*
X28511904Y-114609523D01*
X28321428Y-114609523D01*
X28226190Y-114561904D01*
X28178571Y-114514285D01*
X28130952Y-114419047D01*
X28702380Y-115085714D02*
X28702380Y-115276190D01*
X28654761Y-115371428D01*
X28607142Y-115419047D01*
X28464285Y-115514285D01*
X28273809Y-115561904D01*
X27892857Y-115561904D01*
X27797619Y-115514285D01*
X27750000Y-115466666D01*
X27702380Y-115371428D01*
X27702380Y-115180952D01*
X27750000Y-115085714D01*
X27797619Y-115038095D01*
X27892857Y-114990476D01*
X28130952Y-114990476D01*
X28226190Y-115038095D01*
X28273809Y-115085714D01*
X28321428Y-115180952D01*
X28321428Y-115371428D01*
X28273809Y-115466666D01*
X28226190Y-115514285D01*
X28130952Y-115561904D01*
X71852380Y-110235714D02*
X70852380Y-110235714D01*
X70852380Y-110473809D01*
X70900000Y-110616666D01*
X70995238Y-110711904D01*
X71090476Y-110759523D01*
X71280952Y-110807142D01*
X71423809Y-110807142D01*
X71614285Y-110759523D01*
X71709523Y-110711904D01*
X71804761Y-110616666D01*
X71852380Y-110473809D01*
X71852380Y-110235714D01*
X71852380Y-111283333D02*
X71852380Y-111473809D01*
X71804761Y-111569047D01*
X71757142Y-111616666D01*
X71614285Y-111711904D01*
X71423809Y-111759523D01*
X71042857Y-111759523D01*
X70947619Y-111711904D01*
X70900000Y-111664285D01*
X70852380Y-111569047D01*
X70852380Y-111378571D01*
X70900000Y-111283333D01*
X70947619Y-111235714D01*
X71042857Y-111188095D01*
X71280952Y-111188095D01*
X71376190Y-111235714D01*
X71423809Y-111283333D01*
X71471428Y-111378571D01*
X71471428Y-111569047D01*
X71423809Y-111664285D01*
X71376190Y-111711904D01*
X71280952Y-111759523D01*
X70852380Y-112378571D02*
X70852380Y-112473809D01*
X70900000Y-112569047D01*
X70947619Y-112616666D01*
X71042857Y-112664285D01*
X71233333Y-112711904D01*
X71471428Y-112711904D01*
X71661904Y-112664285D01*
X71757142Y-112616666D01*
X71804761Y-112569047D01*
X71852380Y-112473809D01*
X71852380Y-112378571D01*
X71804761Y-112283333D01*
X71757142Y-112235714D01*
X71661904Y-112188095D01*
X71471428Y-112140476D01*
X71233333Y-112140476D01*
X71042857Y-112188095D01*
X70947619Y-112235714D01*
X70900000Y-112283333D01*
X70852380Y-112378571D01*
X90902380Y-110235714D02*
X89902380Y-110235714D01*
X89902380Y-110473809D01*
X89950000Y-110616666D01*
X90045238Y-110711904D01*
X90140476Y-110759523D01*
X90330952Y-110807142D01*
X90473809Y-110807142D01*
X90664285Y-110759523D01*
X90759523Y-110711904D01*
X90854761Y-110616666D01*
X90902380Y-110473809D01*
X90902380Y-110235714D01*
X90902380Y-111283333D02*
X90902380Y-111473809D01*
X90854761Y-111569047D01*
X90807142Y-111616666D01*
X90664285Y-111711904D01*
X90473809Y-111759523D01*
X90092857Y-111759523D01*
X89997619Y-111711904D01*
X89950000Y-111664285D01*
X89902380Y-111569047D01*
X89902380Y-111378571D01*
X89950000Y-111283333D01*
X89997619Y-111235714D01*
X90092857Y-111188095D01*
X90330952Y-111188095D01*
X90426190Y-111235714D01*
X90473809Y-111283333D01*
X90521428Y-111378571D01*
X90521428Y-111569047D01*
X90473809Y-111664285D01*
X90426190Y-111711904D01*
X90330952Y-111759523D01*
X90902380Y-112711904D02*
X90902380Y-112140476D01*
X90902380Y-112426190D02*
X89902380Y-112426190D01*
X90045238Y-112330952D01*
X90140476Y-112235714D01*
X90188095Y-112140476D01*
X109952380Y-110235714D02*
X108952380Y-110235714D01*
X108952380Y-110473809D01*
X109000000Y-110616666D01*
X109095238Y-110711904D01*
X109190476Y-110759523D01*
X109380952Y-110807142D01*
X109523809Y-110807142D01*
X109714285Y-110759523D01*
X109809523Y-110711904D01*
X109904761Y-110616666D01*
X109952380Y-110473809D01*
X109952380Y-110235714D01*
X109952380Y-111283333D02*
X109952380Y-111473809D01*
X109904761Y-111569047D01*
X109857142Y-111616666D01*
X109714285Y-111711904D01*
X109523809Y-111759523D01*
X109142857Y-111759523D01*
X109047619Y-111711904D01*
X109000000Y-111664285D01*
X108952380Y-111569047D01*
X108952380Y-111378571D01*
X109000000Y-111283333D01*
X109047619Y-111235714D01*
X109142857Y-111188095D01*
X109380952Y-111188095D01*
X109476190Y-111235714D01*
X109523809Y-111283333D01*
X109571428Y-111378571D01*
X109571428Y-111569047D01*
X109523809Y-111664285D01*
X109476190Y-111711904D01*
X109380952Y-111759523D01*
X109047619Y-112140476D02*
X109000000Y-112188095D01*
X108952380Y-112283333D01*
X108952380Y-112521428D01*
X109000000Y-112616666D01*
X109047619Y-112664285D01*
X109142857Y-112711904D01*
X109238095Y-112711904D01*
X109380952Y-112664285D01*
X109952380Y-112092857D01*
X109952380Y-112711904D01*
X129002380Y-110235714D02*
X128002380Y-110235714D01*
X128002380Y-110473809D01*
X128050000Y-110616666D01*
X128145238Y-110711904D01*
X128240476Y-110759523D01*
X128430952Y-110807142D01*
X128573809Y-110807142D01*
X128764285Y-110759523D01*
X128859523Y-110711904D01*
X128954761Y-110616666D01*
X129002380Y-110473809D01*
X129002380Y-110235714D01*
X129002380Y-111283333D02*
X129002380Y-111473809D01*
X128954761Y-111569047D01*
X128907142Y-111616666D01*
X128764285Y-111711904D01*
X128573809Y-111759523D01*
X128192857Y-111759523D01*
X128097619Y-111711904D01*
X128050000Y-111664285D01*
X128002380Y-111569047D01*
X128002380Y-111378571D01*
X128050000Y-111283333D01*
X128097619Y-111235714D01*
X128192857Y-111188095D01*
X128430952Y-111188095D01*
X128526190Y-111235714D01*
X128573809Y-111283333D01*
X128621428Y-111378571D01*
X128621428Y-111569047D01*
X128573809Y-111664285D01*
X128526190Y-111711904D01*
X128430952Y-111759523D01*
X128002380Y-112092857D02*
X128002380Y-112711904D01*
X128383333Y-112378571D01*
X128383333Y-112521428D01*
X128430952Y-112616666D01*
X128478571Y-112664285D01*
X128573809Y-112711904D01*
X128811904Y-112711904D01*
X128907142Y-112664285D01*
X128954761Y-112616666D01*
X129002380Y-112521428D01*
X129002380Y-112235714D01*
X128954761Y-112140476D01*
X128907142Y-112092857D01*
X148052380Y-110235714D02*
X147052380Y-110235714D01*
X147052380Y-110473809D01*
X147100000Y-110616666D01*
X147195238Y-110711904D01*
X147290476Y-110759523D01*
X147480952Y-110807142D01*
X147623809Y-110807142D01*
X147814285Y-110759523D01*
X147909523Y-110711904D01*
X148004761Y-110616666D01*
X148052380Y-110473809D01*
X148052380Y-110235714D01*
X148052380Y-111283333D02*
X148052380Y-111473809D01*
X148004761Y-111569047D01*
X147957142Y-111616666D01*
X147814285Y-111711904D01*
X147623809Y-111759523D01*
X147242857Y-111759523D01*
X147147619Y-111711904D01*
X147100000Y-111664285D01*
X147052380Y-111569047D01*
X147052380Y-111378571D01*
X147100000Y-111283333D01*
X147147619Y-111235714D01*
X147242857Y-111188095D01*
X147480952Y-111188095D01*
X147576190Y-111235714D01*
X147623809Y-111283333D01*
X147671428Y-111378571D01*
X147671428Y-111569047D01*
X147623809Y-111664285D01*
X147576190Y-111711904D01*
X147480952Y-111759523D01*
X147385714Y-112616666D02*
X148052380Y-112616666D01*
X147004761Y-112378571D02*
X147719047Y-112140476D01*
X147719047Y-112759523D01*
X167102380Y-110235714D02*
X166102380Y-110235714D01*
X166102380Y-110473809D01*
X166150000Y-110616666D01*
X166245238Y-110711904D01*
X166340476Y-110759523D01*
X166530952Y-110807142D01*
X166673809Y-110807142D01*
X166864285Y-110759523D01*
X166959523Y-110711904D01*
X167054761Y-110616666D01*
X167102380Y-110473809D01*
X167102380Y-110235714D01*
X167102380Y-111283333D02*
X167102380Y-111473809D01*
X167054761Y-111569047D01*
X167007142Y-111616666D01*
X166864285Y-111711904D01*
X166673809Y-111759523D01*
X166292857Y-111759523D01*
X166197619Y-111711904D01*
X166150000Y-111664285D01*
X166102380Y-111569047D01*
X166102380Y-111378571D01*
X166150000Y-111283333D01*
X166197619Y-111235714D01*
X166292857Y-111188095D01*
X166530952Y-111188095D01*
X166626190Y-111235714D01*
X166673809Y-111283333D01*
X166721428Y-111378571D01*
X166721428Y-111569047D01*
X166673809Y-111664285D01*
X166626190Y-111711904D01*
X166530952Y-111759523D01*
X166102380Y-112664285D02*
X166102380Y-112188095D01*
X166578571Y-112140476D01*
X166530952Y-112188095D01*
X166483333Y-112283333D01*
X166483333Y-112521428D01*
X166530952Y-112616666D01*
X166578571Y-112664285D01*
X166673809Y-112711904D01*
X166911904Y-112711904D01*
X167007142Y-112664285D01*
X167054761Y-112616666D01*
X167102380Y-112521428D01*
X167102380Y-112283333D01*
X167054761Y-112188095D01*
X167007142Y-112140476D01*
X186152380Y-110235714D02*
X185152380Y-110235714D01*
X185152380Y-110473809D01*
X185200000Y-110616666D01*
X185295238Y-110711904D01*
X185390476Y-110759523D01*
X185580952Y-110807142D01*
X185723809Y-110807142D01*
X185914285Y-110759523D01*
X186009523Y-110711904D01*
X186104761Y-110616666D01*
X186152380Y-110473809D01*
X186152380Y-110235714D01*
X186152380Y-111283333D02*
X186152380Y-111473809D01*
X186104761Y-111569047D01*
X186057142Y-111616666D01*
X185914285Y-111711904D01*
X185723809Y-111759523D01*
X185342857Y-111759523D01*
X185247619Y-111711904D01*
X185200000Y-111664285D01*
X185152380Y-111569047D01*
X185152380Y-111378571D01*
X185200000Y-111283333D01*
X185247619Y-111235714D01*
X185342857Y-111188095D01*
X185580952Y-111188095D01*
X185676190Y-111235714D01*
X185723809Y-111283333D01*
X185771428Y-111378571D01*
X185771428Y-111569047D01*
X185723809Y-111664285D01*
X185676190Y-111711904D01*
X185580952Y-111759523D01*
X185152380Y-112616666D02*
X185152380Y-112426190D01*
X185200000Y-112330952D01*
X185247619Y-112283333D01*
X185390476Y-112188095D01*
X185580952Y-112140476D01*
X185961904Y-112140476D01*
X186057142Y-112188095D01*
X186104761Y-112235714D01*
X186152380Y-112330952D01*
X186152380Y-112521428D01*
X186104761Y-112616666D01*
X186057142Y-112664285D01*
X185961904Y-112711904D01*
X185723809Y-112711904D01*
X185628571Y-112664285D01*
X185580952Y-112616666D01*
X185533333Y-112521428D01*
X185533333Y-112330952D01*
X185580952Y-112235714D01*
X185628571Y-112188095D01*
X185723809Y-112140476D01*
X205202380Y-110235714D02*
X204202380Y-110235714D01*
X204202380Y-110473809D01*
X204250000Y-110616666D01*
X204345238Y-110711904D01*
X204440476Y-110759523D01*
X204630952Y-110807142D01*
X204773809Y-110807142D01*
X204964285Y-110759523D01*
X205059523Y-110711904D01*
X205154761Y-110616666D01*
X205202380Y-110473809D01*
X205202380Y-110235714D01*
X205202380Y-111283333D02*
X205202380Y-111473809D01*
X205154761Y-111569047D01*
X205107142Y-111616666D01*
X204964285Y-111711904D01*
X204773809Y-111759523D01*
X204392857Y-111759523D01*
X204297619Y-111711904D01*
X204250000Y-111664285D01*
X204202380Y-111569047D01*
X204202380Y-111378571D01*
X204250000Y-111283333D01*
X204297619Y-111235714D01*
X204392857Y-111188095D01*
X204630952Y-111188095D01*
X204726190Y-111235714D01*
X204773809Y-111283333D01*
X204821428Y-111378571D01*
X204821428Y-111569047D01*
X204773809Y-111664285D01*
X204726190Y-111711904D01*
X204630952Y-111759523D01*
X204202380Y-112092857D02*
X204202380Y-112759523D01*
X205202380Y-112330952D01*
X224252380Y-110235714D02*
X223252380Y-110235714D01*
X223252380Y-110473809D01*
X223300000Y-110616666D01*
X223395238Y-110711904D01*
X223490476Y-110759523D01*
X223680952Y-110807142D01*
X223823809Y-110807142D01*
X224014285Y-110759523D01*
X224109523Y-110711904D01*
X224204761Y-110616666D01*
X224252380Y-110473809D01*
X224252380Y-110235714D01*
X224252380Y-111283333D02*
X224252380Y-111473809D01*
X224204761Y-111569047D01*
X224157142Y-111616666D01*
X224014285Y-111711904D01*
X223823809Y-111759523D01*
X223442857Y-111759523D01*
X223347619Y-111711904D01*
X223300000Y-111664285D01*
X223252380Y-111569047D01*
X223252380Y-111378571D01*
X223300000Y-111283333D01*
X223347619Y-111235714D01*
X223442857Y-111188095D01*
X223680952Y-111188095D01*
X223776190Y-111235714D01*
X223823809Y-111283333D01*
X223871428Y-111378571D01*
X223871428Y-111569047D01*
X223823809Y-111664285D01*
X223776190Y-111711904D01*
X223680952Y-111759523D01*
X223680952Y-112330952D02*
X223633333Y-112235714D01*
X223585714Y-112188095D01*
X223490476Y-112140476D01*
X223442857Y-112140476D01*
X223347619Y-112188095D01*
X223300000Y-112235714D01*
X223252380Y-112330952D01*
X223252380Y-112521428D01*
X223300000Y-112616666D01*
X223347619Y-112664285D01*
X223442857Y-112711904D01*
X223490476Y-112711904D01*
X223585714Y-112664285D01*
X223633333Y-112616666D01*
X223680952Y-112521428D01*
X223680952Y-112330952D01*
X223728571Y-112235714D01*
X223776190Y-112188095D01*
X223871428Y-112140476D01*
X224061904Y-112140476D01*
X224157142Y-112188095D01*
X224204761Y-112235714D01*
X224252380Y-112330952D01*
X224252380Y-112521428D01*
X224204761Y-112616666D01*
X224157142Y-112664285D01*
X224061904Y-112711904D01*
X223871428Y-112711904D01*
X223776190Y-112664285D01*
X223728571Y-112616666D01*
X223680952Y-112521428D01*
X243302380Y-110235714D02*
X242302380Y-110235714D01*
X242302380Y-110473809D01*
X242350000Y-110616666D01*
X242445238Y-110711904D01*
X242540476Y-110759523D01*
X242730952Y-110807142D01*
X242873809Y-110807142D01*
X243064285Y-110759523D01*
X243159523Y-110711904D01*
X243254761Y-110616666D01*
X243302380Y-110473809D01*
X243302380Y-110235714D01*
X243302380Y-111283333D02*
X243302380Y-111473809D01*
X243254761Y-111569047D01*
X243207142Y-111616666D01*
X243064285Y-111711904D01*
X242873809Y-111759523D01*
X242492857Y-111759523D01*
X242397619Y-111711904D01*
X242350000Y-111664285D01*
X242302380Y-111569047D01*
X242302380Y-111378571D01*
X242350000Y-111283333D01*
X242397619Y-111235714D01*
X242492857Y-111188095D01*
X242730952Y-111188095D01*
X242826190Y-111235714D01*
X242873809Y-111283333D01*
X242921428Y-111378571D01*
X242921428Y-111569047D01*
X242873809Y-111664285D01*
X242826190Y-111711904D01*
X242730952Y-111759523D01*
X243302380Y-112235714D02*
X243302380Y-112426190D01*
X243254761Y-112521428D01*
X243207142Y-112569047D01*
X243064285Y-112664285D01*
X242873809Y-112711904D01*
X242492857Y-112711904D01*
X242397619Y-112664285D01*
X242350000Y-112616666D01*
X242302380Y-112521428D01*
X242302380Y-112330952D01*
X242350000Y-112235714D01*
X242397619Y-112188095D01*
X242492857Y-112140476D01*
X242730952Y-112140476D01*
X242826190Y-112188095D01*
X242873809Y-112235714D01*
X242921428Y-112330952D01*
X242921428Y-112521428D01*
X242873809Y-112616666D01*
X242826190Y-112664285D01*
X242730952Y-112711904D01*
X266702380Y-112609523D02*
X265702380Y-112609523D01*
X265702380Y-112847619D01*
X265750000Y-112990476D01*
X265845238Y-113085714D01*
X265940476Y-113133333D01*
X266130952Y-113180952D01*
X266273809Y-113180952D01*
X266464285Y-113133333D01*
X266559523Y-113085714D01*
X266654761Y-112990476D01*
X266702380Y-112847619D01*
X266702380Y-112609523D01*
X266702380Y-114133333D02*
X266702380Y-113561904D01*
X266702380Y-113847619D02*
X265702380Y-113847619D01*
X265845238Y-113752380D01*
X265940476Y-113657142D01*
X265988095Y-113561904D01*
X265702380Y-114752380D02*
X265702380Y-114847619D01*
X265750000Y-114942857D01*
X265797619Y-114990476D01*
X265892857Y-115038095D01*
X266083333Y-115085714D01*
X266321428Y-115085714D01*
X266511904Y-115038095D01*
X266607142Y-114990476D01*
X266654761Y-114942857D01*
X266702380Y-114847619D01*
X266702380Y-114752380D01*
X266654761Y-114657142D01*
X266607142Y-114609523D01*
X266511904Y-114561904D01*
X266321428Y-114514285D01*
X266083333Y-114514285D01*
X265892857Y-114561904D01*
X265797619Y-114609523D01*
X265750000Y-114657142D01*
X265702380Y-114752380D01*
X265702380Y-115704761D02*
X265702380Y-115800000D01*
X265750000Y-115895238D01*
X265797619Y-115942857D01*
X265892857Y-115990476D01*
X266083333Y-116038095D01*
X266321428Y-116038095D01*
X266511904Y-115990476D01*
X266607142Y-115942857D01*
X266654761Y-115895238D01*
X266702380Y-115800000D01*
X266702380Y-115704761D01*
X266654761Y-115609523D01*
X266607142Y-115561904D01*
X266511904Y-115514285D01*
X266321428Y-115466666D01*
X266083333Y-115466666D01*
X265892857Y-115514285D01*
X265797619Y-115561904D01*
X265750000Y-115609523D01*
X265702380Y-115704761D01*
X295702380Y-109759523D02*
X294702380Y-109759523D01*
X294702380Y-109997619D01*
X294750000Y-110140476D01*
X294845238Y-110235714D01*
X294940476Y-110283333D01*
X295130952Y-110330952D01*
X295273809Y-110330952D01*
X295464285Y-110283333D01*
X295559523Y-110235714D01*
X295654761Y-110140476D01*
X295702380Y-109997619D01*
X295702380Y-109759523D01*
X295702380Y-111283333D02*
X295702380Y-110711904D01*
X295702380Y-110997619D02*
X294702380Y-110997619D01*
X294845238Y-110902380D01*
X294940476Y-110807142D01*
X294988095Y-110711904D01*
X294702380Y-111902380D02*
X294702380Y-111997619D01*
X294750000Y-112092857D01*
X294797619Y-112140476D01*
X294892857Y-112188095D01*
X295083333Y-112235714D01*
X295321428Y-112235714D01*
X295511904Y-112188095D01*
X295607142Y-112140476D01*
X295654761Y-112092857D01*
X295702380Y-111997619D01*
X295702380Y-111902380D01*
X295654761Y-111807142D01*
X295607142Y-111759523D01*
X295511904Y-111711904D01*
X295321428Y-111664285D01*
X295083333Y-111664285D01*
X294892857Y-111711904D01*
X294797619Y-111759523D01*
X294750000Y-111807142D01*
X294702380Y-111902380D01*
X295702380Y-113188095D02*
X295702380Y-112616666D01*
X295702380Y-112902380D02*
X294702380Y-112902380D01*
X294845238Y-112807142D01*
X294940476Y-112711904D01*
X294988095Y-112616666D01*
X340752380Y-109759523D02*
X339752380Y-109759523D01*
X339752380Y-109997619D01*
X339800000Y-110140476D01*
X339895238Y-110235714D01*
X339990476Y-110283333D01*
X340180952Y-110330952D01*
X340323809Y-110330952D01*
X340514285Y-110283333D01*
X340609523Y-110235714D01*
X340704761Y-110140476D01*
X340752380Y-109997619D01*
X340752380Y-109759523D01*
X340752380Y-111283333D02*
X340752380Y-110711904D01*
X340752380Y-110997619D02*
X339752380Y-110997619D01*
X339895238Y-110902380D01*
X339990476Y-110807142D01*
X340038095Y-110711904D01*
X339752380Y-111902380D02*
X339752380Y-111997619D01*
X339800000Y-112092857D01*
X339847619Y-112140476D01*
X339942857Y-112188095D01*
X340133333Y-112235714D01*
X340371428Y-112235714D01*
X340561904Y-112188095D01*
X340657142Y-112140476D01*
X340704761Y-112092857D01*
X340752380Y-111997619D01*
X340752380Y-111902380D01*
X340704761Y-111807142D01*
X340657142Y-111759523D01*
X340561904Y-111711904D01*
X340371428Y-111664285D01*
X340133333Y-111664285D01*
X339942857Y-111711904D01*
X339847619Y-111759523D01*
X339800000Y-111807142D01*
X339752380Y-111902380D01*
X339847619Y-112616666D02*
X339800000Y-112664285D01*
X339752380Y-112759523D01*
X339752380Y-112997619D01*
X339800000Y-113092857D01*
X339847619Y-113140476D01*
X339942857Y-113188095D01*
X340038095Y-113188095D01*
X340180952Y-113140476D01*
X340752380Y-112569047D01*
X340752380Y-113188095D01*
X385802380Y-109759523D02*
X384802380Y-109759523D01*
X384802380Y-109997619D01*
X384850000Y-110140476D01*
X384945238Y-110235714D01*
X385040476Y-110283333D01*
X385230952Y-110330952D01*
X385373809Y-110330952D01*
X385564285Y-110283333D01*
X385659523Y-110235714D01*
X385754761Y-110140476D01*
X385802380Y-109997619D01*
X385802380Y-109759523D01*
X385802380Y-111283333D02*
X385802380Y-110711904D01*
X385802380Y-110997619D02*
X384802380Y-110997619D01*
X384945238Y-110902380D01*
X385040476Y-110807142D01*
X385088095Y-110711904D01*
X384802380Y-111902380D02*
X384802380Y-111997619D01*
X384850000Y-112092857D01*
X384897619Y-112140476D01*
X384992857Y-112188095D01*
X385183333Y-112235714D01*
X385421428Y-112235714D01*
X385611904Y-112188095D01*
X385707142Y-112140476D01*
X385754761Y-112092857D01*
X385802380Y-111997619D01*
X385802380Y-111902380D01*
X385754761Y-111807142D01*
X385707142Y-111759523D01*
X385611904Y-111711904D01*
X385421428Y-111664285D01*
X385183333Y-111664285D01*
X384992857Y-111711904D01*
X384897619Y-111759523D01*
X384850000Y-111807142D01*
X384802380Y-111902380D01*
X384802380Y-113140476D02*
X384802380Y-112664285D01*
X385278571Y-112616666D01*
X385230952Y-112664285D01*
X385183333Y-112759523D01*
X385183333Y-112997619D01*
X385230952Y-113092857D01*
X385278571Y-113140476D01*
X385373809Y-113188095D01*
X385611904Y-113188095D01*
X385707142Y-113140476D01*
X385754761Y-113092857D01*
X385802380Y-112997619D01*
X385802380Y-112759523D01*
X385754761Y-112664285D01*
X385707142Y-112616666D01*
X404852380Y-109759523D02*
X403852380Y-109759523D01*
X403852380Y-109997619D01*
X403900000Y-110140476D01*
X403995238Y-110235714D01*
X404090476Y-110283333D01*
X404280952Y-110330952D01*
X404423809Y-110330952D01*
X404614285Y-110283333D01*
X404709523Y-110235714D01*
X404804761Y-110140476D01*
X404852380Y-109997619D01*
X404852380Y-109759523D01*
X404852380Y-111283333D02*
X404852380Y-110711904D01*
X404852380Y-110997619D02*
X403852380Y-110997619D01*
X403995238Y-110902380D01*
X404090476Y-110807142D01*
X404138095Y-110711904D01*
X403852380Y-111902380D02*
X403852380Y-111997619D01*
X403900000Y-112092857D01*
X403947619Y-112140476D01*
X404042857Y-112188095D01*
X404233333Y-112235714D01*
X404471428Y-112235714D01*
X404661904Y-112188095D01*
X404757142Y-112140476D01*
X404804761Y-112092857D01*
X404852380Y-111997619D01*
X404852380Y-111902380D01*
X404804761Y-111807142D01*
X404757142Y-111759523D01*
X404661904Y-111711904D01*
X404471428Y-111664285D01*
X404233333Y-111664285D01*
X404042857Y-111711904D01*
X403947619Y-111759523D01*
X403900000Y-111807142D01*
X403852380Y-111902380D01*
X403852380Y-113092857D02*
X403852380Y-112902380D01*
X403900000Y-112807142D01*
X403947619Y-112759523D01*
X404090476Y-112664285D01*
X404280952Y-112616666D01*
X404661904Y-112616666D01*
X404757142Y-112664285D01*
X404804761Y-112711904D01*
X404852380Y-112807142D01*
X404852380Y-112997619D01*
X404804761Y-113092857D01*
X404757142Y-113140476D01*
X404661904Y-113188095D01*
X404423809Y-113188095D01*
X404328571Y-113140476D01*
X404280952Y-113092857D01*
X404233333Y-112997619D01*
X404233333Y-112807142D01*
X404280952Y-112711904D01*
X404328571Y-112664285D01*
X404423809Y-112616666D01*
X423902380Y-109759523D02*
X422902380Y-109759523D01*
X422902380Y-109997619D01*
X422950000Y-110140476D01*
X423045238Y-110235714D01*
X423140476Y-110283333D01*
X423330952Y-110330952D01*
X423473809Y-110330952D01*
X423664285Y-110283333D01*
X423759523Y-110235714D01*
X423854761Y-110140476D01*
X423902380Y-109997619D01*
X423902380Y-109759523D01*
X423902380Y-111283333D02*
X423902380Y-110711904D01*
X423902380Y-110997619D02*
X422902380Y-110997619D01*
X423045238Y-110902380D01*
X423140476Y-110807142D01*
X423188095Y-110711904D01*
X422902380Y-111902380D02*
X422902380Y-111997619D01*
X422950000Y-112092857D01*
X422997619Y-112140476D01*
X423092857Y-112188095D01*
X423283333Y-112235714D01*
X423521428Y-112235714D01*
X423711904Y-112188095D01*
X423807142Y-112140476D01*
X423854761Y-112092857D01*
X423902380Y-111997619D01*
X423902380Y-111902380D01*
X423854761Y-111807142D01*
X423807142Y-111759523D01*
X423711904Y-111711904D01*
X423521428Y-111664285D01*
X423283333Y-111664285D01*
X423092857Y-111711904D01*
X422997619Y-111759523D01*
X422950000Y-111807142D01*
X422902380Y-111902380D01*
X422902380Y-112569047D02*
X422902380Y-113235714D01*
X423902380Y-112807142D01*
X426952380Y-114609523D02*
X425952380Y-114609523D01*
X425952380Y-114847619D01*
X426000000Y-114990476D01*
X426095238Y-115085714D01*
X426190476Y-115133333D01*
X426380952Y-115180952D01*
X426523809Y-115180952D01*
X426714285Y-115133333D01*
X426809523Y-115085714D01*
X426904761Y-114990476D01*
X426952380Y-114847619D01*
X426952380Y-114609523D01*
X426952380Y-116133333D02*
X426952380Y-115561904D01*
X426952380Y-115847619D02*
X425952380Y-115847619D01*
X426095238Y-115752380D01*
X426190476Y-115657142D01*
X426238095Y-115561904D01*
X425952380Y-116752380D02*
X425952380Y-116847619D01*
X426000000Y-116942857D01*
X426047619Y-116990476D01*
X426142857Y-117038095D01*
X426333333Y-117085714D01*
X426571428Y-117085714D01*
X426761904Y-117038095D01*
X426857142Y-116990476D01*
X426904761Y-116942857D01*
X426952380Y-116847619D01*
X426952380Y-116752380D01*
X426904761Y-116657142D01*
X426857142Y-116609523D01*
X426761904Y-116561904D01*
X426571428Y-116514285D01*
X426333333Y-116514285D01*
X426142857Y-116561904D01*
X426047619Y-116609523D01*
X426000000Y-116657142D01*
X425952380Y-116752380D01*
X426380952Y-117657142D02*
X426333333Y-117561904D01*
X426285714Y-117514285D01*
X426190476Y-117466666D01*
X426142857Y-117466666D01*
X426047619Y-117514285D01*
X426000000Y-117561904D01*
X425952380Y-117657142D01*
X425952380Y-117847619D01*
X426000000Y-117942857D01*
X426047619Y-117990476D01*
X426142857Y-118038095D01*
X426190476Y-118038095D01*
X426285714Y-117990476D01*
X426333333Y-117942857D01*
X426380952Y-117847619D01*
X426380952Y-117657142D01*
X426428571Y-117561904D01*
X426476190Y-117514285D01*
X426571428Y-117466666D01*
X426761904Y-117466666D01*
X426857142Y-117514285D01*
X426904761Y-117561904D01*
X426952380Y-117657142D01*
X426952380Y-117847619D01*
X426904761Y-117942857D01*
X426857142Y-117990476D01*
X426761904Y-118038095D01*
X426571428Y-118038095D01*
X426476190Y-117990476D01*
X426428571Y-117942857D01*
X426380952Y-117847619D01*
X31402380Y-128809523D02*
X30402380Y-128809523D01*
X30402380Y-129047619D01*
X30450000Y-129190476D01*
X30545238Y-129285714D01*
X30640476Y-129333333D01*
X30830952Y-129380952D01*
X30973809Y-129380952D01*
X31164285Y-129333333D01*
X31259523Y-129285714D01*
X31354761Y-129190476D01*
X31402380Y-129047619D01*
X31402380Y-128809523D01*
X31402380Y-130333333D02*
X31402380Y-129761904D01*
X31402380Y-130047619D02*
X30402380Y-130047619D01*
X30545238Y-129952380D01*
X30640476Y-129857142D01*
X30688095Y-129761904D01*
X31402380Y-131285714D02*
X31402380Y-130714285D01*
X31402380Y-131000000D02*
X30402380Y-131000000D01*
X30545238Y-130904761D01*
X30640476Y-130809523D01*
X30688095Y-130714285D01*
X31402380Y-132238095D02*
X31402380Y-131666666D01*
X31402380Y-131952380D02*
X30402380Y-131952380D01*
X30545238Y-131857142D01*
X30640476Y-131761904D01*
X30688095Y-131666666D01*
X55202380Y-128809523D02*
X54202380Y-128809523D01*
X54202380Y-129047619D01*
X54250000Y-129190476D01*
X54345238Y-129285714D01*
X54440476Y-129333333D01*
X54630952Y-129380952D01*
X54773809Y-129380952D01*
X54964285Y-129333333D01*
X55059523Y-129285714D01*
X55154761Y-129190476D01*
X55202380Y-129047619D01*
X55202380Y-128809523D01*
X55202380Y-130333333D02*
X55202380Y-129761904D01*
X55202380Y-130047619D02*
X54202380Y-130047619D01*
X54345238Y-129952380D01*
X54440476Y-129857142D01*
X54488095Y-129761904D01*
X55202380Y-131285714D02*
X55202380Y-130714285D01*
X55202380Y-131000000D02*
X54202380Y-131000000D01*
X54345238Y-130904761D01*
X54440476Y-130809523D01*
X54488095Y-130714285D01*
X54297619Y-131666666D02*
X54250000Y-131714285D01*
X54202380Y-131809523D01*
X54202380Y-132047619D01*
X54250000Y-132142857D01*
X54297619Y-132190476D01*
X54392857Y-132238095D01*
X54488095Y-132238095D01*
X54630952Y-132190476D01*
X55202380Y-131619047D01*
X55202380Y-132238095D01*
X79002380Y-128809523D02*
X78002380Y-128809523D01*
X78002380Y-129047619D01*
X78050000Y-129190476D01*
X78145238Y-129285714D01*
X78240476Y-129333333D01*
X78430952Y-129380952D01*
X78573809Y-129380952D01*
X78764285Y-129333333D01*
X78859523Y-129285714D01*
X78954761Y-129190476D01*
X79002380Y-129047619D01*
X79002380Y-128809523D01*
X79002380Y-130333333D02*
X79002380Y-129761904D01*
X79002380Y-130047619D02*
X78002380Y-130047619D01*
X78145238Y-129952380D01*
X78240476Y-129857142D01*
X78288095Y-129761904D01*
X79002380Y-131285714D02*
X79002380Y-130714285D01*
X79002380Y-131000000D02*
X78002380Y-131000000D01*
X78145238Y-130904761D01*
X78240476Y-130809523D01*
X78288095Y-130714285D01*
X78002380Y-131619047D02*
X78002380Y-132238095D01*
X78383333Y-131904761D01*
X78383333Y-132047619D01*
X78430952Y-132142857D01*
X78478571Y-132190476D01*
X78573809Y-132238095D01*
X78811904Y-132238095D01*
X78907142Y-132190476D01*
X78954761Y-132142857D01*
X79002380Y-132047619D01*
X79002380Y-131761904D01*
X78954761Y-131666666D01*
X78907142Y-131619047D01*
X148902380Y-130809523D02*
X147902380Y-130809523D01*
X147902380Y-131047619D01*
X147950000Y-131190476D01*
X148045238Y-131285714D01*
X148140476Y-131333333D01*
X148330952Y-131380952D01*
X148473809Y-131380952D01*
X148664285Y-131333333D01*
X148759523Y-131285714D01*
X148854761Y-131190476D01*
X148902380Y-131047619D01*
X148902380Y-130809523D01*
X148902380Y-132333333D02*
X148902380Y-131761904D01*
X148902380Y-132047619D02*
X147902380Y-132047619D01*
X148045238Y-131952380D01*
X148140476Y-131857142D01*
X148188095Y-131761904D01*
X148902380Y-133285714D02*
X148902380Y-132714285D01*
X148902380Y-133000000D02*
X147902380Y-133000000D01*
X148045238Y-132904761D01*
X148140476Y-132809523D01*
X148188095Y-132714285D01*
X148235714Y-134142857D02*
X148902380Y-134142857D01*
X147854761Y-133904761D02*
X148569047Y-133666666D01*
X148569047Y-134285714D01*
X221902380Y-128809523D02*
X220902380Y-128809523D01*
X220902380Y-129047619D01*
X220950000Y-129190476D01*
X221045238Y-129285714D01*
X221140476Y-129333333D01*
X221330952Y-129380952D01*
X221473809Y-129380952D01*
X221664285Y-129333333D01*
X221759523Y-129285714D01*
X221854761Y-129190476D01*
X221902380Y-129047619D01*
X221902380Y-128809523D01*
X221902380Y-130333333D02*
X221902380Y-129761904D01*
X221902380Y-130047619D02*
X220902380Y-130047619D01*
X221045238Y-129952380D01*
X221140476Y-129857142D01*
X221188095Y-129761904D01*
X221902380Y-131285714D02*
X221902380Y-130714285D01*
X221902380Y-131000000D02*
X220902380Y-131000000D01*
X221045238Y-130904761D01*
X221140476Y-130809523D01*
X221188095Y-130714285D01*
X220902380Y-132190476D02*
X220902380Y-131714285D01*
X221378571Y-131666666D01*
X221330952Y-131714285D01*
X221283333Y-131809523D01*
X221283333Y-132047619D01*
X221330952Y-132142857D01*
X221378571Y-132190476D01*
X221473809Y-132238095D01*
X221711904Y-132238095D01*
X221807142Y-132190476D01*
X221854761Y-132142857D01*
X221902380Y-132047619D01*
X221902380Y-131809523D01*
X221854761Y-131714285D01*
X221807142Y-131666666D01*
X263102380Y-134009523D02*
X262102380Y-134009523D01*
X262102380Y-134247619D01*
X262150000Y-134390476D01*
X262245238Y-134485714D01*
X262340476Y-134533333D01*
X262530952Y-134580952D01*
X262673809Y-134580952D01*
X262864285Y-134533333D01*
X262959523Y-134485714D01*
X263054761Y-134390476D01*
X263102380Y-134247619D01*
X263102380Y-134009523D01*
X263102380Y-135533333D02*
X263102380Y-134961904D01*
X263102380Y-135247619D02*
X262102380Y-135247619D01*
X262245238Y-135152380D01*
X262340476Y-135057142D01*
X262388095Y-134961904D01*
X263102380Y-136485714D02*
X263102380Y-135914285D01*
X263102380Y-136200000D02*
X262102380Y-136200000D01*
X262245238Y-136104761D01*
X262340476Y-136009523D01*
X262388095Y-135914285D01*
X262102380Y-137342857D02*
X262102380Y-137152380D01*
X262150000Y-137057142D01*
X262197619Y-137009523D01*
X262340476Y-136914285D01*
X262530952Y-136866666D01*
X262911904Y-136866666D01*
X263007142Y-136914285D01*
X263054761Y-136961904D01*
X263102380Y-137057142D01*
X263102380Y-137247619D01*
X263054761Y-137342857D01*
X263007142Y-137390476D01*
X262911904Y-137438095D01*
X262673809Y-137438095D01*
X262578571Y-137390476D01*
X262530952Y-137342857D01*
X262483333Y-137247619D01*
X262483333Y-137057142D01*
X262530952Y-136961904D01*
X262578571Y-136914285D01*
X262673809Y-136866666D01*
X269502380Y-128809523D02*
X268502380Y-128809523D01*
X268502380Y-129047619D01*
X268550000Y-129190476D01*
X268645238Y-129285714D01*
X268740476Y-129333333D01*
X268930952Y-129380952D01*
X269073809Y-129380952D01*
X269264285Y-129333333D01*
X269359523Y-129285714D01*
X269454761Y-129190476D01*
X269502380Y-129047619D01*
X269502380Y-128809523D01*
X269502380Y-130333333D02*
X269502380Y-129761904D01*
X269502380Y-130047619D02*
X268502380Y-130047619D01*
X268645238Y-129952380D01*
X268740476Y-129857142D01*
X268788095Y-129761904D01*
X269502380Y-131285714D02*
X269502380Y-130714285D01*
X269502380Y-131000000D02*
X268502380Y-131000000D01*
X268645238Y-130904761D01*
X268740476Y-130809523D01*
X268788095Y-130714285D01*
X268502380Y-131619047D02*
X268502380Y-132285714D01*
X269502380Y-131857142D01*
X293302380Y-128809523D02*
X292302380Y-128809523D01*
X292302380Y-129047619D01*
X292350000Y-129190476D01*
X292445238Y-129285714D01*
X292540476Y-129333333D01*
X292730952Y-129380952D01*
X292873809Y-129380952D01*
X293064285Y-129333333D01*
X293159523Y-129285714D01*
X293254761Y-129190476D01*
X293302380Y-129047619D01*
X293302380Y-128809523D01*
X293302380Y-130333333D02*
X293302380Y-129761904D01*
X293302380Y-130047619D02*
X292302380Y-130047619D01*
X292445238Y-129952380D01*
X292540476Y-129857142D01*
X292588095Y-129761904D01*
X293302380Y-131285714D02*
X293302380Y-130714285D01*
X293302380Y-131000000D02*
X292302380Y-131000000D01*
X292445238Y-130904761D01*
X292540476Y-130809523D01*
X292588095Y-130714285D01*
X292730952Y-131857142D02*
X292683333Y-131761904D01*
X292635714Y-131714285D01*
X292540476Y-131666666D01*
X292492857Y-131666666D01*
X292397619Y-131714285D01*
X292350000Y-131761904D01*
X292302380Y-131857142D01*
X292302380Y-132047619D01*
X292350000Y-132142857D01*
X292397619Y-132190476D01*
X292492857Y-132238095D01*
X292540476Y-132238095D01*
X292635714Y-132190476D01*
X292683333Y-132142857D01*
X292730952Y-132047619D01*
X292730952Y-131857142D01*
X292778571Y-131761904D01*
X292826190Y-131714285D01*
X292921428Y-131666666D01*
X293111904Y-131666666D01*
X293207142Y-131714285D01*
X293254761Y-131761904D01*
X293302380Y-131857142D01*
X293302380Y-132047619D01*
X293254761Y-132142857D01*
X293207142Y-132190476D01*
X293111904Y-132238095D01*
X292921428Y-132238095D01*
X292826190Y-132190476D01*
X292778571Y-132142857D01*
X292730952Y-132047619D01*
X321702380Y-128809523D02*
X320702380Y-128809523D01*
X320702380Y-129047619D01*
X320750000Y-129190476D01*
X320845238Y-129285714D01*
X320940476Y-129333333D01*
X321130952Y-129380952D01*
X321273809Y-129380952D01*
X321464285Y-129333333D01*
X321559523Y-129285714D01*
X321654761Y-129190476D01*
X321702380Y-129047619D01*
X321702380Y-128809523D01*
X321702380Y-130333333D02*
X321702380Y-129761904D01*
X321702380Y-130047619D02*
X320702380Y-130047619D01*
X320845238Y-129952380D01*
X320940476Y-129857142D01*
X320988095Y-129761904D01*
X321702380Y-131285714D02*
X321702380Y-130714285D01*
X321702380Y-131000000D02*
X320702380Y-131000000D01*
X320845238Y-130904761D01*
X320940476Y-130809523D01*
X320988095Y-130714285D01*
X321702380Y-131761904D02*
X321702380Y-131952380D01*
X321654761Y-132047619D01*
X321607142Y-132095238D01*
X321464285Y-132190476D01*
X321273809Y-132238095D01*
X320892857Y-132238095D01*
X320797619Y-132190476D01*
X320750000Y-132142857D01*
X320702380Y-132047619D01*
X320702380Y-131857142D01*
X320750000Y-131761904D01*
X320797619Y-131714285D01*
X320892857Y-131666666D01*
X321130952Y-131666666D01*
X321226190Y-131714285D01*
X321273809Y-131761904D01*
X321321428Y-131857142D01*
X321321428Y-132047619D01*
X321273809Y-132142857D01*
X321226190Y-132190476D01*
X321130952Y-132238095D01*
X340752380Y-128809523D02*
X339752380Y-128809523D01*
X339752380Y-129047619D01*
X339800000Y-129190476D01*
X339895238Y-129285714D01*
X339990476Y-129333333D01*
X340180952Y-129380952D01*
X340323809Y-129380952D01*
X340514285Y-129333333D01*
X340609523Y-129285714D01*
X340704761Y-129190476D01*
X340752380Y-129047619D01*
X340752380Y-128809523D01*
X340752380Y-130333333D02*
X340752380Y-129761904D01*
X340752380Y-130047619D02*
X339752380Y-130047619D01*
X339895238Y-129952380D01*
X339990476Y-129857142D01*
X340038095Y-129761904D01*
X339847619Y-130714285D02*
X339800000Y-130761904D01*
X339752380Y-130857142D01*
X339752380Y-131095238D01*
X339800000Y-131190476D01*
X339847619Y-131238095D01*
X339942857Y-131285714D01*
X340038095Y-131285714D01*
X340180952Y-131238095D01*
X340752380Y-130666666D01*
X340752380Y-131285714D01*
X339752380Y-131904761D02*
X339752380Y-132000000D01*
X339800000Y-132095238D01*
X339847619Y-132142857D01*
X339942857Y-132190476D01*
X340133333Y-132238095D01*
X340371428Y-132238095D01*
X340561904Y-132190476D01*
X340657142Y-132142857D01*
X340704761Y-132095238D01*
X340752380Y-132000000D01*
X340752380Y-131904761D01*
X340704761Y-131809523D01*
X340657142Y-131761904D01*
X340561904Y-131714285D01*
X340371428Y-131666666D01*
X340133333Y-131666666D01*
X339942857Y-131714285D01*
X339847619Y-131761904D01*
X339800000Y-131809523D01*
X339752380Y-131904761D01*
X359802380Y-128809523D02*
X358802380Y-128809523D01*
X358802380Y-129047619D01*
X358850000Y-129190476D01*
X358945238Y-129285714D01*
X359040476Y-129333333D01*
X359230952Y-129380952D01*
X359373809Y-129380952D01*
X359564285Y-129333333D01*
X359659523Y-129285714D01*
X359754761Y-129190476D01*
X359802380Y-129047619D01*
X359802380Y-128809523D01*
X359802380Y-130333333D02*
X359802380Y-129761904D01*
X359802380Y-130047619D02*
X358802380Y-130047619D01*
X358945238Y-129952380D01*
X359040476Y-129857142D01*
X359088095Y-129761904D01*
X358897619Y-130714285D02*
X358850000Y-130761904D01*
X358802380Y-130857142D01*
X358802380Y-131095238D01*
X358850000Y-131190476D01*
X358897619Y-131238095D01*
X358992857Y-131285714D01*
X359088095Y-131285714D01*
X359230952Y-131238095D01*
X359802380Y-130666666D01*
X359802380Y-131285714D01*
X359802380Y-132238095D02*
X359802380Y-131666666D01*
X359802380Y-131952380D02*
X358802380Y-131952380D01*
X358945238Y-131857142D01*
X359040476Y-131761904D01*
X359088095Y-131666666D01*
X395302380Y-128809523D02*
X394302380Y-128809523D01*
X394302380Y-129047619D01*
X394350000Y-129190476D01*
X394445238Y-129285714D01*
X394540476Y-129333333D01*
X394730952Y-129380952D01*
X394873809Y-129380952D01*
X395064285Y-129333333D01*
X395159523Y-129285714D01*
X395254761Y-129190476D01*
X395302380Y-129047619D01*
X395302380Y-128809523D01*
X395302380Y-130333333D02*
X395302380Y-129761904D01*
X395302380Y-130047619D02*
X394302380Y-130047619D01*
X394445238Y-129952380D01*
X394540476Y-129857142D01*
X394588095Y-129761904D01*
X394397619Y-130714285D02*
X394350000Y-130761904D01*
X394302380Y-130857142D01*
X394302380Y-131095238D01*
X394350000Y-131190476D01*
X394397619Y-131238095D01*
X394492857Y-131285714D01*
X394588095Y-131285714D01*
X394730952Y-131238095D01*
X395302380Y-130666666D01*
X395302380Y-131285714D01*
X394397619Y-131666666D02*
X394350000Y-131714285D01*
X394302380Y-131809523D01*
X394302380Y-132047619D01*
X394350000Y-132142857D01*
X394397619Y-132190476D01*
X394492857Y-132238095D01*
X394588095Y-132238095D01*
X394730952Y-132190476D01*
X395302380Y-131619047D01*
X395302380Y-132238095D01*
X423902380Y-128809523D02*
X422902380Y-128809523D01*
X422902380Y-129047619D01*
X422950000Y-129190476D01*
X423045238Y-129285714D01*
X423140476Y-129333333D01*
X423330952Y-129380952D01*
X423473809Y-129380952D01*
X423664285Y-129333333D01*
X423759523Y-129285714D01*
X423854761Y-129190476D01*
X423902380Y-129047619D01*
X423902380Y-128809523D01*
X423902380Y-130333333D02*
X423902380Y-129761904D01*
X423902380Y-130047619D02*
X422902380Y-130047619D01*
X423045238Y-129952380D01*
X423140476Y-129857142D01*
X423188095Y-129761904D01*
X422997619Y-130714285D02*
X422950000Y-130761904D01*
X422902380Y-130857142D01*
X422902380Y-131095238D01*
X422950000Y-131190476D01*
X422997619Y-131238095D01*
X423092857Y-131285714D01*
X423188095Y-131285714D01*
X423330952Y-131238095D01*
X423902380Y-130666666D01*
X423902380Y-131285714D01*
X422902380Y-131619047D02*
X422902380Y-132238095D01*
X423283333Y-131904761D01*
X423283333Y-132047619D01*
X423330952Y-132142857D01*
X423378571Y-132190476D01*
X423473809Y-132238095D01*
X423711904Y-132238095D01*
X423807142Y-132190476D01*
X423854761Y-132142857D01*
X423902380Y-132047619D01*
X423902380Y-131761904D01*
X423854761Y-131666666D01*
X423807142Y-131619047D01*
X52802380Y-109759523D02*
X51802380Y-109759523D01*
X51802380Y-109997619D01*
X51850000Y-110140476D01*
X51945238Y-110235714D01*
X52040476Y-110283333D01*
X52230952Y-110330952D01*
X52373809Y-110330952D01*
X52564285Y-110283333D01*
X52659523Y-110235714D01*
X52754761Y-110140476D01*
X52802380Y-109997619D01*
X52802380Y-109759523D01*
X52802380Y-111283333D02*
X52802380Y-110711904D01*
X52802380Y-110997619D02*
X51802380Y-110997619D01*
X51945238Y-110902380D01*
X52040476Y-110807142D01*
X52088095Y-110711904D01*
X51897619Y-111664285D02*
X51850000Y-111711904D01*
X51802380Y-111807142D01*
X51802380Y-112045238D01*
X51850000Y-112140476D01*
X51897619Y-112188095D01*
X51992857Y-112235714D01*
X52088095Y-112235714D01*
X52230952Y-112188095D01*
X52802380Y-111616666D01*
X52802380Y-112235714D01*
X52135714Y-113092857D02*
X52802380Y-113092857D01*
X51754761Y-112854761D02*
X52469047Y-112616666D01*
X52469047Y-113235714D01*
D12*
X372290000Y-21222936D02*
X372290000Y-21677064D01*
X373760000Y-21222936D02*
X373760000Y-21677064D01*
X402235000Y-26527064D02*
X402235000Y-26072936D01*
X400765000Y-26527064D02*
X400765000Y-26072936D01*
X426265000Y-26527064D02*
X426265000Y-26072936D01*
X427735000Y-26527064D02*
X427735000Y-26072936D01*
X27600000Y-18450000D02*
X25600000Y-18450000D01*
X27600000Y-18450000D02*
X27600000Y-14550000D01*
X25600000Y-18450000D02*
X25600000Y-14550000D01*
X63650000Y-18450000D02*
X63650000Y-14550000D01*
X65650000Y-18450000D02*
X63650000Y-18450000D01*
X65650000Y-18450000D02*
X65650000Y-14550000D01*
X82700000Y-18450000D02*
X82700000Y-14550000D01*
X84700000Y-18450000D02*
X82700000Y-18450000D01*
X84700000Y-18450000D02*
X84700000Y-14550000D01*
X103750000Y-18450000D02*
X101750000Y-18450000D01*
X103750000Y-18450000D02*
X103750000Y-14550000D01*
X101750000Y-18450000D02*
X101750000Y-14550000D01*
X120800000Y-18450000D02*
X120800000Y-14550000D01*
X122800000Y-18450000D02*
X120800000Y-18450000D01*
X122800000Y-18450000D02*
X122800000Y-14550000D01*
X151400000Y-18450000D02*
X149400000Y-18450000D01*
X151400000Y-18450000D02*
X151400000Y-14550000D01*
X149400000Y-18450000D02*
X149400000Y-14550000D01*
X168400000Y-18450000D02*
X168400000Y-14550000D01*
X170400000Y-18450000D02*
X170400000Y-14550000D01*
X170400000Y-18450000D02*
X168400000Y-18450000D01*
X189450000Y-18450000D02*
X187450000Y-18450000D01*
X189450000Y-18450000D02*
X189450000Y-14550000D01*
X187450000Y-18450000D02*
X187450000Y-14550000D01*
X206500000Y-18450000D02*
X206500000Y-14550000D01*
X208500000Y-18450000D02*
X206500000Y-18450000D01*
X208500000Y-18450000D02*
X208500000Y-14550000D01*
X237100000Y-18450000D02*
X237100000Y-14550000D01*
X235100000Y-18450000D02*
X235100000Y-14550000D01*
X237100000Y-18450000D02*
X235100000Y-18450000D01*
X254150000Y-18450000D02*
X254150000Y-14550000D01*
X256150000Y-18450000D02*
X256150000Y-14550000D01*
X256150000Y-18450000D02*
X254150000Y-18450000D01*
X275200000Y-18450000D02*
X273200000Y-18450000D01*
X275200000Y-18450000D02*
X275200000Y-14550000D01*
X273200000Y-18450000D02*
X273200000Y-14550000D01*
X294250000Y-18450000D02*
X292250000Y-18450000D01*
X292250000Y-18450000D02*
X292250000Y-14550000D01*
X294250000Y-18450000D02*
X294250000Y-14550000D01*
X318250000Y-18450000D02*
X318250000Y-14550000D01*
X320250000Y-18450000D02*
X320250000Y-14550000D01*
X320250000Y-18450000D02*
X318250000Y-18450000D01*
X339300000Y-18450000D02*
X337300000Y-18450000D01*
X339300000Y-18450000D02*
X339300000Y-14550000D01*
X337300000Y-18450000D02*
X337300000Y-14550000D01*
X358350000Y-18450000D02*
X358350000Y-14550000D01*
X358350000Y-18450000D02*
X356350000Y-18450000D01*
X356350000Y-18450000D02*
X356350000Y-14550000D01*
X27550000Y-56550000D02*
X27550000Y-52650000D01*
X27550000Y-56550000D02*
X25550000Y-56550000D01*
X25550000Y-56550000D02*
X25550000Y-52650000D01*
X44600000Y-56550000D02*
X44600000Y-52650000D01*
X46600000Y-56550000D02*
X46600000Y-52650000D01*
X46600000Y-56550000D02*
X44600000Y-56550000D01*
X65650000Y-56550000D02*
X63650000Y-56550000D01*
X65650000Y-56550000D02*
X65650000Y-52650000D01*
X63650000Y-56550000D02*
X63650000Y-52650000D01*
X84700000Y-56550000D02*
X82700000Y-56550000D01*
X84700000Y-56550000D02*
X84700000Y-52650000D01*
X82700000Y-56550000D02*
X82700000Y-52650000D01*
X101750000Y-56550000D02*
X101750000Y-52650000D01*
X103750000Y-56550000D02*
X103750000Y-52650000D01*
X103750000Y-56550000D02*
X101750000Y-56550000D01*
X122800000Y-56550000D02*
X122800000Y-52650000D01*
X122800000Y-56550000D02*
X120800000Y-56550000D01*
X120800000Y-56550000D02*
X120800000Y-52650000D01*
X141850000Y-56550000D02*
X139850000Y-56550000D01*
X141850000Y-56550000D02*
X141850000Y-52650000D01*
X139850000Y-56550000D02*
X139850000Y-52650000D01*
X160900000Y-56550000D02*
X158900000Y-56550000D01*
X160900000Y-56550000D02*
X160900000Y-52650000D01*
X158900000Y-56550000D02*
X158900000Y-52650000D01*
X177950000Y-56550000D02*
X177950000Y-52650000D01*
X179950000Y-56550000D02*
X177950000Y-56550000D01*
X179950000Y-56550000D02*
X179950000Y-52650000D01*
X199000000Y-56550000D02*
X197000000Y-56550000D01*
X197000000Y-56550000D02*
X197000000Y-52650000D01*
X199000000Y-56550000D02*
X199000000Y-52650000D01*
X218050000Y-56550000D02*
X218050000Y-52650000D01*
X218050000Y-56550000D02*
X216050000Y-56550000D01*
X216050000Y-56550000D02*
X216050000Y-52650000D01*
X235100000Y-56550000D02*
X235100000Y-52650000D01*
X237100000Y-56550000D02*
X235100000Y-56550000D01*
X237100000Y-56550000D02*
X237100000Y-52650000D01*
X256150000Y-56550000D02*
X254150000Y-56550000D01*
X254150000Y-56550000D02*
X254150000Y-52650000D01*
X256150000Y-56550000D02*
X256150000Y-52650000D01*
X284750000Y-56550000D02*
X282750000Y-56550000D01*
X282750000Y-56550000D02*
X282750000Y-52650000D01*
X284750000Y-56550000D02*
X284750000Y-52650000D01*
X320250000Y-56550000D02*
X318250000Y-56550000D01*
X320250000Y-56550000D02*
X320250000Y-52650000D01*
X318250000Y-56550000D02*
X318250000Y-52650000D01*
X337300000Y-56550000D02*
X337300000Y-52650000D01*
X339300000Y-56550000D02*
X339300000Y-52650000D01*
X339300000Y-56550000D02*
X337300000Y-56550000D01*
X358350000Y-56550000D02*
X358350000Y-52650000D01*
X358350000Y-56550000D02*
X356350000Y-56550000D01*
X356350000Y-56550000D02*
X356350000Y-52650000D01*
X367350000Y-57750000D02*
X367350000Y-61650000D01*
X369350000Y-57750000D02*
X369350000Y-61650000D01*
X367350000Y-57750000D02*
X369350000Y-57750000D01*
X388400000Y-57750000D02*
X388400000Y-61650000D01*
X386400000Y-57750000D02*
X386400000Y-61650000D01*
X386400000Y-57750000D02*
X388400000Y-57750000D01*
X420450000Y-56550000D02*
X420450000Y-52650000D01*
X422450000Y-56550000D02*
X422450000Y-52650000D01*
X422450000Y-56550000D02*
X420450000Y-56550000D01*
X440500000Y-56550000D02*
X438500000Y-56550000D01*
X438500000Y-56550000D02*
X438500000Y-52650000D01*
X440500000Y-56550000D02*
X440500000Y-52650000D01*
X32300000Y-75600000D02*
X30300000Y-75600000D01*
X32300000Y-75600000D02*
X32300000Y-71700000D01*
X30300000Y-75600000D02*
X30300000Y-71700000D01*
X54100000Y-75600000D02*
X54100000Y-71700000D01*
X56100000Y-75600000D02*
X54100000Y-75600000D01*
X56100000Y-75600000D02*
X56100000Y-71700000D01*
X75150000Y-75600000D02*
X75150000Y-71700000D01*
X73150000Y-75600000D02*
X73150000Y-71700000D01*
X75150000Y-75600000D02*
X73150000Y-75600000D01*
X94250000Y-75600000D02*
X92250000Y-75600000D01*
X94250000Y-75600000D02*
X94250000Y-71700000D01*
X92250000Y-75600000D02*
X92250000Y-71700000D01*
X113300000Y-75600000D02*
X113300000Y-71700000D01*
X111300000Y-75600000D02*
X111300000Y-71700000D01*
X113300000Y-75600000D02*
X111300000Y-75600000D01*
X130350000Y-75600000D02*
X130350000Y-71700000D01*
X132350000Y-75600000D02*
X130350000Y-75600000D01*
X132350000Y-75600000D02*
X132350000Y-71700000D01*
X151350000Y-75600000D02*
X151350000Y-71700000D01*
X151350000Y-75600000D02*
X149350000Y-75600000D01*
X149350000Y-75600000D02*
X149350000Y-71700000D01*
X170400000Y-75600000D02*
X170400000Y-71700000D01*
X170400000Y-75600000D02*
X168400000Y-75600000D01*
X168400000Y-75600000D02*
X168400000Y-71700000D01*
X187450000Y-75600000D02*
X187450000Y-71700000D01*
X189450000Y-75600000D02*
X189450000Y-71700000D01*
X189450000Y-75600000D02*
X187450000Y-75600000D01*
X208550000Y-75600000D02*
X208550000Y-71700000D01*
X206550000Y-75600000D02*
X206550000Y-71700000D01*
X208550000Y-75600000D02*
X206550000Y-75600000D01*
X225600000Y-75600000D02*
X225600000Y-71700000D01*
X227600000Y-75600000D02*
X225600000Y-75600000D01*
X227600000Y-75600000D02*
X227600000Y-71700000D01*
X244600000Y-75600000D02*
X244600000Y-71700000D01*
X246600000Y-75600000D02*
X244600000Y-75600000D01*
X246600000Y-75600000D02*
X246600000Y-71700000D01*
X265650000Y-75600000D02*
X265650000Y-71700000D01*
X265650000Y-75600000D02*
X263650000Y-75600000D01*
X263650000Y-75600000D02*
X263650000Y-71700000D01*
X289500000Y-75600000D02*
X287500000Y-75600000D01*
X289500000Y-75600000D02*
X289500000Y-71700000D01*
X287500000Y-75600000D02*
X287500000Y-71700000D01*
X320250000Y-75600000D02*
X320250000Y-71700000D01*
X318250000Y-75600000D02*
X318250000Y-71700000D01*
X320250000Y-75600000D02*
X318250000Y-75600000D01*
X339300000Y-75600000D02*
X337300000Y-75600000D01*
X337300000Y-75600000D02*
X337300000Y-71700000D01*
X339300000Y-75600000D02*
X339300000Y-71700000D01*
X358350000Y-75600000D02*
X356350000Y-75600000D01*
X356350000Y-75600000D02*
X356350000Y-71700000D01*
X358350000Y-75600000D02*
X358350000Y-71700000D01*
X384350000Y-75600000D02*
X384350000Y-71700000D01*
X384350000Y-75600000D02*
X382350000Y-75600000D01*
X382350000Y-75600000D02*
X382350000Y-71700000D01*
X403400000Y-75600000D02*
X401400000Y-75600000D01*
X403400000Y-75600000D02*
X403400000Y-71700000D01*
X401400000Y-75600000D02*
X401400000Y-71700000D01*
X420450000Y-75600000D02*
X420450000Y-71700000D01*
X422450000Y-75600000D02*
X420450000Y-75600000D01*
X422450000Y-75600000D02*
X422450000Y-71700000D01*
X438500000Y-75600000D02*
X438500000Y-71700000D01*
X440500000Y-75600000D02*
X438500000Y-75600000D01*
X440500000Y-75600000D02*
X440500000Y-71700000D01*
X34700000Y-94650000D02*
X32700000Y-94650000D01*
X34700000Y-94650000D02*
X34700000Y-90750000D01*
X32700000Y-94650000D02*
X32700000Y-90750000D01*
X58900000Y-94650000D02*
X58900000Y-90750000D01*
X60900000Y-94650000D02*
X60900000Y-90750000D01*
X60900000Y-94650000D02*
X58900000Y-94650000D01*
X77950000Y-94650000D02*
X77950000Y-90750000D01*
X79950000Y-94650000D02*
X79950000Y-90750000D01*
X79950000Y-94650000D02*
X77950000Y-94650000D01*
X99000000Y-94650000D02*
X99000000Y-90750000D01*
X97000000Y-94650000D02*
X97000000Y-90750000D01*
X99000000Y-94650000D02*
X97000000Y-94650000D01*
X118050000Y-94650000D02*
X116050000Y-94650000D01*
X118050000Y-94650000D02*
X118050000Y-90750000D01*
X116050000Y-94650000D02*
X116050000Y-90750000D01*
X137100000Y-94650000D02*
X137100000Y-90750000D01*
X137100000Y-94650000D02*
X135100000Y-94650000D01*
X135100000Y-94650000D02*
X135100000Y-90750000D01*
X156150000Y-94650000D02*
X156150000Y-90750000D01*
X156150000Y-94650000D02*
X154150000Y-94650000D01*
X154150000Y-94650000D02*
X154150000Y-90750000D01*
X175200000Y-94650000D02*
X173200000Y-94650000D01*
X175200000Y-94650000D02*
X175200000Y-90750000D01*
X173200000Y-94650000D02*
X173200000Y-90750000D01*
X192250000Y-94650000D02*
X192250000Y-90750000D01*
X194250000Y-94650000D02*
X194250000Y-90750000D01*
X194250000Y-94650000D02*
X192250000Y-94650000D01*
X213300000Y-94650000D02*
X211300000Y-94650000D01*
X213300000Y-94650000D02*
X213300000Y-90750000D01*
X211300000Y-94650000D02*
X211300000Y-90750000D01*
X230350000Y-94650000D02*
X230350000Y-90750000D01*
X232350000Y-94650000D02*
X230350000Y-94650000D01*
X232350000Y-94650000D02*
X232350000Y-90750000D01*
X251400000Y-94650000D02*
X249400000Y-94650000D01*
X251400000Y-94650000D02*
X251400000Y-90750000D01*
X249400000Y-94650000D02*
X249400000Y-90750000D01*
X280350000Y-94650000D02*
X280350000Y-90750000D01*
X282350000Y-94650000D02*
X282350000Y-90750000D01*
X282350000Y-94650000D02*
X280350000Y-94650000D01*
X384350000Y-94650000D02*
X382350000Y-94650000D01*
X384350000Y-94650000D02*
X384350000Y-90750000D01*
X382350000Y-94650000D02*
X382350000Y-90750000D01*
X403400000Y-94650000D02*
X401400000Y-94650000D01*
X403400000Y-94650000D02*
X403400000Y-90750000D01*
X401400000Y-94650000D02*
X401400000Y-90750000D01*
X422450000Y-94650000D02*
X420450000Y-94650000D01*
X420450000Y-94650000D02*
X420450000Y-90750000D01*
X422450000Y-94650000D02*
X422450000Y-90750000D01*
X424500000Y-95850000D02*
X424500000Y-99750000D01*
X426500000Y-95850000D02*
X426500000Y-99750000D01*
X424500000Y-95850000D02*
X426500000Y-95850000D01*
X25250000Y-116550000D02*
X25250000Y-112650000D01*
X27250000Y-116550000D02*
X27250000Y-112650000D01*
X27250000Y-116550000D02*
X25250000Y-116550000D01*
X70400000Y-113700000D02*
X70400000Y-109800000D01*
X70400000Y-113700000D02*
X68400000Y-113700000D01*
X68400000Y-113700000D02*
X68400000Y-109800000D01*
X89450000Y-113700000D02*
X87450000Y-113700000D01*
X87450000Y-113700000D02*
X87450000Y-109800000D01*
X89450000Y-113700000D02*
X89450000Y-109800000D01*
X108500000Y-113700000D02*
X106500000Y-113700000D01*
X108500000Y-113700000D02*
X108500000Y-109800000D01*
X106500000Y-113700000D02*
X106500000Y-109800000D01*
X127550000Y-113700000D02*
X125550000Y-113700000D01*
X125550000Y-113700000D02*
X125550000Y-109800000D01*
X127550000Y-113700000D02*
X127550000Y-109800000D01*
X146600000Y-113700000D02*
X146600000Y-109800000D01*
X144600000Y-113700000D02*
X144600000Y-109800000D01*
X146600000Y-113700000D02*
X144600000Y-113700000D01*
X165650000Y-113700000D02*
X165650000Y-109800000D01*
X165650000Y-113700000D02*
X163650000Y-113700000D01*
X163650000Y-113700000D02*
X163650000Y-109800000D01*
X182700000Y-113700000D02*
X182700000Y-109800000D01*
X184700000Y-113700000D02*
X184700000Y-109800000D01*
X184700000Y-113700000D02*
X182700000Y-113700000D01*
X203750000Y-113700000D02*
X203750000Y-109800000D01*
X203750000Y-113700000D02*
X201750000Y-113700000D01*
X201750000Y-113700000D02*
X201750000Y-109800000D01*
X222800000Y-113700000D02*
X220800000Y-113700000D01*
X222800000Y-113700000D02*
X222800000Y-109800000D01*
X220800000Y-113700000D02*
X220800000Y-109800000D01*
X241850000Y-113700000D02*
X239850000Y-113700000D01*
X241850000Y-113700000D02*
X241850000Y-109800000D01*
X239850000Y-113700000D02*
X239850000Y-109800000D01*
X265250000Y-116550000D02*
X265250000Y-112650000D01*
X263250000Y-116550000D02*
X263250000Y-112650000D01*
X265250000Y-116550000D02*
X263250000Y-116550000D01*
X292250000Y-113700000D02*
X292250000Y-109800000D01*
X294250000Y-113700000D02*
X294250000Y-109800000D01*
X294250000Y-113700000D02*
X292250000Y-113700000D01*
X337300000Y-113700000D02*
X337300000Y-109800000D01*
X339300000Y-113700000D02*
X339300000Y-109800000D01*
X339300000Y-113700000D02*
X337300000Y-113700000D01*
X382350000Y-113700000D02*
X382350000Y-109800000D01*
X384350000Y-113700000D02*
X384350000Y-109800000D01*
X384350000Y-113700000D02*
X382350000Y-113700000D01*
X403400000Y-113700000D02*
X403400000Y-109800000D01*
X401400000Y-113700000D02*
X401400000Y-109800000D01*
X403400000Y-113700000D02*
X401400000Y-113700000D01*
X422450000Y-113700000D02*
X422450000Y-109800000D01*
X420450000Y-113700000D02*
X420450000Y-109800000D01*
X422450000Y-113700000D02*
X420450000Y-113700000D01*
X427500000Y-114050000D02*
X427500000Y-117950000D01*
X429500000Y-114050000D02*
X429500000Y-117950000D01*
X427500000Y-114050000D02*
X429500000Y-114050000D01*
X29950000Y-132750000D02*
X29950000Y-128850000D01*
X29950000Y-132750000D02*
X27950000Y-132750000D01*
X27950000Y-132750000D02*
X27950000Y-128850000D01*
X53750000Y-132750000D02*
X51750000Y-132750000D01*
X53750000Y-132750000D02*
X53750000Y-128850000D01*
X51750000Y-132750000D02*
X51750000Y-128850000D01*
X77550000Y-132750000D02*
X77550000Y-128850000D01*
X75550000Y-132750000D02*
X75550000Y-128850000D01*
X77550000Y-132750000D02*
X75550000Y-132750000D01*
X147450000Y-132750000D02*
X145450000Y-132750000D01*
X145450000Y-132750000D02*
X145450000Y-128850000D01*
X147450000Y-132750000D02*
X147450000Y-128850000D01*
X220450000Y-132750000D02*
X220450000Y-128850000D01*
X218450000Y-132750000D02*
X218450000Y-128850000D01*
X220450000Y-132750000D02*
X218450000Y-132750000D01*
X263650000Y-133450000D02*
X265650000Y-133450000D01*
X265650000Y-133450000D02*
X265650000Y-137350000D01*
X263650000Y-133450000D02*
X263650000Y-137350000D01*
X266050000Y-132750000D02*
X266050000Y-128850000D01*
X268050000Y-132750000D02*
X266050000Y-132750000D01*
X268050000Y-132750000D02*
X268050000Y-128850000D01*
X291850000Y-132750000D02*
X291850000Y-128850000D01*
X291850000Y-132750000D02*
X289850000Y-132750000D01*
X289850000Y-132750000D02*
X289850000Y-128850000D01*
X320250000Y-132750000D02*
X318250000Y-132750000D01*
X318250000Y-132750000D02*
X318250000Y-128850000D01*
X320250000Y-132750000D02*
X320250000Y-128850000D01*
X337300000Y-132750000D02*
X337300000Y-128850000D01*
X339300000Y-132750000D02*
X339300000Y-128850000D01*
X339300000Y-132750000D02*
X337300000Y-132750000D01*
X358350000Y-132750000D02*
X356350000Y-132750000D01*
X356350000Y-132750000D02*
X356350000Y-128850000D01*
X358350000Y-132750000D02*
X358350000Y-128850000D01*
X393850000Y-132750000D02*
X391850000Y-132750000D01*
X393850000Y-132750000D02*
X393850000Y-128850000D01*
X391850000Y-132750000D02*
X391850000Y-128850000D01*
X422450000Y-132750000D02*
X422450000Y-128850000D01*
X420450000Y-132750000D02*
X420450000Y-128850000D01*
X422450000Y-132750000D02*
X420450000Y-132750000D01*
X49350000Y-113700000D02*
X49350000Y-109800000D01*
X51350000Y-113700000D02*
X51350000Y-109800000D01*
X51350000Y-113700000D02*
X49350000Y-113700000D01*
%LPC*%
D13*
X370482813Y-25400000D03*
D14*
X373022813Y-25400000D03*
D13*
X395882813Y-25400000D03*
D14*
X398422813Y-25400000D03*
D13*
X421282813Y-25400000D03*
D14*
X423822813Y-25400000D03*
D15*
X18931250Y-129350000D03*
X23931250Y-128850000D03*
X42743750Y-129350000D03*
X47743750Y-128850000D03*
X16550000Y-15050000D03*
X21550000Y-14550000D03*
X54650000Y-15050000D03*
X59650000Y-14550000D03*
X73700000Y-15050000D03*
X78700000Y-14550000D03*
X92750000Y-15050000D03*
X97750000Y-14550000D03*
X111800000Y-15050000D03*
X116800000Y-14550000D03*
X140375000Y-15050000D03*
X145375000Y-14550000D03*
X159425000Y-15050000D03*
X164425000Y-14550000D03*
X178475000Y-15050000D03*
X183475000Y-14550000D03*
X197525000Y-15050000D03*
X202525000Y-14550000D03*
X226100000Y-15050000D03*
X231100000Y-14550000D03*
X245150000Y-15050000D03*
X250150000Y-14550000D03*
X264200000Y-15050000D03*
X269200000Y-14550000D03*
X283250000Y-15050000D03*
X288250000Y-14550000D03*
X309245313Y-15050000D03*
X314245313Y-14550000D03*
X328295313Y-15050000D03*
X333295313Y-14550000D03*
X347345313Y-15050000D03*
X352345313Y-14550000D03*
X66556250Y-129350000D03*
X71556250Y-128850000D03*
X137993750Y-129350000D03*
X142993750Y-128850000D03*
X16550000Y-53150000D03*
X21550000Y-52650000D03*
X35600000Y-53150000D03*
X40600000Y-52650000D03*
X54650000Y-53150000D03*
X59650000Y-52650000D03*
X73700000Y-53150000D03*
X78700000Y-52650000D03*
X92750000Y-53150000D03*
X97750000Y-52650000D03*
X111800000Y-53150000D03*
X116800000Y-52650000D03*
X130850000Y-53150000D03*
X135850000Y-52650000D03*
X149900000Y-53150000D03*
X154900000Y-52650000D03*
X168950000Y-53150000D03*
X173950000Y-52650000D03*
X188000000Y-53150000D03*
X193000000Y-52650000D03*
X207050000Y-53150000D03*
X212050000Y-52650000D03*
X226100000Y-53150000D03*
X231100000Y-52650000D03*
X245150000Y-53150000D03*
X250150000Y-52650000D03*
X273725000Y-53150000D03*
X278725000Y-52650000D03*
X309245313Y-53150000D03*
X314245313Y-52650000D03*
X328295313Y-53150000D03*
X333295313Y-52650000D03*
X347345313Y-53150000D03*
X352345313Y-52650000D03*
X378340625Y-61150000D03*
X373340625Y-61650000D03*
X397390625Y-61150000D03*
X392390625Y-61650000D03*
X411440625Y-53150000D03*
X416440625Y-52650000D03*
X430490625Y-53150000D03*
X435490625Y-52650000D03*
X21312500Y-72200000D03*
X26312500Y-71700000D03*
X45125000Y-72200000D03*
X50125000Y-71700000D03*
X64175000Y-72200000D03*
X69175000Y-71700000D03*
X83225000Y-72200000D03*
X88225000Y-71700000D03*
X102275000Y-72200000D03*
X107275000Y-71700000D03*
X121325000Y-72200000D03*
X126325000Y-71700000D03*
X140375000Y-72200000D03*
X145375000Y-71700000D03*
X159425000Y-72200000D03*
X164425000Y-71700000D03*
X178475000Y-72200000D03*
X183475000Y-71700000D03*
X197525000Y-72200000D03*
X202525000Y-71700000D03*
X216575000Y-72200000D03*
X221575000Y-71700000D03*
X235625000Y-72200000D03*
X240625000Y-71700000D03*
X254675000Y-72200000D03*
X259675000Y-71700000D03*
X278487500Y-72200000D03*
X283487500Y-71700000D03*
X309245313Y-72200000D03*
X314245313Y-71700000D03*
X328295313Y-72200000D03*
X333295313Y-71700000D03*
X347345313Y-72200000D03*
X352345313Y-71700000D03*
X373340625Y-72200000D03*
X378340625Y-71700000D03*
X392390625Y-72200000D03*
X397390625Y-71700000D03*
X411440625Y-72200000D03*
X416440625Y-71700000D03*
X430490625Y-72200000D03*
X435490625Y-71700000D03*
X23693750Y-91250000D03*
X28693750Y-90750000D03*
X49887500Y-91250000D03*
X54887500Y-90750000D03*
X68937500Y-91250000D03*
X73937500Y-90750000D03*
X87987500Y-91250000D03*
X92987500Y-90750000D03*
X107037500Y-91250000D03*
X112037500Y-90750000D03*
X126087500Y-91250000D03*
X131087500Y-90750000D03*
X145137500Y-91250000D03*
X150137500Y-90750000D03*
X164187500Y-91250000D03*
X169187500Y-90750000D03*
X183237500Y-91250000D03*
X188237500Y-90750000D03*
X202287500Y-91250000D03*
X207287500Y-90750000D03*
X221337500Y-91250000D03*
X226337500Y-90750000D03*
X240387500Y-91250000D03*
X245387500Y-90750000D03*
X271343750Y-91250000D03*
X276343750Y-90750000D03*
X392390625Y-91250000D03*
X397390625Y-90750000D03*
X411440625Y-91250000D03*
X416440625Y-90750000D03*
X435490625Y-99250000D03*
X430490625Y-99750000D03*
X28456250Y-110300000D03*
X33456250Y-109800000D03*
X59412500Y-110300000D03*
X64412500Y-109800000D03*
X78462500Y-110300000D03*
X83462500Y-109800000D03*
X97512500Y-110300000D03*
X102512500Y-109800000D03*
X116562500Y-110300000D03*
X121562500Y-109800000D03*
X135612500Y-110300000D03*
X140612500Y-109800000D03*
X154662500Y-110300000D03*
X159662500Y-109800000D03*
X173712500Y-110300000D03*
X178712500Y-109800000D03*
X192762500Y-110300000D03*
X197762500Y-109800000D03*
X211812500Y-110300000D03*
X216812500Y-109800000D03*
X230862500Y-110300000D03*
X235862500Y-109800000D03*
X257056250Y-110300000D03*
X262056250Y-109800000D03*
X283250000Y-110300000D03*
X288250000Y-109800000D03*
X328295313Y-110300000D03*
X333295313Y-109800000D03*
X392390625Y-110300000D03*
X397390625Y-109800000D03*
X411440625Y-110300000D03*
X416440625Y-109800000D03*
X428990625Y-126325000D03*
X428490625Y-121325000D03*
X26312500Y-137350000D03*
X21312500Y-137850000D03*
X50125000Y-137350000D03*
X45125000Y-137850000D03*
X73937500Y-137350000D03*
X68937500Y-137850000D03*
X149900000Y-129350000D03*
X154900000Y-128850000D03*
X209431250Y-129350000D03*
X214431250Y-128850000D03*
X233243750Y-129350000D03*
X238243750Y-128850000D03*
X257056250Y-129350000D03*
X262056250Y-128850000D03*
X280868750Y-129350000D03*
X285868750Y-128850000D03*
X309245313Y-129350000D03*
X314245313Y-128850000D03*
X328295313Y-129350000D03*
X333295313Y-128850000D03*
X347345313Y-129350000D03*
X352345313Y-128850000D03*
X382865625Y-129350000D03*
X387865625Y-128850000D03*
X411440625Y-129350000D03*
X416440625Y-128850000D03*
X436990625Y-83225000D03*
X437490625Y-88225000D03*
X266581250Y-110300000D03*
X271581250Y-109800000D03*
X235862500Y-137350000D03*
X230862500Y-137850000D03*
X259675000Y-137350000D03*
X254675000Y-137850000D03*
X283487500Y-137350000D03*
X278487500Y-137850000D03*
D16*
X287368750Y-83225000D03*
D15*
X287868750Y-88225000D03*
X259437500Y-91250000D03*
X264437500Y-90750000D03*
X40362500Y-110300000D03*
X45362500Y-109800000D03*
X18931250Y-110300000D03*
X23931250Y-109800000D03*
X280868750Y-81725000D03*
D16*
X285868750Y-81225000D03*
X290146875Y-83225000D03*
D15*
X290646875Y-88225000D03*
D16*
X284590625Y-83225000D03*
D15*
X285090625Y-88225000D03*
X26312500Y-99250000D03*
X21312500Y-99750000D03*
D17*
X57150000Y-38100000D03*
X180975000Y-38100000D03*
X349845313Y-38100000D03*
X330795313Y-95250000D03*
X353218750Y-104775000D03*
D15*
X373340625Y-91250000D03*
X378340625Y-90750000D03*
X373340625Y-110300000D03*
X378340625Y-109800000D03*
D18*
X376753438Y-21550313D03*
X376753438Y-24090313D03*
X376753438Y-26630313D03*
X376753438Y-29170313D03*
X376753438Y-31710313D03*
X376753438Y-34250313D03*
X376753438Y-36790313D03*
X376753438Y-39330313D03*
X376753438Y-41870313D03*
X376753438Y-44410313D03*
X376753438Y-46950313D03*
X376753438Y-49490313D03*
X379293438Y-49490313D03*
X381833438Y-49490313D03*
X384373438Y-49490313D03*
X386913438Y-49490313D03*
X389453438Y-49490313D03*
X391993438Y-49490313D03*
X391993438Y-46950313D03*
X391993438Y-44410313D03*
X391993438Y-41870313D03*
X391993438Y-39330313D03*
X391993438Y-36790313D03*
X391993438Y-34250313D03*
X391993438Y-31710313D03*
X391993438Y-29170313D03*
X391993438Y-26630313D03*
X391993438Y-24090313D03*
X391993438Y-21550313D03*
X389453438Y-31710313D03*
X379293438Y-31710313D03*
D15*
X18931250Y-91250000D03*
X23931250Y-90750000D03*
D19*
X373025000Y-20537500D03*
X373025000Y-22362500D03*
D20*
X401500000Y-27212500D03*
X401500000Y-25387500D03*
X427000000Y-27212500D03*
X427000000Y-25387500D03*
D21*
X26600000Y-17850000D03*
X26600000Y-14550000D03*
X64650000Y-17850000D03*
X64650000Y-14550000D03*
X83700000Y-17850000D03*
X83700000Y-14550000D03*
X102750000Y-17850000D03*
X102750000Y-14550000D03*
X121800000Y-17850000D03*
X121800000Y-14550000D03*
X150400000Y-17850000D03*
X150400000Y-14550000D03*
X169400000Y-17850000D03*
X169400000Y-14550000D03*
X188450000Y-17850000D03*
X188450000Y-14550000D03*
X207500000Y-17850000D03*
X207500000Y-14550000D03*
X236100000Y-17850000D03*
X236100000Y-14550000D03*
X255150000Y-17850000D03*
X255150000Y-14550000D03*
X274200000Y-17850000D03*
X274200000Y-14550000D03*
X293250000Y-17850000D03*
X293250000Y-14550000D03*
X319250000Y-17850000D03*
X319250000Y-14550000D03*
X338300000Y-17850000D03*
X338300000Y-14550000D03*
X357350000Y-17850000D03*
X357350000Y-14550000D03*
X26550000Y-55950000D03*
X26550000Y-52650000D03*
X45600000Y-55950000D03*
X45600000Y-52650000D03*
X64650000Y-55950000D03*
X64650000Y-52650000D03*
X83700000Y-55950000D03*
X83700000Y-52650000D03*
X102750000Y-55950000D03*
X102750000Y-52650000D03*
X121800000Y-55950000D03*
X121800000Y-52650000D03*
X140850000Y-55950000D03*
X140850000Y-52650000D03*
X159900000Y-55950000D03*
X159900000Y-52650000D03*
X178950000Y-55950000D03*
X178950000Y-52650000D03*
X198000000Y-55950000D03*
X198000000Y-52650000D03*
X217050000Y-55950000D03*
X217050000Y-52650000D03*
X236100000Y-55950000D03*
X236100000Y-52650000D03*
X255150000Y-55950000D03*
X255150000Y-52650000D03*
X283750000Y-55950000D03*
X283750000Y-52650000D03*
X319250000Y-55950000D03*
X319250000Y-52650000D03*
X338300000Y-55950000D03*
X338300000Y-52650000D03*
X357350000Y-55950000D03*
X357350000Y-52650000D03*
X368350000Y-58350000D03*
X368350000Y-61650000D03*
X387400000Y-58350000D03*
X387400000Y-61650000D03*
X421450000Y-55950000D03*
X421450000Y-52650000D03*
X439500000Y-55950000D03*
X439500000Y-52650000D03*
X31300000Y-75000000D03*
X31300000Y-71700000D03*
X55100000Y-75000000D03*
X55100000Y-71700000D03*
X74150000Y-75000000D03*
X74150000Y-71700000D03*
X93250000Y-75000000D03*
X93250000Y-71700000D03*
X112300000Y-75000000D03*
X112300000Y-71700000D03*
X131350000Y-75000000D03*
X131350000Y-71700000D03*
X150350000Y-75000000D03*
X150350000Y-71700000D03*
X169400000Y-75000000D03*
X169400000Y-71700000D03*
X188450000Y-75000000D03*
X188450000Y-71700000D03*
X207550000Y-75000000D03*
X207550000Y-71700000D03*
X226600000Y-75000000D03*
X226600000Y-71700000D03*
X245600000Y-75000000D03*
X245600000Y-71700000D03*
X264650000Y-75000000D03*
X264650000Y-71700000D03*
X288500000Y-75000000D03*
X288500000Y-71700000D03*
X319250000Y-75000000D03*
X319250000Y-71700000D03*
X338300000Y-75000000D03*
X338300000Y-71700000D03*
X357350000Y-75000000D03*
X357350000Y-71700000D03*
X383350000Y-75000000D03*
X383350000Y-71700000D03*
X402400000Y-75000000D03*
X402400000Y-71700000D03*
X421450000Y-75000000D03*
X421450000Y-71700000D03*
X439500000Y-75000000D03*
X439500000Y-71700000D03*
X33700000Y-94050000D03*
X33700000Y-90750000D03*
X59900000Y-94050000D03*
X59900000Y-90750000D03*
X78950000Y-94050000D03*
X78950000Y-90750000D03*
X98000000Y-94050000D03*
X98000000Y-90750000D03*
X117050000Y-94050000D03*
X117050000Y-90750000D03*
X136100000Y-94050000D03*
X136100000Y-90750000D03*
X155150000Y-94050000D03*
X155150000Y-90750000D03*
X174200000Y-94050000D03*
X174200000Y-90750000D03*
X193250000Y-94050000D03*
X193250000Y-90750000D03*
X212300000Y-94050000D03*
X212300000Y-90750000D03*
X231350000Y-94050000D03*
X231350000Y-90750000D03*
X250400000Y-94050000D03*
X250400000Y-90750000D03*
X281350000Y-94050000D03*
X281350000Y-90750000D03*
X383350000Y-94050000D03*
X383350000Y-90750000D03*
X402400000Y-94050000D03*
X402400000Y-90750000D03*
X421450000Y-94050000D03*
X421450000Y-90750000D03*
X425500000Y-96450000D03*
X425500000Y-99750000D03*
X26250000Y-115950000D03*
X26250000Y-112650000D03*
X69400000Y-113100000D03*
X69400000Y-109800000D03*
X88450000Y-113100000D03*
X88450000Y-109800000D03*
X107500000Y-113100000D03*
X107500000Y-109800000D03*
X126550000Y-113100000D03*
X126550000Y-109800000D03*
X145600000Y-113100000D03*
X145600000Y-109800000D03*
X164650000Y-113100000D03*
X164650000Y-109800000D03*
X183700000Y-113100000D03*
X183700000Y-109800000D03*
X202750000Y-113100000D03*
X202750000Y-109800000D03*
X221800000Y-113100000D03*
X221800000Y-109800000D03*
X240850000Y-113100000D03*
X240850000Y-109800000D03*
X264250000Y-115950000D03*
X264250000Y-112650000D03*
X293250000Y-113100000D03*
X293250000Y-109800000D03*
X338300000Y-113100000D03*
X338300000Y-109800000D03*
X383350000Y-113100000D03*
X383350000Y-109800000D03*
X402400000Y-113100000D03*
X402400000Y-109800000D03*
X421450000Y-113100000D03*
X421450000Y-109800000D03*
X428500000Y-114650000D03*
X428500000Y-117950000D03*
X28950000Y-132150000D03*
X28950000Y-128850000D03*
X52750000Y-132150000D03*
X52750000Y-128850000D03*
X76550000Y-132150000D03*
X76550000Y-128850000D03*
X146450000Y-132150000D03*
X146450000Y-128850000D03*
X219450000Y-132150000D03*
X219450000Y-128850000D03*
X264650000Y-134050000D03*
X264650000Y-137350000D03*
X267050000Y-132150000D03*
X267050000Y-128850000D03*
X290850000Y-132150000D03*
X290850000Y-128850000D03*
X319250000Y-132150000D03*
X319250000Y-128850000D03*
X338300000Y-132150000D03*
X338300000Y-128850000D03*
X357350000Y-132150000D03*
X357350000Y-128850000D03*
X392850000Y-132150000D03*
X392850000Y-128850000D03*
X421450000Y-132150000D03*
X421450000Y-128850000D03*
X50350000Y-113100000D03*
X50350000Y-109800000D03*
M02*
