  0
SECTION
  2
HEADER
  9
$ANGBASE
  50
0.0
  9
$ANGDIR
  70
1
  9
$MEASUREMENT
  70
0
  0
ENDSEC
  0
SECTION
  2
TABLES
  0
TABLE
  2
LTYPE
  70
4
  0
LTYPE
  5
40F
  2
CONTINUOUS
  70
0
  3
Solid line
  72
65
  73
0
  40
0.0
  0
LTYPE
  5
410
  2
DASHDOT
 70
0
  3
Dash Dot ____ _ ____ _
 72
65
 73
4
 40
2.0
 49
1.25
 49
-0.25
 49
0.25
 49
-0.25
  0
LTYPE
  5
411
  2
DASHED
 70
0
  3
Dashed __ __ __ __ __
 72
65
 73
2
 40
0.75
 49
0.5
 49
-0.25
  0
LTYPE
  5
43B
  2
DOTTED
 70
0
  3
Dotted .  .  .  .
 72
65
 73
2
 40
0.2
 49
0.0
 49
-0.2
  0
ENDTAB
  0
TABLE
  2
STYLE
  70
4
  0
STYLE
  2
KICAD
  70
0
  40
0
  41
1
  42
1
  50
0
  71
0
  3
isocp.shx
  0
STYLE
  2
KICADB
  70
0
  40
0
  41
1
  42
1
  50
0
  71
0
  3
isocp.shx
  0
STYLE
  2
KICADI
  70
0
  40
0
  41
1
  42
1
  50
15
  71
0
  3
isocp.shx
  0
STYLE
  2
KICADBI
  70
0
  40
0
  41
1
  42
1
  50
15
  71
0
  3
isocp.shx
  0
ENDTAB
  0
TABLE
  2
LAYER
  70
1
  0
LAYER
  2
BLACK
  70
0
  62
7
  6
CONTINUOUS
  0
ENDTAB
  0
ENDSEC
  0
SECTION
  2
ENTITIES
0
ARC
8
BLACK
10
0.53125
20
-5.39062
40
0.125
50
-180
51
-90
0
LINE
8
BLACK
6
CONTINUOUS
10
0.40625
20
-5.39062
11
0.40625
21
-0.59375
0
LINE
8
BLACK
6
CONTINUOUS
10
17.2266
20
-5.51562
11
0.53125
21
-5.51562
0
CIRCLE
8
BLACK
10
8.90625
20
-1.50391
40
0.21875
0
LINE
8
BLACK
6
CONTINUOUS
10
17.3828
20
-0.59375
11
17.3828
21
-5.39062
0
ARC
8
BLACK
10
0.53125
20
-0.59375
40
0.125
50
90
51
180
0
LINE
8
BLACK
6
CONTINUOUS
10
17.2266
20
-5.51562
11
17.2578
21
-5.51562
0
ARC
8
BLACK
10
17.2578
20
-0.593752
40
0.125002
50
0.000902285
51
89.9993
0
ARC
8
BLACK
10
17.2578
20
-5.39063
40
0.125001
50
-89.9993
51
0.000451142
0
LINE
8
BLACK
6
CONTINUOUS
10
17.2578
20
-0.46875
11
0.53125
21
-0.46875
0
CIRCLE
8
BLACK
10
12.2734
20
-4.5
40
0.21875
0
LINE
8
BLACK
6
CONTINUOUS
10
0.500785
20
-5.63412
11
0.500785
21
-5.55538
0
LINE
8
BLACK
6
CONTINUOUS
10
0.500785
20
-5.55538
11
0.519533
21
-5.55538
0
LINE
8
BLACK
6
CONTINUOUS
10
0.519533
20
-5.55538
11
0.530781
21
-5.55913
0
LINE
8
BLACK
6
CONTINUOUS
10
0.530781
20
-5.55913
11
0.53828
21
-5.56663
0
LINE
8
BLACK
6
CONTINUOUS
10
0.53828
20
-5.56663
11
0.54203
21
-5.57413
0
LINE
8
BLACK
6
CONTINUOUS
10
0.54203
20
-5.57413
11
0.545779
21
-5.58913
0
LINE
8
BLACK
6
CONTINUOUS
10
0.545779
20
-5.58913
11
0.545779
21
-5.60037
0
LINE
8
BLACK
6
CONTINUOUS
10
0.545779
20
-5.60037
11
0.54203
21
-5.61537
0
LINE
8
BLACK
6
CONTINUOUS
10
0.54203
20
-5.61537
11
0.53828
21
-5.62287
0
LINE
8
BLACK
6
CONTINUOUS
10
0.53828
20
-5.62287
11
0.530781
21
-5.63037
0
LINE
8
BLACK
6
CONTINUOUS
10
0.530781
20
-5.63037
11
0.519533
21
-5.63412
0
LINE
8
BLACK
6
CONTINUOUS
10
0.519533
20
-5.63412
11
0.500785
21
-5.63412
0
LINE
8
BLACK
6
CONTINUOUS
10
0.579525
20
-5.63412
11
0.579525
21
-5.58163
0
LINE
8
BLACK
6
CONTINUOUS
10
0.579525
20
-5.59662
11
0.583275
21
-5.58913
0
LINE
8
BLACK
6
CONTINUOUS
10
0.583275
20
-5.58913
11
0.587024
21
-5.58538
0
LINE
8
BLACK
6
CONTINUOUS
10
0.587024
20
-5.58538
11
0.594523
21
-5.58163
0
LINE
8
BLACK
6
CONTINUOUS
10
0.594523
20
-5.58163
11
0.602022
21
-5.58163
0
LINE
8
BLACK
6
CONTINUOUS
10
0.628269
20
-5.63412
11
0.628269
21
-5.58163
0
LINE
8
BLACK
6
CONTINUOUS
10
0.628269
20
-5.55538
11
0.62452
21
-5.55913
0
LINE
8
BLACK
6
CONTINUOUS
10
0.62452
20
-5.55913
11
0.628269
21
-5.56288
0
LINE
8
BLACK
6
CONTINUOUS
10
0.628269
20
-5.56288
11
0.632019
21
-5.55913
0
LINE
8
BLACK
6
CONTINUOUS
10
0.632019
20
-5.55913
11
0.628269
21
-5.55538
0
LINE
8
BLACK
6
CONTINUOUS
10
0.628269
20
-5.55538
11
0.628269
21
-5.56288
0
LINE
8
BLACK
6
CONTINUOUS
10
0.677013
20
-5.63412
11
0.669514
21
-5.63037
0
LINE
8
BLACK
6
CONTINUOUS
10
0.669514
20
-5.63037
11
0.665764
21
-5.62287
0
LINE
8
BLACK
6
CONTINUOUS
10
0.665764
20
-5.62287
11
0.665764
21
-5.55538
0
LINE
8
BLACK
6
CONTINUOUS
10
0.718258
20
-5.63412
11
0.710759
21
-5.63037
0
LINE
8
BLACK
6
CONTINUOUS
10
0.710759
20
-5.63037
11
0.707009
21
-5.62287
0
LINE
8
BLACK
6
CONTINUOUS
10
0.707009
20
-5.62287
11
0.707009
21
-5.55538
0
LINE
8
BLACK
6
CONTINUOUS
10
0.795498
20
-5.63412
11
0.795498
21
-5.55538
0
LINE
8
BLACK
6
CONTINUOUS
10
0.795498
20
-5.55538
11
0.821745
21
-5.61162
0
LINE
8
BLACK
6
CONTINUOUS
10
0.821745
20
-5.61162
11
0.847992
21
-5.55538
0
LINE
8
BLACK
6
CONTINUOUS
10
0.847992
20
-5.55538
11
0.847992
21
-5.63412
0
LINE
8
BLACK
6
CONTINUOUS
10
0.919233
20
-5.63412
11
0.919233
21
-5.59287
0
LINE
8
BLACK
6
CONTINUOUS
10
0.919233
20
-5.59287
11
0.915483
21
-5.58538
0
LINE
8
BLACK
6
CONTINUOUS
10
0.915483
20
-5.58538
11
0.907984
21
-5.58163
0
LINE
8
BLACK
6
CONTINUOUS
10
0.907984
20
-5.58163
11
0.892986
21
-5.58163
0
LINE
8
BLACK
6
CONTINUOUS
10
0.892986
20
-5.58163
11
0.885487
21
-5.58538
0
LINE
8
BLACK
6
CONTINUOUS
10
0.919233
20
-5.63037
11
0.911734
21
-5.63412
0
LINE
8
BLACK
6
CONTINUOUS
10
0.911734
20
-5.63412
11
0.892986
21
-5.63412
0
LINE
8
BLACK
6
CONTINUOUS
10
0.892986
20
-5.63412
11
0.885487
21
-5.63037
0
LINE
8
BLACK
6
CONTINUOUS
10
0.885487
20
-5.63037
11
0.881737
21
-5.62287
0
LINE
8
BLACK
6
CONTINUOUS
10
0.881737
20
-5.62287
11
0.881737
21
-5.61537
0
LINE
8
BLACK
6
CONTINUOUS
10
0.881737
20
-5.61537
11
0.885487
21
-5.60787
0
LINE
8
BLACK
6
CONTINUOUS
10
0.885487
20
-5.60787
11
0.892986
21
-5.60412
0
LINE
8
BLACK
6
CONTINUOUS
10
0.892986
20
-5.60412
11
0.911734
21
-5.60412
0
LINE
8
BLACK
6
CONTINUOUS
10
0.911734
20
-5.60412
11
0.919233
21
-5.60037
0
LINE
8
BLACK
6
CONTINUOUS
10
0.956728
20
-5.58163
11
0.956728
21
-5.66037
0
LINE
8
BLACK
6
CONTINUOUS
10
0.956728
20
-5.58538
11
0.964227
21
-5.58163
0
LINE
8
BLACK
6
CONTINUOUS
10
0.964227
20
-5.58163
11
0.979225
21
-5.58163
0
LINE
8
BLACK
6
CONTINUOUS
10
0.979225
20
-5.58163
11
0.986724
21
-5.58538
0
LINE
8
BLACK
6
CONTINUOUS
10
0.986724
20
-5.58538
11
0.990474
21
-5.58913
0
LINE
8
BLACK
6
CONTINUOUS
10
0.990474
20
-5.58913
11
0.994223
21
-5.59662
0
LINE
8
BLACK
6
CONTINUOUS
10
0.994223
20
-5.59662
11
0.994223
21
-5.61912
0
LINE
8
BLACK
6
CONTINUOUS
10
0.994223
20
-5.61912
11
0.990474
21
-5.62662
0
LINE
8
BLACK
6
CONTINUOUS
10
0.990474
20
-5.62662
11
0.986724
21
-5.63037
0
LINE
8
BLACK
6
CONTINUOUS
10
0.986724
20
-5.63037
11
0.979225
21
-5.63412
0
LINE
8
BLACK
6
CONTINUOUS
10
0.979225
20
-5.63412
11
0.964227
21
-5.63412
0
LINE
8
BLACK
6
CONTINUOUS
10
0.964227
20
-5.63412
11
0.956728
21
-5.63037
0
LINE
8
BLACK
6
CONTINUOUS
10
1.02797
20
-5.62662
11
1.03172
21
-5.63037
0
LINE
8
BLACK
6
CONTINUOUS
10
1.03172
20
-5.63037
11
1.02797
21
-5.63412
0
LINE
8
BLACK
6
CONTINUOUS
10
1.02797
20
-5.63412
11
1.02422
21
-5.63037
0
LINE
8
BLACK
6
CONTINUOUS
10
1.02422
20
-5.63037
11
1.02797
21
-5.62662
0
LINE
8
BLACK
6
CONTINUOUS
10
1.02797
20
-5.62662
11
1.02797
21
-5.63412
0
LINE
8
BLACK
6
CONTINUOUS
10
1.02797
20
-5.58538
11
1.03172
21
-5.58913
0
LINE
8
BLACK
6
CONTINUOUS
10
1.03172
20
-5.58913
11
1.02797
21
-5.59287
0
LINE
8
BLACK
6
CONTINUOUS
10
1.02797
20
-5.59287
11
1.02422
21
-5.58913
0
LINE
8
BLACK
6
CONTINUOUS
10
1.02422
20
-5.58913
11
1.02797
21
-5.58538
0
LINE
8
BLACK
6
CONTINUOUS
10
1.02797
20
-5.58538
11
1.02797
21
-5.59287
  0
ENDSEC
  0
EOF
