  0
SECTION
  2
HEADER
  9
$ANGBASE
  50
0.0
  9
$ANGDIR
  70
1
  9
$MEASUREMENT
  70
0
  0
ENDSEC
  0
SECTION
  2
TABLES
  0
TABLE
  2
LTYPE
  70
4
  0
LTYPE
  5
40F
  2
CONTINUOUS
  70
0
  3
Solid line
  72
65
  73
0
  40
0.0
  0
LTYPE
  5
410
  2
DASHDOT
 70
0
  3
Dash Dot ____ _ ____ _
 72
65
 73
4
 40
2.0
 49
1.25
 49
-0.25
 49
0.25
 49
-0.25
  0
LTYPE
  5
411
  2
DASHED
 70
0
  3
Dashed __ __ __ __ __
 72
65
 73
2
 40
0.75
 49
0.5
 49
-0.25
  0
LTYPE
  5
43B
  2
DOTTED
 70
0
  3
Dotted .  .  .  .
 72
65
 73
2
 40
0.2
 49
0.0
 49
-0.2
  0
ENDTAB
  0
TABLE
  2
STYLE
  70
4
  0
STYLE
  2
KICAD
  70
0
  40
0
  41
1
  42
1
  50
0
  71
0
  3
isocp.shx
  0
STYLE
  2
KICADB
  70
0
  40
0
  41
1
  42
1
  50
0
  71
0
  3
isocp.shx
  0
STYLE
  2
KICADI
  70
0
  40
0
  41
1
  42
1
  50
15
  71
0
  3
isocp.shx
  0
STYLE
  2
KICADBI
  70
0
  40
0
  41
1
  42
1
  50
15
  71
0
  3
isocp.shx
  0
ENDTAB
  0
TABLE
  2
LAYER
  70
1
  0
LAYER
  2
BLACK
  70
0
  62
7
  6
CONTINUOUS
  0
ENDTAB
  0
ENDSEC
  0
SECTION
  2
ENTITIES
0
ARC
8
BLACK
10
0.53125
20
-5.39062
40
0.125
50
-180
51
-90
0
LINE
8
BLACK
6
CONTINUOUS
10
0.40625
20
-5.39062
11
0.40625
21
-0.59375
0
LINE
8
BLACK
6
CONTINUOUS
10
17.2266
20
-5.51562
11
0.53125
21
-5.51562
0
CIRCLE
8
BLACK
10
8.90625
20
-1.50391
40
0.21875
0
LINE
8
BLACK
6
CONTINUOUS
10
17.3828
20
-0.59375
11
17.3828
21
-5.39062
0
ARC
8
BLACK
10
0.53125
20
-0.59375
40
0.125
50
90
51
180
0
LINE
8
BLACK
6
CONTINUOUS
10
17.2266
20
-5.51562
11
17.2578
21
-5.51562
0
ARC
8
BLACK
10
17.2578
20
-0.593752
40
0.125002
50
0.000902285
51
89.9993
0
ARC
8
BLACK
10
17.2578
20
-5.39063
40
0.125001
50
-89.9993
51
0.000451142
0
LINE
8
BLACK
6
CONTINUOUS
10
17.2578
20
-0.46875
11
0.53125
21
-0.46875
0
CIRCLE
8
BLACK
10
12.2734
20
-4.5
40
0.21875
0
LINE
8
BLACK
6
CONTINUOUS
10
0.48622
20
-2.72047
11
0.501969
21
-2.73622
0
LINE
8
BLACK
6
CONTINUOUS
10
0.501969
20
-2.72047
11
0.48622
21
-2.73622
0
LINE
8
BLACK
6
CONTINUOUS
10
0.511811
20
-0.610236
11
0.527559
21
-0.625984
0
LINE
8
BLACK
6
CONTINUOUS
10
0.527559
20
-0.610236
11
0.511811
21
-0.625984
0
LINE
8
BLACK
6
CONTINUOUS
10
0.515748
20
-4.08661
11
0.531496
21
-4.10236
0
LINE
8
BLACK
6
CONTINUOUS
10
0.531496
20
-4.08661
11
0.515748
21
-4.10236
0
LINE
8
BLACK
6
CONTINUOUS
10
0.517717
20
-5.40354
11
0.533465
21
-5.41929
0
LINE
8
BLACK
6
CONTINUOUS
10
0.533465
20
-5.40354
11
0.517717
21
-5.41929
0
LINE
8
BLACK
6
CONTINUOUS
10
0.525591
20
-1.50197
11
0.541339
21
-1.51772
0
LINE
8
BLACK
6
CONTINUOUS
10
0.541339
20
-1.50197
11
0.525591
21
-1.51772
0
LINE
8
BLACK
6
CONTINUOUS
10
0.643701
20
-1.22835
11
0.659449
21
-1.24409
0
LINE
8
BLACK
6
CONTINUOUS
10
0.659449
20
-1.22835
11
0.643701
21
-1.24409
0
LINE
8
BLACK
6
CONTINUOUS
10
1.27559
20
-1.54724
11
1.29134
21
-1.56299
0
LINE
8
BLACK
6
CONTINUOUS
10
1.29134
20
-1.54724
11
1.27559
21
-1.56299
0
LINE
8
BLACK
6
CONTINUOUS
10
1.33661
20
-5.3622
11
1.35236
21
-5.37795
0
LINE
8
BLACK
6
CONTINUOUS
10
1.35236
20
-5.3622
11
1.33661
21
-5.37795
0
LINE
8
BLACK
6
CONTINUOUS
10
1.46457
20
-4.77559
11
1.48031
21
-4.79134
0
LINE
8
BLACK
6
CONTINUOUS
10
1.48031
20
-4.77559
11
1.46457
21
-4.79134
0
LINE
8
BLACK
6
CONTINUOUS
10
1.49803
20
-0.535433
11
1.51378
21
-0.551181
0
LINE
8
BLACK
6
CONTINUOUS
10
1.51378
20
-0.535433
11
1.49803
21
-0.551181
0
LINE
8
BLACK
6
CONTINUOUS
10
1.50787
20
-2.61417
11
1.52362
21
-2.62992
0
LINE
8
BLACK
6
CONTINUOUS
10
1.52362
20
-2.61417
11
1.50787
21
-2.62992
0
LINE
8
BLACK
6
CONTINUOUS
10
1.59252
20
-0.937008
11
1.60827
21
-0.952756
0
LINE
8
BLACK
6
CONTINUOUS
10
1.60827
20
-0.937008
11
1.59252
21
-0.952756
0
LINE
8
BLACK
6
CONTINUOUS
10
1.66339
20
-3.34843
11
1.67913
21
-3.36417
0
LINE
8
BLACK
6
CONTINUOUS
10
1.67913
20
-3.34843
11
1.66339
21
-3.36417
0
LINE
8
BLACK
6
CONTINUOUS
10
1.91339
20
-4.44488
11
1.92913
21
-4.46063
0
LINE
8
BLACK
6
CONTINUOUS
10
1.92913
20
-4.44488
11
1.91339
21
-4.46063
0
LINE
8
BLACK
6
CONTINUOUS
10
1.92717
20
-3.98425
11
1.94291
21
-4
0
LINE
8
BLACK
6
CONTINUOUS
10
1.94291
20
-3.98425
11
1.92717
21
-4
0
LINE
8
BLACK
6
CONTINUOUS
10
2.0689
20
-5.24803
11
2.08465
21
-5.26378
0
LINE
8
BLACK
6
CONTINUOUS
10
2.08465
20
-5.24803
11
2.0689
21
-5.26378
0
LINE
8
BLACK
6
CONTINUOUS
10
2.35039
20
-5.39567
11
2.36614
21
-5.41142
0
LINE
8
BLACK
6
CONTINUOUS
10
2.36614
20
-5.39567
11
2.35039
21
-5.41142
0
LINE
8
BLACK
6
CONTINUOUS
10
2.3563
20
-4.76772
11
2.37205
21
-4.78346
0
LINE
8
BLACK
6
CONTINUOUS
10
2.37205
20
-4.76772
11
2.3563
21
-4.78346
0
LINE
8
BLACK
6
CONTINUOUS
10
2.8937
20
-1.19685
11
2.90945
21
-1.2126
0
LINE
8
BLACK
6
CONTINUOUS
10
2.90945
20
-1.19685
11
2.8937
21
-1.2126
0
LINE
8
BLACK
6
CONTINUOUS
10
3.00984
20
-2.54724
11
3.02559
21
-2.56299
0
LINE
8
BLACK
6
CONTINUOUS
10
3.02559
20
-2.54724
11
3.00984
21
-2.56299
0
LINE
8
BLACK
6
CONTINUOUS
10
3.24213
20
-3.27559
11
3.25787
21
-3.29134
0
LINE
8
BLACK
6
CONTINUOUS
10
3.25787
20
-3.27559
11
3.24213
21
-3.29134
0
LINE
8
BLACK
6
CONTINUOUS
10
3.39764
20
-1.48031
11
3.41339
21
-1.49606
0
LINE
8
BLACK
6
CONTINUOUS
10
3.41339
20
-1.48031
11
3.39764
21
-1.49606
0
LINE
8
BLACK
6
CONTINUOUS
10
3.4311
20
-0.568898
11
3.44685
21
-0.584646
0
LINE
8
BLACK
6
CONTINUOUS
10
3.44685
20
-0.568898
11
3.4311
21
-0.584646
0
LINE
8
BLACK
6
CONTINUOUS
10
3.45472
20
-4.01181
11
3.47047
21
-4.02756
0
LINE
8
BLACK
6
CONTINUOUS
10
3.47047
20
-4.01181
11
3.45472
21
-4.02756
0
LINE
8
BLACK
6
CONTINUOUS
10
3.52756
20
-0.937008
11
3.54331
21
-0.952756
0
LINE
8
BLACK
6
CONTINUOUS
10
3.54331
20
-0.937008
11
3.52756
21
-0.952756
0
LINE
8
BLACK
6
CONTINUOUS
10
3.54528
20
-4.83858
11
3.56102
21
-4.85433
0
LINE
8
BLACK
6
CONTINUOUS
10
3.56102
20
-4.83858
11
3.54528
21
-4.85433
0
LINE
8
BLACK
6
CONTINUOUS
10
4.05906
20
-5.3622
11
4.0748
21
-5.37795
0
LINE
8
BLACK
6
CONTINUOUS
10
4.0748
20
-5.3622
11
4.05906
21
-5.37795
0
LINE
8
BLACK
6
CONTINUOUS
10
4.3937
20
-1.1752
11
4.40945
21
-1.19094
0
LINE
8
BLACK
6
CONTINUOUS
10
4.40945
20
-1.1752
11
4.3937
21
-1.19094
0
LINE
8
BLACK
6
CONTINUOUS
10
4.47835
20
-2.40748
11
4.49409
21
-2.42323
0
LINE
8
BLACK
6
CONTINUOUS
10
4.49409
20
-2.40748
11
4.47835
21
-2.42323
0
LINE
8
BLACK
6
CONTINUOUS
10
4.74213
20
-4.84843
11
4.75787
21
-4.86417
0
LINE
8
BLACK
6
CONTINUOUS
10
4.75787
20
-4.84843
11
4.74213
21
-4.86417
0
LINE
8
BLACK
6
CONTINUOUS
10
4.79921
20
-3.2185
11
4.81496
21
-3.23425
0
LINE
8
BLACK
6
CONTINUOUS
10
4.81496
20
-3.2185
11
4.79921
21
-3.23425
0
LINE
8
BLACK
6
CONTINUOUS
10
5.12598
20
-1.44488
11
5.14173
21
-1.46063
0
LINE
8
BLACK
6
CONTINUOUS
10
5.14173
20
-1.44488
11
5.12598
21
-1.46063
0
LINE
8
BLACK
6
CONTINUOUS
10
5.12795
20
-0.555118
11
5.1437
21
-0.570866
0
LINE
8
BLACK
6
CONTINUOUS
10
5.1437
20
-0.555118
11
5.12795
21
-0.570866
0
LINE
8
BLACK
6
CONTINUOUS
10
5.14173
20
-3.97047
11
5.15748
21
-3.98622
0
LINE
8
BLACK
6
CONTINUOUS
10
5.15748
20
-3.97047
11
5.14173
21
-3.98622
0
LINE
8
BLACK
6
CONTINUOUS
10
5.24409
20
-0.952756
11
5.25984
21
-0.968504
0
LINE
8
BLACK
6
CONTINUOUS
10
5.25984
20
-0.952756
11
5.24409
21
-0.968504
0
LINE
8
BLACK
6
CONTINUOUS
10
5.74409
20
-5.36811
11
5.75984
21
-5.38386
0
LINE
8
BLACK
6
CONTINUOUS
10
5.75984
20
-5.36811
11
5.74409
21
-5.38386
0
LINE
8
BLACK
6
CONTINUOUS
10
6.07874
20
-2.50591
11
6.09449
21
-2.52165
0
LINE
8
BLACK
6
CONTINUOUS
10
6.09449
20
-2.50591
11
6.07874
21
-2.52165
0
LINE
8
BLACK
6
CONTINUOUS
10
6.2687
20
-1.15453
11
6.28445
21
-1.17028
0
LINE
8
BLACK
6
CONTINUOUS
10
6.28445
20
-1.15453
11
6.2687
21
-1.17028
0
LINE
8
BLACK
6
CONTINUOUS
10
6.30906
20
-3.23622
11
6.3248
21
-3.25197
0
LINE
8
BLACK
6
CONTINUOUS
10
6.3248
20
-3.23622
11
6.30906
21
-3.25197
0
LINE
8
BLACK
6
CONTINUOUS
10
6.55906
20
-3.96457
11
6.5748
21
-3.98031
0
LINE
8
BLACK
6
CONTINUOUS
10
6.5748
20
-3.96457
11
6.55906
21
-3.98031
0
LINE
8
BLACK
6
CONTINUOUS
10
6.6752
20
-4.87008
11
6.69094
21
-4.88583
0
LINE
8
BLACK
6
CONTINUOUS
10
6.69094
20
-4.87008
11
6.6752
21
-4.88583
0
LINE
8
BLACK
6
CONTINUOUS
10
6.8189
20
-0.562992
11
6.83465
21
-0.57874
0
LINE
8
BLACK
6
CONTINUOUS
10
6.83465
20
-0.562992
11
6.8189
21
-0.57874
0
LINE
8
BLACK
6
CONTINUOUS
10
6.91142
20
-0.911417
11
6.92717
21
-0.927165
0
LINE
8
BLACK
6
CONTINUOUS
10
6.92717
20
-0.911417
11
6.91142
21
-0.927165
0
LINE
8
BLACK
6
CONTINUOUS
10
7.29921
20
-2.51969
11
7.31496
21
-2.53543
0
LINE
8
BLACK
6
CONTINUOUS
10
7.31496
20
-2.51969
11
7.29921
21
-2.53543
0
LINE
8
BLACK
6
CONTINUOUS
10
7.33071
20
-5.37795
11
7.34646
21
-5.3937
0
LINE
8
BLACK
6
CONTINUOUS
10
7.34646
20
-5.37795
11
7.33071
21
-5.3937
0
LINE
8
BLACK
6
CONTINUOUS
10
7.73425
20
-3.29724
11
7.75
21
-3.31299
0
LINE
8
BLACK
6
CONTINUOUS
10
7.75
20
-3.29724
11
7.73425
21
-3.31299
0
LINE
8
BLACK
6
CONTINUOUS
10
7.7687
20
-1.12894
11
7.78445
21
-1.14469
0
LINE
8
BLACK
6
CONTINUOUS
10
7.78445
20
-1.12894
11
7.7687
21
-1.14469
0
LINE
8
BLACK
6
CONTINUOUS
10
8.00591
20
-4.88976
11
8.02165
21
-4.90551
0
LINE
8
BLACK
6
CONTINUOUS
10
8.02165
20
-4.88976
11
8.00591
21
-4.90551
0
LINE
8
BLACK
6
CONTINUOUS
10
8.01969
20
-3.89764
11
8.03543
21
-3.91339
0
LINE
8
BLACK
6
CONTINUOUS
10
8.03543
20
-3.89764
11
8.01969
21
-3.91339
0
LINE
8
BLACK
6
CONTINUOUS
10
8.39567
20
-1.57283
11
8.41142
21
-1.58858
0
LINE
8
BLACK
6
CONTINUOUS
10
8.41142
20
-1.57283
11
8.39567
21
-1.58858
0
LINE
8
BLACK
6
CONTINUOUS
10
8.5315
20
-0.549213
11
8.54724
21
-0.564961
0
LINE
8
BLACK
6
CONTINUOUS
10
8.54724
20
-0.549213
11
8.5315
21
-0.564961
0
LINE
8
BLACK
6
CONTINUOUS
10
8.53543
20
-0.972441
11
8.55118
21
-0.988189
0
LINE
8
BLACK
6
CONTINUOUS
10
8.55118
20
-0.972441
11
8.53543
21
-0.988189
0
LINE
8
BLACK
6
CONTINUOUS
10
8.8563
20
-2.5
11
8.87205
21
-2.51575
0
LINE
8
BLACK
6
CONTINUOUS
10
8.87205
20
-2.5
11
8.8563
21
-2.51575
0
LINE
8
BLACK
6
CONTINUOUS
10
9.05315
20
-3.30118
11
9.0689
21
-3.31693
0
LINE
8
BLACK
6
CONTINUOUS
10
9.0689
20
-3.30118
11
9.05315
21
-3.31693
0
LINE
8
BLACK
6
CONTINUOUS
10
9.51969
20
-4.01181
11
9.53543
21
-4.02756
0
LINE
8
BLACK
6
CONTINUOUS
10
9.53543
20
-4.01181
11
9.51969
21
-4.02756
0
LINE
8
BLACK
6
CONTINUOUS
10
9.6437
20
-1.10827
11
9.65945
21
-1.12402
0
LINE
8
BLACK
6
CONTINUOUS
10
9.65945
20
-1.10827
11
9.6437
21
-1.12402
0
LINE
8
BLACK
6
CONTINUOUS
10
10.0886
20
-0.92126
11
10.1043
21
-0.937008
0
LINE
8
BLACK
6
CONTINUOUS
10
10.1043
20
-0.92126
11
10.0886
21
-0.937008
0
LINE
8
BLACK
6
CONTINUOUS
10
10.124
20
-1.49016
11
10.1398
21
-1.50591
0
LINE
8
BLACK
6
CONTINUOUS
10
10.1398
20
-1.49016
11
10.124
21
-1.50591
0
LINE
8
BLACK
6
CONTINUOUS
10
10.1516
20
-4.82874
11
10.1673
21
-4.84449
0
LINE
8
BLACK
6
CONTINUOUS
10
10.1673
20
-4.82874
11
10.1516
21
-4.84449
0
LINE
8
BLACK
6
CONTINUOUS
10
10.2165
20
-0.566929
11
10.2323
21
-0.582677
0
LINE
8
BLACK
6
CONTINUOUS
10
10.2323
20
-0.566929
11
10.2165
21
-0.582677
0
LINE
8
BLACK
6
CONTINUOUS
10
10.5709
20
-3.32283
11
10.5866
21
-3.33858
0
LINE
8
BLACK
6
CONTINUOUS
10
10.5866
20
-3.32283
11
10.5709
21
-3.33858
0
LINE
8
BLACK
6
CONTINUOUS
10
11.1181
20
-2.50591
11
11.1339
21
-2.52165
0
LINE
8
BLACK
6
CONTINUOUS
10
11.1339
20
-2.50591
11
11.1181
21
-2.52165
0
LINE
8
BLACK
6
CONTINUOUS
10
11.1437
20
-1.08661
11
11.1594
21
-1.10236
0
LINE
8
BLACK
6
CONTINUOUS
10
11.1594
20
-1.08661
11
11.1437
21
-1.10236
0
LINE
8
BLACK
6
CONTINUOUS
10
11.7697
20
-0.927165
11
11.7854
21
-0.942913
0
LINE
8
BLACK
6
CONTINUOUS
10
11.7854
20
-0.927165
11
11.7697
21
-0.942913
0
LINE
8
BLACK
6
CONTINUOUS
10
11.811
20
-0.559055
11
11.8268
21
-0.574803
0
LINE
8
BLACK
6
CONTINUOUS
10
11.8268
20
-0.559055
11
11.811
21
-0.574803
0
LINE
8
BLACK
6
CONTINUOUS
10
11.8799
20
-3.95866
11
11.8957
21
-3.97441
0
LINE
8
BLACK
6
CONTINUOUS
10
11.8957
20
-3.95866
11
11.8799
21
-3.97441
0
LINE
8
BLACK
6
CONTINUOUS
10
12.0453
20
-4.83465
11
12.061
21
-4.85039
0
LINE
8
BLACK
6
CONTINUOUS
10
12.061
20
-4.83465
11
12.0453
21
-4.85039
0
LINE
8
BLACK
6
CONTINUOUS
10
12.1004
20
-3.30709
11
12.1161
21
-3.32283
0
LINE
8
BLACK
6
CONTINUOUS
10
12.1161
20
-3.30709
11
12.1004
21
-3.32283
0
LINE
8
BLACK
6
CONTINUOUS
10
12.1378
20
-1.62008
11
12.1535
21
-1.63583
0
LINE
8
BLACK
6
CONTINUOUS
10
12.1535
20
-1.62008
11
12.1378
21
-1.63583
0
LINE
8
BLACK
6
CONTINUOUS
10
12.4213
20
-5.42323
11
12.437
21
-5.43898
0
LINE
8
BLACK
6
CONTINUOUS
10
12.437
20
-5.42323
11
12.4213
21
-5.43898
0
LINE
8
BLACK
6
CONTINUOUS
10
12.9171
20
-1.06654
11
12.9329
21
-1.08228
0
LINE
8
BLACK
6
CONTINUOUS
10
12.9329
20
-1.06654
11
12.9171
21
-1.08228
0
LINE
8
BLACK
6
CONTINUOUS
10
13.2283
20
-2.54134
11
13.2441
21
-2.55709
0
LINE
8
BLACK
6
CONTINUOUS
10
13.2441
20
-2.54134
11
13.2283
21
-2.55709
0
LINE
8
BLACK
6
CONTINUOUS
10
13.4606
20
-0.557087
11
13.4764
21
-0.572835
0
LINE
8
BLACK
6
CONTINUOUS
10
13.4764
20
-0.557087
11
13.4606
21
-0.572835
0
LINE
8
BLACK
6
CONTINUOUS
10
13.8484
20
-3.31299
11
13.8642
21
-3.32874
0
LINE
8
BLACK
6
CONTINUOUS
10
13.8642
20
-3.31299
11
13.8484
21
-3.32874
0
LINE
8
BLACK
6
CONTINUOUS
10
14.0118
20
-0.885827
11
14.0276
21
-0.901575
0
LINE
8
BLACK
6
CONTINUOUS
10
14.0276
20
-0.885827
11
14.0118
21
-0.901575
0
LINE
8
BLACK
6
CONTINUOUS
10
14.0315
20
-4.77165
11
14.0472
21
-4.7874
0
LINE
8
BLACK
6
CONTINUOUS
10
14.0472
20
-4.77165
11
14.0315
21
-4.7874
0
LINE
8
BLACK
6
CONTINUOUS
10
14.1024
20
-5.38976
11
14.1181
21
-5.40551
0
LINE
8
BLACK
6
CONTINUOUS
10
14.1181
20
-5.38976
11
14.1024
21
-5.40551
0
LINE
8
BLACK
6
CONTINUOUS
10
14.25
20
-2.58268
11
14.2657
21
-2.59843
0
LINE
8
BLACK
6
CONTINUOUS
10
14.2657
20
-2.58268
11
14.25
21
-2.59843
0
LINE
8
BLACK
6
CONTINUOUS
10
14.5742
20
-1.39075
11
14.59
21
-1.4065
0
LINE
8
BLACK
6
CONTINUOUS
10
14.59
20
-1.39075
11
14.5742
21
-1.4065
0
LINE
8
BLACK
6
CONTINUOUS
10
14.5746
20
-1.90059
11
14.5904
21
-1.91634
0
LINE
8
BLACK
6
CONTINUOUS
10
14.5904
20
-1.90059
11
14.5746
21
-1.91634
0
LINE
8
BLACK
6
CONTINUOUS
10
14.8207
20
-1.72657
11
14.8364
21
-1.74232
0
LINE
8
BLACK
6
CONTINUOUS
10
14.8364
20
-1.72657
11
14.8207
21
-1.74232
0
LINE
8
BLACK
6
CONTINUOUS
10
14.8683
20
-0.74626
11
14.8841
21
-0.762008
0
LINE
8
BLACK
6
CONTINUOUS
10
14.8841
20
-0.74626
11
14.8683
21
-0.762008
0
LINE
8
BLACK
6
CONTINUOUS
10
14.8785
20
-1.62382
11
14.8943
21
-1.63957
0
LINE
8
BLACK
6
CONTINUOUS
10
14.8943
20
-1.62382
11
14.8785
21
-1.63957
0
LINE
8
BLACK
6
CONTINUOUS
10
14.8785
20
-1.9624
11
14.8943
21
-1.97815
0
LINE
8
BLACK
6
CONTINUOUS
10
14.8943
20
-1.9624
11
14.8785
21
-1.97815
0
LINE
8
BLACK
6
CONTINUOUS
10
14.8874
20
-2.14764
11
14.9032
21
-2.16339
0
LINE
8
BLACK
6
CONTINUOUS
10
14.9032
20
-2.14764
11
14.8874
21
-2.16339
0
LINE
8
BLACK
6
CONTINUOUS
10
14.9337
20
-1.23799
11
14.9494
21
-1.25374
0
LINE
8
BLACK
6
CONTINUOUS
10
14.9494
20
-1.23799
11
14.9337
21
-1.25374
0
LINE
8
BLACK
6
CONTINUOUS
10
15.0045
20
-1.96634
11
15.0203
21
-1.98209
0
LINE
8
BLACK
6
CONTINUOUS
10
15.0203
20
-1.96634
11
15.0045
21
-1.98209
0
LINE
8
BLACK
6
CONTINUOUS
10
15.0124
20
-1.16713
11
15.0281
21
-1.18287
0
LINE
8
BLACK
6
CONTINUOUS
10
15.0281
20
-1.16713
11
15.0124
21
-1.18287
0
LINE
8
BLACK
6
CONTINUOUS
10
15.0833
20
-1.16713
11
15.099
21
-1.18287
0
LINE
8
BLACK
6
CONTINUOUS
10
15.099
20
-1.16713
11
15.0833
21
-1.18287
0
LINE
8
BLACK
6
CONTINUOUS
10
15.1478
20
-1.27461
11
15.1636
21
-1.29035
0
LINE
8
BLACK
6
CONTINUOUS
10
15.1636
20
-1.27461
11
15.1478
21
-1.29035
0
LINE
8
BLACK
6
CONTINUOUS
10
15.1545
20
-1.92264
11
15.1703
21
-1.93839
0
LINE
8
BLACK
6
CONTINUOUS
10
15.1703
20
-1.92264
11
15.1545
21
-1.93839
0
LINE
8
BLACK
6
CONTINUOUS
10
15.1654
20
-3.34252
11
15.1811
21
-3.35827
0
LINE
8
BLACK
6
CONTINUOUS
10
15.1811
20
-3.34252
11
15.1654
21
-3.35827
0
LINE
8
BLACK
6
CONTINUOUS
10
15.168
20
-1.31026
11
15.1837
21
-1.326
0
LINE
8
BLACK
6
CONTINUOUS
10
15.1837
20
-1.31026
11
15.168
21
-1.326
0
LINE
8
BLACK
6
CONTINUOUS
10
15.1752
20
-4.13583
11
15.1909
21
-4.15157
0
LINE
8
BLACK
6
CONTINUOUS
10
15.1909
20
-4.13583
11
15.1752
21
-4.15157
0
LINE
8
BLACK
6
CONTINUOUS
10
15.189
20
-2.59449
11
15.2047
21
-2.61024
0
LINE
8
BLACK
6
CONTINUOUS
10
15.2047
20
-2.59449
11
15.189
21
-2.61024
0
LINE
8
BLACK
6
CONTINUOUS
10
15.2264
20
-2.16732
11
15.2421
21
-2.18307
0
LINE
8
BLACK
6
CONTINUOUS
10
15.2421
20
-2.16732
11
15.2264
21
-2.18307
0
LINE
8
BLACK
6
CONTINUOUS
10
15.2289
20
-1.62776
11
15.2447
21
-1.6435
0
LINE
8
BLACK
6
CONTINUOUS
10
15.2447
20
-1.62776
11
15.2289
21
-1.6435
0
LINE
8
BLACK
6
CONTINUOUS
10
15.2325
20
-1.775
11
15.2482
21
-1.79075
0
LINE
8
BLACK
6
CONTINUOUS
10
15.2482
20
-1.775
11
15.2325
21
-1.79075
0
LINE
8
BLACK
6
CONTINUOUS
10
15.2368
20
-0.891535
11
15.2526
21
-0.907283
0
LINE
8
BLACK
6
CONTINUOUS
10
15.2526
20
-0.891535
11
15.2368
21
-0.907283
0
LINE
8
BLACK
6
CONTINUOUS
10
15.2683
20
-0.580512
11
15.2841
21
-0.59626
0
LINE
8
BLACK
6
CONTINUOUS
10
15.2841
20
-0.580512
11
15.2683
21
-0.59626
0
LINE
8
BLACK
6
CONTINUOUS
10
15.3037
20
-1.63169
11
15.3195
21
-1.64744
0
LINE
8
BLACK
6
CONTINUOUS
10
15.3195
20
-1.63169
11
15.3037
21
-1.64744
0
LINE
8
BLACK
6
CONTINUOUS
10
15.3415
20
-1.2813
11
15.3573
21
-1.29705
0
LINE
8
BLACK
6
CONTINUOUS
10
15.3573
20
-1.2813
11
15.3415
21
-1.29705
0
LINE
8
BLACK
6
CONTINUOUS
10
15.3592
20
-0.656761
11
15.375
21
-0.672509
0
LINE
8
BLACK
6
CONTINUOUS
10
15.375
20
-0.656761
11
15.3592
21
-0.672509
0
LINE
8
BLACK
6
CONTINUOUS
10
15.3696
20
-0.779842
11
15.3853
21
-0.79559
0
LINE
8
BLACK
6
CONTINUOUS
10
15.3853
20
-0.779842
11
15.3696
21
-0.79559
0
LINE
8
BLACK
6
CONTINUOUS
10
15.3707
20
-0.903346
11
15.3864
21
-0.919094
0
LINE
8
BLACK
6
CONTINUOUS
10
15.3864
20
-0.903346
11
15.3707
21
-0.919094
0
LINE
8
BLACK
6
CONTINUOUS
10
15.376
20
-0.697231
11
15.3917
21
-0.712979
0
LINE
8
BLACK
6
CONTINUOUS
10
15.3917
20
-0.697231
11
15.376
21
-0.712979
0
LINE
8
BLACK
6
CONTINUOUS
10
15.3806
20
-1.02347
11
15.3963
21
-1.03922
0
LINE
8
BLACK
6
CONTINUOUS
10
15.3963
20
-1.02347
11
15.3806
21
-1.03922
0
LINE
8
BLACK
6
CONTINUOUS
10
15.3878
20
-4.81299
11
15.4035
21
-4.82874
0
LINE
8
BLACK
6
CONTINUOUS
10
15.4035
20
-4.81299
11
15.3878
21
-4.82874
0
LINE
8
BLACK
6
CONTINUOUS
10
15.4045
20
-1.54744
11
15.4203
21
-1.56319
0
LINE
8
BLACK
6
CONTINUOUS
10
15.4203
20
-1.54744
11
15.4045
21
-1.56319
0
LINE
8
BLACK
6
CONTINUOUS
10
15.4258
20
-1.09626
11
15.4415
21
-1.11201
0
LINE
8
BLACK
6
CONTINUOUS
10
15.4415
20
-1.09626
11
15.4258
21
-1.11201
0
LINE
8
BLACK
6
CONTINUOUS
10
15.4691
20
-1.02539
11
15.4848
21
-1.04114
0
LINE
8
BLACK
6
CONTINUOUS
10
15.4848
20
-1.02539
11
15.4691
21
-1.04114
0
LINE
8
BLACK
6
CONTINUOUS
10
15.4707
20
-1.08681
11
15.4864
21
-1.10256
0
LINE
8
BLACK
6
CONTINUOUS
10
15.4864
20
-1.08681
11
15.4707
21
-1.10256
0
LINE
8
BLACK
6
CONTINUOUS
10
15.5
20
-2.17323
11
15.5157
21
-2.18898
0
LINE
8
BLACK
6
CONTINUOUS
10
15.5157
20
-2.17323
11
15.5
21
-2.18898
0
LINE
8
BLACK
6
CONTINUOUS
10
15.5018
20
-1.53287
11
15.5175
21
-1.54862
0
LINE
8
BLACK
6
CONTINUOUS
10
15.5175
20
-1.53287
11
15.5018
21
-1.54862
0
LINE
8
BLACK
6
CONTINUOUS
10
15.5118
20
-2.03937
11
15.5276
21
-2.05512
0
LINE
8
BLACK
6
CONTINUOUS
10
15.5276
20
-2.03937
11
15.5118
21
-2.05512
0
LINE
8
BLACK
6
CONTINUOUS
10
15.5185
20
-1.25028
11
15.5342
21
-1.26603
0
LINE
8
BLACK
6
CONTINUOUS
10
15.5342
20
-1.25028
11
15.5185
21
-1.26603
0
LINE
8
BLACK
6
CONTINUOUS
10
15.5234
20
-1.07444
11
15.5391
21
-1.09018
0
LINE
8
BLACK
6
CONTINUOUS
10
15.5391
20
-1.07444
11
15.5234
21
-1.09018
0
LINE
8
BLACK
6
CONTINUOUS
10
15.5486
20
-1.225
11
15.5644
21
-1.24075
0
LINE
8
BLACK
6
CONTINUOUS
10
15.5644
20
-1.225
11
15.5486
21
-1.24075
0
LINE
8
BLACK
6
CONTINUOUS
10
15.5595
20
-1.10435
11
15.5752
21
-1.1201
0
LINE
8
BLACK
6
CONTINUOUS
10
15.5752
20
-1.10435
11
15.5595
21
-1.1201
0
LINE
8
BLACK
6
CONTINUOUS
10
15.6048
20
-1.97591
11
15.6206
21
-1.99166
0
LINE
8
BLACK
6
CONTINUOUS
10
15.6206
20
-1.97591
11
15.6048
21
-1.99166
0
LINE
8
BLACK
6
CONTINUOUS
10
15.6108
20
-0.840354
11
15.6266
21
-0.856102
0
LINE
8
BLACK
6
CONTINUOUS
10
15.6266
20
-0.840354
11
15.6108
21
-0.856102
0
LINE
8
BLACK
6
CONTINUOUS
10
15.6133
20
-2.0257
11
15.629
21
-2.04145
0
LINE
8
BLACK
6
CONTINUOUS
10
15.629
20
-2.0257
11
15.6133
21
-2.04145
0
LINE
8
BLACK
6
CONTINUOUS
10
15.6431
20
-1.36713
11
15.6589
21
-1.38287
0
LINE
8
BLACK
6
CONTINUOUS
10
15.6589
20
-1.36713
11
15.6431
21
-1.38287
0
LINE
8
BLACK
6
CONTINUOUS
10
15.6486
20
-1.98035
11
15.6644
21
-1.9961
0
LINE
8
BLACK
6
CONTINUOUS
10
15.6644
20
-1.98035
11
15.6486
21
-1.9961
0
LINE
8
BLACK
6
CONTINUOUS
10
15.6581
20
-1.55295
11
15.6738
21
-1.5687
0
LINE
8
BLACK
6
CONTINUOUS
10
15.6738
20
-1.55295
11
15.6581
21
-1.5687
0
LINE
8
BLACK
6
CONTINUOUS
10
15.662
20
-0.71437
11
15.6778
21
-0.730118
0
LINE
8
BLACK
6
CONTINUOUS
10
15.6778
20
-0.71437
11
15.662
21
-0.730118
0
LINE
8
BLACK
6
CONTINUOUS
10
15.6852
20
-1.78346
11
15.7009
21
-1.79921
0
LINE
8
BLACK
6
CONTINUOUS
10
15.7009
20
-1.78346
11
15.6852
21
-1.79921
0
LINE
8
BLACK
6
CONTINUOUS
10
15.6872
20
-1.9939
11
15.703
21
-2.00964
0
LINE
8
BLACK
6
CONTINUOUS
10
15.703
20
-1.9939
11
15.6872
21
-2.00964
0
LINE
8
BLACK
6
CONTINUOUS
10
15.699
20
-1.16398
11
15.7148
21
-1.17972
0
LINE
8
BLACK
6
CONTINUOUS
10
15.7148
20
-1.16398
11
15.699
21
-1.17972
0
LINE
8
BLACK
6
CONTINUOUS
10
15.7096
20
-1.20188
11
15.7253
21
-1.21763
0
LINE
8
BLACK
6
CONTINUOUS
10
15.7253
20
-1.20188
11
15.7096
21
-1.21763
0
LINE
8
BLACK
6
CONTINUOUS
10
15.7126
20
-2.63583
11
15.7283
21
-2.65157
0
LINE
8
BLACK
6
CONTINUOUS
10
15.7283
20
-2.63583
11
15.7126
21
-2.65157
0
LINE
8
BLACK
6
CONTINUOUS
10
15.7228
20
-1.63563
11
15.7386
21
-1.65138
0
LINE
8
BLACK
6
CONTINUOUS
10
15.7386
20
-1.63563
11
15.7228
21
-1.65138
0
LINE
8
BLACK
6
CONTINUOUS
10
15.7309
20
-1.99678
11
15.7467
21
-2.01252
0
LINE
8
BLACK
6
CONTINUOUS
10
15.7467
20
-1.99678
11
15.7309
21
-2.01252
0
LINE
8
BLACK
6
CONTINUOUS
10
15.7381
20
-1.95809
11
15.7539
21
-1.97383
0
LINE
8
BLACK
6
CONTINUOUS
10
15.7539
20
-1.95809
11
15.7381
21
-1.97383
0
LINE
8
BLACK
6
CONTINUOUS
10
15.7559
20
-5.40748
11
15.7717
21
-5.42323
0
LINE
8
BLACK
6
CONTINUOUS
10
15.7717
20
-5.40748
11
15.7559
21
-5.42323
0
LINE
8
BLACK
6
CONTINUOUS
10
15.7565
20
-1.58839
11
15.7722
21
-1.60413
0
LINE
8
BLACK
6
CONTINUOUS
10
15.7722
20
-1.58839
11
15.7565
21
-1.60413
0
LINE
8
BLACK
6
CONTINUOUS
10
15.7614
20
-1.92604
11
15.7771
21
-1.94179
0
LINE
8
BLACK
6
CONTINUOUS
10
15.7771
20
-1.92604
11
15.7614
21
-1.94179
0
LINE
8
BLACK
6
CONTINUOUS
10
15.7644
20
-1.17106
11
15.7801
21
-1.18681
0
LINE
8
BLACK
6
CONTINUOUS
10
15.7801
20
-1.17106
11
15.7644
21
-1.18681
0
LINE
8
BLACK
6
CONTINUOUS
10
15.788
20
-1.43091
11
15.8037
21
-1.44665
0
LINE
8
BLACK
6
CONTINUOUS
10
15.8037
20
-1.43091
11
15.788
21
-1.44665
0
LINE
8
BLACK
6
CONTINUOUS
10
15.7894
20
-5.22638
11
15.8051
21
-5.24213
0
LINE
8
BLACK
6
CONTINUOUS
10
15.8051
20
-5.22638
11
15.7894
21
-5.24213
0
LINE
8
BLACK
6
CONTINUOUS
10
15.8103
20
-1.98047
11
15.826
21
-1.99622
0
LINE
8
BLACK
6
CONTINUOUS
10
15.826
20
-1.98047
11
15.8103
21
-1.99622
0
LINE
8
BLACK
6
CONTINUOUS
10
15.8169
20
-5.19488
11
15.8327
21
-5.21063
0
LINE
8
BLACK
6
CONTINUOUS
10
15.8327
20
-5.19488
11
15.8169
21
-5.21063
0
LINE
8
BLACK
6
CONTINUOUS
10
15.8179
20
-1.35059
11
15.8337
21
-1.36634
0
LINE
8
BLACK
6
CONTINUOUS
10
15.8337
20
-1.35059
11
15.8179
21
-1.36634
0
LINE
8
BLACK
6
CONTINUOUS
10
15.8484
20
-4.49803
11
15.8642
21
-4.51378
0
LINE
8
BLACK
6
CONTINUOUS
10
15.8642
20
-4.49803
11
15.8484
21
-4.51378
0
LINE
8
BLACK
6
CONTINUOUS
10
15.8495
20
-1.97739
11
15.8652
21
-1.99314
0
LINE
8
BLACK
6
CONTINUOUS
10
15.8652
20
-1.97739
11
15.8495
21
-1.99314
0
LINE
8
BLACK
6
CONTINUOUS
10
15.8549
20
-1.03327
11
15.8707
21
-1.04902
0
LINE
8
BLACK
6
CONTINUOUS
10
15.8707
20
-1.03327
11
15.8549
21
-1.04902
0
LINE
8
BLACK
6
CONTINUOUS
10
15.8589
20
-1.57264
11
15.8746
21
-1.58839
0
LINE
8
BLACK
6
CONTINUOUS
10
15.8746
20
-1.57264
11
15.8589
21
-1.58839
0
LINE
8
BLACK
6
CONTINUOUS
10
15.8624
20
-0.767126
11
15.8781
21
-0.782874
0
LINE
8
BLACK
6
CONTINUOUS
10
15.8781
20
-0.767126
11
15.8624
21
-0.782874
0
LINE
8
BLACK
6
CONTINUOUS
10
15.8701
20
-4.3878
11
15.8858
21
-4.40354
0
LINE
8
BLACK
6
CONTINUOUS
10
15.8858
20
-4.3878
11
15.8701
21
-4.40354
0
LINE
8
BLACK
6
CONTINUOUS
10
15.8987
20
-1.57633
11
15.9145
21
-1.59208
0
LINE
8
BLACK
6
CONTINUOUS
10
15.9145
20
-1.57633
11
15.8987
21
-1.59208
0
LINE
8
BLACK
6
CONTINUOUS
10
15.9055
20
-3.72638
11
15.9213
21
-3.74213
0
LINE
8
BLACK
6
CONTINUOUS
10
15.9213
20
-3.72638
11
15.9055
21
-3.74213
0
LINE
8
BLACK
6
CONTINUOUS
10
15.9134
20
-3.68504
11
15.9291
21
-3.70079
0
LINE
8
BLACK
6
CONTINUOUS
10
15.9291
20
-3.68504
11
15.9134
21
-3.70079
0
LINE
8
BLACK
6
CONTINUOUS
10
15.935
20
-2.93307
11
15.9508
21
-2.94882
0
LINE
8
BLACK
6
CONTINUOUS
10
15.9508
20
-2.93307
11
15.935
21
-2.94882
0
LINE
8
BLACK
6
CONTINUOUS
10
15.973
20
-1.43368
11
15.9888
21
-1.44943
0
LINE
8
BLACK
6
CONTINUOUS
10
15.9888
20
-1.43368
11
15.973
21
-1.44943
0
LINE
8
BLACK
6
CONTINUOUS
10
15.975
20
-2.93307
11
15.9908
21
-2.94882
0
LINE
8
BLACK
6
CONTINUOUS
10
15.9908
20
-2.93307
11
15.975
21
-2.94882
0
LINE
8
BLACK
6
CONTINUOUS
10
15.976
20
-2.01654
11
15.9917
21
-2.03228
0
LINE
8
BLACK
6
CONTINUOUS
10
15.9917
20
-2.01654
11
15.976
21
-2.03228
0
LINE
8
BLACK
6
CONTINUOUS
10
15.9808
20
-2.97494
11
15.9966
21
-2.99069
0
LINE
8
BLACK
6
CONTINUOUS
10
15.9966
20
-2.97494
11
15.9808
21
-2.99069
0
LINE
8
BLACK
6
CONTINUOUS
10
16
20
-4.04724
11
16.0157
21
-4.06299
0
LINE
8
BLACK
6
CONTINUOUS
10
16.0157
20
-4.04724
11
16
21
-4.06299
0
LINE
8
BLACK
6
CONTINUOUS
10
16.002
20
-1.52301
11
16.0178
21
-1.53876
0
LINE
8
BLACK
6
CONTINUOUS
10
16.0178
20
-1.52301
11
16.002
21
-1.53876
0
LINE
8
BLACK
6
CONTINUOUS
10
16.0118
20
-4.87402
11
16.0276
21
-4.88976
0
LINE
8
BLACK
6
CONTINUOUS
10
16.0276
20
-4.87402
11
16.0118
21
-4.88976
0
LINE
8
BLACK
6
CONTINUOUS
10
16.0453
20
-3.30118
11
16.061
21
-3.31693
0
LINE
8
BLACK
6
CONTINUOUS
10
16.061
20
-3.30118
11
16.0453
21
-3.31693
0
LINE
8
BLACK
6
CONTINUOUS
10
16.0827
20
-2.88583
11
16.0984
21
-2.90157
0
LINE
8
BLACK
6
CONTINUOUS
10
16.0984
20
-2.88583
11
16.0827
21
-2.90157
0
LINE
8
BLACK
6
CONTINUOUS
10
16.0866
20
-2.56299
11
16.1024
21
-2.57874
0
LINE
8
BLACK
6
CONTINUOUS
10
16.1024
20
-2.56299
11
16.0866
21
-2.57874
0
LINE
8
BLACK
6
CONTINUOUS
10
16.0984
20
-2.12598
11
16.1142
21
-2.14173
0
LINE
8
BLACK
6
CONTINUOUS
10
16.1142
20
-2.12598
11
16.0984
21
-2.14173
0
LINE
8
BLACK
6
CONTINUOUS
10
16.1177
20
-1.8264
11
16.1335
21
-1.84215
0
LINE
8
BLACK
6
CONTINUOUS
10
16.1335
20
-1.8264
11
16.1177
21
-1.84215
0
LINE
8
BLACK
6
CONTINUOUS
10
16.1197
20
-1.89252
11
16.1354
21
-1.90827
0
LINE
8
BLACK
6
CONTINUOUS
10
16.1354
20
-1.89252
11
16.1197
21
-1.90827
0
LINE
8
BLACK
6
CONTINUOUS
10
16.1352
20
-1.42539
11
16.151
21
-1.44114
0
LINE
8
BLACK
6
CONTINUOUS
10
16.151
20
-1.42539
11
16.1352
21
-1.44114
0
LINE
8
BLACK
6
CONTINUOUS
10
16.1384
20
-1.19469
11
16.1541
21
-1.21043
0
LINE
8
BLACK
6
CONTINUOUS
10
16.1541
20
-1.19469
11
16.1384
21
-1.21043
0
LINE
8
BLACK
6
CONTINUOUS
10
16.1423
20
-1.28524
11
16.1581
21
-1.30098
0
LINE
8
BLACK
6
CONTINUOUS
10
16.1581
20
-1.28524
11
16.1423
21
-1.30098
0
LINE
8
BLACK
6
CONTINUOUS
10
16.1454
20
-1.85994
11
16.1611
21
-1.87569
0
LINE
8
BLACK
6
CONTINUOUS
10
16.1611
20
-1.85994
11
16.1454
21
-1.87569
0
LINE
8
BLACK
6
CONTINUOUS
10
16.1615
20
-0.706776
11
16.1772
21
-0.722524
0
LINE
8
BLACK
6
CONTINUOUS
10
16.1772
20
-0.706776
11
16.1615
21
-0.722524
0
LINE
8
BLACK
6
CONTINUOUS
10
16.1623
20
-0.667305
11
16.1781
21
-0.683053
0
LINE
8
BLACK
6
CONTINUOUS
10
16.1781
20
-0.667305
11
16.1623
21
-0.683053
0
LINE
8
BLACK
6
CONTINUOUS
10
16.185
20
-2.2874
11
16.2008
21
-2.30315
0
LINE
8
BLACK
6
CONTINUOUS
10
16.2008
20
-2.2874
11
16.185
21
-2.30315
0
LINE
8
BLACK
6
CONTINUOUS
10
16.225
20
-1.2065
11
16.2407
21
-1.22224
0
LINE
8
BLACK
6
CONTINUOUS
10
16.2407
20
-1.2065
11
16.225
21
-1.22224
0
LINE
8
BLACK
6
CONTINUOUS
10
16.2278
20
-1.90059
11
16.2435
21
-1.91634
0
LINE
8
BLACK
6
CONTINUOUS
10
16.2435
20
-1.90059
11
16.2278
21
-1.91634
0
LINE
8
BLACK
6
CONTINUOUS
10
16.2281
20
-1.85689
11
16.2439
21
-1.87264
0
LINE
8
BLACK
6
CONTINUOUS
10
16.2439
20
-1.85689
11
16.2281
21
-1.87264
0
LINE
8
BLACK
6
CONTINUOUS
10
16.2368
20
-1.25374
11
16.2526
21
-1.26949
0
LINE
8
BLACK
6
CONTINUOUS
10
16.2526
20
-1.25374
11
16.2368
21
-1.26949
0
LINE
8
BLACK
6
CONTINUOUS
10
16.2482
20
-1.82303
11
16.2639
21
-1.83878
0
LINE
8
BLACK
6
CONTINUOUS
10
16.2639
20
-1.82303
11
16.2482
21
-1.83878
0
LINE
8
BLACK
6
CONTINUOUS
10
16.3035
20
-1.2693
11
16.3193
21
-1.28505
0
LINE
8
BLACK
6
CONTINUOUS
10
16.3193
20
-1.2693
11
16.3035
21
-1.28505
0
LINE
8
BLACK
6
CONTINUOUS
10
16.336
20
-1.49663
11
16.3518
21
-1.51238
0
LINE
8
BLACK
6
CONTINUOUS
10
16.3518
20
-1.49663
11
16.336
21
-1.51238
0
LINE
8
BLACK
6
CONTINUOUS
10
16.351
20
-1.18681
11
16.3667
21
-1.20256
0
LINE
8
BLACK
6
CONTINUOUS
10
16.3667
20
-1.18681
11
16.351
21
-1.20256
0
LINE
8
BLACK
6
CONTINUOUS
10
16.3516
20
-1.43368
11
16.3673
21
-1.44943
0
LINE
8
BLACK
6
CONTINUOUS
10
16.3673
20
-1.43368
11
16.3516
21
-1.44943
0
LINE
8
BLACK
6
CONTINUOUS
10
16.3589
20
-1.34823
11
16.3746
21
-1.36398
0
LINE
8
BLACK
6
CONTINUOUS
10
16.3746
20
-1.34823
11
16.3589
21
-1.36398
0
LINE
8
BLACK
6
CONTINUOUS
10
16.3616
20
-1.2376
11
16.3774
21
-1.25335
0
LINE
8
BLACK
6
CONTINUOUS
10
16.3774
20
-1.2376
11
16.3616
21
-1.25335
0
LINE
8
BLACK
6
CONTINUOUS
10
16.414
20
-1.07264
11
16.4297
21
-1.08839
0
LINE
8
BLACK
6
CONTINUOUS
10
16.4297
20
-1.07264
11
16.414
21
-1.08839
0
LINE
8
BLACK
6
CONTINUOUS
10
16.4193
20
-1.78543
11
16.435
21
-1.80118
0
LINE
8
BLACK
6
CONTINUOUS
10
16.435
20
-1.78543
11
16.4193
21
-1.80118
0
LINE
8
BLACK
6
CONTINUOUS
10
16.438
20
-1.4872
11
16.4537
21
-1.50295
0
LINE
8
BLACK
6
CONTINUOUS
10
16.4537
20
-1.4872
11
16.438
21
-1.50295
0
LINE
8
BLACK
6
CONTINUOUS
10
16.46
20
-1.90059
11
16.4758
21
-1.91634
0
LINE
8
BLACK
6
CONTINUOUS
10
16.4758
20
-1.90059
11
16.46
21
-1.91634
0
LINE
8
BLACK
6
CONTINUOUS
10
16.5157
20
-4.80512
11
16.5315
21
-4.82087
0
LINE
8
BLACK
6
CONTINUOUS
10
16.5315
20
-4.80512
11
16.5157
21
-4.82087
0
LINE
8
BLACK
6
CONTINUOUS
10
16.5963
20
-0.979331
11
16.612
21
-0.995079
0
LINE
8
BLACK
6
CONTINUOUS
10
16.612
20
-0.979331
11
16.5963
21
-0.995079
0
LINE
8
BLACK
6
CONTINUOUS
10
16.7047
20
-1.75394
11
16.7205
21
-1.76969
0
LINE
8
BLACK
6
CONTINUOUS
10
16.7205
20
-1.75394
11
16.7047
21
-1.76969
0
LINE
8
BLACK
6
CONTINUOUS
10
16.7829
20
-0.984449
11
16.7986
21
-1.0002
0
LINE
8
BLACK
6
CONTINUOUS
10
16.7986
20
-0.984449
11
16.7829
21
-1.0002
0
LINE
8
BLACK
6
CONTINUOUS
10
16.7959
20
-0.773425
11
16.8116
21
-0.789173
0
LINE
8
BLACK
6
CONTINUOUS
10
16.8116
20
-0.773425
11
16.7959
21
-0.789173
0
LINE
8
BLACK
6
CONTINUOUS
10
16.9173
20
-3.3563
11
16.9331
21
-3.37205
0
LINE
8
BLACK
6
CONTINUOUS
10
16.9331
20
-3.3563
11
16.9173
21
-3.37205
0
LINE
8
BLACK
6
CONTINUOUS
10
16.9783
20
-1.56102
11
16.9941
21
-1.57677
0
LINE
8
BLACK
6
CONTINUOUS
10
16.9941
20
-1.56102
11
16.9783
21
-1.57677
0
LINE
8
BLACK
6
CONTINUOUS
10
16.9854
20
-1.33661
11
17.0012
21
-1.35236
0
LINE
8
BLACK
6
CONTINUOUS
10
17.0012
20
-1.33661
11
16.9854
21
-1.35236
0
LINE
8
BLACK
6
CONTINUOUS
10
17
20
-2.57677
11
17.0157
21
-2.59252
0
LINE
8
BLACK
6
CONTINUOUS
10
17.0157
20
-2.57677
11
17
21
-2.59252
0
LINE
8
BLACK
6
CONTINUOUS
10
17.0436
20
-1.65621
11
17.0594
21
-1.67196
0
LINE
8
BLACK
6
CONTINUOUS
10
17.0594
20
-1.65621
11
17.0436
21
-1.67196
0
LINE
8
BLACK
6
CONTINUOUS
10
17.0478
20
-1.69658
11
17.0635
21
-1.71232
0
LINE
8
BLACK
6
CONTINUOUS
10
17.0635
20
-1.69658
11
17.0478
21
-1.71232
0
LINE
8
BLACK
6
CONTINUOUS
10
17.0602
20
-1.36734
11
17.076
21
-1.38309
0
LINE
8
BLACK
6
CONTINUOUS
10
17.076
20
-1.36734
11
17.0602
21
-1.38309
0
LINE
8
BLACK
6
CONTINUOUS
10
17.0724
20
-1.61732
11
17.0882
21
-1.63307
0
LINE
8
BLACK
6
CONTINUOUS
10
17.0882
20
-1.61732
11
17.0724
21
-1.63307
0
LINE
8
BLACK
6
CONTINUOUS
10
17.1063
20
-4.29134
11
17.122
21
-4.30709
0
LINE
8
BLACK
6
CONTINUOUS
10
17.122
20
-4.29134
11
17.1063
21
-4.30709
0
LINE
8
BLACK
6
CONTINUOUS
10
17.1354
20
-1.39173
11
17.1512
21
-1.40748
0
LINE
8
BLACK
6
CONTINUOUS
10
17.1512
20
-1.39173
11
17.1354
21
-1.40748
0
LINE
8
BLACK
6
CONTINUOUS
10
17.1437
20
-1.61811
11
17.1594
21
-1.63386
0
LINE
8
BLACK
6
CONTINUOUS
10
17.1594
20
-1.61811
11
17.1437
21
-1.63386
0
LINE
8
BLACK
6
CONTINUOUS
10
17.1447
20
-1.46045
11
17.1604
21
-1.47619
0
LINE
8
BLACK
6
CONTINUOUS
10
17.1604
20
-1.46045
11
17.1447
21
-1.47619
0
LINE
8
BLACK
6
CONTINUOUS
10
17.2421
20
-5.36811
11
17.2579
21
-5.38386
0
LINE
8
BLACK
6
CONTINUOUS
10
17.2579
20
-5.36811
11
17.2421
21
-5.38386
0
CIRCLE
8
BLACK
10
14.6926
20
-0.919094
40
0.0177165
0
CIRCLE
8
BLACK
10
14.7426
20
-0.919094
40
0.0177165
0
CIRCLE
8
BLACK
10
14.7926
20
-0.919094
40
0.0177165
0
CIRCLE
8
BLACK
10
14.8426
20
-0.919094
40
0.0177165
0
CIRCLE
8
BLACK
10
15.6926
20
-0.919094
40
0.0177165
0
CIRCLE
8
BLACK
10
15.7426
20
-0.919094
40
0.0177165
0
CIRCLE
8
BLACK
10
15.7926
20
-0.919094
40
0.0177165
0
CIRCLE
8
BLACK
10
15.8426
20
-0.919094
40
0.0177165
0
CIRCLE
8
BLACK
10
16.6926
20
-0.919094
40
0.0177165
0
CIRCLE
8
BLACK
10
16.7426
20
-0.919094
40
0.0177165
0
CIRCLE
8
BLACK
10
16.7926
20
-0.919094
40
0.0177165
0
CIRCLE
8
BLACK
10
16.8426
20
-0.919094
40
0.0177165
0
LINE
8
BLACK
6
CONTINUOUS
10
0.651575
20
-0.563583
11
0.651575
21
-0.621457
0
LINE
8
BLACK
6
CONTINUOUS
10
0.622638
20
-0.59252
11
0.680512
21
-0.59252
0
LINE
8
BLACK
6
CONTINUOUS
10
0.651575
20
-2.06358
11
0.651575
21
-2.12146
0
LINE
8
BLACK
6
CONTINUOUS
10
0.622638
20
-2.09252
11
0.680512
21
-2.09252
0
LINE
8
BLACK
6
CONTINUOUS
10
0.745325
20
-3.56358
11
0.745325
21
-3.62146
0
LINE
8
BLACK
6
CONTINUOUS
10
0.716388
20
-3.59252
11
0.774262
21
-3.59252
0
LINE
8
BLACK
6
CONTINUOUS
10
0.745325
20
-4.31358
11
0.745325
21
-4.37146
0
LINE
8
BLACK
6
CONTINUOUS
10
0.716388
20
-4.34252
11
0.774262
21
-4.34252
0
LINE
8
BLACK
6
CONTINUOUS
10
0.745325
20
-5.06358
11
0.745325
21
-5.12146
0
LINE
8
BLACK
6
CONTINUOUS
10
0.716388
20
-5.09252
11
0.774262
21
-5.09252
0
LINE
8
BLACK
6
CONTINUOUS
10
0.839075
20
-2.81358
11
0.839075
21
-2.87146
0
LINE
8
BLACK
6
CONTINUOUS
10
0.810138
20
-2.84252
11
0.868012
21
-2.84252
0
LINE
8
BLACK
6
CONTINUOUS
10
0.839075
20
-3.89823
11
0.839075
21
-3.9561
0
LINE
8
BLACK
6
CONTINUOUS
10
0.810138
20
-3.92717
11
0.868012
21
-3.92717
0
LINE
8
BLACK
6
CONTINUOUS
10
0.839075
20
-5.39823
11
0.839075
21
-5.4561
0
LINE
8
BLACK
6
CONTINUOUS
10
0.810138
20
-5.42717
11
0.868012
21
-5.42717
0
LINE
8
BLACK
6
CONTINUOUS
10
0.848425
20
-0.543898
11
0.848425
21
-0.601772
0
LINE
8
BLACK
6
CONTINUOUS
10
0.819488
20
-0.572835
11
0.877362
21
-0.572835
0
LINE
8
BLACK
6
CONTINUOUS
10
0.848425
20
-2.0439
11
0.848425
21
-2.10177
0
LINE
8
BLACK
6
CONTINUOUS
10
0.819488
20
-2.07283
11
0.877362
21
-2.07283
0
LINE
8
BLACK
6
CONTINUOUS
10
0.932825
20
-3.56358
11
0.932825
21
-3.62146
0
LINE
8
BLACK
6
CONTINUOUS
10
0.903888
20
-3.59252
11
0.961762
21
-3.59252
0
LINE
8
BLACK
6
CONTINUOUS
10
0.942175
20
-3.5439
11
0.942175
21
-3.60177
0
LINE
8
BLACK
6
CONTINUOUS
10
0.913238
20
-3.57283
11
0.971112
21
-3.57283
0
LINE
8
BLACK
6
CONTINUOUS
10
0.942175
20
-4.2939
11
0.942175
21
-4.35177
0
LINE
8
BLACK
6
CONTINUOUS
10
0.913238
20
-4.32283
11
0.971112
21
-4.32283
0
LINE
8
BLACK
6
CONTINUOUS
10
0.942175
20
-5.0439
11
0.942175
21
-5.10177
0
LINE
8
BLACK
6
CONTINUOUS
10
0.913238
20
-5.07283
11
0.971112
21
-5.07283
0
LINE
8
BLACK
6
CONTINUOUS
10
1.03593
20
-2.7939
11
1.03593
21
-2.85177
0
LINE
8
BLACK
6
CONTINUOUS
10
1.00699
20
-2.82283
11
1.06486
21
-2.82283
0
LINE
8
BLACK
6
CONTINUOUS
10
1.03593
20
-3.87854
11
1.03593
21
-3.93642
0
LINE
8
BLACK
6
CONTINUOUS
10
1.00699
20
-3.90748
11
1.06486
21
-3.90748
0
LINE
8
BLACK
6
CONTINUOUS
10
1.03593
20
-5.37854
11
1.03593
21
-5.43642
0
LINE
8
BLACK
6
CONTINUOUS
10
1.00699
20
-5.40748
11
1.06486
21
-5.40748
0
LINE
8
BLACK
6
CONTINUOUS
10
1.12032
20
-4.31358
11
1.12032
21
-4.37146
0
LINE
8
BLACK
6
CONTINUOUS
10
1.09139
20
-4.34252
11
1.14926
21
-4.34252
0
LINE
8
BLACK
6
CONTINUOUS
10
1.12968
20
-3.5439
11
1.12968
21
-3.60177
0
LINE
8
BLACK
6
CONTINUOUS
10
1.10074
20
-3.57283
11
1.15861
21
-3.57283
0
LINE
8
BLACK
6
CONTINUOUS
10
1.31718
20
-4.2939
11
1.31718
21
-4.35177
0
LINE
8
BLACK
6
CONTINUOUS
10
1.28824
20
-4.32283
11
1.34611
21
-4.32283
0
LINE
8
BLACK
6
CONTINUOUS
10
1.40157
20
-2.06358
11
1.40157
21
-2.12146
0
LINE
8
BLACK
6
CONTINUOUS
10
1.37264
20
-2.09252
11
1.43051
21
-2.09252
0
LINE
8
BLACK
6
CONTINUOUS
10
1.58907
20
-4.31358
11
1.58907
21
-4.37146
0
LINE
8
BLACK
6
CONTINUOUS
10
1.56014
20
-4.34252
11
1.61801
21
-4.34252
0
LINE
8
BLACK
6
CONTINUOUS
10
1.59843
20
-2.0439
11
1.59843
21
-2.10177
0
LINE
8
BLACK
6
CONTINUOUS
10
1.56949
20
-2.07283
11
1.62736
21
-2.07283
0
LINE
8
BLACK
6
CONTINUOUS
10
1.68282
20
-5.06358
11
1.68282
21
-5.12146
0
LINE
8
BLACK
6
CONTINUOUS
10
1.65389
20
-5.09252
11
1.71176
21
-5.09252
0
LINE
8
BLACK
6
CONTINUOUS
10
1.77657
20
-2.81358
11
1.77657
21
-2.87146
0
LINE
8
BLACK
6
CONTINUOUS
10
1.74764
20
-2.84252
11
1.80551
21
-2.84252
0
LINE
8
BLACK
6
CONTINUOUS
10
1.77657
20
-5.39823
11
1.77657
21
-5.4561
0
LINE
8
BLACK
6
CONTINUOUS
10
1.74764
20
-5.42717
11
1.80551
21
-5.42717
0
LINE
8
BLACK
6
CONTINUOUS
10
1.78593
20
-4.2939
11
1.78593
21
-4.35177
0
LINE
8
BLACK
6
CONTINUOUS
10
1.75699
20
-4.32283
11
1.81486
21
-4.32283
0
LINE
8
BLACK
6
CONTINUOUS
10
1.87968
20
-5.0439
11
1.87968
21
-5.10177
0
LINE
8
BLACK
6
CONTINUOUS
10
1.85074
20
-5.07283
11
1.90861
21
-5.07283
0
LINE
8
BLACK
6
CONTINUOUS
10
1.96407
20
-3.56358
11
1.96407
21
-3.62146
0
LINE
8
BLACK
6
CONTINUOUS
10
1.93514
20
-3.59252
11
1.99301
21
-3.59252
0
LINE
8
BLACK
6
CONTINUOUS
10
1.97343
20
-2.7939
11
1.97343
21
-2.85177
0
LINE
8
BLACK
6
CONTINUOUS
10
1.94449
20
-2.82283
11
2.00236
21
-2.82283
0
LINE
8
BLACK
6
CONTINUOUS
10
1.97343
20
-5.37854
11
1.97343
21
-5.43642
0
LINE
8
BLACK
6
CONTINUOUS
10
1.94449
20
-5.40748
11
2.00236
21
-5.40748
0
LINE
8
BLACK
6
CONTINUOUS
10
2.15157
20
-0.563583
11
2.15157
21
-0.621457
0
LINE
8
BLACK
6
CONTINUOUS
10
2.12264
20
-0.59252
11
2.18051
21
-0.59252
0
LINE
8
BLACK
6
CONTINUOUS
10
2.15157
20
-2.06358
11
2.15157
21
-2.12146
0
LINE
8
BLACK
6
CONTINUOUS
10
2.12264
20
-2.09252
11
2.18051
21
-2.09252
0
LINE
8
BLACK
6
CONTINUOUS
10
2.16093
20
-3.5439
11
2.16093
21
-3.60177
0
LINE
8
BLACK
6
CONTINUOUS
10
2.13199
20
-3.57283
11
2.18986
21
-3.57283
0
LINE
8
BLACK
6
CONTINUOUS
10
2.33907
20
-4.31358
11
2.33907
21
-4.37146
0
LINE
8
BLACK
6
CONTINUOUS
10
2.31014
20
-4.34252
11
2.36801
21
-4.34252
0
LINE
8
BLACK
6
CONTINUOUS
10
2.34843
20
-0.543898
11
2.34843
21
-0.601772
0
LINE
8
BLACK
6
CONTINUOUS
10
2.31949
20
-0.572835
11
2.37736
21
-0.572835
0
LINE
8
BLACK
6
CONTINUOUS
10
2.34843
20
-2.0439
11
2.34843
21
-2.10177
0
LINE
8
BLACK
6
CONTINUOUS
10
2.31949
20
-2.07283
11
2.37736
21
-2.07283
0
LINE
8
BLACK
6
CONTINUOUS
10
2.52657
20
-2.81358
11
2.52657
21
-2.87146
0
LINE
8
BLACK
6
CONTINUOUS
10
2.49764
20
-2.84252
11
2.55551
21
-2.84252
0
LINE
8
BLACK
6
CONTINUOUS
10
2.53593
20
-4.2939
11
2.53593
21
-4.35177
0
LINE
8
BLACK
6
CONTINUOUS
10
2.50699
20
-4.32283
11
2.56486
21
-4.32283
0
LINE
8
BLACK
6
CONTINUOUS
10
2.62032
20
-5.06358
11
2.62032
21
-5.12146
0
LINE
8
BLACK
6
CONTINUOUS
10
2.59139
20
-5.09252
11
2.64926
21
-5.09252
0
LINE
8
BLACK
6
CONTINUOUS
10
2.71407
20
-3.56358
11
2.71407
21
-3.62146
0
LINE
8
BLACK
6
CONTINUOUS
10
2.68514
20
-3.59252
11
2.74301
21
-3.59252
0
LINE
8
BLACK
6
CONTINUOUS
10
2.71407
20
-5.39823
11
2.71407
21
-5.4561
0
LINE
8
BLACK
6
CONTINUOUS
10
2.68514
20
-5.42717
11
2.74301
21
-5.42717
0
LINE
8
BLACK
6
CONTINUOUS
10
2.72343
20
-2.7939
11
2.72343
21
-2.85177
0
LINE
8
BLACK
6
CONTINUOUS
10
2.69449
20
-2.82283
11
2.75236
21
-2.82283
0
LINE
8
BLACK
6
CONTINUOUS
10
2.81718
20
-5.0439
11
2.81718
21
-5.10177
0
LINE
8
BLACK
6
CONTINUOUS
10
2.78824
20
-5.07283
11
2.84611
21
-5.07283
0
LINE
8
BLACK
6
CONTINUOUS
10
2.90157
20
-0.563583
11
2.90157
21
-0.621457
0
LINE
8
BLACK
6
CONTINUOUS
10
2.87264
20
-0.59252
11
2.93051
21
-0.59252
0
LINE
8
BLACK
6
CONTINUOUS
10
2.90157
20
-2.06358
11
2.90157
21
-2.12146
0
LINE
8
BLACK
6
CONTINUOUS
10
2.87264
20
-2.09252
11
2.93051
21
-2.09252
0
LINE
8
BLACK
6
CONTINUOUS
10
2.91093
20
-3.5439
11
2.91093
21
-3.60177
0
LINE
8
BLACK
6
CONTINUOUS
10
2.88199
20
-3.57283
11
2.93986
21
-3.57283
0
LINE
8
BLACK
6
CONTINUOUS
10
2.91093
20
-5.37854
11
2.91093
21
-5.43642
0
LINE
8
BLACK
6
CONTINUOUS
10
2.88199
20
-5.40748
11
2.93986
21
-5.40748
0
LINE
8
BLACK
6
CONTINUOUS
10
3.08907
20
-4.31358
11
3.08907
21
-4.37146
0
LINE
8
BLACK
6
CONTINUOUS
10
3.06014
20
-4.34252
11
3.11801
21
-4.34252
0
LINE
8
BLACK
6
CONTINUOUS
10
3.09843
20
-0.543898
11
3.09843
21
-0.601772
0
LINE
8
BLACK
6
CONTINUOUS
10
3.06949
20
-0.572835
11
3.12736
21
-0.572835
0
LINE
8
BLACK
6
CONTINUOUS
10
3.09843
20
-2.0439
11
3.09843
21
-2.10177
0
LINE
8
BLACK
6
CONTINUOUS
10
3.06949
20
-2.07283
11
3.12736
21
-2.07283
0
LINE
8
BLACK
6
CONTINUOUS
10
3.27657
20
-2.81358
11
3.27657
21
-2.87146
0
LINE
8
BLACK
6
CONTINUOUS
10
3.24764
20
-2.84252
11
3.30551
21
-2.84252
0
LINE
8
BLACK
6
CONTINUOUS
10
3.28593
20
-4.2939
11
3.28593
21
-4.35177
0
LINE
8
BLACK
6
CONTINUOUS
10
3.25699
20
-4.32283
11
3.31486
21
-4.32283
0
LINE
8
BLACK
6
CONTINUOUS
10
3.46407
20
-3.56358
11
3.46407
21
-3.62146
0
LINE
8
BLACK
6
CONTINUOUS
10
3.43514
20
-3.59252
11
3.49301
21
-3.59252
0
LINE
8
BLACK
6
CONTINUOUS
10
3.47343
20
-2.7939
11
3.47343
21
-2.85177
0
LINE
8
BLACK
6
CONTINUOUS
10
3.44449
20
-2.82283
11
3.50236
21
-2.82283
0
LINE
8
BLACK
6
CONTINUOUS
10
3.65157
20
-0.563583
11
3.65157
21
-0.621457
0
LINE
8
BLACK
6
CONTINUOUS
10
3.62264
20
-0.59252
11
3.68051
21
-0.59252
0
LINE
8
BLACK
6
CONTINUOUS
10
3.65157
20
-2.06358
11
3.65157
21
-2.12146
0
LINE
8
BLACK
6
CONTINUOUS
10
3.62264
20
-2.09252
11
3.68051
21
-2.09252
0
LINE
8
BLACK
6
CONTINUOUS
10
3.66093
20
-3.5439
11
3.66093
21
-3.60177
0
LINE
8
BLACK
6
CONTINUOUS
10
3.63199
20
-3.57283
11
3.68986
21
-3.57283
0
LINE
8
BLACK
6
CONTINUOUS
10
3.83907
20
-4.31358
11
3.83907
21
-4.37146
0
LINE
8
BLACK
6
CONTINUOUS
10
3.81014
20
-4.34252
11
3.86801
21
-4.34252
0
LINE
8
BLACK
6
CONTINUOUS
10
3.84843
20
-0.543898
11
3.84843
21
-0.601772
0
LINE
8
BLACK
6
CONTINUOUS
10
3.81949
20
-0.572835
11
3.87736
21
-0.572835
0
LINE
8
BLACK
6
CONTINUOUS
10
3.84843
20
-2.0439
11
3.84843
21
-2.10177
0
LINE
8
BLACK
6
CONTINUOUS
10
3.81949
20
-2.07283
11
3.87736
21
-2.07283
0
LINE
8
BLACK
6
CONTINUOUS
10
4.02657
20
-2.81358
11
4.02657
21
-2.87146
0
LINE
8
BLACK
6
CONTINUOUS
10
3.99764
20
-2.84252
11
4.05551
21
-2.84252
0
LINE
8
BLACK
6
CONTINUOUS
10
4.03593
20
-4.2939
11
4.03593
21
-4.35177
0
LINE
8
BLACK
6
CONTINUOUS
10
4.00699
20
-4.32283
11
4.06486
21
-4.32283
0
LINE
8
BLACK
6
CONTINUOUS
10
4.21407
20
-3.56358
11
4.21407
21
-3.62146
0
LINE
8
BLACK
6
CONTINUOUS
10
4.18514
20
-3.59252
11
4.24301
21
-3.59252
0
LINE
8
BLACK
6
CONTINUOUS
10
4.22343
20
-2.7939
11
4.22343
21
-2.85177
0
LINE
8
BLACK
6
CONTINUOUS
10
4.19449
20
-2.82283
11
4.25236
21
-2.82283
0
LINE
8
BLACK
6
CONTINUOUS
10
4.40157
20
-0.563583
11
4.40157
21
-0.621457
0
LINE
8
BLACK
6
CONTINUOUS
10
4.37264
20
-0.59252
11
4.43051
21
-0.59252
0
LINE
8
BLACK
6
CONTINUOUS
10
4.40157
20
-2.06358
11
4.40157
21
-2.12146
0
LINE
8
BLACK
6
CONTINUOUS
10
4.37264
20
-2.09252
11
4.43051
21
-2.09252
0
LINE
8
BLACK
6
CONTINUOUS
10
4.41093
20
-3.5439
11
4.41093
21
-3.60177
0
LINE
8
BLACK
6
CONTINUOUS
10
4.38199
20
-3.57283
11
4.43986
21
-3.57283
0
LINE
8
BLACK
6
CONTINUOUS
10
4.58907
20
-4.31358
11
4.58907
21
-4.37146
0
LINE
8
BLACK
6
CONTINUOUS
10
4.56014
20
-4.34252
11
4.61801
21
-4.34252
0
LINE
8
BLACK
6
CONTINUOUS
10
4.59843
20
-0.543898
11
4.59843
21
-0.601772
0
LINE
8
BLACK
6
CONTINUOUS
10
4.56949
20
-0.572835
11
4.62736
21
-0.572835
0
LINE
8
BLACK
6
CONTINUOUS
10
4.59843
20
-2.0439
11
4.59843
21
-2.10177
0
LINE
8
BLACK
6
CONTINUOUS
10
4.56949
20
-2.07283
11
4.62736
21
-2.07283
0
LINE
8
BLACK
6
CONTINUOUS
10
4.77657
20
-2.81358
11
4.77657
21
-2.87146
0
LINE
8
BLACK
6
CONTINUOUS
10
4.74764
20
-2.84252
11
4.80551
21
-2.84252
0
LINE
8
BLACK
6
CONTINUOUS
10
4.78593
20
-4.2939
11
4.78593
21
-4.35177
0
LINE
8
BLACK
6
CONTINUOUS
10
4.75699
20
-4.32283
11
4.81486
21
-4.32283
0
LINE
8
BLACK
6
CONTINUOUS
10
4.96407
20
-3.56358
11
4.96407
21
-3.62146
0
LINE
8
BLACK
6
CONTINUOUS
10
4.93514
20
-3.59252
11
4.99301
21
-3.59252
0
LINE
8
BLACK
6
CONTINUOUS
10
4.97343
20
-2.7939
11
4.97343
21
-2.85177
0
LINE
8
BLACK
6
CONTINUOUS
10
4.94449
20
-2.82283
11
5.00236
21
-2.82283
0
LINE
8
BLACK
6
CONTINUOUS
10
5.15157
20
-2.06358
11
5.15157
21
-2.12146
0
LINE
8
BLACK
6
CONTINUOUS
10
5.12264
20
-2.09252
11
5.18051
21
-2.09252
0
LINE
8
BLACK
6
CONTINUOUS
10
5.16093
20
-3.5439
11
5.16093
21
-3.60177
0
LINE
8
BLACK
6
CONTINUOUS
10
5.13199
20
-3.57283
11
5.18986
21
-3.57283
0
LINE
8
BLACK
6
CONTINUOUS
10
5.33907
20
-4.31358
11
5.33907
21
-4.37146
0
LINE
8
BLACK
6
CONTINUOUS
10
5.31014
20
-4.34252
11
5.36801
21
-4.34252
0
LINE
8
BLACK
6
CONTINUOUS
10
5.34843
20
-2.0439
11
5.34843
21
-2.10177
0
LINE
8
BLACK
6
CONTINUOUS
10
5.31949
20
-2.07283
11
5.37736
21
-2.07283
0
LINE
8
BLACK
6
CONTINUOUS
10
5.43282
20
-5.06358
11
5.43282
21
-5.12146
0
LINE
8
BLACK
6
CONTINUOUS
10
5.40389
20
-5.09252
11
5.46176
21
-5.09252
0
LINE
8
BLACK
6
CONTINUOUS
10
5.52657
20
-0.563583
11
5.52657
21
-0.621457
0
LINE
8
BLACK
6
CONTINUOUS
10
5.49764
20
-0.59252
11
5.55551
21
-0.59252
0
LINE
8
BLACK
6
CONTINUOUS
10
5.52657
20
-2.81358
11
5.52657
21
-2.87146
0
LINE
8
BLACK
6
CONTINUOUS
10
5.49764
20
-2.84252
11
5.55551
21
-2.84252
0
LINE
8
BLACK
6
CONTINUOUS
10
5.53593
20
-4.2939
11
5.53593
21
-4.35177
0
LINE
8
BLACK
6
CONTINUOUS
10
5.50699
20
-4.32283
11
5.56486
21
-4.32283
0
LINE
8
BLACK
6
CONTINUOUS
10
5.62968
20
-5.0439
11
5.62968
21
-5.10177
0
LINE
8
BLACK
6
CONTINUOUS
10
5.60074
20
-5.07283
11
5.65861
21
-5.07283
0
LINE
8
BLACK
6
CONTINUOUS
10
5.71407
20
-3.56358
11
5.71407
21
-3.62146
0
LINE
8
BLACK
6
CONTINUOUS
10
5.68514
20
-3.59252
11
5.74301
21
-3.59252
0
LINE
8
BLACK
6
CONTINUOUS
10
5.72343
20
-0.543898
11
5.72343
21
-0.601772
0
LINE
8
BLACK
6
CONTINUOUS
10
5.69449
20
-0.572835
11
5.75236
21
-0.572835
0
LINE
8
BLACK
6
CONTINUOUS
10
5.72343
20
-2.7939
11
5.72343
21
-2.85177
0
LINE
8
BLACK
6
CONTINUOUS
10
5.69449
20
-2.82283
11
5.75236
21
-2.82283
0
LINE
8
BLACK
6
CONTINUOUS
10
5.90157
20
-2.06358
11
5.90157
21
-2.12146
0
LINE
8
BLACK
6
CONTINUOUS
10
5.87264
20
-2.09252
11
5.93051
21
-2.09252
0
LINE
8
BLACK
6
CONTINUOUS
10
5.90157
20
-5.06358
11
5.90157
21
-5.12146
0
LINE
8
BLACK
6
CONTINUOUS
10
5.87264
20
-5.09252
11
5.93051
21
-5.09252
0
LINE
8
BLACK
6
CONTINUOUS
10
5.91093
20
-3.5439
11
5.91093
21
-3.60177
0
LINE
8
BLACK
6
CONTINUOUS
10
5.88199
20
-3.57283
11
5.93986
21
-3.57283
0
LINE
8
BLACK
6
CONTINUOUS
10
6.08907
20
-4.31358
11
6.08907
21
-4.37146
0
LINE
8
BLACK
6
CONTINUOUS
10
6.06014
20
-4.34252
11
6.11801
21
-4.34252
0
LINE
8
BLACK
6
CONTINUOUS
10
6.09843
20
-2.0439
11
6.09843
21
-2.10177
0
LINE
8
BLACK
6
CONTINUOUS
10
6.06949
20
-2.07283
11
6.12736
21
-2.07283
0
LINE
8
BLACK
6
CONTINUOUS
10
6.09843
20
-5.0439
11
6.09843
21
-5.10177
0
LINE
8
BLACK
6
CONTINUOUS
10
6.06949
20
-5.07283
11
6.12736
21
-5.07283
0
LINE
8
BLACK
6
CONTINUOUS
10
6.27657
20
-0.563583
11
6.27657
21
-0.621457
0
LINE
8
BLACK
6
CONTINUOUS
10
6.24764
20
-0.59252
11
6.30551
21
-0.59252
0
LINE
8
BLACK
6
CONTINUOUS
10
6.27657
20
-2.81358
11
6.27657
21
-2.87146
0
LINE
8
BLACK
6
CONTINUOUS
10
6.24764
20
-2.84252
11
6.30551
21
-2.84252
0
LINE
8
BLACK
6
CONTINUOUS
10
6.28593
20
-4.2939
11
6.28593
21
-4.35177
0
LINE
8
BLACK
6
CONTINUOUS
10
6.25699
20
-4.32283
11
6.31486
21
-4.32283
0
LINE
8
BLACK
6
CONTINUOUS
10
6.46407
20
-3.56358
11
6.46407
21
-3.62146
0
LINE
8
BLACK
6
CONTINUOUS
10
6.43514
20
-3.59252
11
6.49301
21
-3.59252
0
LINE
8
BLACK
6
CONTINUOUS
10
6.47343
20
-0.543898
11
6.47343
21
-0.601772
0
LINE
8
BLACK
6
CONTINUOUS
10
6.44449
20
-0.572835
11
6.50236
21
-0.572835
0
LINE
8
BLACK
6
CONTINUOUS
10
6.47343
20
-2.7939
11
6.47343
21
-2.85177
0
LINE
8
BLACK
6
CONTINUOUS
10
6.44449
20
-2.82283
11
6.50236
21
-2.82283
0
LINE
8
BLACK
6
CONTINUOUS
10
6.65157
20
-2.06358
11
6.65157
21
-2.12146
0
LINE
8
BLACK
6
CONTINUOUS
10
6.62264
20
-2.09252
11
6.68051
21
-2.09252
0
LINE
8
BLACK
6
CONTINUOUS
10
6.66093
20
-3.5439
11
6.66093
21
-3.60177
0
LINE
8
BLACK
6
CONTINUOUS
10
6.63199
20
-3.57283
11
6.68986
21
-3.57283
0
LINE
8
BLACK
6
CONTINUOUS
10
6.83907
20
-4.31358
11
6.83907
21
-4.37146
0
LINE
8
BLACK
6
CONTINUOUS
10
6.81014
20
-4.34252
11
6.86801
21
-4.34252
0
LINE
8
BLACK
6
CONTINUOUS
10
6.84843
20
-2.0439
11
6.84843
21
-2.10177
0
LINE
8
BLACK
6
CONTINUOUS
10
6.81949
20
-2.07283
11
6.87736
21
-2.07283
0
LINE
8
BLACK
6
CONTINUOUS
10
7.02657
20
-0.563583
11
7.02657
21
-0.621457
0
LINE
8
BLACK
6
CONTINUOUS
10
6.99764
20
-0.59252
11
7.05551
21
-0.59252
0
LINE
8
BLACK
6
CONTINUOUS
10
7.02657
20
-2.81358
11
7.02657
21
-2.87146
0
LINE
8
BLACK
6
CONTINUOUS
10
6.99764
20
-2.84252
11
7.05551
21
-2.84252
0
LINE
8
BLACK
6
CONTINUOUS
10
7.03593
20
-4.2939
11
7.03593
21
-4.35177
0
LINE
8
BLACK
6
CONTINUOUS
10
7.00699
20
-4.32283
11
7.06486
21
-4.32283
0
LINE
8
BLACK
6
CONTINUOUS
10
7.21407
20
-3.56358
11
7.21407
21
-3.62146
0
LINE
8
BLACK
6
CONTINUOUS
10
7.18514
20
-3.59252
11
7.24301
21
-3.59252
0
LINE
8
BLACK
6
CONTINUOUS
10
7.22343
20
-0.543898
11
7.22343
21
-0.601772
0
LINE
8
BLACK
6
CONTINUOUS
10
7.19449
20
-0.572835
11
7.25236
21
-0.572835
0
LINE
8
BLACK
6
CONTINUOUS
10
7.22343
20
-2.7939
11
7.22343
21
-2.85177
0
LINE
8
BLACK
6
CONTINUOUS
10
7.19449
20
-2.82283
11
7.25236
21
-2.82283
0
LINE
8
BLACK
6
CONTINUOUS
10
7.40157
20
-2.06358
11
7.40157
21
-2.12146
0
LINE
8
BLACK
6
CONTINUOUS
10
7.37264
20
-2.09252
11
7.43051
21
-2.09252
0
LINE
8
BLACK
6
CONTINUOUS
10
7.41093
20
-3.5439
11
7.41093
21
-3.60177
0
LINE
8
BLACK
6
CONTINUOUS
10
7.38199
20
-3.57283
11
7.43986
21
-3.57283
0
LINE
8
BLACK
6
CONTINUOUS
10
7.58907
20
-4.31358
11
7.58907
21
-4.37146
0
LINE
8
BLACK
6
CONTINUOUS
10
7.56014
20
-4.34252
11
7.61801
21
-4.34252
0
LINE
8
BLACK
6
CONTINUOUS
10
7.59843
20
-2.0439
11
7.59843
21
-2.10177
0
LINE
8
BLACK
6
CONTINUOUS
10
7.56949
20
-2.07283
11
7.62736
21
-2.07283
0
LINE
8
BLACK
6
CONTINUOUS
10
7.77657
20
-0.563583
11
7.77657
21
-0.621457
0
LINE
8
BLACK
6
CONTINUOUS
10
7.74764
20
-0.59252
11
7.80551
21
-0.59252
0
LINE
8
BLACK
6
CONTINUOUS
10
7.77657
20
-2.81358
11
7.77657
21
-2.87146
0
LINE
8
BLACK
6
CONTINUOUS
10
7.74764
20
-2.84252
11
7.80551
21
-2.84252
0
LINE
8
BLACK
6
CONTINUOUS
10
7.78593
20
-4.2939
11
7.78593
21
-4.35177
0
LINE
8
BLACK
6
CONTINUOUS
10
7.75699
20
-4.32283
11
7.81486
21
-4.32283
0
LINE
8
BLACK
6
CONTINUOUS
10
7.96407
20
-3.56358
11
7.96407
21
-3.62146
0
LINE
8
BLACK
6
CONTINUOUS
10
7.93514
20
-3.59252
11
7.99301
21
-3.59252
0
LINE
8
BLACK
6
CONTINUOUS
10
7.97343
20
-0.543898
11
7.97343
21
-0.601772
0
LINE
8
BLACK
6
CONTINUOUS
10
7.94449
20
-0.572835
11
8.00236
21
-0.572835
0
LINE
8
BLACK
6
CONTINUOUS
10
7.97343
20
-2.7939
11
7.97343
21
-2.85177
0
LINE
8
BLACK
6
CONTINUOUS
10
7.94449
20
-2.82283
11
8.00236
21
-2.82283
0
LINE
8
BLACK
6
CONTINUOUS
10
8.15157
20
-2.06358
11
8.15157
21
-2.12146
0
LINE
8
BLACK
6
CONTINUOUS
10
8.12264
20
-2.09252
11
8.18051
21
-2.09252
0
LINE
8
BLACK
6
CONTINUOUS
10
8.16093
20
-3.5439
11
8.16093
21
-3.60177
0
LINE
8
BLACK
6
CONTINUOUS
10
8.13199
20
-3.57283
11
8.18986
21
-3.57283
0
LINE
8
BLACK
6
CONTINUOUS
10
8.24532
20
-5.06358
11
8.24532
21
-5.12146
0
LINE
8
BLACK
6
CONTINUOUS
10
8.21639
20
-5.09252
11
8.27426
21
-5.09252
0
LINE
8
BLACK
6
CONTINUOUS
10
8.33907
20
-4.31358
11
8.33907
21
-4.37146
0
LINE
8
BLACK
6
CONTINUOUS
10
8.31014
20
-4.34252
11
8.36801
21
-4.34252
0
LINE
8
BLACK
6
CONTINUOUS
10
8.34843
20
-2.0439
11
8.34843
21
-2.10177
0
LINE
8
BLACK
6
CONTINUOUS
10
8.31949
20
-2.07283
11
8.37736
21
-2.07283
0
LINE
8
BLACK
6
CONTINUOUS
10
8.44218
20
-5.0439
11
8.44218
21
-5.10177
0
LINE
8
BLACK
6
CONTINUOUS
10
8.41324
20
-5.07283
11
8.47111
21
-5.07283
0
LINE
8
BLACK
6
CONTINUOUS
10
8.52657
20
-2.81358
11
8.52657
21
-2.87146
0
LINE
8
BLACK
6
CONTINUOUS
10
8.49764
20
-2.84252
11
8.55551
21
-2.84252
0
LINE
8
BLACK
6
CONTINUOUS
10
8.53593
20
-4.2939
11
8.53593
21
-4.35177
0
LINE
8
BLACK
6
CONTINUOUS
10
8.50699
20
-4.32283
11
8.56486
21
-4.32283
0
LINE
8
BLACK
6
CONTINUOUS
10
8.71407
20
-3.56358
11
8.71407
21
-3.62146
0
LINE
8
BLACK
6
CONTINUOUS
10
8.68514
20
-3.59252
11
8.74301
21
-3.59252
0
LINE
8
BLACK
6
CONTINUOUS
10
8.72343
20
-2.7939
11
8.72343
21
-2.85177
0
LINE
8
BLACK
6
CONTINUOUS
10
8.69449
20
-2.82283
11
8.75236
21
-2.82283
0
LINE
8
BLACK
6
CONTINUOUS
10
8.90157
20
-0.563583
11
8.90157
21
-0.621457
0
LINE
8
BLACK
6
CONTINUOUS
10
8.87264
20
-0.59252
11
8.93051
21
-0.59252
0
LINE
8
BLACK
6
CONTINUOUS
10
8.90157
20
-2.06358
11
8.90157
21
-2.12146
0
LINE
8
BLACK
6
CONTINUOUS
10
8.87264
20
-2.09252
11
8.93051
21
-2.09252
0
LINE
8
BLACK
6
CONTINUOUS
10
8.91093
20
-3.5439
11
8.91093
21
-3.60177
0
LINE
8
BLACK
6
CONTINUOUS
10
8.88199
20
-3.57283
11
8.93986
21
-3.57283
0
LINE
8
BLACK
6
CONTINUOUS
10
9.08907
20
-4.31358
11
9.08907
21
-4.37146
0
LINE
8
BLACK
6
CONTINUOUS
10
9.06014
20
-4.34252
11
9.11801
21
-4.34252
0
LINE
8
BLACK
6
CONTINUOUS
10
9.08907
20
-5.39823
11
9.08907
21
-5.4561
0
LINE
8
BLACK
6
CONTINUOUS
10
9.06014
20
-5.42717
11
9.11801
21
-5.42717
0
LINE
8
BLACK
6
CONTINUOUS
10
9.09843
20
-0.543898
11
9.09843
21
-0.601772
0
LINE
8
BLACK
6
CONTINUOUS
10
9.06949
20
-0.572835
11
9.12736
21
-0.572835
0
LINE
8
BLACK
6
CONTINUOUS
10
9.09843
20
-2.0439
11
9.09843
21
-2.10177
0
LINE
8
BLACK
6
CONTINUOUS
10
9.06949
20
-2.07283
11
9.12736
21
-2.07283
0
LINE
8
BLACK
6
CONTINUOUS
10
9.18282
20
-5.06358
11
9.18282
21
-5.12146
0
LINE
8
BLACK
6
CONTINUOUS
10
9.15389
20
-5.09252
11
9.21176
21
-5.09252
0
LINE
8
BLACK
6
CONTINUOUS
10
9.27657
20
-2.81358
11
9.27657
21
-2.87146
0
LINE
8
BLACK
6
CONTINUOUS
10
9.24764
20
-2.84252
11
9.30551
21
-2.84252
0
LINE
8
BLACK
6
CONTINUOUS
10
9.28593
20
-4.2939
11
9.28593
21
-4.35177
0
LINE
8
BLACK
6
CONTINUOUS
10
9.25699
20
-4.32283
11
9.31486
21
-4.32283
0
LINE
8
BLACK
6
CONTINUOUS
10
9.28593
20
-5.37854
11
9.28593
21
-5.43642
0
LINE
8
BLACK
6
CONTINUOUS
10
9.25699
20
-5.40748
11
9.31486
21
-5.40748
0
LINE
8
BLACK
6
CONTINUOUS
10
9.37968
20
-5.0439
11
9.37968
21
-5.10177
0
LINE
8
BLACK
6
CONTINUOUS
10
9.35074
20
-5.07283
11
9.40861
21
-5.07283
0
LINE
8
BLACK
6
CONTINUOUS
10
9.46407
20
-3.56358
11
9.46407
21
-3.62146
0
LINE
8
BLACK
6
CONTINUOUS
10
9.43514
20
-3.59252
11
9.49301
21
-3.59252
0
LINE
8
BLACK
6
CONTINUOUS
10
9.47343
20
-2.7939
11
9.47343
21
-2.85177
0
LINE
8
BLACK
6
CONTINUOUS
10
9.44449
20
-2.82283
11
9.50236
21
-2.82283
0
LINE
8
BLACK
6
CONTINUOUS
10
9.65157
20
-0.563583
11
9.65157
21
-0.621457
0
LINE
8
BLACK
6
CONTINUOUS
10
9.62264
20
-0.59252
11
9.68051
21
-0.59252
0
LINE
8
BLACK
6
CONTINUOUS
10
9.65157
20
-2.06358
11
9.65157
21
-2.12146
0
LINE
8
BLACK
6
CONTINUOUS
10
9.62264
20
-2.09252
11
9.68051
21
-2.09252
0
LINE
8
BLACK
6
CONTINUOUS
10
9.66093
20
-3.5439
11
9.66093
21
-3.60177
0
LINE
8
BLACK
6
CONTINUOUS
10
9.63199
20
-3.57283
11
9.68986
21
-3.57283
0
LINE
8
BLACK
6
CONTINUOUS
10
9.84843
20
-0.543898
11
9.84843
21
-0.601772
0
LINE
8
BLACK
6
CONTINUOUS
10
9.81949
20
-0.572835
11
9.87736
21
-0.572835
0
LINE
8
BLACK
6
CONTINUOUS
10
9.84843
20
-2.0439
11
9.84843
21
-2.10177
0
LINE
8
BLACK
6
CONTINUOUS
10
9.81949
20
-2.07283
11
9.87736
21
-2.07283
0
LINE
8
BLACK
6
CONTINUOUS
10
10.0266
20
-2.81358
11
10.0266
21
-2.87146
0
LINE
8
BLACK
6
CONTINUOUS
10
9.99764
20
-2.84252
11
10.0555
21
-2.84252
0
LINE
8
BLACK
6
CONTINUOUS
10
10.0266
20
-5.39823
11
10.0266
21
-5.4561
0
LINE
8
BLACK
6
CONTINUOUS
10
9.99764
20
-5.42717
11
10.0555
21
-5.42717
0
LINE
8
BLACK
6
CONTINUOUS
10
10.1203
20
-4.31358
11
10.1203
21
-4.37146
0
LINE
8
BLACK
6
CONTINUOUS
10
10.0914
20
-4.34252
11
10.1493
21
-4.34252
0
LINE
8
BLACK
6
CONTINUOUS
10
10.1203
20
-5.06358
11
10.1203
21
-5.12146
0
LINE
8
BLACK
6
CONTINUOUS
10
10.0914
20
-5.09252
11
10.1493
21
-5.09252
0
LINE
8
BLACK
6
CONTINUOUS
10
10.2141
20
-3.56358
11
10.2141
21
-3.62146
0
LINE
8
BLACK
6
CONTINUOUS
10
10.1851
20
-3.59252
11
10.243
21
-3.59252
0
LINE
8
BLACK
6
CONTINUOUS
10
10.2234
20
-2.7939
11
10.2234
21
-2.85177
0
LINE
8
BLACK
6
CONTINUOUS
10
10.1945
20
-2.82283
11
10.2524
21
-2.82283
0
LINE
8
BLACK
6
CONTINUOUS
10
10.2234
20
-5.37854
11
10.2234
21
-5.43642
0
LINE
8
BLACK
6
CONTINUOUS
10
10.1945
20
-5.40748
11
10.2524
21
-5.40748
0
LINE
8
BLACK
6
CONTINUOUS
10
10.3172
20
-4.2939
11
10.3172
21
-4.35177
0
LINE
8
BLACK
6
CONTINUOUS
10
10.2882
20
-4.32283
11
10.3461
21
-4.32283
0
LINE
8
BLACK
6
CONTINUOUS
10
10.3172
20
-5.0439
11
10.3172
21
-5.10177
0
LINE
8
BLACK
6
CONTINUOUS
10
10.2882
20
-5.07283
11
10.3461
21
-5.07283
0
LINE
8
BLACK
6
CONTINUOUS
10
10.4016
20
-0.563583
11
10.4016
21
-0.621457
0
LINE
8
BLACK
6
CONTINUOUS
10
10.3726
20
-0.59252
11
10.4305
21
-0.59252
0
LINE
8
BLACK
6
CONTINUOUS
10
10.4109
20
-3.5439
11
10.4109
21
-3.60177
0
LINE
8
BLACK
6
CONTINUOUS
10
10.382
20
-3.57283
11
10.4399
21
-3.57283
0
LINE
8
BLACK
6
CONTINUOUS
10
10.4953
20
-4.31358
11
10.4953
21
-4.37146
0
LINE
8
BLACK
6
CONTINUOUS
10
10.4664
20
-4.34252
11
10.5243
21
-4.34252
0
LINE
8
BLACK
6
CONTINUOUS
10
10.5984
20
-0.543898
11
10.5984
21
-0.601772
0
LINE
8
BLACK
6
CONTINUOUS
10
10.5695
20
-0.572835
11
10.6274
21
-0.572835
0
LINE
8
BLACK
6
CONTINUOUS
10
10.6828
20
-3.56358
11
10.6828
21
-3.62146
0
LINE
8
BLACK
6
CONTINUOUS
10
10.6539
20
-3.59252
11
10.7118
21
-3.59252
0
LINE
8
BLACK
6
CONTINUOUS
10
10.6922
20
-4.2939
11
10.6922
21
-4.35177
0
LINE
8
BLACK
6
CONTINUOUS
10
10.6632
20
-4.32283
11
10.7211
21
-4.32283
0
LINE
8
BLACK
6
CONTINUOUS
10
10.7766
20
-2.06358
11
10.7766
21
-2.12146
0
LINE
8
BLACK
6
CONTINUOUS
10
10.7476
20
-2.09252
11
10.8055
21
-2.09252
0
LINE
8
BLACK
6
CONTINUOUS
10
10.8797
20
-3.5439
11
10.8797
21
-3.60177
0
LINE
8
BLACK
6
CONTINUOUS
10
10.8507
20
-3.57283
11
10.9086
21
-3.57283
0
LINE
8
BLACK
6
CONTINUOUS
10
10.9641
20
-2.81358
11
10.9641
21
-2.87146
0
LINE
8
BLACK
6
CONTINUOUS
10
10.9351
20
-2.84252
11
10.993
21
-2.84252
0
LINE
8
BLACK
6
CONTINUOUS
10
10.9641
20
-5.39823
11
10.9641
21
-5.4561
0
LINE
8
BLACK
6
CONTINUOUS
10
10.9351
20
-5.42717
11
10.993
21
-5.42717
0
LINE
8
BLACK
6
CONTINUOUS
10
10.9734
20
-2.0439
11
10.9734
21
-2.10177
0
LINE
8
BLACK
6
CONTINUOUS
10
10.9445
20
-2.07283
11
11.0024
21
-2.07283
0
LINE
8
BLACK
6
CONTINUOUS
10
11.0578
20
-3.18858
11
11.0578
21
-3.24646
0
LINE
8
BLACK
6
CONTINUOUS
10
11.0289
20
-3.21752
11
11.0868
21
-3.21752
0
LINE
8
BLACK
6
CONTINUOUS
10
11.0578
20
-5.06358
11
11.0578
21
-5.12146
0
LINE
8
BLACK
6
CONTINUOUS
10
11.0289
20
-5.09252
11
11.0868
21
-5.09252
0
LINE
8
BLACK
6
CONTINUOUS
10
11.1516
20
-0.563583
11
11.1516
21
-0.621457
0
LINE
8
BLACK
6
CONTINUOUS
10
11.1226
20
-0.59252
11
11.1805
21
-0.59252
0
LINE
8
BLACK
6
CONTINUOUS
10
11.1516
20
-4.31358
11
11.1516
21
-4.37146
0
LINE
8
BLACK
6
CONTINUOUS
10
11.1226
20
-4.34252
11
11.1805
21
-4.34252
0
LINE
8
BLACK
6
CONTINUOUS
10
11.1609
20
-2.7939
11
11.1609
21
-2.85177
0
LINE
8
BLACK
6
CONTINUOUS
10
11.132
20
-2.82283
11
11.1899
21
-2.82283
0
LINE
8
BLACK
6
CONTINUOUS
10
11.1609
20
-5.37854
11
11.1609
21
-5.43642
0
LINE
8
BLACK
6
CONTINUOUS
10
11.132
20
-5.40748
11
11.1899
21
-5.40748
0
LINE
8
BLACK
6
CONTINUOUS
10
11.2044
20
-3.24764
11
11.2044
21
-3.30551
0
LINE
8
BLACK
6
CONTINUOUS
10
11.1754
20
-3.27657
11
11.2333
21
-3.27657
0
LINE
8
BLACK
6
CONTINUOUS
10
11.224
20
-3.44449
11
11.224
21
-3.50236
0
LINE
8
BLACK
6
CONTINUOUS
10
11.1951
20
-3.47343
11
11.253
21
-3.47343
0
LINE
8
BLACK
6
CONTINUOUS
10
11.2547
20
-3.1689
11
11.2547
21
-3.22677
0
LINE
8
BLACK
6
CONTINUOUS
10
11.2257
20
-3.19783
11
11.2836
21
-3.19783
0
LINE
8
BLACK
6
CONTINUOUS
10
11.2547
20
-5.0439
11
11.2547
21
-5.10177
0
LINE
8
BLACK
6
CONTINUOUS
10
11.2257
20
-5.07283
11
11.2836
21
-5.07283
0
LINE
8
BLACK
6
CONTINUOUS
10
11.3137
20
-3.24764
11
11.3137
21
-3.30551
0
LINE
8
BLACK
6
CONTINUOUS
10
11.2848
20
-3.27657
11
11.3427
21
-3.27657
0
LINE
8
BLACK
6
CONTINUOUS
10
11.3334
20
-3.44449
11
11.3334
21
-3.50236
0
LINE
8
BLACK
6
CONTINUOUS
10
11.3045
20
-3.47343
11
11.3624
21
-3.47343
0
LINE
8
BLACK
6
CONTINUOUS
10
11.3484
20
-0.543898
11
11.3484
21
-0.601772
0
LINE
8
BLACK
6
CONTINUOUS
10
11.3195
20
-0.572835
11
11.3774
21
-0.572835
0
LINE
8
BLACK
6
CONTINUOUS
10
11.3484
20
-4.2939
11
11.3484
21
-4.35177
0
LINE
8
BLACK
6
CONTINUOUS
10
11.3195
20
-4.32283
11
11.3774
21
-4.32283
0
LINE
8
BLACK
6
CONTINUOUS
10
11.4231
20
-3.24764
11
11.4231
21
-3.30551
0
LINE
8
BLACK
6
CONTINUOUS
10
11.3942
20
-3.27657
11
11.452
21
-3.27657
0
LINE
8
BLACK
6
CONTINUOUS
10
11.4428
20
-3.44449
11
11.4428
21
-3.50236
0
LINE
8
BLACK
6
CONTINUOUS
10
11.4139
20
-3.47343
11
11.4717
21
-3.47343
0
LINE
8
BLACK
6
CONTINUOUS
10
12.175
20
-0.563583
11
12.175
21
-0.621457
0
LINE
8
BLACK
6
CONTINUOUS
10
12.1461
20
-0.59252
11
12.2039
21
-0.59252
0
LINE
8
BLACK
6
CONTINUOUS
10
12.175
20
-2.06358
11
12.175
21
-2.12146
0
LINE
8
BLACK
6
CONTINUOUS
10
12.1461
20
-2.09252
11
12.2039
21
-2.09252
0
LINE
8
BLACK
6
CONTINUOUS
10
12.175
20
-2.81358
11
12.175
21
-2.87146
0
LINE
8
BLACK
6
CONTINUOUS
10
12.1461
20
-2.84252
11
12.2039
21
-2.84252
0
LINE
8
BLACK
6
CONTINUOUS
10
12.175
20
-5.06358
11
12.175
21
-5.12146
0
LINE
8
BLACK
6
CONTINUOUS
10
12.1461
20
-5.09252
11
12.2039
21
-5.09252
0
LINE
8
BLACK
6
CONTINUOUS
10
12.3719
20
-0.543898
11
12.3719
21
-0.601772
0
LINE
8
BLACK
6
CONTINUOUS
10
12.3429
20
-0.572835
11
12.4008
21
-0.572835
0
LINE
8
BLACK
6
CONTINUOUS
10
12.3719
20
-2.0439
11
12.3719
21
-2.10177
0
LINE
8
BLACK
6
CONTINUOUS
10
12.3429
20
-2.07283
11
12.4008
21
-2.07283
0
LINE
8
BLACK
6
CONTINUOUS
10
12.3719
20
-2.7939
11
12.3719
21
-2.85177
0
LINE
8
BLACK
6
CONTINUOUS
10
12.3429
20
-2.82283
11
12.4008
21
-2.82283
0
LINE
8
BLACK
6
CONTINUOUS
10
12.3719
20
-5.0439
11
12.3719
21
-5.10177
0
LINE
8
BLACK
6
CONTINUOUS
10
12.3429
20
-5.07283
11
12.4008
21
-5.07283
0
LINE
8
BLACK
6
CONTINUOUS
10
12.925
20
-0.563583
11
12.925
21
-0.621457
0
LINE
8
BLACK
6
CONTINUOUS
10
12.8961
20
-0.59252
11
12.9539
21
-0.59252
0
LINE
8
BLACK
6
CONTINUOUS
10
12.925
20
-2.06358
11
12.925
21
-2.12146
0
LINE
8
BLACK
6
CONTINUOUS
10
12.8961
20
-2.09252
11
12.9539
21
-2.09252
0
LINE
8
BLACK
6
CONTINUOUS
10
12.925
20
-2.81358
11
12.925
21
-2.87146
0
LINE
8
BLACK
6
CONTINUOUS
10
12.8961
20
-2.84252
11
12.9539
21
-2.84252
0
LINE
8
BLACK
6
CONTINUOUS
10
12.925
20
-4.31358
11
12.925
21
-4.37146
0
LINE
8
BLACK
6
CONTINUOUS
10
12.8961
20
-4.34252
11
12.9539
21
-4.34252
0
LINE
8
BLACK
6
CONTINUOUS
10
12.925
20
-5.06358
11
12.925
21
-5.12146
0
LINE
8
BLACK
6
CONTINUOUS
10
12.8961
20
-5.09252
11
12.9539
21
-5.09252
0
LINE
8
BLACK
6
CONTINUOUS
10
13.1219
20
-0.543898
11
13.1219
21
-0.601772
0
LINE
8
BLACK
6
CONTINUOUS
10
13.0929
20
-0.572835
11
13.1508
21
-0.572835
0
LINE
8
BLACK
6
CONTINUOUS
10
13.1219
20
-2.0439
11
13.1219
21
-2.10177
0
LINE
8
BLACK
6
CONTINUOUS
10
13.0929
20
-2.07283
11
13.1508
21
-2.07283
0
LINE
8
BLACK
6
CONTINUOUS
10
13.1219
20
-2.7939
11
13.1219
21
-2.85177
0
LINE
8
BLACK
6
CONTINUOUS
10
13.0929
20
-2.82283
11
13.1508
21
-2.82283
0
LINE
8
BLACK
6
CONTINUOUS
10
13.1219
20
-4.2939
11
13.1219
21
-4.35177
0
LINE
8
BLACK
6
CONTINUOUS
10
13.0929
20
-4.32283
11
13.1508
21
-4.32283
0
LINE
8
BLACK
6
CONTINUOUS
10
13.1219
20
-5.0439
11
13.1219
21
-5.10177
0
LINE
8
BLACK
6
CONTINUOUS
10
13.0929
20
-5.07283
11
13.1508
21
-5.07283
0
LINE
8
BLACK
6
CONTINUOUS
10
13.675
20
-0.563583
11
13.675
21
-0.621457
0
LINE
8
BLACK
6
CONTINUOUS
10
13.6461
20
-0.59252
11
13.7039
21
-0.59252
0
LINE
8
BLACK
6
CONTINUOUS
10
13.675
20
-2.06358
11
13.675
21
-2.12146
0
LINE
8
BLACK
6
CONTINUOUS
10
13.6461
20
-2.09252
11
13.7039
21
-2.09252
0
LINE
8
BLACK
6
CONTINUOUS
10
13.675
20
-2.81358
11
13.675
21
-2.87146
0
LINE
8
BLACK
6
CONTINUOUS
10
13.6461
20
-2.84252
11
13.7039
21
-2.84252
0
LINE
8
BLACK
6
CONTINUOUS
10
13.675
20
-5.06358
11
13.675
21
-5.12146
0
LINE
8
BLACK
6
CONTINUOUS
10
13.6461
20
-5.09252
11
13.7039
21
-5.09252
0
LINE
8
BLACK
6
CONTINUOUS
10
13.8719
20
-0.543898
11
13.8719
21
-0.601772
0
LINE
8
BLACK
6
CONTINUOUS
10
13.8429
20
-0.572835
11
13.9008
21
-0.572835
0
LINE
8
BLACK
6
CONTINUOUS
10
13.8719
20
-2.0439
11
13.8719
21
-2.10177
0
LINE
8
BLACK
6
CONTINUOUS
10
13.8429
20
-2.07283
11
13.9008
21
-2.07283
0
LINE
8
BLACK
6
CONTINUOUS
10
13.8719
20
-2.7939
11
13.8719
21
-2.85177
0
LINE
8
BLACK
6
CONTINUOUS
10
13.8429
20
-2.82283
11
13.9008
21
-2.82283
0
LINE
8
BLACK
6
CONTINUOUS
10
13.8719
20
-5.0439
11
13.8719
21
-5.10177
0
LINE
8
BLACK
6
CONTINUOUS
10
13.8429
20
-5.07283
11
13.9008
21
-5.07283
0
LINE
8
BLACK
6
CONTINUOUS
10
14.6984
20
-2.39823
11
14.6984
21
-2.4561
0
LINE
8
BLACK
6
CONTINUOUS
10
14.6695
20
-2.42717
11
14.7274
21
-2.42717
0
LINE
8
BLACK
6
CONTINUOUS
10
14.6984
20
-2.81358
11
14.6984
21
-2.87146
0
LINE
8
BLACK
6
CONTINUOUS
10
14.6695
20
-2.84252
11
14.7274
21
-2.84252
0
LINE
8
BLACK
6
CONTINUOUS
10
14.6984
20
-3.56358
11
14.6984
21
-3.62146
0
LINE
8
BLACK
6
CONTINUOUS
10
14.6695
20
-3.59252
11
14.7274
21
-3.59252
0
LINE
8
BLACK
6
CONTINUOUS
10
14.6984
20
-4.31358
11
14.6984
21
-4.37146
0
LINE
8
BLACK
6
CONTINUOUS
10
14.6695
20
-4.34252
11
14.7274
21
-4.34252
0
LINE
8
BLACK
6
CONTINUOUS
10
14.8953
20
-2.37854
11
14.8953
21
-2.43642
0
LINE
8
BLACK
6
CONTINUOUS
10
14.8664
20
-2.40748
11
14.9242
21
-2.40748
0
LINE
8
BLACK
6
CONTINUOUS
10
14.8953
20
-2.7939
11
14.8953
21
-2.85177
0
LINE
8
BLACK
6
CONTINUOUS
10
14.8664
20
-2.82283
11
14.9242
21
-2.82283
0
LINE
8
BLACK
6
CONTINUOUS
10
14.8953
20
-3.5439
11
14.8953
21
-3.60177
0
LINE
8
BLACK
6
CONTINUOUS
10
14.8664
20
-3.57283
11
14.9242
21
-3.57283
0
LINE
8
BLACK
6
CONTINUOUS
10
14.8953
20
-4.2939
11
14.8953
21
-4.35177
0
LINE
8
BLACK
6
CONTINUOUS
10
14.8664
20
-4.32283
11
14.9242
21
-4.32283
0
LINE
8
BLACK
6
CONTINUOUS
10
15.0734
20
-5.06358
11
15.0734
21
-5.12146
0
LINE
8
BLACK
6
CONTINUOUS
10
15.0445
20
-5.09252
11
15.1024
21
-5.09252
0
LINE
8
BLACK
6
CONTINUOUS
10
15.2703
20
-5.0439
11
15.2703
21
-5.10177
0
LINE
8
BLACK
6
CONTINUOUS
10
15.2414
20
-5.07283
11
15.2992
21
-5.07283
0
LINE
8
BLACK
6
CONTINUOUS
10
15.4484
20
-2.39823
11
15.4484
21
-2.4561
0
LINE
8
BLACK
6
CONTINUOUS
10
15.4195
20
-2.42717
11
15.4774
21
-2.42717
0
LINE
8
BLACK
6
CONTINUOUS
10
15.4484
20
-2.81358
11
15.4484
21
-2.87146
0
LINE
8
BLACK
6
CONTINUOUS
10
15.4195
20
-2.84252
11
15.4774
21
-2.84252
0
LINE
8
BLACK
6
CONTINUOUS
10
15.4484
20
-3.56358
11
15.4484
21
-3.62146
0
LINE
8
BLACK
6
CONTINUOUS
10
15.4195
20
-3.59252
11
15.4774
21
-3.59252
0
LINE
8
BLACK
6
CONTINUOUS
10
15.4484
20
-4.31358
11
15.4484
21
-4.37146
0
LINE
8
BLACK
6
CONTINUOUS
10
15.4195
20
-4.34252
11
15.4774
21
-4.34252
0
LINE
8
BLACK
6
CONTINUOUS
10
15.6453
20
-2.37854
11
15.6453
21
-2.43642
0
LINE
8
BLACK
6
CONTINUOUS
10
15.6164
20
-2.40748
11
15.6742
21
-2.40748
0
LINE
8
BLACK
6
CONTINUOUS
10
15.6453
20
-2.7939
11
15.6453
21
-2.85177
0
LINE
8
BLACK
6
CONTINUOUS
10
15.6164
20
-2.82283
11
15.6742
21
-2.82283
0
LINE
8
BLACK
6
CONTINUOUS
10
15.6453
20
-3.5439
11
15.6453
21
-3.60177
0
LINE
8
BLACK
6
CONTINUOUS
10
15.6164
20
-3.57283
11
15.6742
21
-3.57283
0
LINE
8
BLACK
6
CONTINUOUS
10
15.6453
20
-4.2939
11
15.6453
21
-4.35177
0
LINE
8
BLACK
6
CONTINUOUS
10
15.6164
20
-4.32283
11
15.6742
21
-4.32283
0
LINE
8
BLACK
6
CONTINUOUS
10
16.1984
20
-2.06358
11
16.1984
21
-2.12146
0
LINE
8
BLACK
6
CONTINUOUS
10
16.1695
20
-2.09252
11
16.2274
21
-2.09252
0
LINE
8
BLACK
6
CONTINUOUS
10
16.1984
20
-2.81358
11
16.1984
21
-2.87146
0
LINE
8
BLACK
6
CONTINUOUS
10
16.1695
20
-2.84252
11
16.2274
21
-2.84252
0
LINE
8
BLACK
6
CONTINUOUS
10
16.1984
20
-3.56358
11
16.1984
21
-3.62146
0
LINE
8
BLACK
6
CONTINUOUS
10
16.1695
20
-3.59252
11
16.2274
21
-3.59252
0
LINE
8
BLACK
6
CONTINUOUS
10
16.1984
20
-4.31358
11
16.1984
21
-4.37146
0
LINE
8
BLACK
6
CONTINUOUS
10
16.1695
20
-4.34252
11
16.2274
21
-4.34252
0
LINE
8
BLACK
6
CONTINUOUS
10
16.1984
20
-5.06358
11
16.1984
21
-5.12146
0
LINE
8
BLACK
6
CONTINUOUS
10
16.1695
20
-5.09252
11
16.2274
21
-5.09252
0
LINE
8
BLACK
6
CONTINUOUS
10
16.3953
20
-2.0439
11
16.3953
21
-2.10177
0
LINE
8
BLACK
6
CONTINUOUS
10
16.3664
20
-2.07283
11
16.4242
21
-2.07283
0
LINE
8
BLACK
6
CONTINUOUS
10
16.3953
20
-2.7939
11
16.3953
21
-2.85177
0
LINE
8
BLACK
6
CONTINUOUS
10
16.3664
20
-2.82283
11
16.4242
21
-2.82283
0
LINE
8
BLACK
6
CONTINUOUS
10
16.3953
20
-3.5439
11
16.3953
21
-3.60177
0
LINE
8
BLACK
6
CONTINUOUS
10
16.3664
20
-3.57283
11
16.4242
21
-3.57283
0
LINE
8
BLACK
6
CONTINUOUS
10
16.3953
20
-4.2939
11
16.3953
21
-4.35177
0
LINE
8
BLACK
6
CONTINUOUS
10
16.3664
20
-4.32283
11
16.4242
21
-4.32283
0
LINE
8
BLACK
6
CONTINUOUS
10
16.3953
20
-5.0439
11
16.3953
21
-5.10177
0
LINE
8
BLACK
6
CONTINUOUS
10
16.3664
20
-5.07283
11
16.4242
21
-5.07283
0
LINE
8
BLACK
6
CONTINUOUS
10
16.8697
20
-4.74764
11
16.8697
21
-4.80551
0
LINE
8
BLACK
6
CONTINUOUS
10
16.8408
20
-4.77657
11
16.8986
21
-4.77657
0
LINE
8
BLACK
6
CONTINUOUS
10
16.8894
20
-4.94449
11
16.8894
21
-5.00236
0
LINE
8
BLACK
6
CONTINUOUS
10
16.8605
20
-4.97343
11
16.9183
21
-4.97343
0
LINE
8
BLACK
6
CONTINUOUS
10
16.9484
20
-2.06358
11
16.9484
21
-2.12146
0
LINE
8
BLACK
6
CONTINUOUS
10
16.9195
20
-2.09252
11
16.9774
21
-2.09252
0
LINE
8
BLACK
6
CONTINUOUS
10
16.9484
20
-2.81358
11
16.9484
21
-2.87146
0
LINE
8
BLACK
6
CONTINUOUS
10
16.9195
20
-2.84252
11
16.9774
21
-2.84252
0
LINE
8
BLACK
6
CONTINUOUS
10
16.9484
20
-3.89823
11
16.9484
21
-3.9561
0
LINE
8
BLACK
6
CONTINUOUS
10
16.9195
20
-3.92717
11
16.9774
21
-3.92717
0
LINE
8
BLACK
6
CONTINUOUS
10
17.1453
20
-2.0439
11
17.1453
21
-2.10177
0
LINE
8
BLACK
6
CONTINUOUS
10
17.1164
20
-2.07283
11
17.1742
21
-2.07283
0
LINE
8
BLACK
6
CONTINUOUS
10
17.1453
20
-2.7939
11
17.1453
21
-2.85177
0
LINE
8
BLACK
6
CONTINUOUS
10
17.1164
20
-2.82283
11
17.1742
21
-2.82283
0
LINE
8
BLACK
6
CONTINUOUS
10
17.1453
20
-3.87854
11
17.1453
21
-3.93642
0
LINE
8
BLACK
6
CONTINUOUS
10
17.1164
20
-3.90748
11
17.1742
21
-3.90748
0
LINE
8
BLACK
6
CONTINUOUS
10
17.2044
20
-3.24764
11
17.2044
21
-3.30551
0
LINE
8
BLACK
6
CONTINUOUS
10
17.1754
20
-3.27657
11
17.2333
21
-3.27657
0
LINE
8
BLACK
6
CONTINUOUS
10
17.224
20
-3.44449
11
17.224
21
-3.50236
0
LINE
8
BLACK
6
CONTINUOUS
10
17.1951
20
-3.47343
11
17.253
21
-3.47343
0
LINE
8
BLACK
6
CONTINUOUS
10
2.30127
20
-1.55127
11
2.30127
21
-1.44873
0
LINE
8
BLACK
6
CONTINUOUS
10
2.30127
20
-1.44873
11
2.19873
21
-1.44873
0
LINE
8
BLACK
6
CONTINUOUS
10
2.19873
20
-1.44873
11
2.19873
21
-1.55127
0
LINE
8
BLACK
6
CONTINUOUS
10
2.19873
20
-1.55127
11
2.30127
21
-1.55127
0
LINE
8
BLACK
6
CONTINUOUS
10
7.17627
20
-1.55127
11
7.17627
21
-1.44873
0
LINE
8
BLACK
6
CONTINUOUS
10
7.17627
20
-1.44873
11
7.07373
21
-1.44873
0
LINE
8
BLACK
6
CONTINUOUS
10
7.07373
20
-1.44873
11
7.07373
21
-1.55127
0
LINE
8
BLACK
6
CONTINUOUS
10
7.07373
20
-1.55127
11
7.17627
21
-1.55127
0
LINE
8
BLACK
6
CONTINUOUS
10
13.0747
20
-3.80127
11
13.0747
21
-3.69873
0
LINE
8
BLACK
6
CONTINUOUS
10
13.0747
20
-3.69873
11
12.9722
21
-3.69873
0
LINE
8
BLACK
6
CONTINUOUS
10
12.9722
20
-3.69873
11
12.9722
21
-3.80127
0
LINE
8
BLACK
6
CONTINUOUS
10
12.9722
20
-3.80127
11
13.0747
21
-3.80127
0
LINE
8
BLACK
6
CONTINUOUS
10
13.8247
20
-1.55127
11
13.8247
21
-1.44873
0
LINE
8
BLACK
6
CONTINUOUS
10
13.8247
20
-1.44873
11
13.7222
21
-1.44873
0
LINE
8
BLACK
6
CONTINUOUS
10
13.7222
20
-1.44873
11
13.7222
21
-1.55127
0
LINE
8
BLACK
6
CONTINUOUS
10
13.7222
20
-1.55127
11
13.8247
21
-1.55127
0
LINE
8
BLACK
6
CONTINUOUS
10
13.9575
20
-4.17627
11
13.9575
21
-4.07373
0
LINE
8
BLACK
6
CONTINUOUS
10
13.9575
20
-4.07373
11
13.855
21
-4.07373
0
LINE
8
BLACK
6
CONTINUOUS
10
13.855
20
-4.07373
11
13.855
21
-4.17627
0
LINE
8
BLACK
6
CONTINUOUS
10
13.855
20
-4.17627
11
13.9575
21
-4.17627
0
LINE
8
BLACK
6
CONTINUOUS
10
0.500785
20
-5.63412
11
0.500785
21
-5.55538
0
LINE
8
BLACK
6
CONTINUOUS
10
0.500785
20
-5.55538
11
0.519533
21
-5.55538
0
LINE
8
BLACK
6
CONTINUOUS
10
0.519533
20
-5.55538
11
0.530781
21
-5.55913
0
LINE
8
BLACK
6
CONTINUOUS
10
0.530781
20
-5.55913
11
0.53828
21
-5.56663
0
LINE
8
BLACK
6
CONTINUOUS
10
0.53828
20
-5.56663
11
0.54203
21
-5.57413
0
LINE
8
BLACK
6
CONTINUOUS
10
0.54203
20
-5.57413
11
0.545779
21
-5.58913
0
LINE
8
BLACK
6
CONTINUOUS
10
0.545779
20
-5.58913
11
0.545779
21
-5.60037
0
LINE
8
BLACK
6
CONTINUOUS
10
0.545779
20
-5.60037
11
0.54203
21
-5.61537
0
LINE
8
BLACK
6
CONTINUOUS
10
0.54203
20
-5.61537
11
0.53828
21
-5.62287
0
LINE
8
BLACK
6
CONTINUOUS
10
0.53828
20
-5.62287
11
0.530781
21
-5.63037
0
LINE
8
BLACK
6
CONTINUOUS
10
0.530781
20
-5.63037
11
0.519533
21
-5.63412
0
LINE
8
BLACK
6
CONTINUOUS
10
0.519533
20
-5.63412
11
0.500785
21
-5.63412
0
LINE
8
BLACK
6
CONTINUOUS
10
0.579525
20
-5.63412
11
0.579525
21
-5.58163
0
LINE
8
BLACK
6
CONTINUOUS
10
0.579525
20
-5.59662
11
0.583275
21
-5.58913
0
LINE
8
BLACK
6
CONTINUOUS
10
0.583275
20
-5.58913
11
0.587024
21
-5.58538
0
LINE
8
BLACK
6
CONTINUOUS
10
0.587024
20
-5.58538
11
0.594523
21
-5.58163
0
LINE
8
BLACK
6
CONTINUOUS
10
0.594523
20
-5.58163
11
0.602022
21
-5.58163
0
LINE
8
BLACK
6
CONTINUOUS
10
0.628269
20
-5.63412
11
0.628269
21
-5.58163
0
LINE
8
BLACK
6
CONTINUOUS
10
0.628269
20
-5.55538
11
0.62452
21
-5.55913
0
LINE
8
BLACK
6
CONTINUOUS
10
0.62452
20
-5.55913
11
0.628269
21
-5.56288
0
LINE
8
BLACK
6
CONTINUOUS
10
0.628269
20
-5.56288
11
0.632019
21
-5.55913
0
LINE
8
BLACK
6
CONTINUOUS
10
0.632019
20
-5.55913
11
0.628269
21
-5.55538
0
LINE
8
BLACK
6
CONTINUOUS
10
0.628269
20
-5.55538
11
0.628269
21
-5.56288
0
LINE
8
BLACK
6
CONTINUOUS
10
0.677013
20
-5.63412
11
0.669514
21
-5.63037
0
LINE
8
BLACK
6
CONTINUOUS
10
0.669514
20
-5.63037
11
0.665764
21
-5.62287
0
LINE
8
BLACK
6
CONTINUOUS
10
0.665764
20
-5.62287
11
0.665764
21
-5.55538
0
LINE
8
BLACK
6
CONTINUOUS
10
0.718258
20
-5.63412
11
0.710759
21
-5.63037
0
LINE
8
BLACK
6
CONTINUOUS
10
0.710759
20
-5.63037
11
0.707009
21
-5.62287
0
LINE
8
BLACK
6
CONTINUOUS
10
0.707009
20
-5.62287
11
0.707009
21
-5.55538
0
LINE
8
BLACK
6
CONTINUOUS
10
0.795498
20
-5.63412
11
0.795498
21
-5.55538
0
LINE
8
BLACK
6
CONTINUOUS
10
0.795498
20
-5.55538
11
0.821745
21
-5.61162
0
LINE
8
BLACK
6
CONTINUOUS
10
0.821745
20
-5.61162
11
0.847992
21
-5.55538
0
LINE
8
BLACK
6
CONTINUOUS
10
0.847992
20
-5.55538
11
0.847992
21
-5.63412
0
LINE
8
BLACK
6
CONTINUOUS
10
0.919233
20
-5.63412
11
0.919233
21
-5.59287
0
LINE
8
BLACK
6
CONTINUOUS
10
0.919233
20
-5.59287
11
0.915483
21
-5.58538
0
LINE
8
BLACK
6
CONTINUOUS
10
0.915483
20
-5.58538
11
0.907984
21
-5.58163
0
LINE
8
BLACK
6
CONTINUOUS
10
0.907984
20
-5.58163
11
0.892986
21
-5.58163
0
LINE
8
BLACK
6
CONTINUOUS
10
0.892986
20
-5.58163
11
0.885487
21
-5.58538
0
LINE
8
BLACK
6
CONTINUOUS
10
0.919233
20
-5.63037
11
0.911734
21
-5.63412
0
LINE
8
BLACK
6
CONTINUOUS
10
0.911734
20
-5.63412
11
0.892986
21
-5.63412
0
LINE
8
BLACK
6
CONTINUOUS
10
0.892986
20
-5.63412
11
0.885487
21
-5.63037
0
LINE
8
BLACK
6
CONTINUOUS
10
0.885487
20
-5.63037
11
0.881737
21
-5.62287
0
LINE
8
BLACK
6
CONTINUOUS
10
0.881737
20
-5.62287
11
0.881737
21
-5.61537
0
LINE
8
BLACK
6
CONTINUOUS
10
0.881737
20
-5.61537
11
0.885487
21
-5.60787
0
LINE
8
BLACK
6
CONTINUOUS
10
0.885487
20
-5.60787
11
0.892986
21
-5.60412
0
LINE
8
BLACK
6
CONTINUOUS
10
0.892986
20
-5.60412
11
0.911734
21
-5.60412
0
LINE
8
BLACK
6
CONTINUOUS
10
0.911734
20
-5.60412
11
0.919233
21
-5.60037
0
LINE
8
BLACK
6
CONTINUOUS
10
0.956728
20
-5.58163
11
0.956728
21
-5.66037
0
LINE
8
BLACK
6
CONTINUOUS
10
0.956728
20
-5.58538
11
0.964227
21
-5.58163
0
LINE
8
BLACK
6
CONTINUOUS
10
0.964227
20
-5.58163
11
0.979225
21
-5.58163
0
LINE
8
BLACK
6
CONTINUOUS
10
0.979225
20
-5.58163
11
0.986724
21
-5.58538
0
LINE
8
BLACK
6
CONTINUOUS
10
0.986724
20
-5.58538
11
0.990474
21
-5.58913
0
LINE
8
BLACK
6
CONTINUOUS
10
0.990474
20
-5.58913
11
0.994223
21
-5.59662
0
LINE
8
BLACK
6
CONTINUOUS
10
0.994223
20
-5.59662
11
0.994223
21
-5.61912
0
LINE
8
BLACK
6
CONTINUOUS
10
0.994223
20
-5.61912
11
0.990474
21
-5.62662
0
LINE
8
BLACK
6
CONTINUOUS
10
0.990474
20
-5.62662
11
0.986724
21
-5.63037
0
LINE
8
BLACK
6
CONTINUOUS
10
0.986724
20
-5.63037
11
0.979225
21
-5.63412
0
LINE
8
BLACK
6
CONTINUOUS
10
0.979225
20
-5.63412
11
0.964227
21
-5.63412
0
LINE
8
BLACK
6
CONTINUOUS
10
0.964227
20
-5.63412
11
0.956728
21
-5.63037
0
LINE
8
BLACK
6
CONTINUOUS
10
1.02797
20
-5.62662
11
1.03172
21
-5.63037
0
LINE
8
BLACK
6
CONTINUOUS
10
1.03172
20
-5.63037
11
1.02797
21
-5.63412
0
LINE
8
BLACK
6
CONTINUOUS
10
1.02797
20
-5.63412
11
1.02422
21
-5.63037
0
LINE
8
BLACK
6
CONTINUOUS
10
1.02422
20
-5.63037
11
1.02797
21
-5.62662
0
LINE
8
BLACK
6
CONTINUOUS
10
1.02797
20
-5.62662
11
1.02797
21
-5.63412
0
LINE
8
BLACK
6
CONTINUOUS
10
1.02797
20
-5.58538
11
1.03172
21
-5.58913
0
LINE
8
BLACK
6
CONTINUOUS
10
1.03172
20
-5.58913
11
1.02797
21
-5.59287
0
LINE
8
BLACK
6
CONTINUOUS
10
1.02797
20
-5.59287
11
1.02422
21
-5.58913
0
LINE
8
BLACK
6
CONTINUOUS
10
1.02422
20
-5.58913
11
1.02797
21
-5.58538
0
LINE
8
BLACK
6
CONTINUOUS
10
1.02797
20
-5.58538
11
1.02797
21
-5.59287
0
LINE
8
BLACK
6
CONTINUOUS
10
0.387549
20
-5.76267
11
0.403297
21
-5.77842
0
LINE
8
BLACK
6
CONTINUOUS
10
0.403297
20
-5.76267
11
0.387549
21
-5.77842
0
LINE
8
BLACK
6
CONTINUOUS
10
0.515783
20
-5.72073
11
0.523282
21
-5.72073
0
LINE
8
BLACK
6
CONTINUOUS
10
0.523282
20
-5.72073
11
0.530781
21
-5.72448
0
LINE
8
BLACK
6
CONTINUOUS
10
0.530781
20
-5.72448
11
0.534531
21
-5.72823
0
LINE
8
BLACK
6
CONTINUOUS
10
0.534531
20
-5.72823
11
0.53828
21
-5.73573
0
LINE
8
BLACK
6
CONTINUOUS
10
0.53828
20
-5.73573
11
0.54203
21
-5.75073
0
LINE
8
BLACK
6
CONTINUOUS
10
0.54203
20
-5.75073
11
0.54203
21
-5.76948
0
LINE
8
BLACK
6
CONTINUOUS
10
0.54203
20
-5.76948
11
0.53828
21
-5.78448
0
LINE
8
BLACK
6
CONTINUOUS
10
0.53828
20
-5.78448
11
0.534531
21
-5.79197
0
LINE
8
BLACK
6
CONTINUOUS
10
0.534531
20
-5.79197
11
0.530781
21
-5.79572
0
LINE
8
BLACK
6
CONTINUOUS
10
0.530781
20
-5.79572
11
0.523282
21
-5.79947
0
LINE
8
BLACK
6
CONTINUOUS
10
0.523282
20
-5.79947
11
0.515783
21
-5.79947
0
LINE
8
BLACK
6
CONTINUOUS
10
0.515783
20
-5.79947
11
0.508284
21
-5.79572
0
LINE
8
BLACK
6
CONTINUOUS
10
0.508284
20
-5.79572
11
0.504535
21
-5.79197
0
LINE
8
BLACK
6
CONTINUOUS
10
0.504535
20
-5.79197
11
0.500785
21
-5.78448
0
LINE
8
BLACK
6
CONTINUOUS
10
0.500785
20
-5.78448
11
0.497036
21
-5.76948
0
LINE
8
BLACK
6
CONTINUOUS
10
0.497036
20
-5.76948
11
0.497036
21
-5.75073
0
LINE
8
BLACK
6
CONTINUOUS
10
0.497036
20
-5.75073
11
0.500785
21
-5.73573
0
LINE
8
BLACK
6
CONTINUOUS
10
0.500785
20
-5.73573
11
0.504535
21
-5.72823
0
LINE
8
BLACK
6
CONTINUOUS
10
0.504535
20
-5.72823
11
0.508284
21
-5.72448
0
LINE
8
BLACK
6
CONTINUOUS
10
0.508284
20
-5.72448
11
0.515783
21
-5.72073
0
LINE
8
BLACK
6
CONTINUOUS
10
0.575776
20
-5.79197
11
0.579525
21
-5.79572
0
LINE
8
BLACK
6
CONTINUOUS
10
0.579525
20
-5.79572
11
0.575776
21
-5.79947
0
LINE
8
BLACK
6
CONTINUOUS
10
0.575776
20
-5.79947
11
0.572026
21
-5.79572
0
LINE
8
BLACK
6
CONTINUOUS
10
0.572026
20
-5.79572
11
0.575776
21
-5.79197
0
LINE
8
BLACK
6
CONTINUOUS
10
0.575776
20
-5.79197
11
0.575776
21
-5.79947
0
LINE
8
BLACK
6
CONTINUOUS
10
0.647017
20
-5.74698
11
0.647017
21
-5.79947
0
LINE
8
BLACK
6
CONTINUOUS
10
0.628269
20
-5.71698
11
0.609521
21
-5.77323
0
LINE
8
BLACK
6
CONTINUOUS
10
0.609521
20
-5.77323
11
0.658265
21
-5.77323
0
LINE
8
BLACK
6
CONTINUOUS
10
0.70326
20
-5.72073
11
0.710759
21
-5.72073
0
LINE
8
BLACK
6
CONTINUOUS
10
0.710759
20
-5.72073
11
0.718258
21
-5.72448
0
LINE
8
BLACK
6
CONTINUOUS
10
0.718258
20
-5.72448
11
0.722007
21
-5.72823
0
LINE
8
BLACK
6
CONTINUOUS
10
0.722007
20
-5.72823
11
0.725757
21
-5.73573
0
LINE
8
BLACK
6
CONTINUOUS
10
0.725757
20
-5.73573
11
0.729506
21
-5.75073
0
LINE
8
BLACK
6
CONTINUOUS
10
0.729506
20
-5.75073
11
0.729506
21
-5.76948
0
LINE
8
BLACK
6
CONTINUOUS
10
0.729506
20
-5.76948
11
0.725757
21
-5.78448
0
LINE
8
BLACK
6
CONTINUOUS
10
0.725757
20
-5.78448
11
0.722007
21
-5.79197
0
LINE
8
BLACK
6
CONTINUOUS
10
0.722007
20
-5.79197
11
0.718258
21
-5.79572
0
LINE
8
BLACK
6
CONTINUOUS
10
0.718258
20
-5.79572
11
0.710759
21
-5.79947
0
LINE
8
BLACK
6
CONTINUOUS
10
0.710759
20
-5.79947
11
0.70326
21
-5.79947
0
LINE
8
BLACK
6
CONTINUOUS
10
0.70326
20
-5.79947
11
0.695761
21
-5.79572
0
LINE
8
BLACK
6
CONTINUOUS
10
0.695761
20
-5.79572
11
0.692011
21
-5.79197
0
LINE
8
BLACK
6
CONTINUOUS
10
0.692011
20
-5.79197
11
0.688262
21
-5.78448
0
LINE
8
BLACK
6
CONTINUOUS
10
0.688262
20
-5.78448
11
0.684512
21
-5.76948
0
LINE
8
BLACK
6
CONTINUOUS
10
0.684512
20
-5.76948
11
0.684512
21
-5.75073
0
LINE
8
BLACK
6
CONTINUOUS
10
0.684512
20
-5.75073
11
0.688262
21
-5.73573
0
LINE
8
BLACK
6
CONTINUOUS
10
0.688262
20
-5.73573
11
0.692011
21
-5.72823
0
LINE
8
BLACK
6
CONTINUOUS
10
0.692011
20
-5.72823
11
0.695761
21
-5.72448
0
LINE
8
BLACK
6
CONTINUOUS
10
0.695761
20
-5.72448
11
0.70326
21
-5.72073
0
LINE
8
BLACK
6
CONTINUOUS
10
0.77825
20
-5.72073
11
0.785749
21
-5.72073
0
LINE
8
BLACK
6
CONTINUOUS
10
0.785749
20
-5.72073
11
0.793249
21
-5.72448
0
LINE
8
BLACK
6
CONTINUOUS
10
0.793249
20
-5.72448
11
0.796998
21
-5.72823
0
LINE
8
BLACK
6
CONTINUOUS
10
0.796998
20
-5.72823
11
0.800748
21
-5.73573
0
LINE
8
BLACK
6
CONTINUOUS
10
0.800748
20
-5.73573
11
0.804497
21
-5.75073
0
LINE
8
BLACK
6
CONTINUOUS
10
0.804497
20
-5.75073
11
0.804497
21
-5.76948
0
LINE
8
BLACK
6
CONTINUOUS
10
0.804497
20
-5.76948
11
0.800748
21
-5.78448
0
LINE
8
BLACK
6
CONTINUOUS
10
0.800748
20
-5.78448
11
0.796998
21
-5.79197
0
LINE
8
BLACK
6
CONTINUOUS
10
0.796998
20
-5.79197
11
0.793249
21
-5.79572
0
LINE
8
BLACK
6
CONTINUOUS
10
0.793249
20
-5.79572
11
0.785749
21
-5.79947
0
LINE
8
BLACK
6
CONTINUOUS
10
0.785749
20
-5.79947
11
0.77825
21
-5.79947
0
LINE
8
BLACK
6
CONTINUOUS
10
0.77825
20
-5.79947
11
0.770751
21
-5.79572
0
LINE
8
BLACK
6
CONTINUOUS
10
0.770751
20
-5.79572
11
0.767002
21
-5.79197
0
LINE
8
BLACK
6
CONTINUOUS
10
0.767002
20
-5.79197
11
0.763252
21
-5.78448
0
LINE
8
BLACK
6
CONTINUOUS
10
0.763252
20
-5.78448
11
0.759503
21
-5.76948
0
LINE
8
BLACK
6
CONTINUOUS
10
0.759503
20
-5.76948
11
0.759503
21
-5.75073
0
LINE
8
BLACK
6
CONTINUOUS
10
0.759503
20
-5.75073
11
0.763252
21
-5.73573
0
LINE
8
BLACK
6
CONTINUOUS
10
0.763252
20
-5.73573
11
0.767002
21
-5.72823
0
LINE
8
BLACK
6
CONTINUOUS
10
0.767002
20
-5.72823
11
0.770751
21
-5.72448
0
LINE
8
BLACK
6
CONTINUOUS
10
0.770751
20
-5.72448
11
0.77825
21
-5.72073
0
LINE
8
BLACK
6
CONTINUOUS
10
0.838243
20
-5.79947
11
0.838243
21
-5.74698
0
LINE
8
BLACK
6
CONTINUOUS
10
0.838243
20
-5.75448
11
0.841992
21
-5.75073
0
LINE
8
BLACK
6
CONTINUOUS
10
0.841992
20
-5.75073
11
0.849491
21
-5.74698
0
LINE
8
BLACK
6
CONTINUOUS
10
0.849491
20
-5.74698
11
0.86074
21
-5.74698
0
LINE
8
BLACK
6
CONTINUOUS
10
0.86074
20
-5.74698
11
0.868239
21
-5.75073
0
LINE
8
BLACK
6
CONTINUOUS
10
0.868239
20
-5.75073
11
0.871989
21
-5.75823
0
LINE
8
BLACK
6
CONTINUOUS
10
0.871989
20
-5.75823
11
0.871989
21
-5.79947
0
LINE
8
BLACK
6
CONTINUOUS
10
0.871989
20
-5.75823
11
0.875738
21
-5.75073
0
LINE
8
BLACK
6
CONTINUOUS
10
0.875738
20
-5.75073
11
0.883237
21
-5.74698
0
LINE
8
BLACK
6
CONTINUOUS
10
0.883237
20
-5.74698
11
0.894486
21
-5.74698
0
LINE
8
BLACK
6
CONTINUOUS
10
0.894486
20
-5.74698
11
0.901985
21
-5.75073
0
LINE
8
BLACK
6
CONTINUOUS
10
0.901985
20
-5.75073
11
0.905734
21
-5.75823
0
LINE
8
BLACK
6
CONTINUOUS
10
0.905734
20
-5.75823
11
0.905734
21
-5.79947
0
LINE
8
BLACK
6
CONTINUOUS
10
0.94323
20
-5.79947
11
0.94323
21
-5.74698
0
LINE
8
BLACK
6
CONTINUOUS
10
0.94323
20
-5.75448
11
0.946979
21
-5.75073
0
LINE
8
BLACK
6
CONTINUOUS
10
0.946979
20
-5.75073
11
0.954478
21
-5.74698
0
LINE
8
BLACK
6
CONTINUOUS
10
0.954478
20
-5.74698
11
0.965727
21
-5.74698
0
LINE
8
BLACK
6
CONTINUOUS
10
0.965727
20
-5.74698
11
0.973226
21
-5.75073
0
LINE
8
BLACK
6
CONTINUOUS
10
0.973226
20
-5.75073
11
0.976976
21
-5.75823
0
LINE
8
BLACK
6
CONTINUOUS
10
0.976976
20
-5.75823
11
0.976976
21
-5.79947
0
LINE
8
BLACK
6
CONTINUOUS
10
0.976976
20
-5.75823
11
0.980725
21
-5.75073
0
LINE
8
BLACK
6
CONTINUOUS
10
0.980725
20
-5.75073
11
0.988224
21
-5.74698
0
LINE
8
BLACK
6
CONTINUOUS
10
0.988224
20
-5.74698
11
0.999473
21
-5.74698
0
LINE
8
BLACK
6
CONTINUOUS
10
0.999473
20
-5.74698
11
1.00697
21
-5.75073
0
LINE
8
BLACK
6
CONTINUOUS
10
1.00697
20
-5.75073
11
1.01072
21
-5.75823
0
LINE
8
BLACK
6
CONTINUOUS
10
1.01072
20
-5.75823
11
1.01072
21
-5.79947
0
LINE
8
BLACK
6
CONTINUOUS
10
1.1517
20
-5.71698
11
1.08421
21
-5.81822
0
LINE
8
BLACK
6
CONTINUOUS
10
1.24019
20
-5.72073
11
1.24769
21
-5.72073
0
LINE
8
BLACK
6
CONTINUOUS
10
1.24769
20
-5.72073
11
1.25519
21
-5.72448
0
LINE
8
BLACK
6
CONTINUOUS
10
1.25519
20
-5.72448
11
1.25894
21
-5.72823
0
LINE
8
BLACK
6
CONTINUOUS
10
1.25894
20
-5.72823
11
1.26269
21
-5.73573
0
LINE
8
BLACK
6
CONTINUOUS
10
1.26269
20
-5.73573
11
1.26644
21
-5.75073
0
LINE
8
BLACK
6
CONTINUOUS
10
1.26644
20
-5.75073
11
1.26644
21
-5.76948
0
LINE
8
BLACK
6
CONTINUOUS
10
1.26644
20
-5.76948
11
1.26269
21
-5.78448
0
LINE
8
BLACK
6
CONTINUOUS
10
1.26269
20
-5.78448
11
1.25894
21
-5.79197
0
LINE
8
BLACK
6
CONTINUOUS
10
1.25894
20
-5.79197
11
1.25519
21
-5.79572
0
LINE
8
BLACK
6
CONTINUOUS
10
1.25519
20
-5.79572
11
1.24769
21
-5.79947
0
LINE
8
BLACK
6
CONTINUOUS
10
1.24769
20
-5.79947
11
1.24019
21
-5.79947
0
LINE
8
BLACK
6
CONTINUOUS
10
1.24019
20
-5.79947
11
1.23269
21
-5.79572
0
LINE
8
BLACK
6
CONTINUOUS
10
1.23269
20
-5.79572
11
1.22894
21
-5.79197
0
LINE
8
BLACK
6
CONTINUOUS
10
1.22894
20
-5.79197
11
1.22519
21
-5.78448
0
LINE
8
BLACK
6
CONTINUOUS
10
1.22519
20
-5.78448
11
1.22144
21
-5.76948
0
LINE
8
BLACK
6
CONTINUOUS
10
1.22144
20
-5.76948
11
1.22144
21
-5.75073
0
LINE
8
BLACK
6
CONTINUOUS
10
1.22144
20
-5.75073
11
1.22519
21
-5.73573
0
LINE
8
BLACK
6
CONTINUOUS
10
1.22519
20
-5.73573
11
1.22894
21
-5.72823
0
LINE
8
BLACK
6
CONTINUOUS
10
1.22894
20
-5.72823
11
1.23269
21
-5.72448
0
LINE
8
BLACK
6
CONTINUOUS
10
1.23269
20
-5.72448
11
1.24019
21
-5.72073
0
LINE
8
BLACK
6
CONTINUOUS
10
1.30019
20
-5.79197
11
1.30393
21
-5.79572
0
LINE
8
BLACK
6
CONTINUOUS
10
1.30393
20
-5.79572
11
1.30019
21
-5.79947
0
LINE
8
BLACK
6
CONTINUOUS
10
1.30019
20
-5.79947
11
1.29644
21
-5.79572
0
LINE
8
BLACK
6
CONTINUOUS
10
1.29644
20
-5.79572
11
1.30019
21
-5.79197
0
LINE
8
BLACK
6
CONTINUOUS
10
1.30019
20
-5.79197
11
1.30019
21
-5.79947
0
LINE
8
BLACK
6
CONTINUOUS
10
1.35268
20
-5.72073
11
1.36018
21
-5.72073
0
LINE
8
BLACK
6
CONTINUOUS
10
1.36018
20
-5.72073
11
1.36768
21
-5.72448
0
LINE
8
BLACK
6
CONTINUOUS
10
1.36768
20
-5.72448
11
1.37143
21
-5.72823
0
LINE
8
BLACK
6
CONTINUOUS
10
1.37143
20
-5.72823
11
1.37518
21
-5.73573
0
LINE
8
BLACK
6
CONTINUOUS
10
1.37518
20
-5.73573
11
1.37893
21
-5.75073
0
LINE
8
BLACK
6
CONTINUOUS
10
1.37893
20
-5.75073
11
1.37893
21
-5.76948
0
LINE
8
BLACK
6
CONTINUOUS
10
1.37893
20
-5.76948
11
1.37518
21
-5.78448
0
LINE
8
BLACK
6
CONTINUOUS
10
1.37518
20
-5.78448
11
1.37143
21
-5.79197
0
LINE
8
BLACK
6
CONTINUOUS
10
1.37143
20
-5.79197
11
1.36768
21
-5.79572
0
LINE
8
BLACK
6
CONTINUOUS
10
1.36768
20
-5.79572
11
1.36018
21
-5.79947
0
LINE
8
BLACK
6
CONTINUOUS
10
1.36018
20
-5.79947
11
1.35268
21
-5.79947
0
LINE
8
BLACK
6
CONTINUOUS
10
1.35268
20
-5.79947
11
1.34518
21
-5.79572
0
LINE
8
BLACK
6
CONTINUOUS
10
1.34518
20
-5.79572
11
1.34143
21
-5.79197
0
LINE
8
BLACK
6
CONTINUOUS
10
1.34143
20
-5.79197
11
1.33768
21
-5.78448
0
LINE
8
BLACK
6
CONTINUOUS
10
1.33768
20
-5.78448
11
1.33393
21
-5.76948
0
LINE
8
BLACK
6
CONTINUOUS
10
1.33393
20
-5.76948
11
1.33393
21
-5.75073
0
LINE
8
BLACK
6
CONTINUOUS
10
1.33393
20
-5.75073
11
1.33768
21
-5.73573
0
LINE
8
BLACK
6
CONTINUOUS
10
1.33768
20
-5.73573
11
1.34143
21
-5.72823
0
LINE
8
BLACK
6
CONTINUOUS
10
1.34143
20
-5.72823
11
1.34518
21
-5.72448
0
LINE
8
BLACK
6
CONTINUOUS
10
1.34518
20
-5.72448
11
1.35268
21
-5.72073
0
LINE
8
BLACK
6
CONTINUOUS
10
1.45392
20
-5.79947
11
1.40892
21
-5.79947
0
LINE
8
BLACK
6
CONTINUOUS
10
1.43142
20
-5.79947
11
1.43142
21
-5.72073
0
LINE
8
BLACK
6
CONTINUOUS
10
1.43142
20
-5.72073
11
1.42392
21
-5.73198
0
LINE
8
BLACK
6
CONTINUOUS
10
1.42392
20
-5.73198
11
1.41642
21
-5.73948
0
LINE
8
BLACK
6
CONTINUOUS
10
1.41642
20
-5.73948
11
1.40892
21
-5.74323
0
LINE
8
BLACK
6
CONTINUOUS
10
1.52516
20
-5.72073
11
1.48766
21
-5.72073
0
LINE
8
BLACK
6
CONTINUOUS
10
1.48766
20
-5.72073
11
1.48391
21
-5.75823
0
LINE
8
BLACK
6
CONTINUOUS
10
1.48391
20
-5.75823
11
1.48766
21
-5.75448
0
LINE
8
BLACK
6
CONTINUOUS
10
1.48766
20
-5.75448
11
1.49516
21
-5.75073
0
LINE
8
BLACK
6
CONTINUOUS
10
1.49516
20
-5.75073
11
1.51391
21
-5.75073
0
LINE
8
BLACK
6
CONTINUOUS
10
1.51391
20
-5.75073
11
1.52141
21
-5.75448
0
LINE
8
BLACK
6
CONTINUOUS
10
1.52141
20
-5.75448
11
1.52516
21
-5.75823
0
LINE
8
BLACK
6
CONTINUOUS
10
1.52516
20
-5.75823
11
1.52891
21
-5.76573
0
LINE
8
BLACK
6
CONTINUOUS
10
1.52891
20
-5.76573
11
1.52891
21
-5.78448
0
LINE
8
BLACK
6
CONTINUOUS
10
1.52891
20
-5.78448
11
1.52516
21
-5.79197
0
LINE
8
BLACK
6
CONTINUOUS
10
1.52516
20
-5.79197
11
1.52141
21
-5.79572
0
LINE
8
BLACK
6
CONTINUOUS
10
1.52141
20
-5.79572
11
1.51391
21
-5.79947
0
LINE
8
BLACK
6
CONTINUOUS
10
1.51391
20
-5.79947
11
1.49516
21
-5.79947
0
LINE
8
BLACK
6
CONTINUOUS
10
1.49516
20
-5.79947
11
1.48766
21
-5.79572
0
LINE
8
BLACK
6
CONTINUOUS
10
1.48766
20
-5.79572
11
1.48391
21
-5.79197
0
LINE
8
BLACK
6
CONTINUOUS
10
1.55515
20
-5.72073
11
1.60765
21
-5.72073
0
LINE
8
BLACK
6
CONTINUOUS
10
1.60765
20
-5.72073
11
1.5739
21
-5.79947
0
LINE
8
BLACK
6
CONTINUOUS
10
1.63389
20
-5.72073
11
1.63389
21
-5.73573
0
LINE
8
BLACK
6
CONTINUOUS
10
1.66389
20
-5.72073
11
1.66389
21
-5.73573
0
LINE
8
BLACK
6
CONTINUOUS
10
1.76738
20
-5.82947
11
1.76363
21
-5.82572
0
LINE
8
BLACK
6
CONTINUOUS
10
1.76363
20
-5.82572
11
1.75613
21
-5.81447
0
LINE
8
BLACK
6
CONTINUOUS
10
1.75613
20
-5.81447
11
1.75238
21
-5.80697
0
LINE
8
BLACK
6
CONTINUOUS
10
1.75238
20
-5.80697
11
1.74863
21
-5.79572
0
LINE
8
BLACK
6
CONTINUOUS
10
1.74863
20
-5.79572
11
1.74488
21
-5.77698
0
LINE
8
BLACK
6
CONTINUOUS
10
1.74488
20
-5.77698
11
1.74488
21
-5.76198
0
LINE
8
BLACK
6
CONTINUOUS
10
1.74488
20
-5.76198
11
1.74863
21
-5.74323
0
LINE
8
BLACK
6
CONTINUOUS
10
1.74863
20
-5.74323
11
1.75238
21
-5.73198
0
LINE
8
BLACK
6
CONTINUOUS
10
1.75238
20
-5.73198
11
1.75613
21
-5.72448
0
LINE
8
BLACK
6
CONTINUOUS
10
1.75613
20
-5.72448
11
1.76363
21
-5.71323
0
LINE
8
BLACK
6
CONTINUOUS
10
1.76363
20
-5.71323
11
1.76738
21
-5.70949
0
LINE
8
BLACK
6
CONTINUOUS
10
1.79362
20
-5.72823
11
1.79737
21
-5.72448
0
LINE
8
BLACK
6
CONTINUOUS
10
1.79737
20
-5.72448
11
1.80487
21
-5.72073
0
LINE
8
BLACK
6
CONTINUOUS
10
1.80487
20
-5.72073
11
1.82362
21
-5.72073
0
LINE
8
BLACK
6
CONTINUOUS
10
1.82362
20
-5.72073
11
1.83112
21
-5.72448
0
LINE
8
BLACK
6
CONTINUOUS
10
1.83112
20
-5.72448
11
1.83487
21
-5.72823
0
LINE
8
BLACK
6
CONTINUOUS
10
1.83487
20
-5.72823
11
1.83862
21
-5.73573
0
LINE
8
BLACK
6
CONTINUOUS
10
1.83862
20
-5.73573
11
1.83862
21
-5.74323
0
LINE
8
BLACK
6
CONTINUOUS
10
1.83862
20
-5.74323
11
1.83487
21
-5.75448
0
LINE
8
BLACK
6
CONTINUOUS
10
1.83487
20
-5.75448
11
1.78987
21
-5.79947
0
LINE
8
BLACK
6
CONTINUOUS
10
1.78987
20
-5.79947
11
1.83862
21
-5.79947
0
LINE
8
BLACK
6
CONTINUOUS
10
1.88736
20
-5.72073
11
1.89486
21
-5.72073
0
LINE
8
BLACK
6
CONTINUOUS
10
1.89486
20
-5.72073
11
1.90236
21
-5.72448
0
LINE
8
BLACK
6
CONTINUOUS
10
1.90236
20
-5.72448
11
1.90611
21
-5.72823
0
LINE
8
BLACK
6
CONTINUOUS
10
1.90611
20
-5.72823
11
1.90986
21
-5.73573
0
LINE
8
BLACK
6
CONTINUOUS
10
1.90986
20
-5.73573
11
1.91361
21
-5.75073
0
LINE
8
BLACK
6
CONTINUOUS
10
1.91361
20
-5.75073
11
1.91361
21
-5.76948
0
LINE
8
BLACK
6
CONTINUOUS
10
1.91361
20
-5.76948
11
1.90986
21
-5.78448
0
LINE
8
BLACK
6
CONTINUOUS
10
1.90986
20
-5.78448
11
1.90611
21
-5.79197
0
LINE
8
BLACK
6
CONTINUOUS
10
1.90611
20
-5.79197
11
1.90236
21
-5.79572
0
LINE
8
BLACK
6
CONTINUOUS
10
1.90236
20
-5.79572
11
1.89486
21
-5.79947
0
LINE
8
BLACK
6
CONTINUOUS
10
1.89486
20
-5.79947
11
1.88736
21
-5.79947
0
LINE
8
BLACK
6
CONTINUOUS
10
1.88736
20
-5.79947
11
1.87986
21
-5.79572
0
LINE
8
BLACK
6
CONTINUOUS
10
1.87986
20
-5.79572
11
1.87611
21
-5.79197
0
LINE
8
BLACK
6
CONTINUOUS
10
1.87611
20
-5.79197
11
1.87236
21
-5.78448
0
LINE
8
BLACK
6
CONTINUOUS
10
1.87236
20
-5.78448
11
1.86861
21
-5.76948
0
LINE
8
BLACK
6
CONTINUOUS
10
1.86861
20
-5.76948
11
1.86861
21
-5.75073
0
LINE
8
BLACK
6
CONTINUOUS
10
1.86861
20
-5.75073
11
1.87236
21
-5.73573
0
LINE
8
BLACK
6
CONTINUOUS
10
1.87236
20
-5.73573
11
1.87611
21
-5.72823
0
LINE
8
BLACK
6
CONTINUOUS
10
1.87611
20
-5.72823
11
1.87986
21
-5.72448
0
LINE
8
BLACK
6
CONTINUOUS
10
1.87986
20
-5.72448
11
1.88736
21
-5.72073
0
LINE
8
BLACK
6
CONTINUOUS
10
1.9811
20
-5.72073
11
1.9661
21
-5.72073
0
LINE
8
BLACK
6
CONTINUOUS
10
1.9661
20
-5.72073
11
1.9586
21
-5.72448
0
LINE
8
BLACK
6
CONTINUOUS
10
1.9586
20
-5.72448
11
1.95485
21
-5.72823
0
LINE
8
BLACK
6
CONTINUOUS
10
1.95485
20
-5.72823
11
1.94735
21
-5.73948
0
LINE
8
BLACK
6
CONTINUOUS
10
1.94735
20
-5.73948
11
1.9436
21
-5.75448
0
LINE
8
BLACK
6
CONTINUOUS
10
1.9436
20
-5.75448
11
1.9436
21
-5.78448
0
LINE
8
BLACK
6
CONTINUOUS
10
1.9436
20
-5.78448
11
1.94735
21
-5.79197
0
LINE
8
BLACK
6
CONTINUOUS
10
1.94735
20
-5.79197
11
1.9511
21
-5.79572
0
LINE
8
BLACK
6
CONTINUOUS
10
1.9511
20
-5.79572
11
1.9586
21
-5.79947
0
LINE
8
BLACK
6
CONTINUOUS
10
1.9586
20
-5.79947
11
1.9736
21
-5.79947
0
LINE
8
BLACK
6
CONTINUOUS
10
1.9736
20
-5.79947
11
1.9811
21
-5.79572
0
LINE
8
BLACK
6
CONTINUOUS
10
1.9811
20
-5.79572
11
1.98485
21
-5.79197
0
LINE
8
BLACK
6
CONTINUOUS
10
1.98485
20
-5.79197
11
1.9886
21
-5.78448
0
LINE
8
BLACK
6
CONTINUOUS
10
1.9886
20
-5.78448
11
1.9886
21
-5.76573
0
LINE
8
BLACK
6
CONTINUOUS
10
1.9886
20
-5.76573
11
1.98485
21
-5.75823
0
LINE
8
BLACK
6
CONTINUOUS
10
1.98485
20
-5.75823
11
1.9811
21
-5.75448
0
LINE
8
BLACK
6
CONTINUOUS
10
1.9811
20
-5.75448
11
1.9736
21
-5.75073
0
LINE
8
BLACK
6
CONTINUOUS
10
1.9736
20
-5.75073
11
1.9586
21
-5.75073
0
LINE
8
BLACK
6
CONTINUOUS
10
1.9586
20
-5.75073
11
1.9511
21
-5.75448
0
LINE
8
BLACK
6
CONTINUOUS
10
1.9511
20
-5.75448
11
1.94735
21
-5.75823
0
LINE
8
BLACK
6
CONTINUOUS
10
1.94735
20
-5.75823
11
1.9436
21
-5.76573
0
LINE
8
BLACK
6
CONTINUOUS
10
2.06959
20
-5.79947
11
2.06959
21
-5.72073
0
LINE
8
BLACK
6
CONTINUOUS
10
2.10333
20
-5.79947
11
2.10333
21
-5.75823
0
LINE
8
BLACK
6
CONTINUOUS
10
2.10333
20
-5.75823
11
2.09959
21
-5.75073
0
LINE
8
BLACK
6
CONTINUOUS
10
2.09959
20
-5.75073
11
2.09209
21
-5.74698
0
LINE
8
BLACK
6
CONTINUOUS
10
2.09209
20
-5.74698
11
2.08084
21
-5.74698
0
LINE
8
BLACK
6
CONTINUOUS
10
2.08084
20
-5.74698
11
2.07334
21
-5.75073
0
LINE
8
BLACK
6
CONTINUOUS
10
2.07334
20
-5.75073
11
2.06959
21
-5.75448
0
LINE
8
BLACK
6
CONTINUOUS
10
2.15208
20
-5.79947
11
2.14458
21
-5.79572
0
LINE
8
BLACK
6
CONTINUOUS
10
2.14458
20
-5.79572
11
2.14083
21
-5.79197
0
LINE
8
BLACK
6
CONTINUOUS
10
2.14083
20
-5.79197
11
2.13708
21
-5.78448
0
LINE
8
BLACK
6
CONTINUOUS
10
2.13708
20
-5.78448
11
2.13708
21
-5.76198
0
LINE
8
BLACK
6
CONTINUOUS
10
2.13708
20
-5.76198
11
2.14083
21
-5.75448
0
LINE
8
BLACK
6
CONTINUOUS
10
2.14083
20
-5.75448
11
2.14458
21
-5.75073
0
LINE
8
BLACK
6
CONTINUOUS
10
2.14458
20
-5.75073
11
2.15208
21
-5.74698
0
LINE
8
BLACK
6
CONTINUOUS
10
2.15208
20
-5.74698
11
2.16333
21
-5.74698
0
LINE
8
BLACK
6
CONTINUOUS
10
2.16333
20
-5.74698
11
2.17083
21
-5.75073
0
LINE
8
BLACK
6
CONTINUOUS
10
2.17083
20
-5.75073
11
2.17458
21
-5.75448
0
LINE
8
BLACK
6
CONTINUOUS
10
2.17458
20
-5.75448
11
2.17833
21
-5.76198
0
LINE
8
BLACK
6
CONTINUOUS
10
2.17833
20
-5.76198
11
2.17833
21
-5.78448
0
LINE
8
BLACK
6
CONTINUOUS
10
2.17833
20
-5.78448
11
2.17458
21
-5.79197
0
LINE
8
BLACK
6
CONTINUOUS
10
2.17458
20
-5.79197
11
2.17083
21
-5.79572
0
LINE
8
BLACK
6
CONTINUOUS
10
2.17083
20
-5.79572
11
2.16333
21
-5.79947
0
LINE
8
BLACK
6
CONTINUOUS
10
2.16333
20
-5.79947
11
2.15208
21
-5.79947
0
LINE
8
BLACK
6
CONTINUOUS
10
2.22332
20
-5.79947
11
2.21582
21
-5.79572
0
LINE
8
BLACK
6
CONTINUOUS
10
2.21582
20
-5.79572
11
2.21207
21
-5.78823
0
LINE
8
BLACK
6
CONTINUOUS
10
2.21207
20
-5.78823
11
2.21207
21
-5.72073
0
LINE
8
BLACK
6
CONTINUOUS
10
2.28331
20
-5.79572
11
2.27581
21
-5.79947
0
LINE
8
BLACK
6
CONTINUOUS
10
2.27581
20
-5.79947
11
2.26082
21
-5.79947
0
LINE
8
BLACK
6
CONTINUOUS
10
2.26082
20
-5.79947
11
2.25332
21
-5.79572
0
LINE
8
BLACK
6
CONTINUOUS
10
2.25332
20
-5.79572
11
2.24957
21
-5.78823
0
LINE
8
BLACK
6
CONTINUOUS
10
2.24957
20
-5.78823
11
2.24957
21
-5.75823
0
LINE
8
BLACK
6
CONTINUOUS
10
2.24957
20
-5.75823
11
2.25332
21
-5.75073
0
LINE
8
BLACK
6
CONTINUOUS
10
2.25332
20
-5.75073
11
2.26082
21
-5.74698
0
LINE
8
BLACK
6
CONTINUOUS
10
2.26082
20
-5.74698
11
2.27581
21
-5.74698
0
LINE
8
BLACK
6
CONTINUOUS
10
2.27581
20
-5.74698
11
2.28331
21
-5.75073
0
LINE
8
BLACK
6
CONTINUOUS
10
2.28331
20
-5.75073
11
2.28706
21
-5.75823
0
LINE
8
BLACK
6
CONTINUOUS
10
2.28706
20
-5.75823
11
2.28706
21
-5.76573
0
LINE
8
BLACK
6
CONTINUOUS
10
2.28706
20
-5.76573
11
2.24957
21
-5.77323
0
LINE
8
BLACK
6
CONTINUOUS
10
2.31706
20
-5.79572
11
2.32456
21
-5.79947
0
LINE
8
BLACK
6
CONTINUOUS
10
2.32456
20
-5.79947
11
2.33956
21
-5.79947
0
LINE
8
BLACK
6
CONTINUOUS
10
2.33956
20
-5.79947
11
2.34705
21
-5.79572
0
LINE
8
BLACK
6
CONTINUOUS
10
2.34705
20
-5.79572
11
2.3508
21
-5.78823
0
LINE
8
BLACK
6
CONTINUOUS
10
2.3508
20
-5.78823
11
2.3508
21
-5.78448
0
LINE
8
BLACK
6
CONTINUOUS
10
2.3508
20
-5.78448
11
2.34705
21
-5.77698
0
LINE
8
BLACK
6
CONTINUOUS
10
2.34705
20
-5.77698
11
2.33956
21
-5.77323
0
LINE
8
BLACK
6
CONTINUOUS
10
2.33956
20
-5.77323
11
2.32831
21
-5.77323
0
LINE
8
BLACK
6
CONTINUOUS
10
2.32831
20
-5.77323
11
2.32081
21
-5.76948
0
LINE
8
BLACK
6
CONTINUOUS
10
2.32081
20
-5.76948
11
2.31706
21
-5.76198
0
LINE
8
BLACK
6
CONTINUOUS
10
2.31706
20
-5.76198
11
2.31706
21
-5.75823
0
LINE
8
BLACK
6
CONTINUOUS
10
2.31706
20
-5.75823
11
2.32081
21
-5.75073
0
LINE
8
BLACK
6
CONTINUOUS
10
2.32081
20
-5.75073
11
2.32831
21
-5.74698
0
LINE
8
BLACK
6
CONTINUOUS
10
2.32831
20
-5.74698
11
2.33956
21
-5.74698
0
LINE
8
BLACK
6
CONTINUOUS
10
2.33956
20
-5.74698
11
2.34705
21
-5.75073
0
LINE
8
BLACK
6
CONTINUOUS
10
2.37705
20
-5.82947
11
2.3808
21
-5.82572
0
LINE
8
BLACK
6
CONTINUOUS
10
2.3808
20
-5.82572
11
2.3883
21
-5.81447
0
LINE
8
BLACK
6
CONTINUOUS
10
2.3883
20
-5.81447
11
2.39205
21
-5.80697
0
LINE
8
BLACK
6
CONTINUOUS
10
2.39205
20
-5.80697
11
2.3958
21
-5.79572
0
LINE
8
BLACK
6
CONTINUOUS
10
2.3958
20
-5.79572
11
2.39955
21
-5.77698
0
LINE
8
BLACK
6
CONTINUOUS
10
2.39955
20
-5.77698
11
2.39955
21
-5.76198
0
LINE
8
BLACK
6
CONTINUOUS
10
2.39955
20
-5.76198
11
2.3958
21
-5.74323
0
LINE
8
BLACK
6
CONTINUOUS
10
2.3958
20
-5.74323
11
2.39205
21
-5.73198
0
LINE
8
BLACK
6
CONTINUOUS
10
2.39205
20
-5.73198
11
2.3883
21
-5.72448
0
LINE
8
BLACK
6
CONTINUOUS
10
2.3883
20
-5.72448
11
2.3808
21
-5.71323
0
LINE
8
BLACK
6
CONTINUOUS
10
2.3808
20
-5.71323
11
2.37705
21
-5.70949
0
CIRCLE
8
BLACK
10
0.385581
20
-5.87448
40
0.0177165
0
LINE
8
BLACK
6
CONTINUOUS
10
0.515783
20
-5.82467
11
0.523282
21
-5.82467
0
LINE
8
BLACK
6
CONTINUOUS
10
0.523282
20
-5.82467
11
0.530781
21
-5.82842
0
LINE
8
BLACK
6
CONTINUOUS
10
0.530781
20
-5.82842
11
0.534531
21
-5.83217
0
LINE
8
BLACK
6
CONTINUOUS
10
0.534531
20
-5.83217
11
0.53828
21
-5.83967
0
LINE
8
BLACK
6
CONTINUOUS
10
0.53828
20
-5.83967
11
0.54203
21
-5.85467
0
LINE
8
BLACK
6
CONTINUOUS
10
0.54203
20
-5.85467
11
0.54203
21
-5.87341
0
LINE
8
BLACK
6
CONTINUOUS
10
0.54203
20
-5.87341
11
0.53828
21
-5.88841
0
LINE
8
BLACK
6
CONTINUOUS
10
0.53828
20
-5.88841
11
0.534531
21
-5.89591
0
LINE
8
BLACK
6
CONTINUOUS
10
0.534531
20
-5.89591
11
0.530781
21
-5.89966
0
LINE
8
BLACK
6
CONTINUOUS
10
0.530781
20
-5.89966
11
0.523282
21
-5.90341
0
LINE
8
BLACK
6
CONTINUOUS
10
0.523282
20
-5.90341
11
0.515783
21
-5.90341
0
LINE
8
BLACK
6
CONTINUOUS
10
0.515783
20
-5.90341
11
0.508284
21
-5.89966
0
LINE
8
BLACK
6
CONTINUOUS
10
0.508284
20
-5.89966
11
0.504535
21
-5.89591
0
LINE
8
BLACK
6
CONTINUOUS
10
0.504535
20
-5.89591
11
0.500785
21
-5.88841
0
LINE
8
BLACK
6
CONTINUOUS
10
0.500785
20
-5.88841
11
0.497036
21
-5.87341
0
LINE
8
BLACK
6
CONTINUOUS
10
0.497036
20
-5.87341
11
0.497036
21
-5.85467
0
LINE
8
BLACK
6
CONTINUOUS
10
0.497036
20
-5.85467
11
0.500785
21
-5.83967
0
LINE
8
BLACK
6
CONTINUOUS
10
0.500785
20
-5.83967
11
0.504535
21
-5.83217
0
LINE
8
BLACK
6
CONTINUOUS
10
0.504535
20
-5.83217
11
0.508284
21
-5.82842
0
LINE
8
BLACK
6
CONTINUOUS
10
0.508284
20
-5.82842
11
0.515783
21
-5.82467
0
LINE
8
BLACK
6
CONTINUOUS
10
0.575776
20
-5.89591
11
0.579525
21
-5.89966
0
LINE
8
BLACK
6
CONTINUOUS
10
0.579525
20
-5.89966
11
0.575776
21
-5.90341
0
LINE
8
BLACK
6
CONTINUOUS
10
0.575776
20
-5.90341
11
0.572026
21
-5.89966
0
LINE
8
BLACK
6
CONTINUOUS
10
0.572026
20
-5.89966
11
0.575776
21
-5.89591
0
LINE
8
BLACK
6
CONTINUOUS
10
0.575776
20
-5.89591
11
0.575776
21
-5.90341
0
LINE
8
BLACK
6
CONTINUOUS
10
0.617021
20
-5.90341
11
0.632019
21
-5.90341
0
LINE
8
BLACK
6
CONTINUOUS
10
0.632019
20
-5.90341
11
0.639518
21
-5.89966
0
LINE
8
BLACK
6
CONTINUOUS
10
0.639518
20
-5.89966
11
0.643267
21
-5.89591
0
LINE
8
BLACK
6
CONTINUOUS
10
0.643267
20
-5.89591
11
0.650766
21
-5.88466
0
LINE
8
BLACK
6
CONTINUOUS
10
0.650766
20
-5.88466
11
0.654516
21
-5.86967
0
LINE
8
BLACK
6
CONTINUOUS
10
0.654516
20
-5.86967
11
0.654516
21
-5.83967
0
LINE
8
BLACK
6
CONTINUOUS
10
0.654516
20
-5.83967
11
0.650766
21
-5.83217
0
LINE
8
BLACK
6
CONTINUOUS
10
0.650766
20
-5.83217
11
0.647017
21
-5.82842
0
LINE
8
BLACK
6
CONTINUOUS
10
0.647017
20
-5.82842
11
0.639518
21
-5.82467
0
LINE
8
BLACK
6
CONTINUOUS
10
0.639518
20
-5.82467
11
0.62452
21
-5.82467
0
LINE
8
BLACK
6
CONTINUOUS
10
0.62452
20
-5.82467
11
0.617021
21
-5.82842
0
LINE
8
BLACK
6
CONTINUOUS
10
0.617021
20
-5.82842
11
0.613271
21
-5.83217
0
LINE
8
BLACK
6
CONTINUOUS
10
0.613271
20
-5.83217
11
0.609521
21
-5.83967
0
LINE
8
BLACK
6
CONTINUOUS
10
0.609521
20
-5.83967
11
0.609521
21
-5.85842
0
LINE
8
BLACK
6
CONTINUOUS
10
0.609521
20
-5.85842
11
0.613271
21
-5.86592
0
LINE
8
BLACK
6
CONTINUOUS
10
0.613271
20
-5.86592
11
0.617021
21
-5.86967
0
LINE
8
BLACK
6
CONTINUOUS
10
0.617021
20
-5.86967
11
0.62452
21
-5.87341
0
LINE
8
BLACK
6
CONTINUOUS
10
0.62452
20
-5.87341
11
0.639518
21
-5.87341
0
LINE
8
BLACK
6
CONTINUOUS
10
0.639518
20
-5.87341
11
0.647017
21
-5.86967
0
LINE
8
BLACK
6
CONTINUOUS
10
0.647017
20
-5.86967
11
0.650766
21
-5.86592
0
LINE
8
BLACK
6
CONTINUOUS
10
0.650766
20
-5.86592
11
0.654516
21
-5.85842
0
LINE
8
BLACK
6
CONTINUOUS
10
0.70326
20
-5.82467
11
0.710759
21
-5.82467
0
LINE
8
BLACK
6
CONTINUOUS
10
0.710759
20
-5.82467
11
0.718258
21
-5.82842
0
LINE
8
BLACK
6
CONTINUOUS
10
0.718258
20
-5.82842
11
0.722007
21
-5.83217
0
LINE
8
BLACK
6
CONTINUOUS
10
0.722007
20
-5.83217
11
0.725757
21
-5.83967
0
LINE
8
BLACK
6
CONTINUOUS
10
0.725757
20
-5.83967
11
0.729506
21
-5.85467
0
LINE
8
BLACK
6
CONTINUOUS
10
0.729506
20
-5.85467
11
0.729506
21
-5.87341
0
LINE
8
BLACK
6
CONTINUOUS
10
0.729506
20
-5.87341
11
0.725757
21
-5.88841
0
LINE
8
BLACK
6
CONTINUOUS
10
0.725757
20
-5.88841
11
0.722007
21
-5.89591
0
LINE
8
BLACK
6
CONTINUOUS
10
0.722007
20
-5.89591
11
0.718258
21
-5.89966
0
LINE
8
BLACK
6
CONTINUOUS
10
0.718258
20
-5.89966
11
0.710759
21
-5.90341
0
LINE
8
BLACK
6
CONTINUOUS
10
0.710759
20
-5.90341
11
0.70326
21
-5.90341
0
LINE
8
BLACK
6
CONTINUOUS
10
0.70326
20
-5.90341
11
0.695761
21
-5.89966
0
LINE
8
BLACK
6
CONTINUOUS
10
0.695761
20
-5.89966
11
0.692011
21
-5.89591
0
LINE
8
BLACK
6
CONTINUOUS
10
0.692011
20
-5.89591
11
0.688262
21
-5.88841
0
LINE
8
BLACK
6
CONTINUOUS
10
0.688262
20
-5.88841
11
0.684512
21
-5.87341
0
LINE
8
BLACK
6
CONTINUOUS
10
0.684512
20
-5.87341
11
0.684512
21
-5.85467
0
LINE
8
BLACK
6
CONTINUOUS
10
0.684512
20
-5.85467
11
0.688262
21
-5.83967
0
LINE
8
BLACK
6
CONTINUOUS
10
0.688262
20
-5.83967
11
0.692011
21
-5.83217
0
LINE
8
BLACK
6
CONTINUOUS
10
0.692011
20
-5.83217
11
0.695761
21
-5.82842
0
LINE
8
BLACK
6
CONTINUOUS
10
0.695761
20
-5.82842
11
0.70326
21
-5.82467
0
LINE
8
BLACK
6
CONTINUOUS
10
0.77825
20
-5.82467
11
0.785749
21
-5.82467
0
LINE
8
BLACK
6
CONTINUOUS
10
0.785749
20
-5.82467
11
0.793249
21
-5.82842
0
LINE
8
BLACK
6
CONTINUOUS
10
0.793249
20
-5.82842
11
0.796998
21
-5.83217
0
LINE
8
BLACK
6
CONTINUOUS
10
0.796998
20
-5.83217
11
0.800748
21
-5.83967
0
LINE
8
BLACK
6
CONTINUOUS
10
0.800748
20
-5.83967
11
0.804497
21
-5.85467
0
LINE
8
BLACK
6
CONTINUOUS
10
0.804497
20
-5.85467
11
0.804497
21
-5.87341
0
LINE
8
BLACK
6
CONTINUOUS
10
0.804497
20
-5.87341
11
0.800748
21
-5.88841
0
LINE
8
BLACK
6
CONTINUOUS
10
0.800748
20
-5.88841
11
0.796998
21
-5.89591
0
LINE
8
BLACK
6
CONTINUOUS
10
0.796998
20
-5.89591
11
0.793249
21
-5.89966
0
LINE
8
BLACK
6
CONTINUOUS
10
0.793249
20
-5.89966
11
0.785749
21
-5.90341
0
LINE
8
BLACK
6
CONTINUOUS
10
0.785749
20
-5.90341
11
0.77825
21
-5.90341
0
LINE
8
BLACK
6
CONTINUOUS
10
0.77825
20
-5.90341
11
0.770751
21
-5.89966
0
LINE
8
BLACK
6
CONTINUOUS
10
0.770751
20
-5.89966
11
0.767002
21
-5.89591
0
LINE
8
BLACK
6
CONTINUOUS
10
0.767002
20
-5.89591
11
0.763252
21
-5.88841
0
LINE
8
BLACK
6
CONTINUOUS
10
0.763252
20
-5.88841
11
0.759503
21
-5.87341
0
LINE
8
BLACK
6
CONTINUOUS
10
0.759503
20
-5.87341
11
0.759503
21
-5.85467
0
LINE
8
BLACK
6
CONTINUOUS
10
0.759503
20
-5.85467
11
0.763252
21
-5.83967
0
LINE
8
BLACK
6
CONTINUOUS
10
0.763252
20
-5.83967
11
0.767002
21
-5.83217
0
LINE
8
BLACK
6
CONTINUOUS
10
0.767002
20
-5.83217
11
0.770751
21
-5.82842
0
LINE
8
BLACK
6
CONTINUOUS
10
0.770751
20
-5.82842
11
0.77825
21
-5.82467
0
LINE
8
BLACK
6
CONTINUOUS
10
0.838243
20
-5.90341
11
0.838243
21
-5.85092
0
LINE
8
BLACK
6
CONTINUOUS
10
0.838243
20
-5.85842
11
0.841992
21
-5.85467
0
LINE
8
BLACK
6
CONTINUOUS
10
0.841992
20
-5.85467
11
0.849491
21
-5.85092
0
LINE
8
BLACK
6
CONTINUOUS
10
0.849491
20
-5.85092
11
0.86074
21
-5.85092
0
LINE
8
BLACK
6
CONTINUOUS
10
0.86074
20
-5.85092
11
0.868239
21
-5.85467
0
LINE
8
BLACK
6
CONTINUOUS
10
0.868239
20
-5.85467
11
0.871989
21
-5.86217
0
LINE
8
BLACK
6
CONTINUOUS
10
0.871989
20
-5.86217
11
0.871989
21
-5.90341
0
LINE
8
BLACK
6
CONTINUOUS
10
0.871989
20
-5.86217
11
0.875738
21
-5.85467
0
LINE
8
BLACK
6
CONTINUOUS
10
0.875738
20
-5.85467
11
0.883237
21
-5.85092
0
LINE
8
BLACK
6
CONTINUOUS
10
0.883237
20
-5.85092
11
0.894486
21
-5.85092
0
LINE
8
BLACK
6
CONTINUOUS
10
0.894486
20
-5.85092
11
0.901985
21
-5.85467
0
LINE
8
BLACK
6
CONTINUOUS
10
0.901985
20
-5.85467
11
0.905734
21
-5.86217
0
LINE
8
BLACK
6
CONTINUOUS
10
0.905734
20
-5.86217
11
0.905734
21
-5.90341
0
LINE
8
BLACK
6
CONTINUOUS
10
0.94323
20
-5.90341
11
0.94323
21
-5.85092
0
LINE
8
BLACK
6
CONTINUOUS
10
0.94323
20
-5.85842
11
0.946979
21
-5.85467
0
LINE
8
BLACK
6
CONTINUOUS
10
0.946979
20
-5.85467
11
0.954478
21
-5.85092
0
LINE
8
BLACK
6
CONTINUOUS
10
0.954478
20
-5.85092
11
0.965727
21
-5.85092
0
LINE
8
BLACK
6
CONTINUOUS
10
0.965727
20
-5.85092
11
0.973226
21
-5.85467
0
LINE
8
BLACK
6
CONTINUOUS
10
0.973226
20
-5.85467
11
0.976976
21
-5.86217
0
LINE
8
BLACK
6
CONTINUOUS
10
0.976976
20
-5.86217
11
0.976976
21
-5.90341
0
LINE
8
BLACK
6
CONTINUOUS
10
0.976976
20
-5.86217
11
0.980725
21
-5.85467
0
LINE
8
BLACK
6
CONTINUOUS
10
0.980725
20
-5.85467
11
0.988224
21
-5.85092
0
LINE
8
BLACK
6
CONTINUOUS
10
0.988224
20
-5.85092
11
0.999473
21
-5.85092
0
LINE
8
BLACK
6
CONTINUOUS
10
0.999473
20
-5.85092
11
1.00697
21
-5.85467
0
LINE
8
BLACK
6
CONTINUOUS
10
1.00697
20
-5.85467
11
1.01072
21
-5.86217
0
LINE
8
BLACK
6
CONTINUOUS
10
1.01072
20
-5.86217
11
1.01072
21
-5.90341
0
LINE
8
BLACK
6
CONTINUOUS
10
1.1517
20
-5.82092
11
1.08421
21
-5.92216
0
LINE
8
BLACK
6
CONTINUOUS
10
1.24019
20
-5.82467
11
1.24769
21
-5.82467
0
LINE
8
BLACK
6
CONTINUOUS
10
1.24769
20
-5.82467
11
1.25519
21
-5.82842
0
LINE
8
BLACK
6
CONTINUOUS
10
1.25519
20
-5.82842
11
1.25894
21
-5.83217
0
LINE
8
BLACK
6
CONTINUOUS
10
1.25894
20
-5.83217
11
1.26269
21
-5.83967
0
LINE
8
BLACK
6
CONTINUOUS
10
1.26269
20
-5.83967
11
1.26644
21
-5.85467
0
LINE
8
BLACK
6
CONTINUOUS
10
1.26644
20
-5.85467
11
1.26644
21
-5.87341
0
LINE
8
BLACK
6
CONTINUOUS
10
1.26644
20
-5.87341
11
1.26269
21
-5.88841
0
LINE
8
BLACK
6
CONTINUOUS
10
1.26269
20
-5.88841
11
1.25894
21
-5.89591
0
LINE
8
BLACK
6
CONTINUOUS
10
1.25894
20
-5.89591
11
1.25519
21
-5.89966
0
LINE
8
BLACK
6
CONTINUOUS
10
1.25519
20
-5.89966
11
1.24769
21
-5.90341
0
LINE
8
BLACK
6
CONTINUOUS
10
1.24769
20
-5.90341
11
1.24019
21
-5.90341
0
LINE
8
BLACK
6
CONTINUOUS
10
1.24019
20
-5.90341
11
1.23269
21
-5.89966
0
LINE
8
BLACK
6
CONTINUOUS
10
1.23269
20
-5.89966
11
1.22894
21
-5.89591
0
LINE
8
BLACK
6
CONTINUOUS
10
1.22894
20
-5.89591
11
1.22519
21
-5.88841
0
LINE
8
BLACK
6
CONTINUOUS
10
1.22519
20
-5.88841
11
1.22144
21
-5.87341
0
LINE
8
BLACK
6
CONTINUOUS
10
1.22144
20
-5.87341
11
1.22144
21
-5.85467
0
LINE
8
BLACK
6
CONTINUOUS
10
1.22144
20
-5.85467
11
1.22519
21
-5.83967
0
LINE
8
BLACK
6
CONTINUOUS
10
1.22519
20
-5.83967
11
1.22894
21
-5.83217
0
LINE
8
BLACK
6
CONTINUOUS
10
1.22894
20
-5.83217
11
1.23269
21
-5.82842
0
LINE
8
BLACK
6
CONTINUOUS
10
1.23269
20
-5.82842
11
1.24019
21
-5.82467
0
LINE
8
BLACK
6
CONTINUOUS
10
1.30019
20
-5.89591
11
1.30393
21
-5.89966
0
LINE
8
BLACK
6
CONTINUOUS
10
1.30393
20
-5.89966
11
1.30019
21
-5.90341
0
LINE
8
BLACK
6
CONTINUOUS
10
1.30019
20
-5.90341
11
1.29644
21
-5.89966
0
LINE
8
BLACK
6
CONTINUOUS
10
1.29644
20
-5.89966
11
1.30019
21
-5.89591
0
LINE
8
BLACK
6
CONTINUOUS
10
1.30019
20
-5.89591
11
1.30019
21
-5.90341
0
LINE
8
BLACK
6
CONTINUOUS
10
1.35268
20
-5.82467
11
1.36018
21
-5.82467
0
LINE
8
BLACK
6
CONTINUOUS
10
1.36018
20
-5.82467
11
1.36768
21
-5.82842
0
LINE
8
BLACK
6
CONTINUOUS
10
1.36768
20
-5.82842
11
1.37143
21
-5.83217
0
LINE
8
BLACK
6
CONTINUOUS
10
1.37143
20
-5.83217
11
1.37518
21
-5.83967
0
LINE
8
BLACK
6
CONTINUOUS
10
1.37518
20
-5.83967
11
1.37893
21
-5.85467
0
LINE
8
BLACK
6
CONTINUOUS
10
1.37893
20
-5.85467
11
1.37893
21
-5.87341
0
LINE
8
BLACK
6
CONTINUOUS
10
1.37893
20
-5.87341
11
1.37518
21
-5.88841
0
LINE
8
BLACK
6
CONTINUOUS
10
1.37518
20
-5.88841
11
1.37143
21
-5.89591
0
LINE
8
BLACK
6
CONTINUOUS
10
1.37143
20
-5.89591
11
1.36768
21
-5.89966
0
LINE
8
BLACK
6
CONTINUOUS
10
1.36768
20
-5.89966
11
1.36018
21
-5.90341
0
LINE
8
BLACK
6
CONTINUOUS
10
1.36018
20
-5.90341
11
1.35268
21
-5.90341
0
LINE
8
BLACK
6
CONTINUOUS
10
1.35268
20
-5.90341
11
1.34518
21
-5.89966
0
LINE
8
BLACK
6
CONTINUOUS
10
1.34518
20
-5.89966
11
1.34143
21
-5.89591
0
LINE
8
BLACK
6
CONTINUOUS
10
1.34143
20
-5.89591
11
1.33768
21
-5.88841
0
LINE
8
BLACK
6
CONTINUOUS
10
1.33768
20
-5.88841
11
1.33393
21
-5.87341
0
LINE
8
BLACK
6
CONTINUOUS
10
1.33393
20
-5.87341
11
1.33393
21
-5.85467
0
LINE
8
BLACK
6
CONTINUOUS
10
1.33393
20
-5.85467
11
1.33768
21
-5.83967
0
LINE
8
BLACK
6
CONTINUOUS
10
1.33768
20
-5.83967
11
1.34143
21
-5.83217
0
LINE
8
BLACK
6
CONTINUOUS
10
1.34143
20
-5.83217
11
1.34518
21
-5.82842
0
LINE
8
BLACK
6
CONTINUOUS
10
1.34518
20
-5.82842
11
1.35268
21
-5.82467
0
LINE
8
BLACK
6
CONTINUOUS
10
1.40517
20
-5.82467
11
1.45392
21
-5.82467
0
LINE
8
BLACK
6
CONTINUOUS
10
1.45392
20
-5.82467
11
1.42767
21
-5.85467
0
LINE
8
BLACK
6
CONTINUOUS
10
1.42767
20
-5.85467
11
1.43892
21
-5.85467
0
LINE
8
BLACK
6
CONTINUOUS
10
1.43892
20
-5.85467
11
1.44642
21
-5.85842
0
LINE
8
BLACK
6
CONTINUOUS
10
1.44642
20
-5.85842
11
1.45017
21
-5.86217
0
LINE
8
BLACK
6
CONTINUOUS
10
1.45017
20
-5.86217
11
1.45392
21
-5.86967
0
LINE
8
BLACK
6
CONTINUOUS
10
1.45392
20
-5.86967
11
1.45392
21
-5.88841
0
LINE
8
BLACK
6
CONTINUOUS
10
1.45392
20
-5.88841
11
1.45017
21
-5.89591
0
LINE
8
BLACK
6
CONTINUOUS
10
1.45017
20
-5.89591
11
1.44642
21
-5.89966
0
LINE
8
BLACK
6
CONTINUOUS
10
1.44642
20
-5.89966
11
1.43892
21
-5.90341
0
LINE
8
BLACK
6
CONTINUOUS
10
1.43892
20
-5.90341
11
1.41642
21
-5.90341
0
LINE
8
BLACK
6
CONTINUOUS
10
1.41642
20
-5.90341
11
1.40892
21
-5.89966
0
LINE
8
BLACK
6
CONTINUOUS
10
1.40892
20
-5.89966
11
1.40517
21
-5.89591
0
LINE
8
BLACK
6
CONTINUOUS
10
1.52516
20
-5.82467
11
1.48766
21
-5.82467
0
LINE
8
BLACK
6
CONTINUOUS
10
1.48766
20
-5.82467
11
1.48391
21
-5.86217
0
LINE
8
BLACK
6
CONTINUOUS
10
1.48391
20
-5.86217
11
1.48766
21
-5.85842
0
LINE
8
BLACK
6
CONTINUOUS
10
1.48766
20
-5.85842
11
1.49516
21
-5.85467
0
LINE
8
BLACK
6
CONTINUOUS
10
1.49516
20
-5.85467
11
1.51391
21
-5.85467
0
LINE
8
BLACK
6
CONTINUOUS
10
1.51391
20
-5.85467
11
1.52141
21
-5.85842
0
LINE
8
BLACK
6
CONTINUOUS
10
1.52141
20
-5.85842
11
1.52516
21
-5.86217
0
LINE
8
BLACK
6
CONTINUOUS
10
1.52516
20
-5.86217
11
1.52891
21
-5.86967
0
LINE
8
BLACK
6
CONTINUOUS
10
1.52891
20
-5.86967
11
1.52891
21
-5.88841
0
LINE
8
BLACK
6
CONTINUOUS
10
1.52891
20
-5.88841
11
1.52516
21
-5.89591
0
LINE
8
BLACK
6
CONTINUOUS
10
1.52516
20
-5.89591
11
1.52141
21
-5.89966
0
LINE
8
BLACK
6
CONTINUOUS
10
1.52141
20
-5.89966
11
1.51391
21
-5.90341
0
LINE
8
BLACK
6
CONTINUOUS
10
1.51391
20
-5.90341
11
1.49516
21
-5.90341
0
LINE
8
BLACK
6
CONTINUOUS
10
1.49516
20
-5.90341
11
1.48766
21
-5.89966
0
LINE
8
BLACK
6
CONTINUOUS
10
1.48766
20
-5.89966
11
1.48391
21
-5.89591
0
LINE
8
BLACK
6
CONTINUOUS
10
1.5964
20
-5.85092
11
1.5964
21
-5.90341
0
LINE
8
BLACK
6
CONTINUOUS
10
1.57765
20
-5.82092
11
1.5589
21
-5.87716
0
LINE
8
BLACK
6
CONTINUOUS
10
1.5589
20
-5.87716
11
1.60765
21
-5.87716
0
LINE
8
BLACK
6
CONTINUOUS
10
1.63389
20
-5.82467
11
1.63389
21
-5.83967
0
LINE
8
BLACK
6
CONTINUOUS
10
1.66389
20
-5.82467
11
1.66389
21
-5.83967
0
LINE
8
BLACK
6
CONTINUOUS
10
1.76738
20
-5.93341
11
1.76363
21
-5.92966
0
LINE
8
BLACK
6
CONTINUOUS
10
1.76363
20
-5.92966
11
1.75613
21
-5.91841
0
LINE
8
BLACK
6
CONTINUOUS
10
1.75613
20
-5.91841
11
1.75238
21
-5.91091
0
LINE
8
BLACK
6
CONTINUOUS
10
1.75238
20
-5.91091
11
1.74863
21
-5.89966
0
LINE
8
BLACK
6
CONTINUOUS
10
1.74863
20
-5.89966
11
1.74488
21
-5.88091
0
LINE
8
BLACK
6
CONTINUOUS
10
1.74488
20
-5.88091
11
1.74488
21
-5.86592
0
LINE
8
BLACK
6
CONTINUOUS
10
1.74488
20
-5.86592
11
1.74863
21
-5.84717
0
LINE
8
BLACK
6
CONTINUOUS
10
1.74863
20
-5.84717
11
1.75238
21
-5.83592
0
LINE
8
BLACK
6
CONTINUOUS
10
1.75238
20
-5.83592
11
1.75613
21
-5.82842
0
LINE
8
BLACK
6
CONTINUOUS
10
1.75613
20
-5.82842
11
1.76363
21
-5.81717
0
LINE
8
BLACK
6
CONTINUOUS
10
1.76363
20
-5.81717
11
1.76738
21
-5.81342
0
LINE
8
BLACK
6
CONTINUOUS
10
1.83862
20
-5.90341
11
1.79362
21
-5.90341
0
LINE
8
BLACK
6
CONTINUOUS
10
1.81612
20
-5.90341
11
1.81612
21
-5.82467
0
LINE
8
BLACK
6
CONTINUOUS
10
1.81612
20
-5.82467
11
1.80862
21
-5.83592
0
LINE
8
BLACK
6
CONTINUOUS
10
1.80862
20
-5.83592
11
1.80112
21
-5.84342
0
LINE
8
BLACK
6
CONTINUOUS
10
1.80112
20
-5.84342
11
1.79362
21
-5.84717
0
LINE
8
BLACK
6
CONTINUOUS
10
1.86861
20
-5.83217
11
1.87236
21
-5.82842
0
LINE
8
BLACK
6
CONTINUOUS
10
1.87236
20
-5.82842
11
1.87986
21
-5.82467
0
LINE
8
BLACK
6
CONTINUOUS
10
1.87986
20
-5.82467
11
1.89861
21
-5.82467
0
LINE
8
BLACK
6
CONTINUOUS
10
1.89861
20
-5.82467
11
1.90611
21
-5.82842
0
LINE
8
BLACK
6
CONTINUOUS
10
1.90611
20
-5.82842
11
1.90986
21
-5.83217
0
LINE
8
BLACK
6
CONTINUOUS
10
1.90986
20
-5.83217
11
1.91361
21
-5.83967
0
LINE
8
BLACK
6
CONTINUOUS
10
1.91361
20
-5.83967
11
1.91361
21
-5.84717
0
LINE
8
BLACK
6
CONTINUOUS
10
1.91361
20
-5.84717
11
1.90986
21
-5.85842
0
LINE
8
BLACK
6
CONTINUOUS
10
1.90986
20
-5.85842
11
1.86486
21
-5.90341
0
LINE
8
BLACK
6
CONTINUOUS
10
1.86486
20
-5.90341
11
1.91361
21
-5.90341
0
LINE
8
BLACK
6
CONTINUOUS
10
1.9946
20
-5.90341
11
1.9946
21
-5.82467
0
LINE
8
BLACK
6
CONTINUOUS
10
2.02834
20
-5.90341
11
2.02834
21
-5.86217
0
LINE
8
BLACK
6
CONTINUOUS
10
2.02834
20
-5.86217
11
2.02459
21
-5.85467
0
LINE
8
BLACK
6
CONTINUOUS
10
2.02459
20
-5.85467
11
2.0171
21
-5.85092
0
LINE
8
BLACK
6
CONTINUOUS
10
2.0171
20
-5.85092
11
2.00585
21
-5.85092
0
LINE
8
BLACK
6
CONTINUOUS
10
2.00585
20
-5.85092
11
1.99835
21
-5.85467
0
LINE
8
BLACK
6
CONTINUOUS
10
1.99835
20
-5.85467
11
1.9946
21
-5.85842
0
LINE
8
BLACK
6
CONTINUOUS
10
2.07709
20
-5.90341
11
2.06959
21
-5.89966
0
LINE
8
BLACK
6
CONTINUOUS
10
2.06959
20
-5.89966
11
2.06584
21
-5.89591
0
LINE
8
BLACK
6
CONTINUOUS
10
2.06584
20
-5.89591
11
2.06209
21
-5.88841
0
LINE
8
BLACK
6
CONTINUOUS
10
2.06209
20
-5.88841
11
2.06209
21
-5.86592
0
LINE
8
BLACK
6
CONTINUOUS
10
2.06209
20
-5.86592
11
2.06584
21
-5.85842
0
LINE
8
BLACK
6
CONTINUOUS
10
2.06584
20
-5.85842
11
2.06959
21
-5.85467
0
LINE
8
BLACK
6
CONTINUOUS
10
2.06959
20
-5.85467
11
2.07709
21
-5.85092
0
LINE
8
BLACK
6
CONTINUOUS
10
2.07709
20
-5.85092
11
2.08834
21
-5.85092
0
LINE
8
BLACK
6
CONTINUOUS
10
2.08834
20
-5.85092
11
2.09584
21
-5.85467
0
LINE
8
BLACK
6
CONTINUOUS
10
2.09584
20
-5.85467
11
2.09959
21
-5.85842
0
LINE
8
BLACK
6
CONTINUOUS
10
2.09959
20
-5.85842
11
2.10333
21
-5.86592
0
LINE
8
BLACK
6
CONTINUOUS
10
2.10333
20
-5.86592
11
2.10333
21
-5.88841
0
LINE
8
BLACK
6
CONTINUOUS
10
2.10333
20
-5.88841
11
2.09959
21
-5.89591
0
LINE
8
BLACK
6
CONTINUOUS
10
2.09959
20
-5.89591
11
2.09584
21
-5.89966
0
LINE
8
BLACK
6
CONTINUOUS
10
2.09584
20
-5.89966
11
2.08834
21
-5.90341
0
LINE
8
BLACK
6
CONTINUOUS
10
2.08834
20
-5.90341
11
2.07709
21
-5.90341
0
LINE
8
BLACK
6
CONTINUOUS
10
2.14833
20
-5.90341
11
2.14083
21
-5.89966
0
LINE
8
BLACK
6
CONTINUOUS
10
2.14083
20
-5.89966
11
2.13708
21
-5.89216
0
LINE
8
BLACK
6
CONTINUOUS
10
2.13708
20
-5.89216
11
2.13708
21
-5.82467
0
LINE
8
BLACK
6
CONTINUOUS
10
2.20832
20
-5.89966
11
2.20082
21
-5.90341
0
LINE
8
BLACK
6
CONTINUOUS
10
2.20082
20
-5.90341
11
2.18582
21
-5.90341
0
LINE
8
BLACK
6
CONTINUOUS
10
2.18582
20
-5.90341
11
2.17833
21
-5.89966
0
LINE
8
BLACK
6
CONTINUOUS
10
2.17833
20
-5.89966
11
2.17458
21
-5.89216
0
LINE
8
BLACK
6
CONTINUOUS
10
2.17458
20
-5.89216
11
2.17458
21
-5.86217
0
LINE
8
BLACK
6
CONTINUOUS
10
2.17458
20
-5.86217
11
2.17833
21
-5.85467
0
LINE
8
BLACK
6
CONTINUOUS
10
2.17833
20
-5.85467
11
2.18582
21
-5.85092
0
LINE
8
BLACK
6
CONTINUOUS
10
2.18582
20
-5.85092
11
2.20082
21
-5.85092
0
LINE
8
BLACK
6
CONTINUOUS
10
2.20082
20
-5.85092
11
2.20832
21
-5.85467
0
LINE
8
BLACK
6
CONTINUOUS
10
2.20832
20
-5.85467
11
2.21207
21
-5.86217
0
LINE
8
BLACK
6
CONTINUOUS
10
2.21207
20
-5.86217
11
2.21207
21
-5.86967
0
LINE
8
BLACK
6
CONTINUOUS
10
2.21207
20
-5.86967
11
2.17458
21
-5.87716
0
LINE
8
BLACK
6
CONTINUOUS
10
2.24207
20
-5.89966
11
2.24957
21
-5.90341
0
LINE
8
BLACK
6
CONTINUOUS
10
2.24957
20
-5.90341
11
2.26456
21
-5.90341
0
LINE
8
BLACK
6
CONTINUOUS
10
2.26456
20
-5.90341
11
2.27206
21
-5.89966
0
LINE
8
BLACK
6
CONTINUOUS
10
2.27206
20
-5.89966
11
2.27581
21
-5.89216
0
LINE
8
BLACK
6
CONTINUOUS
10
2.27581
20
-5.89216
11
2.27581
21
-5.88841
0
LINE
8
BLACK
6
CONTINUOUS
10
2.27581
20
-5.88841
11
2.27206
21
-5.88091
0
LINE
8
BLACK
6
CONTINUOUS
10
2.27206
20
-5.88091
11
2.26456
21
-5.87716
0
LINE
8
BLACK
6
CONTINUOUS
10
2.26456
20
-5.87716
11
2.25332
21
-5.87716
0
LINE
8
BLACK
6
CONTINUOUS
10
2.25332
20
-5.87716
11
2.24582
21
-5.87341
0
LINE
8
BLACK
6
CONTINUOUS
10
2.24582
20
-5.87341
11
2.24207
21
-5.86592
0
LINE
8
BLACK
6
CONTINUOUS
10
2.24207
20
-5.86592
11
2.24207
21
-5.86217
0
LINE
8
BLACK
6
CONTINUOUS
10
2.24207
20
-5.86217
11
2.24582
21
-5.85467
0
LINE
8
BLACK
6
CONTINUOUS
10
2.24582
20
-5.85467
11
2.25332
21
-5.85092
0
LINE
8
BLACK
6
CONTINUOUS
10
2.25332
20
-5.85092
11
2.26456
21
-5.85092
0
LINE
8
BLACK
6
CONTINUOUS
10
2.26456
20
-5.85092
11
2.27206
21
-5.85467
0
LINE
8
BLACK
6
CONTINUOUS
10
2.30206
20
-5.93341
11
2.30581
21
-5.92966
0
LINE
8
BLACK
6
CONTINUOUS
10
2.30581
20
-5.92966
11
2.31331
21
-5.91841
0
LINE
8
BLACK
6
CONTINUOUS
10
2.31331
20
-5.91841
11
2.31706
21
-5.91091
0
LINE
8
BLACK
6
CONTINUOUS
10
2.31706
20
-5.91091
11
2.32081
21
-5.89966
0
LINE
8
BLACK
6
CONTINUOUS
10
2.32081
20
-5.89966
11
2.32456
21
-5.88091
0
LINE
8
BLACK
6
CONTINUOUS
10
2.32456
20
-5.88091
11
2.32456
21
-5.86592
0
LINE
8
BLACK
6
CONTINUOUS
10
2.32456
20
-5.86592
11
2.32081
21
-5.84717
0
LINE
8
BLACK
6
CONTINUOUS
10
2.32081
20
-5.84717
11
2.31706
21
-5.83592
0
LINE
8
BLACK
6
CONTINUOUS
10
2.31706
20
-5.83592
11
2.31331
21
-5.82842
0
LINE
8
BLACK
6
CONTINUOUS
10
2.31331
20
-5.82842
11
2.30581
21
-5.81717
0
LINE
8
BLACK
6
CONTINUOUS
10
2.30581
20
-5.81717
11
2.30206
21
-5.81342
0
LINE
8
BLACK
6
CONTINUOUS
10
0.37436
20
-5.94948
11
0.37436
21
-6.00736
0
LINE
8
BLACK
6
CONTINUOUS
10
0.345423
20
-5.97842
11
0.403297
21
-5.97842
0
LINE
8
BLACK
6
CONTINUOUS
10
0.54203
20
-6.00735
11
0.497036
21
-6.00735
0
LINE
8
BLACK
6
CONTINUOUS
10
0.519533
20
-6.00735
11
0.519533
21
-5.92861
0
LINE
8
BLACK
6
CONTINUOUS
10
0.519533
20
-5.92861
11
0.512034
21
-5.93986
0
LINE
8
BLACK
6
CONTINUOUS
10
0.512034
20
-5.93986
11
0.504535
21
-5.94736
0
LINE
8
BLACK
6
CONTINUOUS
10
0.504535
20
-5.94736
11
0.497036
21
-5.9511
0
LINE
8
BLACK
6
CONTINUOUS
10
0.575776
20
-5.99985
11
0.579525
21
-6.0036
0
LINE
8
BLACK
6
CONTINUOUS
10
0.579525
20
-6.0036
11
0.575776
21
-6.00735
0
LINE
8
BLACK
6
CONTINUOUS
10
0.575776
20
-6.00735
11
0.572026
21
-6.0036
0
LINE
8
BLACK
6
CONTINUOUS
10
0.572026
20
-6.0036
11
0.575776
21
-5.99985
0
LINE
8
BLACK
6
CONTINUOUS
10
0.575776
20
-5.99985
11
0.575776
21
-6.00735
0
LINE
8
BLACK
6
CONTINUOUS
10
0.647017
20
-5.95485
11
0.647017
21
-6.00735
0
LINE
8
BLACK
6
CONTINUOUS
10
0.628269
20
-5.92486
11
0.609521
21
-5.9811
0
LINE
8
BLACK
6
CONTINUOUS
10
0.609521
20
-5.9811
11
0.658265
21
-5.9811
0
LINE
8
BLACK
6
CONTINUOUS
10
0.680763
20
-5.92861
11
0.733256
21
-5.92861
0
LINE
8
BLACK
6
CONTINUOUS
10
0.733256
20
-5.92861
11
0.69951
21
-6.00735
0
LINE
8
BLACK
6
CONTINUOUS
10
0.77825
20
-5.92861
11
0.785749
21
-5.92861
0
LINE
8
BLACK
6
CONTINUOUS
10
0.785749
20
-5.92861
11
0.793249
21
-5.93236
0
LINE
8
BLACK
6
CONTINUOUS
10
0.793249
20
-5.93236
11
0.796998
21
-5.93611
0
LINE
8
BLACK
6
CONTINUOUS
10
0.796998
20
-5.93611
11
0.800748
21
-5.94361
0
LINE
8
BLACK
6
CONTINUOUS
10
0.800748
20
-5.94361
11
0.804497
21
-5.9586
0
LINE
8
BLACK
6
CONTINUOUS
10
0.804497
20
-5.9586
11
0.804497
21
-5.97735
0
LINE
8
BLACK
6
CONTINUOUS
10
0.804497
20
-5.97735
11
0.800748
21
-5.99235
0
LINE
8
BLACK
6
CONTINUOUS
10
0.800748
20
-5.99235
11
0.796998
21
-5.99985
0
LINE
8
BLACK
6
CONTINUOUS
10
0.796998
20
-5.99985
11
0.793249
21
-6.0036
0
LINE
8
BLACK
6
CONTINUOUS
10
0.793249
20
-6.0036
11
0.785749
21
-6.00735
0
LINE
8
BLACK
6
CONTINUOUS
10
0.785749
20
-6.00735
11
0.77825
21
-6.00735
0
LINE
8
BLACK
6
CONTINUOUS
10
0.77825
20
-6.00735
11
0.770751
21
-6.0036
0
LINE
8
BLACK
6
CONTINUOUS
10
0.770751
20
-6.0036
11
0.767002
21
-5.99985
0
LINE
8
BLACK
6
CONTINUOUS
10
0.767002
20
-5.99985
11
0.763252
21
-5.99235
0
LINE
8
BLACK
6
CONTINUOUS
10
0.763252
20
-5.99235
11
0.759503
21
-5.97735
0
LINE
8
BLACK
6
CONTINUOUS
10
0.759503
20
-5.97735
11
0.759503
21
-5.9586
0
LINE
8
BLACK
6
CONTINUOUS
10
0.759503
20
-5.9586
11
0.763252
21
-5.94361
0
LINE
8
BLACK
6
CONTINUOUS
10
0.763252
20
-5.94361
11
0.767002
21
-5.93611
0
LINE
8
BLACK
6
CONTINUOUS
10
0.767002
20
-5.93611
11
0.770751
21
-5.93236
0
LINE
8
BLACK
6
CONTINUOUS
10
0.770751
20
-5.93236
11
0.77825
21
-5.92861
0
LINE
8
BLACK
6
CONTINUOUS
10
0.838243
20
-6.00735
11
0.838243
21
-5.95485
0
LINE
8
BLACK
6
CONTINUOUS
10
0.838243
20
-5.96235
11
0.841992
21
-5.9586
0
LINE
8
BLACK
6
CONTINUOUS
10
0.841992
20
-5.9586
11
0.849491
21
-5.95485
0
LINE
8
BLACK
6
CONTINUOUS
10
0.849491
20
-5.95485
11
0.86074
21
-5.95485
0
LINE
8
BLACK
6
CONTINUOUS
10
0.86074
20
-5.95485
11
0.868239
21
-5.9586
0
LINE
8
BLACK
6
CONTINUOUS
10
0.868239
20
-5.9586
11
0.871989
21
-5.9661
0
LINE
8
BLACK
6
CONTINUOUS
10
0.871989
20
-5.9661
11
0.871989
21
-6.00735
0
LINE
8
BLACK
6
CONTINUOUS
10
0.871989
20
-5.9661
11
0.875738
21
-5.9586
0
LINE
8
BLACK
6
CONTINUOUS
10
0.875738
20
-5.9586
11
0.883237
21
-5.95485
0
LINE
8
BLACK
6
CONTINUOUS
10
0.883237
20
-5.95485
11
0.894486
21
-5.95485
0
LINE
8
BLACK
6
CONTINUOUS
10
0.894486
20
-5.95485
11
0.901985
21
-5.9586
0
LINE
8
BLACK
6
CONTINUOUS
10
0.901985
20
-5.9586
11
0.905734
21
-5.9661
0
LINE
8
BLACK
6
CONTINUOUS
10
0.905734
20
-5.9661
11
0.905734
21
-6.00735
0
LINE
8
BLACK
6
CONTINUOUS
10
0.94323
20
-6.00735
11
0.94323
21
-5.95485
0
LINE
8
BLACK
6
CONTINUOUS
10
0.94323
20
-5.96235
11
0.946979
21
-5.9586
0
LINE
8
BLACK
6
CONTINUOUS
10
0.946979
20
-5.9586
11
0.954478
21
-5.95485
0
LINE
8
BLACK
6
CONTINUOUS
10
0.954478
20
-5.95485
11
0.965727
21
-5.95485
0
LINE
8
BLACK
6
CONTINUOUS
10
0.965727
20
-5.95485
11
0.973226
21
-5.9586
0
LINE
8
BLACK
6
CONTINUOUS
10
0.973226
20
-5.9586
11
0.976976
21
-5.9661
0
LINE
8
BLACK
6
CONTINUOUS
10
0.976976
20
-5.9661
11
0.976976
21
-6.00735
0
LINE
8
BLACK
6
CONTINUOUS
10
0.976976
20
-5.9661
11
0.980725
21
-5.9586
0
LINE
8
BLACK
6
CONTINUOUS
10
0.980725
20
-5.9586
11
0.988224
21
-5.95485
0
LINE
8
BLACK
6
CONTINUOUS
10
0.988224
20
-5.95485
11
0.999473
21
-5.95485
0
LINE
8
BLACK
6
CONTINUOUS
10
0.999473
20
-5.95485
11
1.00697
21
-5.9586
0
LINE
8
BLACK
6
CONTINUOUS
10
1.00697
20
-5.9586
11
1.01072
21
-5.9661
0
LINE
8
BLACK
6
CONTINUOUS
10
1.01072
20
-5.9661
11
1.01072
21
-6.00735
0
LINE
8
BLACK
6
CONTINUOUS
10
1.1517
20
-5.92486
11
1.08421
21
-6.0261
0
LINE
8
BLACK
6
CONTINUOUS
10
1.24019
20
-5.92861
11
1.24769
21
-5.92861
0
LINE
8
BLACK
6
CONTINUOUS
10
1.24769
20
-5.92861
11
1.25519
21
-5.93236
0
LINE
8
BLACK
6
CONTINUOUS
10
1.25519
20
-5.93236
11
1.25894
21
-5.93611
0
LINE
8
BLACK
6
CONTINUOUS
10
1.25894
20
-5.93611
11
1.26269
21
-5.94361
0
LINE
8
BLACK
6
CONTINUOUS
10
1.26269
20
-5.94361
11
1.26644
21
-5.9586
0
LINE
8
BLACK
6
CONTINUOUS
10
1.26644
20
-5.9586
11
1.26644
21
-5.97735
0
LINE
8
BLACK
6
CONTINUOUS
10
1.26644
20
-5.97735
11
1.26269
21
-5.99235
0
LINE
8
BLACK
6
CONTINUOUS
10
1.26269
20
-5.99235
11
1.25894
21
-5.99985
0
LINE
8
BLACK
6
CONTINUOUS
10
1.25894
20
-5.99985
11
1.25519
21
-6.0036
0
LINE
8
BLACK
6
CONTINUOUS
10
1.25519
20
-6.0036
11
1.24769
21
-6.00735
0
LINE
8
BLACK
6
CONTINUOUS
10
1.24769
20
-6.00735
11
1.24019
21
-6.00735
0
LINE
8
BLACK
6
CONTINUOUS
10
1.24019
20
-6.00735
11
1.23269
21
-6.0036
0
LINE
8
BLACK
6
CONTINUOUS
10
1.23269
20
-6.0036
11
1.22894
21
-5.99985
0
LINE
8
BLACK
6
CONTINUOUS
10
1.22894
20
-5.99985
11
1.22519
21
-5.99235
0
LINE
8
BLACK
6
CONTINUOUS
10
1.22519
20
-5.99235
11
1.22144
21
-5.97735
0
LINE
8
BLACK
6
CONTINUOUS
10
1.22144
20
-5.97735
11
1.22144
21
-5.9586
0
LINE
8
BLACK
6
CONTINUOUS
10
1.22144
20
-5.9586
11
1.22519
21
-5.94361
0
LINE
8
BLACK
6
CONTINUOUS
10
1.22519
20
-5.94361
11
1.22894
21
-5.93611
0
LINE
8
BLACK
6
CONTINUOUS
10
1.22894
20
-5.93611
11
1.23269
21
-5.93236
0
LINE
8
BLACK
6
CONTINUOUS
10
1.23269
20
-5.93236
11
1.24019
21
-5.92861
0
LINE
8
BLACK
6
CONTINUOUS
10
1.30019
20
-5.99985
11
1.30393
21
-6.0036
0
LINE
8
BLACK
6
CONTINUOUS
10
1.30393
20
-6.0036
11
1.30019
21
-6.00735
0
LINE
8
BLACK
6
CONTINUOUS
10
1.30019
20
-6.00735
11
1.29644
21
-6.0036
0
LINE
8
BLACK
6
CONTINUOUS
10
1.29644
20
-6.0036
11
1.30019
21
-5.99985
0
LINE
8
BLACK
6
CONTINUOUS
10
1.30019
20
-5.99985
11
1.30019
21
-6.00735
0
LINE
8
BLACK
6
CONTINUOUS
10
1.35268
20
-5.92861
11
1.36018
21
-5.92861
0
LINE
8
BLACK
6
CONTINUOUS
10
1.36018
20
-5.92861
11
1.36768
21
-5.93236
0
LINE
8
BLACK
6
CONTINUOUS
10
1.36768
20
-5.93236
11
1.37143
21
-5.93611
0
LINE
8
BLACK
6
CONTINUOUS
10
1.37143
20
-5.93611
11
1.37518
21
-5.94361
0
LINE
8
BLACK
6
CONTINUOUS
10
1.37518
20
-5.94361
11
1.37893
21
-5.9586
0
LINE
8
BLACK
6
CONTINUOUS
10
1.37893
20
-5.9586
11
1.37893
21
-5.97735
0
LINE
8
BLACK
6
CONTINUOUS
10
1.37893
20
-5.97735
11
1.37518
21
-5.99235
0
LINE
8
BLACK
6
CONTINUOUS
10
1.37518
20
-5.99235
11
1.37143
21
-5.99985
0
LINE
8
BLACK
6
CONTINUOUS
10
1.37143
20
-5.99985
11
1.36768
21
-6.0036
0
LINE
8
BLACK
6
CONTINUOUS
10
1.36768
20
-6.0036
11
1.36018
21
-6.00735
0
LINE
8
BLACK
6
CONTINUOUS
10
1.36018
20
-6.00735
11
1.35268
21
-6.00735
0
LINE
8
BLACK
6
CONTINUOUS
10
1.35268
20
-6.00735
11
1.34518
21
-6.0036
0
LINE
8
BLACK
6
CONTINUOUS
10
1.34518
20
-6.0036
11
1.34143
21
-5.99985
0
LINE
8
BLACK
6
CONTINUOUS
10
1.34143
20
-5.99985
11
1.33768
21
-5.99235
0
LINE
8
BLACK
6
CONTINUOUS
10
1.33768
20
-5.99235
11
1.33393
21
-5.97735
0
LINE
8
BLACK
6
CONTINUOUS
10
1.33393
20
-5.97735
11
1.33393
21
-5.9586
0
LINE
8
BLACK
6
CONTINUOUS
10
1.33393
20
-5.9586
11
1.33768
21
-5.94361
0
LINE
8
BLACK
6
CONTINUOUS
10
1.33768
20
-5.94361
11
1.34143
21
-5.93611
0
LINE
8
BLACK
6
CONTINUOUS
10
1.34143
20
-5.93611
11
1.34518
21
-5.93236
0
LINE
8
BLACK
6
CONTINUOUS
10
1.34518
20
-5.93236
11
1.35268
21
-5.92861
0
LINE
8
BLACK
6
CONTINUOUS
10
1.45017
20
-5.92861
11
1.41267
21
-5.92861
0
LINE
8
BLACK
6
CONTINUOUS
10
1.41267
20
-5.92861
11
1.40892
21
-5.9661
0
LINE
8
BLACK
6
CONTINUOUS
10
1.40892
20
-5.9661
11
1.41267
21
-5.96235
0
LINE
8
BLACK
6
CONTINUOUS
10
1.41267
20
-5.96235
11
1.42017
21
-5.9586
0
LINE
8
BLACK
6
CONTINUOUS
10
1.42017
20
-5.9586
11
1.43892
21
-5.9586
0
LINE
8
BLACK
6
CONTINUOUS
10
1.43892
20
-5.9586
11
1.44642
21
-5.96235
0
LINE
8
BLACK
6
CONTINUOUS
10
1.44642
20
-5.96235
11
1.45017
21
-5.9661
0
LINE
8
BLACK
6
CONTINUOUS
10
1.45017
20
-5.9661
11
1.45392
21
-5.9736
0
LINE
8
BLACK
6
CONTINUOUS
10
1.45392
20
-5.9736
11
1.45392
21
-5.99235
0
LINE
8
BLACK
6
CONTINUOUS
10
1.45392
20
-5.99235
11
1.45017
21
-5.99985
0
LINE
8
BLACK
6
CONTINUOUS
10
1.45017
20
-5.99985
11
1.44642
21
-6.0036
0
LINE
8
BLACK
6
CONTINUOUS
10
1.44642
20
-6.0036
11
1.43892
21
-6.00735
0
LINE
8
BLACK
6
CONTINUOUS
10
1.43892
20
-6.00735
11
1.42017
21
-6.00735
0
LINE
8
BLACK
6
CONTINUOUS
10
1.42017
20
-6.00735
11
1.41267
21
-6.0036
0
LINE
8
BLACK
6
CONTINUOUS
10
1.41267
20
-6.0036
11
1.40892
21
-5.99985
0
LINE
8
BLACK
6
CONTINUOUS
10
1.48016
20
-5.92861
11
1.53266
21
-5.92861
0
LINE
8
BLACK
6
CONTINUOUS
10
1.53266
20
-5.92861
11
1.49891
21
-6.00735
0
LINE
8
BLACK
6
CONTINUOUS
10
1.5664
20
-6.00735
11
1.5814
21
-6.00735
0
LINE
8
BLACK
6
CONTINUOUS
10
1.5814
20
-6.00735
11
1.5889
21
-6.0036
0
LINE
8
BLACK
6
CONTINUOUS
10
1.5889
20
-6.0036
11
1.59265
21
-5.99985
0
LINE
8
BLACK
6
CONTINUOUS
10
1.59265
20
-5.99985
11
1.60015
21
-5.9886
0
LINE
8
BLACK
6
CONTINUOUS
10
1.60015
20
-5.9886
11
1.6039
21
-5.9736
0
LINE
8
BLACK
6
CONTINUOUS
10
1.6039
20
-5.9736
11
1.6039
21
-5.94361
0
LINE
8
BLACK
6
CONTINUOUS
10
1.6039
20
-5.94361
11
1.60015
21
-5.93611
0
LINE
8
BLACK
6
CONTINUOUS
10
1.60015
20
-5.93611
11
1.5964
21
-5.93236
0
LINE
8
BLACK
6
CONTINUOUS
10
1.5964
20
-5.93236
11
1.5889
21
-5.92861
0
LINE
8
BLACK
6
CONTINUOUS
10
1.5889
20
-5.92861
11
1.5739
21
-5.92861
0
LINE
8
BLACK
6
CONTINUOUS
10
1.5739
20
-5.92861
11
1.5664
21
-5.93236
0
LINE
8
BLACK
6
CONTINUOUS
10
1.5664
20
-5.93236
11
1.56265
21
-5.93611
0
LINE
8
BLACK
6
CONTINUOUS
10
1.56265
20
-5.93611
11
1.5589
21
-5.94361
0
LINE
8
BLACK
6
CONTINUOUS
10
1.5589
20
-5.94361
11
1.5589
21
-5.96235
0
LINE
8
BLACK
6
CONTINUOUS
10
1.5589
20
-5.96235
11
1.56265
21
-5.96985
0
LINE
8
BLACK
6
CONTINUOUS
10
1.56265
20
-5.96985
11
1.5664
21
-5.9736
0
LINE
8
BLACK
6
CONTINUOUS
10
1.5664
20
-5.9736
11
1.5739
21
-5.97735
0
LINE
8
BLACK
6
CONTINUOUS
10
1.5739
20
-5.97735
11
1.5889
21
-5.97735
0
LINE
8
BLACK
6
CONTINUOUS
10
1.5889
20
-5.97735
11
1.5964
21
-5.9736
0
LINE
8
BLACK
6
CONTINUOUS
10
1.5964
20
-5.9736
11
1.60015
21
-5.96985
0
LINE
8
BLACK
6
CONTINUOUS
10
1.60015
20
-5.96985
11
1.6039
21
-5.96235
0
LINE
8
BLACK
6
CONTINUOUS
10
1.63389
20
-5.92861
11
1.63389
21
-5.94361
0
LINE
8
BLACK
6
CONTINUOUS
10
1.66389
20
-5.92861
11
1.66389
21
-5.94361
0
LINE
8
BLACK
6
CONTINUOUS
10
1.76738
20
-6.03734
11
1.76363
21
-6.03359
0
LINE
8
BLACK
6
CONTINUOUS
10
1.76363
20
-6.03359
11
1.75613
21
-6.02235
0
LINE
8
BLACK
6
CONTINUOUS
10
1.75613
20
-6.02235
11
1.75238
21
-6.01485
0
LINE
8
BLACK
6
CONTINUOUS
10
1.75238
20
-6.01485
11
1.74863
21
-6.0036
0
LINE
8
BLACK
6
CONTINUOUS
10
1.74863
20
-6.0036
11
1.74488
21
-5.98485
0
LINE
8
BLACK
6
CONTINUOUS
10
1.74488
20
-5.98485
11
1.74488
21
-5.96985
0
LINE
8
BLACK
6
CONTINUOUS
10
1.74488
20
-5.96985
11
1.74863
21
-5.9511
0
LINE
8
BLACK
6
CONTINUOUS
10
1.74863
20
-5.9511
11
1.75238
21
-5.93986
0
LINE
8
BLACK
6
CONTINUOUS
10
1.75238
20
-5.93986
11
1.75613
21
-5.93236
0
LINE
8
BLACK
6
CONTINUOUS
10
1.75613
20
-5.93236
11
1.76363
21
-5.92111
0
LINE
8
BLACK
6
CONTINUOUS
10
1.76363
20
-5.92111
11
1.76738
21
-5.91736
0
LINE
8
BLACK
6
CONTINUOUS
10
1.79362
20
-5.93611
11
1.79737
21
-5.93236
0
LINE
8
BLACK
6
CONTINUOUS
10
1.79737
20
-5.93236
11
1.80487
21
-5.92861
0
LINE
8
BLACK
6
CONTINUOUS
10
1.80487
20
-5.92861
11
1.82362
21
-5.92861
0
LINE
8
BLACK
6
CONTINUOUS
10
1.82362
20
-5.92861
11
1.83112
21
-5.93236
0
LINE
8
BLACK
6
CONTINUOUS
10
1.83112
20
-5.93236
11
1.83487
21
-5.93611
0
LINE
8
BLACK
6
CONTINUOUS
10
1.83487
20
-5.93611
11
1.83862
21
-5.94361
0
LINE
8
BLACK
6
CONTINUOUS
10
1.83862
20
-5.94361
11
1.83862
21
-5.9511
0
LINE
8
BLACK
6
CONTINUOUS
10
1.83862
20
-5.9511
11
1.83487
21
-5.96235
0
LINE
8
BLACK
6
CONTINUOUS
10
1.83487
20
-5.96235
11
1.78987
21
-6.00735
0
LINE
8
BLACK
6
CONTINUOUS
10
1.78987
20
-6.00735
11
1.83862
21
-6.00735
0
LINE
8
BLACK
6
CONTINUOUS
10
1.90611
20
-5.95485
11
1.90611
21
-6.00735
0
LINE
8
BLACK
6
CONTINUOUS
10
1.88736
20
-5.92486
11
1.86861
21
-5.9811
0
LINE
8
BLACK
6
CONTINUOUS
10
1.86861
20
-5.9811
11
1.91736
21
-5.9811
0
LINE
8
BLACK
6
CONTINUOUS
10
1.9586
20
-5.96235
11
1.9511
21
-5.9586
0
LINE
8
BLACK
6
CONTINUOUS
10
1.9511
20
-5.9586
11
1.94735
21
-5.95485
0
LINE
8
BLACK
6
CONTINUOUS
10
1.94735
20
-5.95485
11
1.9436
21
-5.94736
0
LINE
8
BLACK
6
CONTINUOUS
10
1.9436
20
-5.94736
11
1.9436
21
-5.94361
0
LINE
8
BLACK
6
CONTINUOUS
10
1.9436
20
-5.94361
11
1.94735
21
-5.93611
0
LINE
8
BLACK
6
CONTINUOUS
10
1.94735
20
-5.93611
11
1.9511
21
-5.93236
0
LINE
8
BLACK
6
CONTINUOUS
10
1.9511
20
-5.93236
11
1.9586
21
-5.92861
0
LINE
8
BLACK
6
CONTINUOUS
10
1.9586
20
-5.92861
11
1.9736
21
-5.92861
0
LINE
8
BLACK
6
CONTINUOUS
10
1.9736
20
-5.92861
11
1.9811
21
-5.93236
0
LINE
8
BLACK
6
CONTINUOUS
10
1.9811
20
-5.93236
11
1.98485
21
-5.93611
0
LINE
8
BLACK
6
CONTINUOUS
10
1.98485
20
-5.93611
11
1.9886
21
-5.94361
0
LINE
8
BLACK
6
CONTINUOUS
10
1.9886
20
-5.94361
11
1.9886
21
-5.94736
0
LINE
8
BLACK
6
CONTINUOUS
10
1.9886
20
-5.94736
11
1.98485
21
-5.95485
0
LINE
8
BLACK
6
CONTINUOUS
10
1.98485
20
-5.95485
11
1.9811
21
-5.9586
0
LINE
8
BLACK
6
CONTINUOUS
10
1.9811
20
-5.9586
11
1.9736
21
-5.96235
0
LINE
8
BLACK
6
CONTINUOUS
10
1.9736
20
-5.96235
11
1.9586
21
-5.96235
0
LINE
8
BLACK
6
CONTINUOUS
10
1.9586
20
-5.96235
11
1.9511
21
-5.9661
0
LINE
8
BLACK
6
CONTINUOUS
10
1.9511
20
-5.9661
11
1.94735
21
-5.96985
0
LINE
8
BLACK
6
CONTINUOUS
10
1.94735
20
-5.96985
11
1.9436
21
-5.97735
0
LINE
8
BLACK
6
CONTINUOUS
10
1.9436
20
-5.97735
11
1.9436
21
-5.99235
0
LINE
8
BLACK
6
CONTINUOUS
10
1.9436
20
-5.99235
11
1.94735
21
-5.99985
0
LINE
8
BLACK
6
CONTINUOUS
10
1.94735
20
-5.99985
11
1.9511
21
-6.0036
0
LINE
8
BLACK
6
CONTINUOUS
10
1.9511
20
-6.0036
11
1.9586
21
-6.00735
0
LINE
8
BLACK
6
CONTINUOUS
10
1.9586
20
-6.00735
11
1.9736
21
-6.00735
0
LINE
8
BLACK
6
CONTINUOUS
10
1.9736
20
-6.00735
11
1.9811
21
-6.0036
0
LINE
8
BLACK
6
CONTINUOUS
10
1.9811
20
-6.0036
11
1.98485
21
-5.99985
0
LINE
8
BLACK
6
CONTINUOUS
10
1.98485
20
-5.99985
11
1.9886
21
-5.99235
0
LINE
8
BLACK
6
CONTINUOUS
10
1.9886
20
-5.99235
11
1.9886
21
-5.97735
0
LINE
8
BLACK
6
CONTINUOUS
10
1.9886
20
-5.97735
11
1.98485
21
-5.96985
0
LINE
8
BLACK
6
CONTINUOUS
10
1.98485
20
-5.96985
11
1.9811
21
-5.9661
0
LINE
8
BLACK
6
CONTINUOUS
10
1.9811
20
-5.9661
11
1.9736
21
-5.96235
0
LINE
8
BLACK
6
CONTINUOUS
10
2.06959
20
-6.00735
11
2.06959
21
-5.92861
0
LINE
8
BLACK
6
CONTINUOUS
10
2.10333
20
-6.00735
11
2.10333
21
-5.9661
0
LINE
8
BLACK
6
CONTINUOUS
10
2.10333
20
-5.9661
11
2.09959
21
-5.9586
0
LINE
8
BLACK
6
CONTINUOUS
10
2.09959
20
-5.9586
11
2.09209
21
-5.95485
0
LINE
8
BLACK
6
CONTINUOUS
10
2.09209
20
-5.95485
11
2.08084
21
-5.95485
0
LINE
8
BLACK
6
CONTINUOUS
10
2.08084
20
-5.95485
11
2.07334
21
-5.9586
0
LINE
8
BLACK
6
CONTINUOUS
10
2.07334
20
-5.9586
11
2.06959
21
-5.96235
0
LINE
8
BLACK
6
CONTINUOUS
10
2.15208
20
-6.00735
11
2.14458
21
-6.0036
0
LINE
8
BLACK
6
CONTINUOUS
10
2.14458
20
-6.0036
11
2.14083
21
-5.99985
0
LINE
8
BLACK
6
CONTINUOUS
10
2.14083
20
-5.99985
11
2.13708
21
-5.99235
0
LINE
8
BLACK
6
CONTINUOUS
10
2.13708
20
-5.99235
11
2.13708
21
-5.96985
0
LINE
8
BLACK
6
CONTINUOUS
10
2.13708
20
-5.96985
11
2.14083
21
-5.96235
0
LINE
8
BLACK
6
CONTINUOUS
10
2.14083
20
-5.96235
11
2.14458
21
-5.9586
0
LINE
8
BLACK
6
CONTINUOUS
10
2.14458
20
-5.9586
11
2.15208
21
-5.95485
0
LINE
8
BLACK
6
CONTINUOUS
10
2.15208
20
-5.95485
11
2.16333
21
-5.95485
0
LINE
8
BLACK
6
CONTINUOUS
10
2.16333
20
-5.95485
11
2.17083
21
-5.9586
0
LINE
8
BLACK
6
CONTINUOUS
10
2.17083
20
-5.9586
11
2.17458
21
-5.96235
0
LINE
8
BLACK
6
CONTINUOUS
10
2.17458
20
-5.96235
11
2.17833
21
-5.96985
0
LINE
8
BLACK
6
CONTINUOUS
10
2.17833
20
-5.96985
11
2.17833
21
-5.99235
0
LINE
8
BLACK
6
CONTINUOUS
10
2.17833
20
-5.99235
11
2.17458
21
-5.99985
0
LINE
8
BLACK
6
CONTINUOUS
10
2.17458
20
-5.99985
11
2.17083
21
-6.0036
0
LINE
8
BLACK
6
CONTINUOUS
10
2.17083
20
-6.0036
11
2.16333
21
-6.00735
0
LINE
8
BLACK
6
CONTINUOUS
10
2.16333
20
-6.00735
11
2.15208
21
-6.00735
0
LINE
8
BLACK
6
CONTINUOUS
10
2.22332
20
-6.00735
11
2.21582
21
-6.0036
0
LINE
8
BLACK
6
CONTINUOUS
10
2.21582
20
-6.0036
11
2.21207
21
-5.9961
0
LINE
8
BLACK
6
CONTINUOUS
10
2.21207
20
-5.9961
11
2.21207
21
-5.92861
0
LINE
8
BLACK
6
CONTINUOUS
10
2.28331
20
-6.0036
11
2.27581
21
-6.00735
0
LINE
8
BLACK
6
CONTINUOUS
10
2.27581
20
-6.00735
11
2.26082
21
-6.00735
0
LINE
8
BLACK
6
CONTINUOUS
10
2.26082
20
-6.00735
11
2.25332
21
-6.0036
0
LINE
8
BLACK
6
CONTINUOUS
10
2.25332
20
-6.0036
11
2.24957
21
-5.9961
0
LINE
8
BLACK
6
CONTINUOUS
10
2.24957
20
-5.9961
11
2.24957
21
-5.9661
0
LINE
8
BLACK
6
CONTINUOUS
10
2.24957
20
-5.9661
11
2.25332
21
-5.9586
0
LINE
8
BLACK
6
CONTINUOUS
10
2.25332
20
-5.9586
11
2.26082
21
-5.95485
0
LINE
8
BLACK
6
CONTINUOUS
10
2.26082
20
-5.95485
11
2.27581
21
-5.95485
0
LINE
8
BLACK
6
CONTINUOUS
10
2.27581
20
-5.95485
11
2.28331
21
-5.9586
0
LINE
8
BLACK
6
CONTINUOUS
10
2.28331
20
-5.9586
11
2.28706
21
-5.9661
0
LINE
8
BLACK
6
CONTINUOUS
10
2.28706
20
-5.9661
11
2.28706
21
-5.9736
0
LINE
8
BLACK
6
CONTINUOUS
10
2.28706
20
-5.9736
11
2.24957
21
-5.9811
0
LINE
8
BLACK
6
CONTINUOUS
10
2.31706
20
-6.0036
11
2.32456
21
-6.00735
0
LINE
8
BLACK
6
CONTINUOUS
10
2.32456
20
-6.00735
11
2.33956
21
-6.00735
0
LINE
8
BLACK
6
CONTINUOUS
10
2.33956
20
-6.00735
11
2.34705
21
-6.0036
0
LINE
8
BLACK
6
CONTINUOUS
10
2.34705
20
-6.0036
11
2.3508
21
-5.9961
0
LINE
8
BLACK
6
CONTINUOUS
10
2.3508
20
-5.9961
11
2.3508
21
-5.99235
0
LINE
8
BLACK
6
CONTINUOUS
10
2.3508
20
-5.99235
11
2.34705
21
-5.98485
0
LINE
8
BLACK
6
CONTINUOUS
10
2.34705
20
-5.98485
11
2.33956
21
-5.9811
0
LINE
8
BLACK
6
CONTINUOUS
10
2.33956
20
-5.9811
11
2.32831
21
-5.9811
0
LINE
8
BLACK
6
CONTINUOUS
10
2.32831
20
-5.9811
11
2.32081
21
-5.97735
0
LINE
8
BLACK
6
CONTINUOUS
10
2.32081
20
-5.97735
11
2.31706
21
-5.96985
0
LINE
8
BLACK
6
CONTINUOUS
10
2.31706
20
-5.96985
11
2.31706
21
-5.9661
0
LINE
8
BLACK
6
CONTINUOUS
10
2.31706
20
-5.9661
11
2.32081
21
-5.9586
0
LINE
8
BLACK
6
CONTINUOUS
10
2.32081
20
-5.9586
11
2.32831
21
-5.95485
0
LINE
8
BLACK
6
CONTINUOUS
10
2.32831
20
-5.95485
11
2.33956
21
-5.95485
0
LINE
8
BLACK
6
CONTINUOUS
10
2.33956
20
-5.95485
11
2.34705
21
-5.9586
0
LINE
8
BLACK
6
CONTINUOUS
10
2.37705
20
-6.03734
11
2.3808
21
-6.03359
0
LINE
8
BLACK
6
CONTINUOUS
10
2.3808
20
-6.03359
11
2.3883
21
-6.02235
0
LINE
8
BLACK
6
CONTINUOUS
10
2.3883
20
-6.02235
11
2.39205
21
-6.01485
0
LINE
8
BLACK
6
CONTINUOUS
10
2.39205
20
-6.01485
11
2.3958
21
-6.0036
0
LINE
8
BLACK
6
CONTINUOUS
10
2.3958
20
-6.0036
11
2.39955
21
-5.98485
0
LINE
8
BLACK
6
CONTINUOUS
10
2.39955
20
-5.98485
11
2.39955
21
-5.96985
0
LINE
8
BLACK
6
CONTINUOUS
10
2.39955
20
-5.96985
11
2.3958
21
-5.9511
0
LINE
8
BLACK
6
CONTINUOUS
10
2.3958
20
-5.9511
11
2.39205
21
-5.93986
0
LINE
8
BLACK
6
CONTINUOUS
10
2.39205
20
-5.93986
11
2.3883
21
-5.93236
0
LINE
8
BLACK
6
CONTINUOUS
10
2.3883
20
-5.93236
11
2.3808
21
-5.92111
0
LINE
8
BLACK
6
CONTINUOUS
10
2.3808
20
-5.92111
11
2.37705
21
-5.91736
0
LINE
8
BLACK
6
CONTINUOUS
10
0.391766
20
-6.11138
11
0.391766
21
-6.0557
0
LINE
8
BLACK
6
CONTINUOUS
10
0.391766
20
-6.0557
11
0.336088
21
-6.0557
0
LINE
8
BLACK
6
CONTINUOUS
10
0.336088
20
-6.0557
11
0.336088
21
-6.11138
0
LINE
8
BLACK
6
CONTINUOUS
10
0.336088
20
-6.11138
11
0.391766
21
-6.11138
0
LINE
8
BLACK
6
CONTINUOUS
10
0.493286
20
-6.03373
11
0.54203
21
-6.03373
0
LINE
8
BLACK
6
CONTINUOUS
10
0.54203
20
-6.03373
11
0.515783
21
-6.06372
0
LINE
8
BLACK
6
CONTINUOUS
10
0.515783
20
-6.06372
11
0.527032
21
-6.06372
0
LINE
8
BLACK
6
CONTINUOUS
10
0.527032
20
-6.06372
11
0.534531
21
-6.06747
0
LINE
8
BLACK
6
CONTINUOUS
10
0.534531
20
-6.06747
11
0.53828
21
-6.07122
0
LINE
8
BLACK
6
CONTINUOUS
10
0.53828
20
-6.07122
11
0.54203
21
-6.07872
0
LINE
8
BLACK
6
CONTINUOUS
10
0.54203
20
-6.07872
11
0.54203
21
-6.09747
0
LINE
8
BLACK
6
CONTINUOUS
10
0.54203
20
-6.09747
11
0.53828
21
-6.10497
0
LINE
8
BLACK
6
CONTINUOUS
10
0.53828
20
-6.10497
11
0.534531
21
-6.10872
0
LINE
8
BLACK
6
CONTINUOUS
10
0.534531
20
-6.10872
11
0.527032
21
-6.11247
0
LINE
8
BLACK
6
CONTINUOUS
10
0.527032
20
-6.11247
11
0.504535
21
-6.11247
0
LINE
8
BLACK
6
CONTINUOUS
10
0.504535
20
-6.11247
11
0.497036
21
-6.10872
0
LINE
8
BLACK
6
CONTINUOUS
10
0.497036
20
-6.10872
11
0.493286
21
-6.10497
0
LINE
8
BLACK
6
CONTINUOUS
10
0.575776
20
-6.10497
11
0.579525
21
-6.10872
0
LINE
8
BLACK
6
CONTINUOUS
10
0.579525
20
-6.10872
11
0.575776
21
-6.11247
0
LINE
8
BLACK
6
CONTINUOUS
10
0.575776
20
-6.11247
11
0.572026
21
-6.10872
0
LINE
8
BLACK
6
CONTINUOUS
10
0.572026
20
-6.10872
11
0.575776
21
-6.10497
0
LINE
8
BLACK
6
CONTINUOUS
10
0.575776
20
-6.10497
11
0.575776
21
-6.11247
0
LINE
8
BLACK
6
CONTINUOUS
10
0.647017
20
-6.03373
11
0.632019
21
-6.03373
0
LINE
8
BLACK
6
CONTINUOUS
10
0.632019
20
-6.03373
11
0.62452
21
-6.03748
0
LINE
8
BLACK
6
CONTINUOUS
10
0.62452
20
-6.03748
11
0.62077
21
-6.04122
0
LINE
8
BLACK
6
CONTINUOUS
10
0.62077
20
-6.04122
11
0.613271
21
-6.05247
0
LINE
8
BLACK
6
CONTINUOUS
10
0.613271
20
-6.05247
11
0.609521
21
-6.06747
0
LINE
8
BLACK
6
CONTINUOUS
10
0.609521
20
-6.06747
11
0.609521
21
-6.09747
0
LINE
8
BLACK
6
CONTINUOUS
10
0.609521
20
-6.09747
11
0.613271
21
-6.10497
0
LINE
8
BLACK
6
CONTINUOUS
10
0.613271
20
-6.10497
11
0.617021
21
-6.10872
0
LINE
8
BLACK
6
CONTINUOUS
10
0.617021
20
-6.10872
11
0.62452
21
-6.11247
0
LINE
8
BLACK
6
CONTINUOUS
10
0.62452
20
-6.11247
11
0.639518
21
-6.11247
0
LINE
8
BLACK
6
CONTINUOUS
10
0.639518
20
-6.11247
11
0.647017
21
-6.10872
0
LINE
8
BLACK
6
CONTINUOUS
10
0.647017
20
-6.10872
11
0.650766
21
-6.10497
0
LINE
8
BLACK
6
CONTINUOUS
10
0.650766
20
-6.10497
11
0.654516
21
-6.09747
0
LINE
8
BLACK
6
CONTINUOUS
10
0.654516
20
-6.09747
11
0.654516
21
-6.07872
0
LINE
8
BLACK
6
CONTINUOUS
10
0.654516
20
-6.07872
11
0.650766
21
-6.07122
0
LINE
8
BLACK
6
CONTINUOUS
10
0.650766
20
-6.07122
11
0.647017
21
-6.06747
0
LINE
8
BLACK
6
CONTINUOUS
10
0.647017
20
-6.06747
11
0.639518
21
-6.06372
0
LINE
8
BLACK
6
CONTINUOUS
10
0.639518
20
-6.06372
11
0.62452
21
-6.06372
0
LINE
8
BLACK
6
CONTINUOUS
10
0.62452
20
-6.06372
11
0.617021
21
-6.06747
0
LINE
8
BLACK
6
CONTINUOUS
10
0.617021
20
-6.06747
11
0.613271
21
-6.07122
0
LINE
8
BLACK
6
CONTINUOUS
10
0.613271
20
-6.07122
11
0.609521
21
-6.07872
0
LINE
8
BLACK
6
CONTINUOUS
10
0.69951
20
-6.06747
11
0.692011
21
-6.06372
0
LINE
8
BLACK
6
CONTINUOUS
10
0.692011
20
-6.06372
11
0.688262
21
-6.05997
0
LINE
8
BLACK
6
CONTINUOUS
10
0.688262
20
-6.05997
11
0.684512
21
-6.05247
0
LINE
8
BLACK
6
CONTINUOUS
10
0.684512
20
-6.05247
11
0.684512
21
-6.04872
0
LINE
8
BLACK
6
CONTINUOUS
10
0.684512
20
-6.04872
11
0.688262
21
-6.04122
0
LINE
8
BLACK
6
CONTINUOUS
10
0.688262
20
-6.04122
11
0.692011
21
-6.03748
0
LINE
8
BLACK
6
CONTINUOUS
10
0.692011
20
-6.03748
11
0.69951
21
-6.03373
0
LINE
8
BLACK
6
CONTINUOUS
10
0.69951
20
-6.03373
11
0.714508
21
-6.03373
0
LINE
8
BLACK
6
CONTINUOUS
10
0.714508
20
-6.03373
11
0.722007
21
-6.03748
0
LINE
8
BLACK
6
CONTINUOUS
10
0.722007
20
-6.03748
11
0.725757
21
-6.04122
0
LINE
8
BLACK
6
CONTINUOUS
10
0.725757
20
-6.04122
11
0.729506
21
-6.04872
0
LINE
8
BLACK
6
CONTINUOUS
10
0.729506
20
-6.04872
11
0.729506
21
-6.05247
0
LINE
8
BLACK
6
CONTINUOUS
10
0.729506
20
-6.05247
11
0.725757
21
-6.05997
0
LINE
8
BLACK
6
CONTINUOUS
10
0.725757
20
-6.05997
11
0.722007
21
-6.06372
0
LINE
8
BLACK
6
CONTINUOUS
10
0.722007
20
-6.06372
11
0.714508
21
-6.06747
0
LINE
8
BLACK
6
CONTINUOUS
10
0.714508
20
-6.06747
11
0.69951
21
-6.06747
0
LINE
8
BLACK
6
CONTINUOUS
10
0.69951
20
-6.06747
11
0.692011
21
-6.07122
0
LINE
8
BLACK
6
CONTINUOUS
10
0.692011
20
-6.07122
11
0.688262
21
-6.07497
0
LINE
8
BLACK
6
CONTINUOUS
10
0.688262
20
-6.07497
11
0.684512
21
-6.08247
0
LINE
8
BLACK
6
CONTINUOUS
10
0.684512
20
-6.08247
11
0.684512
21
-6.09747
0
LINE
8
BLACK
6
CONTINUOUS
10
0.684512
20
-6.09747
11
0.688262
21
-6.10497
0
LINE
8
BLACK
6
CONTINUOUS
10
0.688262
20
-6.10497
11
0.692011
21
-6.10872
0
LINE
8
BLACK
6
CONTINUOUS
10
0.692011
20
-6.10872
11
0.69951
21
-6.11247
0
LINE
8
BLACK
6
CONTINUOUS
10
0.69951
20
-6.11247
11
0.714508
21
-6.11247
0
LINE
8
BLACK
6
CONTINUOUS
10
0.714508
20
-6.11247
11
0.722007
21
-6.10872
0
LINE
8
BLACK
6
CONTINUOUS
10
0.722007
20
-6.10872
11
0.725757
21
-6.10497
0
LINE
8
BLACK
6
CONTINUOUS
10
0.725757
20
-6.10497
11
0.729506
21
-6.09747
0
LINE
8
BLACK
6
CONTINUOUS
10
0.729506
20
-6.09747
11
0.729506
21
-6.08247
0
LINE
8
BLACK
6
CONTINUOUS
10
0.729506
20
-6.08247
11
0.725757
21
-6.07497
0
LINE
8
BLACK
6
CONTINUOUS
10
0.725757
20
-6.07497
11
0.722007
21
-6.07122
0
LINE
8
BLACK
6
CONTINUOUS
10
0.722007
20
-6.07122
11
0.714508
21
-6.06747
0
LINE
8
BLACK
6
CONTINUOUS
10
0.755753
20
-6.03373
11
0.804497
21
-6.03373
0
LINE
8
BLACK
6
CONTINUOUS
10
0.804497
20
-6.03373
11
0.77825
21
-6.06372
0
LINE
8
BLACK
6
CONTINUOUS
10
0.77825
20
-6.06372
11
0.789499
21
-6.06372
0
LINE
8
BLACK
6
CONTINUOUS
10
0.789499
20
-6.06372
11
0.796998
21
-6.06747
0
LINE
8
BLACK
6
CONTINUOUS
10
0.796998
20
-6.06747
11
0.800748
21
-6.07122
0
LINE
8
BLACK
6
CONTINUOUS
10
0.800748
20
-6.07122
11
0.804497
21
-6.07872
0
LINE
8
BLACK
6
CONTINUOUS
10
0.804497
20
-6.07872
11
0.804497
21
-6.09747
0
LINE
8
BLACK
6
CONTINUOUS
10
0.804497
20
-6.09747
11
0.800748
21
-6.10497
0
LINE
8
BLACK
6
CONTINUOUS
10
0.800748
20
-6.10497
11
0.796998
21
-6.10872
0
LINE
8
BLACK
6
CONTINUOUS
10
0.796998
20
-6.10872
11
0.789499
21
-6.11247
0
LINE
8
BLACK
6
CONTINUOUS
10
0.789499
20
-6.11247
11
0.767002
21
-6.11247
0
LINE
8
BLACK
6
CONTINUOUS
10
0.767002
20
-6.11247
11
0.759503
21
-6.10872
0
LINE
8
BLACK
6
CONTINUOUS
10
0.759503
20
-6.10872
11
0.755753
21
-6.10497
0
LINE
8
BLACK
6
CONTINUOUS
10
0.838243
20
-6.11247
11
0.838243
21
-6.05997
0
LINE
8
BLACK
6
CONTINUOUS
10
0.838243
20
-6.06747
11
0.841992
21
-6.06372
0
LINE
8
BLACK
6
CONTINUOUS
10
0.841992
20
-6.06372
11
0.849491
21
-6.05997
0
LINE
8
BLACK
6
CONTINUOUS
10
0.849491
20
-6.05997
11
0.86074
21
-6.05997
0
LINE
8
BLACK
6
CONTINUOUS
10
0.86074
20
-6.05997
11
0.868239
21
-6.06372
0
LINE
8
BLACK
6
CONTINUOUS
10
0.868239
20
-6.06372
11
0.871989
21
-6.07122
0
LINE
8
BLACK
6
CONTINUOUS
10
0.871989
20
-6.07122
11
0.871989
21
-6.11247
0
LINE
8
BLACK
6
CONTINUOUS
10
0.871989
20
-6.07122
11
0.875738
21
-6.06372
0
LINE
8
BLACK
6
CONTINUOUS
10
0.875738
20
-6.06372
11
0.883237
21
-6.05997
0
LINE
8
BLACK
6
CONTINUOUS
10
0.883237
20
-6.05997
11
0.894486
21
-6.05997
0
LINE
8
BLACK
6
CONTINUOUS
10
0.894486
20
-6.05997
11
0.901985
21
-6.06372
0
LINE
8
BLACK
6
CONTINUOUS
10
0.901985
20
-6.06372
11
0.905734
21
-6.07122
0
LINE
8
BLACK
6
CONTINUOUS
10
0.905734
20
-6.07122
11
0.905734
21
-6.11247
0
LINE
8
BLACK
6
CONTINUOUS
10
0.94323
20
-6.11247
11
0.94323
21
-6.05997
0
LINE
8
BLACK
6
CONTINUOUS
10
0.94323
20
-6.06747
11
0.946979
21
-6.06372
0
LINE
8
BLACK
6
CONTINUOUS
10
0.946979
20
-6.06372
11
0.954478
21
-6.05997
0
LINE
8
BLACK
6
CONTINUOUS
10
0.954478
20
-6.05997
11
0.965727
21
-6.05997
0
LINE
8
BLACK
6
CONTINUOUS
10
0.965727
20
-6.05997
11
0.973226
21
-6.06372
0
LINE
8
BLACK
6
CONTINUOUS
10
0.973226
20
-6.06372
11
0.976976
21
-6.07122
0
LINE
8
BLACK
6
CONTINUOUS
10
0.976976
20
-6.07122
11
0.976976
21
-6.11247
0
LINE
8
BLACK
6
CONTINUOUS
10
0.976976
20
-6.07122
11
0.980725
21
-6.06372
0
LINE
8
BLACK
6
CONTINUOUS
10
0.980725
20
-6.06372
11
0.988224
21
-6.05997
0
LINE
8
BLACK
6
CONTINUOUS
10
0.988224
20
-6.05997
11
0.999473
21
-6.05997
0
LINE
8
BLACK
6
CONTINUOUS
10
0.999473
20
-6.05997
11
1.00697
21
-6.06372
0
LINE
8
BLACK
6
CONTINUOUS
10
1.00697
20
-6.06372
11
1.01072
21
-6.07122
0
LINE
8
BLACK
6
CONTINUOUS
10
1.01072
20
-6.07122
11
1.01072
21
-6.11247
0
LINE
8
BLACK
6
CONTINUOUS
10
1.1517
20
-6.02998
11
1.08421
21
-6.13121
0
LINE
8
BLACK
6
CONTINUOUS
10
1.24019
20
-6.03373
11
1.24769
21
-6.03373
0
LINE
8
BLACK
6
CONTINUOUS
10
1.24769
20
-6.03373
11
1.25519
21
-6.03748
0
LINE
8
BLACK
6
CONTINUOUS
10
1.25519
20
-6.03748
11
1.25894
21
-6.04122
0
LINE
8
BLACK
6
CONTINUOUS
10
1.25894
20
-6.04122
11
1.26269
21
-6.04872
0
LINE
8
BLACK
6
CONTINUOUS
10
1.26269
20
-6.04872
11
1.26644
21
-6.06372
0
LINE
8
BLACK
6
CONTINUOUS
10
1.26644
20
-6.06372
11
1.26644
21
-6.08247
0
LINE
8
BLACK
6
CONTINUOUS
10
1.26644
20
-6.08247
11
1.26269
21
-6.09747
0
LINE
8
BLACK
6
CONTINUOUS
10
1.26269
20
-6.09747
11
1.25894
21
-6.10497
0
LINE
8
BLACK
6
CONTINUOUS
10
1.25894
20
-6.10497
11
1.25519
21
-6.10872
0
LINE
8
BLACK
6
CONTINUOUS
10
1.25519
20
-6.10872
11
1.24769
21
-6.11247
0
LINE
8
BLACK
6
CONTINUOUS
10
1.24769
20
-6.11247
11
1.24019
21
-6.11247
0
LINE
8
BLACK
6
CONTINUOUS
10
1.24019
20
-6.11247
11
1.23269
21
-6.10872
0
LINE
8
BLACK
6
CONTINUOUS
10
1.23269
20
-6.10872
11
1.22894
21
-6.10497
0
LINE
8
BLACK
6
CONTINUOUS
10
1.22894
20
-6.10497
11
1.22519
21
-6.09747
0
LINE
8
BLACK
6
CONTINUOUS
10
1.22519
20
-6.09747
11
1.22144
21
-6.08247
0
LINE
8
BLACK
6
CONTINUOUS
10
1.22144
20
-6.08247
11
1.22144
21
-6.06372
0
LINE
8
BLACK
6
CONTINUOUS
10
1.22144
20
-6.06372
11
1.22519
21
-6.04872
0
LINE
8
BLACK
6
CONTINUOUS
10
1.22519
20
-6.04872
11
1.22894
21
-6.04122
0
LINE
8
BLACK
6
CONTINUOUS
10
1.22894
20
-6.04122
11
1.23269
21
-6.03748
0
LINE
8
BLACK
6
CONTINUOUS
10
1.23269
20
-6.03748
11
1.24019
21
-6.03373
0
LINE
8
BLACK
6
CONTINUOUS
10
1.30019
20
-6.10497
11
1.30393
21
-6.10872
0
LINE
8
BLACK
6
CONTINUOUS
10
1.30393
20
-6.10872
11
1.30019
21
-6.11247
0
LINE
8
BLACK
6
CONTINUOUS
10
1.30019
20
-6.11247
11
1.29644
21
-6.10872
0
LINE
8
BLACK
6
CONTINUOUS
10
1.29644
20
-6.10872
11
1.30019
21
-6.10497
0
LINE
8
BLACK
6
CONTINUOUS
10
1.30019
20
-6.10497
11
1.30019
21
-6.11247
0
LINE
8
BLACK
6
CONTINUOUS
10
1.37893
20
-6.11247
11
1.33393
21
-6.11247
0
LINE
8
BLACK
6
CONTINUOUS
10
1.35643
20
-6.11247
11
1.35643
21
-6.03373
0
LINE
8
BLACK
6
CONTINUOUS
10
1.35643
20
-6.03373
11
1.34893
21
-6.04497
0
LINE
8
BLACK
6
CONTINUOUS
10
1.34893
20
-6.04497
11
1.34143
21
-6.05247
0
LINE
8
BLACK
6
CONTINUOUS
10
1.34143
20
-6.05247
11
1.33393
21
-6.05622
0
LINE
8
BLACK
6
CONTINUOUS
10
1.44642
20
-6.05997
11
1.44642
21
-6.11247
0
LINE
8
BLACK
6
CONTINUOUS
10
1.42767
20
-6.02998
11
1.40892
21
-6.08622
0
LINE
8
BLACK
6
CONTINUOUS
10
1.40892
20
-6.08622
11
1.45767
21
-6.08622
0
LINE
8
BLACK
6
CONTINUOUS
10
1.52516
20
-6.03373
11
1.48766
21
-6.03373
0
LINE
8
BLACK
6
CONTINUOUS
10
1.48766
20
-6.03373
11
1.48391
21
-6.07122
0
LINE
8
BLACK
6
CONTINUOUS
10
1.48391
20
-6.07122
11
1.48766
21
-6.06747
0
LINE
8
BLACK
6
CONTINUOUS
10
1.48766
20
-6.06747
11
1.49516
21
-6.06372
0
LINE
8
BLACK
6
CONTINUOUS
10
1.49516
20
-6.06372
11
1.51391
21
-6.06372
0
LINE
8
BLACK
6
CONTINUOUS
10
1.51391
20
-6.06372
11
1.52141
21
-6.06747
0
LINE
8
BLACK
6
CONTINUOUS
10
1.52141
20
-6.06747
11
1.52516
21
-6.07122
0
LINE
8
BLACK
6
CONTINUOUS
10
1.52516
20
-6.07122
11
1.52891
21
-6.07872
0
LINE
8
BLACK
6
CONTINUOUS
10
1.52891
20
-6.07872
11
1.52891
21
-6.09747
0
LINE
8
BLACK
6
CONTINUOUS
10
1.52891
20
-6.09747
11
1.52516
21
-6.10497
0
LINE
8
BLACK
6
CONTINUOUS
10
1.52516
20
-6.10497
11
1.52141
21
-6.10872
0
LINE
8
BLACK
6
CONTINUOUS
10
1.52141
20
-6.10872
11
1.51391
21
-6.11247
0
LINE
8
BLACK
6
CONTINUOUS
10
1.51391
20
-6.11247
11
1.49516
21
-6.11247
0
LINE
8
BLACK
6
CONTINUOUS
10
1.49516
20
-6.11247
11
1.48766
21
-6.10872
0
LINE
8
BLACK
6
CONTINUOUS
10
1.48766
20
-6.10872
11
1.48391
21
-6.10497
0
LINE
8
BLACK
6
CONTINUOUS
10
1.57765
20
-6.03373
11
1.58515
21
-6.03373
0
LINE
8
BLACK
6
CONTINUOUS
10
1.58515
20
-6.03373
11
1.59265
21
-6.03748
0
LINE
8
BLACK
6
CONTINUOUS
10
1.59265
20
-6.03748
11
1.5964
21
-6.04122
0
LINE
8
BLACK
6
CONTINUOUS
10
1.5964
20
-6.04122
11
1.60015
21
-6.04872
0
LINE
8
BLACK
6
CONTINUOUS
10
1.60015
20
-6.04872
11
1.6039
21
-6.06372
0
LINE
8
BLACK
6
CONTINUOUS
10
1.6039
20
-6.06372
11
1.6039
21
-6.08247
0
LINE
8
BLACK
6
CONTINUOUS
10
1.6039
20
-6.08247
11
1.60015
21
-6.09747
0
LINE
8
BLACK
6
CONTINUOUS
10
1.60015
20
-6.09747
11
1.5964
21
-6.10497
0
LINE
8
BLACK
6
CONTINUOUS
10
1.5964
20
-6.10497
11
1.59265
21
-6.10872
0
LINE
8
BLACK
6
CONTINUOUS
10
1.59265
20
-6.10872
11
1.58515
21
-6.11247
0
LINE
8
BLACK
6
CONTINUOUS
10
1.58515
20
-6.11247
11
1.57765
21
-6.11247
0
LINE
8
BLACK
6
CONTINUOUS
10
1.57765
20
-6.11247
11
1.57015
21
-6.10872
0
LINE
8
BLACK
6
CONTINUOUS
10
1.57015
20
-6.10872
11
1.5664
21
-6.10497
0
LINE
8
BLACK
6
CONTINUOUS
10
1.5664
20
-6.10497
11
1.56265
21
-6.09747
0
LINE
8
BLACK
6
CONTINUOUS
10
1.56265
20
-6.09747
11
1.5589
21
-6.08247
0
LINE
8
BLACK
6
CONTINUOUS
10
1.5589
20
-6.08247
11
1.5589
21
-6.06372
0
LINE
8
BLACK
6
CONTINUOUS
10
1.5589
20
-6.06372
11
1.56265
21
-6.04872
0
LINE
8
BLACK
6
CONTINUOUS
10
1.56265
20
-6.04872
11
1.5664
21
-6.04122
0
LINE
8
BLACK
6
CONTINUOUS
10
1.5664
20
-6.04122
11
1.57015
21
-6.03748
0
LINE
8
BLACK
6
CONTINUOUS
10
1.57015
20
-6.03748
11
1.57765
21
-6.03373
0
LINE
8
BLACK
6
CONTINUOUS
10
1.63389
20
-6.03373
11
1.63389
21
-6.04872
0
LINE
8
BLACK
6
CONTINUOUS
10
1.66389
20
-6.03373
11
1.66389
21
-6.04872
0
LINE
8
BLACK
6
CONTINUOUS
10
1.76738
20
-6.14246
11
1.76363
21
-6.13871
0
LINE
8
BLACK
6
CONTINUOUS
10
1.76363
20
-6.13871
11
1.75613
21
-6.12746
0
LINE
8
BLACK
6
CONTINUOUS
10
1.75613
20
-6.12746
11
1.75238
21
-6.11997
0
LINE
8
BLACK
6
CONTINUOUS
10
1.75238
20
-6.11997
11
1.74863
21
-6.10872
0
LINE
8
BLACK
6
CONTINUOUS
10
1.74863
20
-6.10872
11
1.74488
21
-6.08997
0
LINE
8
BLACK
6
CONTINUOUS
10
1.74488
20
-6.08997
11
1.74488
21
-6.07497
0
LINE
8
BLACK
6
CONTINUOUS
10
1.74488
20
-6.07497
11
1.74863
21
-6.05622
0
LINE
8
BLACK
6
CONTINUOUS
10
1.74863
20
-6.05622
11
1.75238
21
-6.04497
0
LINE
8
BLACK
6
CONTINUOUS
10
1.75238
20
-6.04497
11
1.75613
21
-6.03748
0
LINE
8
BLACK
6
CONTINUOUS
10
1.75613
20
-6.03748
11
1.76363
21
-6.02623
0
LINE
8
BLACK
6
CONTINUOUS
10
1.76363
20
-6.02623
11
1.76738
21
-6.02248
0
LINE
8
BLACK
6
CONTINUOUS
10
1.83487
20
-6.03373
11
1.79737
21
-6.03373
0
LINE
8
BLACK
6
CONTINUOUS
10
1.79737
20
-6.03373
11
1.79362
21
-6.07122
0
LINE
8
BLACK
6
CONTINUOUS
10
1.79362
20
-6.07122
11
1.79737
21
-6.06747
0
LINE
8
BLACK
6
CONTINUOUS
10
1.79737
20
-6.06747
11
1.80487
21
-6.06372
0
LINE
8
BLACK
6
CONTINUOUS
10
1.80487
20
-6.06372
11
1.82362
21
-6.06372
0
LINE
8
BLACK
6
CONTINUOUS
10
1.82362
20
-6.06372
11
1.83112
21
-6.06747
0
LINE
8
BLACK
6
CONTINUOUS
10
1.83112
20
-6.06747
11
1.83487
21
-6.07122
0
LINE
8
BLACK
6
CONTINUOUS
10
1.83487
20
-6.07122
11
1.83862
21
-6.07872
0
LINE
8
BLACK
6
CONTINUOUS
10
1.83862
20
-6.07872
11
1.83862
21
-6.09747
0
LINE
8
BLACK
6
CONTINUOUS
10
1.83862
20
-6.09747
11
1.83487
21
-6.10497
0
LINE
8
BLACK
6
CONTINUOUS
10
1.83487
20
-6.10497
11
1.83112
21
-6.10872
0
LINE
8
BLACK
6
CONTINUOUS
10
1.83112
20
-6.10872
11
1.82362
21
-6.11247
0
LINE
8
BLACK
6
CONTINUOUS
10
1.82362
20
-6.11247
11
1.80487
21
-6.11247
0
LINE
8
BLACK
6
CONTINUOUS
10
1.80487
20
-6.11247
11
1.79737
21
-6.10872
0
LINE
8
BLACK
6
CONTINUOUS
10
1.79737
20
-6.10872
11
1.79362
21
-6.10497
0
LINE
8
BLACK
6
CONTINUOUS
10
1.91961
20
-6.11247
11
1.91961
21
-6.03373
0
LINE
8
BLACK
6
CONTINUOUS
10
1.95335
20
-6.11247
11
1.95335
21
-6.07122
0
LINE
8
BLACK
6
CONTINUOUS
10
1.95335
20
-6.07122
11
1.9496
21
-6.06372
0
LINE
8
BLACK
6
CONTINUOUS
10
1.9496
20
-6.06372
11
1.9421
21
-6.05997
0
LINE
8
BLACK
6
CONTINUOUS
10
1.9421
20
-6.05997
11
1.93086
21
-6.05997
0
LINE
8
BLACK
6
CONTINUOUS
10
1.93086
20
-6.05997
11
1.92336
21
-6.06372
0
LINE
8
BLACK
6
CONTINUOUS
10
1.92336
20
-6.06372
11
1.91961
21
-6.06747
0
LINE
8
BLACK
6
CONTINUOUS
10
2.0021
20
-6.11247
11
1.9946
21
-6.10872
0
LINE
8
BLACK
6
CONTINUOUS
10
1.9946
20
-6.10872
11
1.99085
21
-6.10497
0
LINE
8
BLACK
6
CONTINUOUS
10
1.99085
20
-6.10497
11
1.9871
21
-6.09747
0
LINE
8
BLACK
6
CONTINUOUS
10
1.9871
20
-6.09747
11
1.9871
21
-6.07497
0
LINE
8
BLACK
6
CONTINUOUS
10
1.9871
20
-6.07497
11
1.99085
21
-6.06747
0
LINE
8
BLACK
6
CONTINUOUS
10
1.99085
20
-6.06747
11
1.9946
21
-6.06372
0
LINE
8
BLACK
6
CONTINUOUS
10
1.9946
20
-6.06372
11
2.0021
21
-6.05997
0
LINE
8
BLACK
6
CONTINUOUS
10
2.0021
20
-6.05997
11
2.01335
21
-6.05997
0
LINE
8
BLACK
6
CONTINUOUS
10
2.01335
20
-6.05997
11
2.02085
21
-6.06372
0
LINE
8
BLACK
6
CONTINUOUS
10
2.02085
20
-6.06372
11
2.02459
21
-6.06747
0
LINE
8
BLACK
6
CONTINUOUS
10
2.02459
20
-6.06747
11
2.02834
21
-6.07497
0
LINE
8
BLACK
6
CONTINUOUS
10
2.02834
20
-6.07497
11
2.02834
21
-6.09747
0
LINE
8
BLACK
6
CONTINUOUS
10
2.02834
20
-6.09747
11
2.02459
21
-6.10497
0
LINE
8
BLACK
6
CONTINUOUS
10
2.02459
20
-6.10497
11
2.02085
21
-6.10872
0
LINE
8
BLACK
6
CONTINUOUS
10
2.02085
20
-6.10872
11
2.01335
21
-6.11247
0
LINE
8
BLACK
6
CONTINUOUS
10
2.01335
20
-6.11247
11
2.0021
21
-6.11247
0
LINE
8
BLACK
6
CONTINUOUS
10
2.07334
20
-6.11247
11
2.06584
21
-6.10872
0
LINE
8
BLACK
6
CONTINUOUS
10
2.06584
20
-6.10872
11
2.06209
21
-6.10122
0
LINE
8
BLACK
6
CONTINUOUS
10
2.06209
20
-6.10122
11
2.06209
21
-6.03373
0
LINE
8
BLACK
6
CONTINUOUS
10
2.13333
20
-6.10872
11
2.12583
21
-6.11247
0
LINE
8
BLACK
6
CONTINUOUS
10
2.12583
20
-6.11247
11
2.11083
21
-6.11247
0
LINE
8
BLACK
6
CONTINUOUS
10
2.11083
20
-6.11247
11
2.10333
21
-6.10872
0
LINE
8
BLACK
6
CONTINUOUS
10
2.10333
20
-6.10872
11
2.09959
21
-6.10122
0
LINE
8
BLACK
6
CONTINUOUS
10
2.09959
20
-6.10122
11
2.09959
21
-6.07122
0
LINE
8
BLACK
6
CONTINUOUS
10
2.09959
20
-6.07122
11
2.10333
21
-6.06372
0
LINE
8
BLACK
6
CONTINUOUS
10
2.10333
20
-6.06372
11
2.11083
21
-6.05997
0
LINE
8
BLACK
6
CONTINUOUS
10
2.11083
20
-6.05997
11
2.12583
21
-6.05997
0
LINE
8
BLACK
6
CONTINUOUS
10
2.12583
20
-6.05997
11
2.13333
21
-6.06372
0
LINE
8
BLACK
6
CONTINUOUS
10
2.13333
20
-6.06372
11
2.13708
21
-6.07122
0
LINE
8
BLACK
6
CONTINUOUS
10
2.13708
20
-6.07122
11
2.13708
21
-6.07872
0
LINE
8
BLACK
6
CONTINUOUS
10
2.13708
20
-6.07872
11
2.09959
21
-6.08622
0
LINE
8
BLACK
6
CONTINUOUS
10
2.16708
20
-6.10872
11
2.17458
21
-6.11247
0
LINE
8
BLACK
6
CONTINUOUS
10
2.17458
20
-6.11247
11
2.18957
21
-6.11247
0
LINE
8
BLACK
6
CONTINUOUS
10
2.18957
20
-6.11247
11
2.19707
21
-6.10872
0
LINE
8
BLACK
6
CONTINUOUS
10
2.19707
20
-6.10872
11
2.20082
21
-6.10122
0
LINE
8
BLACK
6
CONTINUOUS
10
2.20082
20
-6.10122
11
2.20082
21
-6.09747
0
LINE
8
BLACK
6
CONTINUOUS
10
2.20082
20
-6.09747
11
2.19707
21
-6.08997
0
LINE
8
BLACK
6
CONTINUOUS
10
2.19707
20
-6.08997
11
2.18957
21
-6.08622
0
LINE
8
BLACK
6
CONTINUOUS
10
2.18957
20
-6.08622
11
2.17833
21
-6.08622
0
LINE
8
BLACK
6
CONTINUOUS
10
2.17833
20
-6.08622
11
2.17083
21
-6.08247
0
LINE
8
BLACK
6
CONTINUOUS
10
2.17083
20
-6.08247
11
2.16708
21
-6.07497
0
LINE
8
BLACK
6
CONTINUOUS
10
2.16708
20
-6.07497
11
2.16708
21
-6.07122
0
LINE
8
BLACK
6
CONTINUOUS
10
2.16708
20
-6.07122
11
2.17083
21
-6.06372
0
LINE
8
BLACK
6
CONTINUOUS
10
2.17083
20
-6.06372
11
2.17833
21
-6.05997
0
LINE
8
BLACK
6
CONTINUOUS
10
2.17833
20
-6.05997
11
2.18957
21
-6.05997
0
LINE
8
BLACK
6
CONTINUOUS
10
2.18957
20
-6.05997
11
2.19707
21
-6.06372
0
LINE
8
BLACK
6
CONTINUOUS
10
2.22707
20
-6.14246
11
2.23082
21
-6.13871
0
LINE
8
BLACK
6
CONTINUOUS
10
2.23082
20
-6.13871
11
2.23832
21
-6.12746
0
LINE
8
BLACK
6
CONTINUOUS
10
2.23832
20
-6.12746
11
2.24207
21
-6.11997
0
LINE
8
BLACK
6
CONTINUOUS
10
2.24207
20
-6.11997
11
2.24582
21
-6.10872
0
LINE
8
BLACK
6
CONTINUOUS
10
2.24582
20
-6.10872
11
2.24957
21
-6.08997
0
LINE
8
BLACK
6
CONTINUOUS
10
2.24957
20
-6.08997
11
2.24957
21
-6.07497
0
LINE
8
BLACK
6
CONTINUOUS
10
2.24957
20
-6.07497
11
2.24582
21
-6.05622
0
LINE
8
BLACK
6
CONTINUOUS
10
2.24582
20
-6.05622
11
2.24207
21
-6.04497
0
LINE
8
BLACK
6
CONTINUOUS
10
2.24207
20
-6.04497
11
2.23832
21
-6.03748
0
LINE
8
BLACK
6
CONTINUOUS
10
2.23832
20
-6.03748
11
2.23082
21
-6.02623
0
LINE
8
BLACK
6
CONTINUOUS
10
2.23082
20
-6.02623
11
2.22707
21
-6.02248
  0
ENDSEC
  0
EOF
