%TF.GenerationSoftware,KiCad,Pcbnew,(6.99.0-5337-gc57e6db79a-dirty)*%
%TF.CreationDate,2023-01-23T18:05:37-05:00*%
%TF.ProjectId,at101w,61743130-3177-42e6-9b69-6361645f7063,rev?*%
%TF.SameCoordinates,Original*%
%TF.FileFunction,Paste,Bot*%
%TF.FilePolarity,Positive*%
%FSLAX46Y46*%
G04 Gerber Fmt 4.6, Leading zero omitted, Abs format (unit mm)*
G04 Created by KiCad (PCBNEW (6.99.0-5337-gc57e6db79a-dirty)) date 2023-01-23 18:05:37*
%MOMM*%
%LPD*%
G01*
G04 APERTURE LIST*
G04 Aperture macros list*
%AMRoundRect*
0 Rectangle with rounded corners*
0 $1 Rounding radius*
0 $2 $3 $4 $5 $6 $7 $8 $9 X,Y pos of 4 corners*
0 Add a 4 corners polygon primitive as box body*
4,1,4,$2,$3,$4,$5,$6,$7,$8,$9,$2,$3,0*
0 Add four circle primitives for the rounded corners*
1,1,$1+$1,$2,$3*
1,1,$1+$1,$4,$5*
1,1,$1+$1,$6,$7*
1,1,$1+$1,$8,$9*
0 Add four rect primitives between the rounded corners*
20,1,$1+$1,$2,$3,$4,$5,0*
20,1,$1+$1,$4,$5,$6,$7,0*
20,1,$1+$1,$6,$7,$8,$9,0*
20,1,$1+$1,$8,$9,$2,$3,0*%
G04 Aperture macros list end*
%ADD10R,0.650000X1.560000*%
%ADD11R,0.800000X1.900000*%
%ADD12R,1.200000X0.900000*%
%ADD13RoundRect,0.250000X-0.325000X-0.450000X0.325000X-0.450000X0.325000X0.450000X-0.325000X0.450000X0*%
%ADD14R,1.800000X1.100000*%
%ADD15RoundRect,0.150000X-0.587500X-0.150000X0.587500X-0.150000X0.587500X0.150000X-0.587500X0.150000X0*%
%ADD16RoundRect,0.250000X0.475000X-0.337500X0.475000X0.337500X-0.475000X0.337500X-0.475000X-0.337500X0*%
%ADD17RoundRect,0.250000X0.337500X0.475000X-0.337500X0.475000X-0.337500X-0.475000X0.337500X-0.475000X0*%
%ADD18RoundRect,0.250000X-0.350000X-0.450000X0.350000X-0.450000X0.350000X0.450000X-0.350000X0.450000X0*%
%ADD19R,1.400000X1.200000*%
%ADD20RoundRect,0.250000X0.350000X0.450000X-0.350000X0.450000X-0.350000X-0.450000X0.350000X-0.450000X0*%
%ADD21RoundRect,0.250000X-0.450000X0.350000X-0.450000X-0.350000X0.450000X-0.350000X0.450000X0.350000X0*%
%ADD22RoundRect,0.250000X0.450000X-0.350000X0.450000X0.350000X-0.450000X0.350000X-0.450000X-0.350000X0*%
%ADD23RoundRect,0.250000X-0.262500X-0.450000X0.262500X-0.450000X0.262500X0.450000X-0.262500X0.450000X0*%
%ADD24RoundRect,0.150000X0.587500X0.150000X-0.587500X0.150000X-0.587500X-0.150000X0.587500X-0.150000X0*%
%ADD25RoundRect,0.250000X0.250000X0.475000X-0.250000X0.475000X-0.250000X-0.475000X0.250000X-0.475000X0*%
%ADD26RoundRect,0.150000X-0.150000X0.825000X-0.150000X-0.825000X0.150000X-0.825000X0.150000X0.825000X0*%
%ADD27R,1.500000X1.000000*%
%ADD28RoundRect,0.250000X-0.337500X-0.475000X0.337500X-0.475000X0.337500X0.475000X-0.337500X0.475000X0*%
%ADD29RoundRect,0.250000X-0.475000X0.337500X-0.475000X-0.337500X0.475000X-0.337500X0.475000X0.337500X0*%
%ADD30RoundRect,0.075000X0.700000X0.075000X-0.700000X0.075000X-0.700000X-0.075000X0.700000X-0.075000X0*%
%ADD31RoundRect,0.075000X0.075000X0.700000X-0.075000X0.700000X-0.075000X-0.700000X0.075000X-0.700000X0*%
%ADD32RoundRect,0.150000X-0.150000X-0.625000X0.150000X-0.625000X0.150000X0.625000X-0.150000X0.625000X0*%
%ADD33RoundRect,0.250000X-0.350000X-0.650000X0.350000X-0.650000X0.350000X0.650000X-0.350000X0.650000X0*%
%ADD34RoundRect,0.250000X-0.250000X-0.475000X0.250000X-0.475000X0.250000X0.475000X-0.250000X0.475000X0*%
%ADD35RoundRect,0.150000X-0.512500X-0.150000X0.512500X-0.150000X0.512500X0.150000X-0.512500X0.150000X0*%
%ADD36RoundRect,0.250000X-0.450000X0.262500X-0.450000X-0.262500X0.450000X-0.262500X0.450000X0.262500X0*%
G04 APERTURE END LIST*
D10*
X432849999Y-37049999D03*
X433799999Y-37049999D03*
X434749999Y-37049999D03*
X434749999Y-39749999D03*
X433799999Y-39749999D03*
X432849999Y-39749999D03*
D11*
X417759999Y-41869999D03*
X419659999Y-41869999D03*
X418709999Y-44869999D03*
D12*
X26599999Y-17849999D03*
X26599999Y-14549999D03*
X64649999Y-17849999D03*
X64649999Y-14549999D03*
X83699999Y-17849999D03*
X83699999Y-14549999D03*
X102749999Y-17849999D03*
X102749999Y-14549999D03*
X121799999Y-17849999D03*
X121799999Y-14549999D03*
X150399999Y-17849999D03*
X150399999Y-14549999D03*
X169399999Y-17849999D03*
X169399999Y-14549999D03*
X188449999Y-17849999D03*
X188449999Y-14549999D03*
X207499999Y-17849999D03*
X207499999Y-14549999D03*
X236099999Y-17849999D03*
X236099999Y-14549999D03*
X255149999Y-17849999D03*
X255149999Y-14549999D03*
X274199999Y-17849999D03*
X274199999Y-14549999D03*
X293249999Y-17849999D03*
X293249999Y-14549999D03*
X319249999Y-17849999D03*
X319249999Y-14549999D03*
X338299999Y-17849999D03*
X338299999Y-14549999D03*
X357349999Y-17849999D03*
X357349999Y-14549999D03*
X26549999Y-55949999D03*
X26549999Y-52649999D03*
X45599999Y-55949999D03*
X45599999Y-52649999D03*
X64649999Y-55949999D03*
X64649999Y-52649999D03*
X83699999Y-55949999D03*
X83699999Y-52649999D03*
X102749999Y-55949999D03*
X102749999Y-52649999D03*
X121799999Y-55949999D03*
X121799999Y-52649999D03*
X140849999Y-55949999D03*
X140849999Y-52649999D03*
X159899999Y-55949999D03*
X159899999Y-52649999D03*
X178949999Y-55949999D03*
X178949999Y-52649999D03*
X197999999Y-55949999D03*
X197999999Y-52649999D03*
X217049999Y-55949999D03*
X217049999Y-52649999D03*
X236099999Y-55949999D03*
X236099999Y-52649999D03*
X255149999Y-55949999D03*
X255149999Y-52649999D03*
X283749999Y-55949999D03*
X283749999Y-52649999D03*
X319249999Y-55949999D03*
X319249999Y-52649999D03*
X338299999Y-55949999D03*
X338299999Y-52649999D03*
X357349999Y-55949999D03*
X357349999Y-52649999D03*
X368349999Y-58349999D03*
X368349999Y-61649999D03*
X387399999Y-58349999D03*
X387399999Y-61649999D03*
X421449999Y-55949999D03*
X421449999Y-52649999D03*
X439499999Y-55949999D03*
X439499999Y-52649999D03*
X31299999Y-74999999D03*
X31299999Y-71699999D03*
X55099999Y-74999999D03*
X55099999Y-71699999D03*
X74149999Y-74999999D03*
X74149999Y-71699999D03*
X93249999Y-74999999D03*
X93249999Y-71699999D03*
X112299999Y-74999999D03*
X112299999Y-71699999D03*
X131349999Y-74999999D03*
X131349999Y-71699999D03*
X150349999Y-74999999D03*
X150349999Y-71699999D03*
X169399999Y-74999999D03*
X169399999Y-71699999D03*
X188449999Y-74999999D03*
X188449999Y-71699999D03*
X207549999Y-74999999D03*
X207549999Y-71699999D03*
X226599999Y-74999999D03*
X226599999Y-71699999D03*
X245599999Y-74999999D03*
X245599999Y-71699999D03*
X264649999Y-74999999D03*
X264649999Y-71699999D03*
X288499999Y-74999999D03*
X288499999Y-71699999D03*
X319249999Y-74999999D03*
X319249999Y-71699999D03*
X338299999Y-74999999D03*
X338299999Y-71699999D03*
X357349999Y-74999999D03*
X357349999Y-71699999D03*
X383349999Y-74999999D03*
X383349999Y-71699999D03*
X402399999Y-74999999D03*
X402399999Y-71699999D03*
X421449999Y-74999999D03*
X421449999Y-71699999D03*
X439499999Y-74999999D03*
X439499999Y-71699999D03*
X33699999Y-94049999D03*
X33699999Y-90749999D03*
X59899999Y-94049999D03*
X59899999Y-90749999D03*
X78949999Y-94049999D03*
X78949999Y-90749999D03*
X97999999Y-94049999D03*
X97999999Y-90749999D03*
X117049999Y-94049999D03*
X117049999Y-90749999D03*
X136099999Y-94049999D03*
X136099999Y-90749999D03*
X155149999Y-94049999D03*
X155149999Y-90749999D03*
X174199999Y-94049999D03*
X174199999Y-90749999D03*
X193249999Y-94049999D03*
X193249999Y-90749999D03*
X212299999Y-94049999D03*
X212299999Y-90749999D03*
X231349999Y-94049999D03*
X231349999Y-90749999D03*
X250399999Y-94049999D03*
X250399999Y-90749999D03*
X281349999Y-94049999D03*
X281349999Y-90749999D03*
X383349999Y-94049999D03*
X383349999Y-90749999D03*
X402399999Y-94049999D03*
X402399999Y-90749999D03*
X421449999Y-94049999D03*
X421449999Y-90749999D03*
X425499999Y-96449999D03*
X425499999Y-99749999D03*
X26249999Y-115949999D03*
X26249999Y-112649999D03*
X69399999Y-113099999D03*
X69399999Y-109799999D03*
X88449999Y-113099999D03*
X88449999Y-109799999D03*
X107499999Y-113099999D03*
X107499999Y-109799999D03*
X126549999Y-113099999D03*
X126549999Y-109799999D03*
X145599999Y-113099999D03*
X145599999Y-109799999D03*
X164649999Y-113099999D03*
X164649999Y-109799999D03*
X183699999Y-113099999D03*
X183699999Y-109799999D03*
X202749999Y-113099999D03*
X202749999Y-109799999D03*
X221799999Y-113099999D03*
X221799999Y-109799999D03*
X240849999Y-113099999D03*
X240849999Y-109799999D03*
X264249999Y-115949999D03*
X264249999Y-112649999D03*
X293249999Y-113099999D03*
X293249999Y-109799999D03*
X338299999Y-113099999D03*
X338299999Y-109799999D03*
X383349999Y-113099999D03*
X383349999Y-109799999D03*
X402399999Y-113099999D03*
X402399999Y-109799999D03*
X421449999Y-113099999D03*
X421449999Y-109799999D03*
X428499999Y-114649999D03*
X428499999Y-117949999D03*
X28949999Y-132149999D03*
X28949999Y-128849999D03*
X52749999Y-132149999D03*
X52749999Y-128849999D03*
X76549999Y-132149999D03*
X76549999Y-128849999D03*
X146449999Y-132149999D03*
X146449999Y-128849999D03*
X219449999Y-132149999D03*
X219449999Y-128849999D03*
X264649999Y-134049999D03*
X264649999Y-137349999D03*
X267049999Y-132149999D03*
X267049999Y-128849999D03*
X290849999Y-132149999D03*
X290849999Y-128849999D03*
X319249999Y-132149999D03*
X319249999Y-128849999D03*
X338299999Y-132149999D03*
X338299999Y-128849999D03*
X357349999Y-132149999D03*
X357349999Y-128849999D03*
X392849999Y-132149999D03*
X392849999Y-128849999D03*
X421449999Y-132149999D03*
X421449999Y-128849999D03*
X50349999Y-113099999D03*
X50349999Y-109799999D03*
D13*
X429505000Y-38430000D03*
X431555000Y-38430000D03*
D14*
X428749999Y-48679999D03*
X434949999Y-44979999D03*
X428749999Y-44979999D03*
X434949999Y-48679999D03*
D15*
X417387500Y-31605000D03*
X417387500Y-29705000D03*
X419262500Y-30655000D03*
D16*
X387735000Y-27325000D03*
X387735000Y-25250000D03*
D17*
X418945000Y-23625000D03*
X416870000Y-23625000D03*
D18*
X418175000Y-33375000D03*
X420175000Y-33375000D03*
D19*
X403514999Y-33454999D03*
X405714999Y-33454999D03*
X405714999Y-35154999D03*
X403514999Y-35154999D03*
D20*
X408885000Y-27885000D03*
X406885000Y-27885000D03*
D21*
X382465000Y-31565000D03*
X382465000Y-33565000D03*
D22*
X391115000Y-45445000D03*
X391115000Y-43445000D03*
D20*
X392815000Y-15545000D03*
X390815000Y-15545000D03*
D23*
X387202500Y-16445000D03*
X389027500Y-16445000D03*
D24*
X414205000Y-34435000D03*
X414205000Y-36335000D03*
X412330000Y-35385000D03*
D16*
X389745000Y-27317500D03*
X389745000Y-25242500D03*
D25*
X401775000Y-19505000D03*
X399875000Y-19505000D03*
D16*
X385755000Y-27325000D03*
X385755000Y-25250000D03*
D21*
X386015000Y-18845000D03*
X386015000Y-20845000D03*
D26*
X391910000Y-18180000D03*
X393180000Y-18180000D03*
X394450000Y-18180000D03*
X395720000Y-18180000D03*
X395720000Y-23130000D03*
X394450000Y-23130000D03*
X393180000Y-23130000D03*
X391910000Y-23130000D03*
D22*
X419495000Y-27865000D03*
X419495000Y-25865000D03*
D20*
X419865000Y-36565000D03*
X417865000Y-36565000D03*
D16*
X381815000Y-27362500D03*
X381815000Y-25287500D03*
D27*
X402947812Y-21744999D03*
X402947812Y-24944999D03*
X398047812Y-24944999D03*
X398047812Y-21744999D03*
D28*
X429530000Y-35850000D03*
X431605000Y-35850000D03*
D16*
X379825000Y-27375000D03*
X379825000Y-25300000D03*
D20*
X417215000Y-25945000D03*
X415215000Y-25945000D03*
D28*
X402640000Y-38738750D03*
X404715000Y-38738750D03*
D27*
X428347812Y-21744999D03*
X428347812Y-24944999D03*
X423447812Y-24944999D03*
X423447812Y-21744999D03*
X377547799Y-21744999D03*
X377547799Y-24944999D03*
X372647799Y-24944999D03*
X372647799Y-21744999D03*
D21*
X384015000Y-18845000D03*
X384015000Y-20845000D03*
D25*
X376595000Y-19415000D03*
X374695000Y-19415000D03*
D29*
X423015000Y-35907500D03*
X423015000Y-37982500D03*
D24*
X413195000Y-39165000D03*
X413195000Y-41065000D03*
X411320000Y-40115000D03*
D28*
X398415000Y-44145000D03*
X400490000Y-44145000D03*
D16*
X409055000Y-41215000D03*
X409055000Y-39140000D03*
X383775000Y-27355000D03*
X383775000Y-25280000D03*
D30*
X399560000Y-31705000D03*
X399560000Y-32205000D03*
X399560000Y-32705000D03*
X399560000Y-33205000D03*
X399560000Y-33705000D03*
X399560000Y-34205000D03*
X399560000Y-34705000D03*
X399560000Y-35205000D03*
X399560000Y-35705000D03*
X399560000Y-36205000D03*
X399560000Y-36705000D03*
X399560000Y-37205000D03*
X399560000Y-37705000D03*
X399560000Y-38205000D03*
X399560000Y-38705000D03*
X399560000Y-39205000D03*
D31*
X397635000Y-41130000D03*
X397135000Y-41130000D03*
X396635000Y-41130000D03*
X396135000Y-41130000D03*
X395635000Y-41130000D03*
X395135000Y-41130000D03*
X394635000Y-41130000D03*
X394135000Y-41130000D03*
X393635000Y-41130000D03*
X393135000Y-41130000D03*
X392635000Y-41130000D03*
X392135000Y-41130000D03*
X391635000Y-41130000D03*
X391135000Y-41130000D03*
X390635000Y-41130000D03*
X390135000Y-41130000D03*
D30*
X388210000Y-39205000D03*
X388210000Y-38705000D03*
X388210000Y-38205000D03*
X388210000Y-37705000D03*
X388210000Y-37205000D03*
X388210000Y-36705000D03*
X388210000Y-36205000D03*
X388210000Y-35705000D03*
X388210000Y-35205000D03*
X388210000Y-34705000D03*
X388210000Y-34205000D03*
X388210000Y-33705000D03*
X388210000Y-33205000D03*
X388210000Y-32705000D03*
X388210000Y-32205000D03*
X388210000Y-31705000D03*
D31*
X390135000Y-29780000D03*
X390635000Y-29780000D03*
X391135000Y-29780000D03*
X391635000Y-29780000D03*
X392135000Y-29780000D03*
X392635000Y-29780000D03*
X393135000Y-29780000D03*
X393635000Y-29780000D03*
X394135000Y-29780000D03*
X394635000Y-29780000D03*
X395135000Y-29780000D03*
X395635000Y-29780000D03*
X396135000Y-29780000D03*
X396635000Y-29780000D03*
X397135000Y-29780000D03*
X397635000Y-29780000D03*
D32*
X432530000Y-20370000D03*
X433530000Y-20370000D03*
X434530000Y-20370000D03*
X435530000Y-20370000D03*
D33*
X431230000Y-16495000D03*
X436830000Y-16495000D03*
D34*
X423435000Y-27195000D03*
X425335000Y-27195000D03*
D28*
X407925000Y-35175000D03*
X410000000Y-35175000D03*
D35*
X383140000Y-16845000D03*
X383140000Y-15895000D03*
X383140000Y-14945000D03*
X385415000Y-14945000D03*
X385415000Y-16845000D03*
D36*
X384625000Y-41872500D03*
X384625000Y-43697500D03*
D24*
X381735000Y-41635000D03*
X381735000Y-43535000D03*
X379860000Y-42585000D03*
D20*
X408885000Y-25885000D03*
X406885000Y-25885000D03*
D21*
X388015000Y-18845000D03*
X388015000Y-20845000D03*
D28*
X403380000Y-31565000D03*
X405455000Y-31565000D03*
D34*
X374745000Y-45705000D03*
X376645000Y-45705000D03*
D29*
X389115000Y-43370000D03*
X389115000Y-45445000D03*
M02*
