M48
; DRILL file {KiCad (6.99.0-5337-gc57e6db79a-dirty)} date Mon 23 Jan 2023 05:58:30 PM EST
; FORMAT={-:-/ absolute / inch / decimal}
; #@! TF.CreationDate,2023-01-23T17:58:30-05:00
; #@! TF.GenerationSoftware,Kicad,Pcbnew,(6.99.0-5337-gc57e6db79a-dirty)
; #@! TF.FileFunction,Plated,1,2,PTH
FMAT,2
INCH
; #@! TA.AperFunction,Plated,PTH,ViaDrill
T1C0.0157
; #@! TA.AperFunction,Plated,PTH,ComponentDrill
T2C0.0354
; #@! TA.AperFunction,Plated,PTH,ComponentDrill
T3C0.0579
; #@! TA.AperFunction,Plated,PTH,ComponentDrill
T4C0.1450
%
G90
G05
T1
X0.4941Y-2.7283
X0.5197Y-0.6181
X0.5236Y-4.0945
X0.5256Y-5.4114
X0.5335Y-1.5098
X0.6516Y-1.2362
X1.2835Y-1.5551
X1.3445Y-5.3701
X1.4724Y-4.7835
X1.5059Y-0.5433
X1.5157Y-2.622
X1.6004Y-0.9449
X1.6713Y-3.3563
X1.9213Y-4.4528
X1.935Y-3.9921
X2.0768Y-5.2559
X2.3583Y-5.4035
X2.3642Y-4.7756
X2.9016Y-1.2047
X3.0177Y-2.5551
X3.25Y-3.2835
X3.4055Y-1.4882
X3.439Y-0.5768
X3.4626Y-4.0197
X3.5354Y-0.9449
X3.5531Y-4.8465
X4.0669Y-5.3701
X4.4016Y-1.1831
X4.4862Y-2.4154
X4.75Y-4.8563
X4.8071Y-3.2264
X5.1339Y-1.4528
X5.1358Y-0.563
X5.1496Y-3.9783
X5.252Y-0.9606
X5.752Y-5.376
X6.0866Y-2.5138
X6.2766Y-1.1624
X6.3169Y-3.2441
X6.5669Y-3.9724
X6.6831Y-4.878
X6.8268Y-0.5709
X6.9193Y-0.9193
X7.3071Y-2.5276
X7.3386Y-5.3858
X7.7421Y-3.3051
X7.7766Y-1.1368
X8.0138Y-4.8976
X8.0276Y-3.9055
X8.4035Y-1.5807
X8.5394Y-0.5571
X8.5433Y-0.9803
X8.8642Y-2.5079
X9.061Y-3.3091
X9.5276Y-4.0197
X9.6516Y-1.1161
X10.0965Y-0.9291
X10.1319Y-1.498
X10.1594Y-4.8366
X10.2244Y-0.5748
X10.5787Y-3.3307
X11.126Y-2.5138
X11.1516Y-1.0945
X11.7776Y-0.935
X11.8189Y-0.5669
X11.8878Y-3.9665
X12.0531Y-4.8425
X12.1083Y-3.315
X12.1457Y-1.628
X12.4291Y-5.4311
X12.925Y-1.0744
X13.2362Y-2.5492
X13.4685Y-0.565
X13.8563Y-3.3209
X14.0197Y-0.8937
X14.0394Y-4.7795
X14.1102Y-5.3976
X14.2579Y-2.5906
X14.5821Y-1.3986
X14.5825Y-1.9085
X14.8285Y-1.7344
X14.8762Y-0.7541
X14.8864Y-1.6317
X14.8864Y-1.9703
X14.8953Y-2.1555
X14.9415Y-1.2459
X15.0124Y-1.9742
X15.0203Y-1.175
X15.0911Y-1.175
X15.1557Y-1.2825
X15.1624Y-1.9305
X15.1732Y-3.3504
X15.1759Y-1.3181
X15.1831Y-4.1437
X15.1969Y-2.6024
X15.2343Y-2.1752
X15.2368Y-1.6356
X15.2404Y-1.7829
X15.2447Y-0.8994
X15.2762Y-0.5884
X15.3116Y-1.6396
X15.3494Y-1.2892
X15.3671Y-0.6646
X15.3775Y-0.7877
X15.3785Y-0.9112
X15.3839Y-0.7051
X15.3884Y-1.0313
X15.3957Y-4.8209
X15.4124Y-1.5553
X15.4337Y-1.1041
X15.477Y-1.0333
X15.4785Y-1.0947
X15.5079Y-2.1811
X15.5096Y-1.5407
X15.5197Y-2.0472
X15.5263Y-1.2582
X15.5313Y-1.0823
X15.5565Y-1.2329
X15.5673Y-1.1122
X15.6127Y-1.9838
X15.6187Y-0.8482
X15.6211Y-2.0336
X15.651Y-1.375
X15.6565Y-1.9882
X15.6659Y-1.5608
X15.6699Y-0.7222
X15.693Y-1.7913
X15.6951Y-2.0018
X15.7069Y-1.1719
X15.7175Y-1.2098
X15.7205Y-2.6437
X15.7307Y-1.6435
X15.7388Y-2.0047
X15.746Y-1.966
X15.7638Y-5.4154
X15.7644Y-1.5963
X15.7692Y-1.9339
X15.7722Y-1.1789
X15.7959Y-1.4388
X15.7972Y-5.2343
X15.8181Y-1.9883
X15.8248Y-5.2028
X15.8258Y-1.3585
X15.8563Y-4.5059
X15.8574Y-1.9853
X15.8628Y-1.0411
X15.8667Y-1.5805
X15.8703Y-0.775
X15.878Y-4.3957
X15.9066Y-1.5842
X15.9134Y-3.7343
X15.9213Y-3.6929
X15.9429Y-2.9409
X15.9809Y-1.4416
X15.9829Y-2.9409
X15.9839Y-2.0244
X15.9887Y-2.9828
X16.0079Y-4.0551
X16.0099Y-1.5309
X16.0197Y-4.8819
X16.0531Y-3.3091
X16.0906Y-2.8937
X16.0945Y-2.5709
X16.1063Y-2.1339
X16.1256Y-1.8343
X16.1276Y-1.9004
X16.1431Y-1.4333
X16.1463Y-1.2026
X16.1502Y-1.2931
X16.1532Y-1.8678
X16.1693Y-0.7147
X16.1702Y-0.6752
X16.1929Y-2.2953
X16.2329Y-1.2144
X16.2356Y-1.9085
X16.236Y-1.8648
X16.2447Y-1.2616
X16.2561Y-1.8309
X16.3114Y-1.2772
X16.3439Y-1.5045
X16.3589Y-1.1947
X16.3595Y-1.4416
X16.3667Y-1.3561
X16.3695Y-1.2455
X16.4219Y-1.0805
X16.4272Y-1.7933
X16.4459Y-1.4951
X16.4679Y-1.9085
X16.5236Y-4.813
X16.6041Y-0.9872
X16.7907Y-0.9923
X16.8037Y-0.7813
X16.9252Y-3.3642
X16.9315Y-1.7008
X16.9862Y-1.5689
X16.9933Y-1.3445
X17.0079Y-2.5846
X17.0515Y-1.6641
X17.0556Y-1.7045
X17.0681Y-1.3752
X17.0803Y-1.6252
X17.1142Y-4.2992
X17.1433Y-1.3996
X17.1516Y-1.626
X17.1525Y-1.4683
X17.25Y-5.376
T2
X14.6926Y-0.9191
X14.7426Y-0.9191
X14.7926Y-0.9191
X14.8426Y-0.9191
X15.6926Y-0.9191
X15.7426Y-0.9191
X15.7926Y-0.9191
X15.8426Y-0.9191
X16.6926Y-0.9191
X16.7426Y-0.9191
X16.7926Y-0.9191
X16.8426Y-0.9191
T3
X0.6516Y-0.5925
X0.6516Y-2.0925
X0.7453Y-3.5925
X0.7453Y-4.3425
X0.7453Y-5.0925
X0.8391Y-2.8425
X0.8391Y-3.9272
X0.8391Y-5.4272
X0.8484Y-0.5728
X0.8484Y-2.0728
X0.9328Y-3.5925
X0.9422Y-3.5728
X0.9422Y-4.3228
X0.9422Y-5.0728
X1.0359Y-2.8228
X1.0359Y-3.9075
X1.0359Y-5.4075
X1.1203Y-4.3425
X1.1297Y-3.5728
X1.3172Y-4.3228
X1.4016Y-2.0925
X1.5891Y-4.3425
X1.5984Y-2.0728
X1.6828Y-5.0925
X1.7766Y-2.8425
X1.7766Y-5.4272
X1.7859Y-4.3228
X1.8797Y-5.0728
X1.9641Y-3.5925
X1.9734Y-2.8228
X1.9734Y-5.4075
X2.1516Y-0.5925
X2.1516Y-2.0925
X2.1609Y-3.5728
X2.3391Y-4.3425
X2.3484Y-0.5728
X2.3484Y-2.0728
X2.5266Y-2.8425
X2.5359Y-4.3228
X2.6203Y-5.0925
X2.7141Y-3.5925
X2.7141Y-5.4272
X2.7234Y-2.8228
X2.8172Y-5.0728
X2.9016Y-0.5925
X2.9016Y-2.0925
X2.9109Y-3.5728
X2.9109Y-5.4075
X3.0891Y-4.3425
X3.0984Y-0.5728
X3.0984Y-2.0728
X3.2766Y-2.8425
X3.2859Y-4.3228
X3.4641Y-3.5925
X3.4734Y-2.8228
X3.6516Y-0.5925
X3.6516Y-2.0925
X3.6609Y-3.5728
X3.8391Y-4.3425
X3.8484Y-0.5728
X3.8484Y-2.0728
X4.0266Y-2.8425
X4.0359Y-4.3228
X4.2141Y-3.5925
X4.2234Y-2.8228
X4.4016Y-0.5925
X4.4016Y-2.0925
X4.4109Y-3.5728
X4.5891Y-4.3425
X4.5984Y-0.5728
X4.5984Y-2.0728
X4.7766Y-2.8425
X4.7859Y-4.3228
X4.9641Y-3.5925
X4.9734Y-2.8228
X5.1516Y-2.0925
X5.1609Y-3.5728
X5.3391Y-4.3425
X5.3484Y-2.0728
X5.4328Y-5.0925
X5.5266Y-0.5925
X5.5266Y-2.8425
X5.5359Y-4.3228
X5.6297Y-5.0728
X5.7141Y-3.5925
X5.7234Y-0.5728
X5.7234Y-2.8228
X5.9016Y-2.0925
X5.9016Y-5.0925
X5.9109Y-3.5728
X6.0891Y-4.3425
X6.0984Y-2.0728
X6.0984Y-5.0728
X6.2766Y-0.5925
X6.2766Y-2.8425
X6.2859Y-4.3228
X6.4641Y-3.5925
X6.4734Y-0.5728
X6.4734Y-2.8228
X6.6516Y-2.0925
X6.6609Y-3.5728
X6.8391Y-4.3425
X6.8484Y-2.0728
X7.0266Y-0.5925
X7.0266Y-2.8425
X7.0359Y-4.3228
X7.2141Y-3.5925
X7.2234Y-0.5728
X7.2234Y-2.8228
X7.4016Y-2.0925
X7.4109Y-3.5728
X7.5891Y-4.3425
X7.5984Y-2.0728
X7.7766Y-0.5925
X7.7766Y-2.8425
X7.7859Y-4.3228
X7.9641Y-3.5925
X7.9734Y-0.5728
X7.9734Y-2.8228
X8.1516Y-2.0925
X8.1609Y-3.5728
X8.2453Y-5.0925
X8.3391Y-4.3425
X8.3484Y-2.0728
X8.4422Y-5.0728
X8.5266Y-2.8425
X8.5359Y-4.3228
X8.7141Y-3.5925
X8.7234Y-2.8228
X8.9016Y-0.5925
X8.9016Y-2.0925
X8.9109Y-3.5728
X9.0891Y-4.3425
X9.0891Y-5.4272
X9.0984Y-0.5728
X9.0984Y-2.0728
X9.1828Y-5.0925
X9.2766Y-2.8425
X9.2859Y-4.3228
X9.2859Y-5.4075
X9.3797Y-5.0728
X9.4641Y-3.5925
X9.4734Y-2.8228
X9.6516Y-0.5925
X9.6516Y-2.0925
X9.6609Y-3.5728
X9.8484Y-0.5728
X9.8484Y-2.0728
X10.0266Y-2.8425
X10.0266Y-5.4272
X10.1203Y-4.3425
X10.1203Y-5.0925
X10.2141Y-3.5925
X10.2234Y-2.8228
X10.2234Y-5.4075
X10.3172Y-4.3228
X10.3172Y-5.0728
X10.4016Y-0.5925
X10.4109Y-3.5728
X10.4953Y-4.3425
X10.5984Y-0.5728
X10.6828Y-3.5925
X10.6922Y-4.3228
X10.7766Y-2.0925
X10.8797Y-3.5728
X10.9641Y-2.8425
X10.9641Y-5.4272
X10.9734Y-2.0728
X11.0578Y-3.2175
X11.0578Y-5.0925
X11.1516Y-0.5925
X11.1516Y-4.3425
X11.1609Y-2.8228
X11.1609Y-5.4075
X11.2044Y-3.2766
X11.224Y-3.4734
X11.2547Y-3.1978
X11.2547Y-5.0728
X11.3137Y-3.2766
X11.3334Y-3.4734
X11.3484Y-0.5728
X11.3484Y-4.3228
X11.4231Y-3.2766
X11.4428Y-3.4734
X12.175Y-0.5925
X12.175Y-2.0925
X12.175Y-2.8425
X12.175Y-5.0925
X12.3719Y-0.5728
X12.3719Y-2.0728
X12.3719Y-2.8228
X12.3719Y-5.0728
X12.925Y-0.5925
X12.925Y-2.0925
X12.925Y-2.8425
X12.925Y-4.3425
X12.925Y-5.0925
X13.1219Y-0.5728
X13.1219Y-2.0728
X13.1219Y-2.8228
X13.1219Y-4.3228
X13.1219Y-5.0728
X13.675Y-0.5925
X13.675Y-2.0925
X13.675Y-2.8425
X13.675Y-5.0925
X13.8719Y-0.5728
X13.8719Y-2.0728
X13.8719Y-2.8228
X13.8719Y-5.0728
X14.6984Y-2.4272
X14.6984Y-2.8425
X14.6984Y-3.5925
X14.6984Y-4.3425
X14.8953Y-2.4075
X14.8953Y-2.8228
X14.8953Y-3.5728
X14.8953Y-4.3228
X15.0734Y-5.0925
X15.2703Y-5.0728
X15.4484Y-2.4272
X15.4484Y-2.8425
X15.4484Y-3.5925
X15.4484Y-4.3425
X15.6453Y-2.4075
X15.6453Y-2.8228
X15.6453Y-3.5728
X15.6453Y-4.3228
X16.1984Y-2.0925
X16.1984Y-2.8425
X16.1984Y-3.5925
X16.1984Y-4.3425
X16.1984Y-5.0925
X16.3953Y-2.0728
X16.3953Y-2.8228
X16.3953Y-3.5728
X16.3953Y-4.3228
X16.3953Y-5.0728
X16.8697Y-4.7766
X16.8894Y-4.9734
X16.9484Y-2.0925
X16.9484Y-2.8425
X16.9484Y-3.9272
X17.1453Y-2.0728
X17.1453Y-2.8228
X17.1453Y-3.9075
X17.2044Y-3.2766
X17.224Y-3.4734
T4
X2.25Y-1.5
X7.125Y-1.5
X13.0234Y-3.75
X13.7734Y-1.5
X13.9062Y-4.125
T0
M30
