%TF.GenerationSoftware,KiCad,Pcbnew,(6.99.0-5337-gc57e6db79a-dirty)*%
%TF.CreationDate,2023-01-23T18:05:37-05:00*%
%TF.ProjectId,at101w,61743130-3177-42e6-9b69-6361645f7063,rev?*%
%TF.SameCoordinates,Original*%
%TF.FileFunction,Legend,Top*%
%TF.FilePolarity,Positive*%
%FSLAX46Y46*%
G04 Gerber Fmt 4.6, Leading zero omitted, Abs format (unit mm)*
G04 Created by KiCad (PCBNEW (6.99.0-5337-gc57e6db79a-dirty)) date 2023-01-23 18:05:37*
%MOMM*%
%LPD*%
G01*
G04 APERTURE LIST*
%ADD10C,0.150000*%
%ADD11C,0.120000*%
%ADD12C,6.350000*%
%ADD13R,2.200000X2.200000*%
%ADD14O,1.070000X1.800000*%
%ADD15R,1.070000X1.800000*%
G04 APERTURE END LIST*
D10*
X373548571Y-43239761D02*
X373596190Y-43096904D01*
X373596190Y-43096904D02*
X373643809Y-43049285D01*
X373643809Y-43049285D02*
X373739047Y-43001666D01*
X373739047Y-43001666D02*
X373881904Y-43001666D01*
X373881904Y-43001666D02*
X373977142Y-43049285D01*
X373977142Y-43049285D02*
X374024761Y-43096904D01*
X374024761Y-43096904D02*
X374072380Y-43192142D01*
X374072380Y-43192142D02*
X374072380Y-43573094D01*
X374072380Y-43573094D02*
X373072380Y-43573094D01*
X373072380Y-43573094D02*
X373072380Y-43239761D01*
X373072380Y-43239761D02*
X373120000Y-43144523D01*
X373120000Y-43144523D02*
X373167619Y-43096904D01*
X373167619Y-43096904D02*
X373262857Y-43049285D01*
X373262857Y-43049285D02*
X373358095Y-43049285D01*
X373358095Y-43049285D02*
X373453333Y-43096904D01*
X373453333Y-43096904D02*
X373500952Y-43144523D01*
X373500952Y-43144523D02*
X373548571Y-43239761D01*
X373548571Y-43239761D02*
X373548571Y-43573094D01*
X373072380Y-42573094D02*
X373881904Y-42573094D01*
X373881904Y-42573094D02*
X373977142Y-42525475D01*
X373977142Y-42525475D02*
X374024761Y-42477856D01*
X374024761Y-42477856D02*
X374072380Y-42382618D01*
X374072380Y-42382618D02*
X374072380Y-42192142D01*
X374072380Y-42192142D02*
X374024761Y-42096904D01*
X374024761Y-42096904D02*
X373977142Y-42049285D01*
X373977142Y-42049285D02*
X373881904Y-42001666D01*
X373881904Y-42001666D02*
X373072380Y-42001666D01*
X373072380Y-41620713D02*
X373072380Y-40954047D01*
X373072380Y-40954047D02*
X374072380Y-41620713D01*
X374072380Y-41620713D02*
X374072380Y-40954047D01*
X374072380Y-40049285D02*
X374072380Y-40620713D01*
X374072380Y-40334999D02*
X373072380Y-40334999D01*
X373072380Y-40334999D02*
X373215238Y-40430237D01*
X373215238Y-40430237D02*
X373310476Y-40525475D01*
X373310476Y-40525475D02*
X373358095Y-40620713D01*
D11*
X363605000Y-47435000D02*
X363605000Y-36235000D01*
X366855000Y-47435000D02*
X363605000Y-47435000D01*
X372805000Y-47435000D02*
X369555000Y-47435000D01*
X363605000Y-36235000D02*
X366855000Y-36235000D01*
X369555000Y-36235000D02*
X372805000Y-36235000D01*
X372805000Y-36235000D02*
X372805000Y-47435000D01*
%LPC*%
D12*
X57150000Y-38100000D03*
X180975000Y-38100000D03*
X349845313Y-38100000D03*
X330795313Y-95250000D03*
X353218750Y-104775000D03*
D13*
X368204999Y-48434999D03*
X368204999Y-35234999D03*
D14*
X399862812Y-23344999D03*
X402402812Y-23344999D03*
D15*
X401132812Y-23344999D03*
D14*
X398592812Y-23344999D03*
X425262812Y-23344999D03*
X427802812Y-23344999D03*
D15*
X426532812Y-23344999D03*
D14*
X423992812Y-23344999D03*
X374462799Y-23344999D03*
X377002799Y-23344999D03*
D15*
X375732799Y-23344999D03*
D14*
X373192799Y-23344999D03*
M02*
